%TF.GenerationSoftware,KiCad,Pcbnew,10.0.2*%
%TF.CreationDate,2026-07-19T10:05:03+10:00*%
%TF.ProjectId,carrier,63617272-6965-4722-9e6b-696361645f70,rev?*%
%TF.SameCoordinates,Original*%
%TF.FileFunction,Soldermask,Bot*%
%TF.FilePolarity,Negative*%
%FSLAX46Y46*%
G04 Gerber Fmt 4.6, Leading zero omitted, Abs format (unit mm)*
G04 Created by KiCad (PCBNEW 10.0.2) date 2026-07-19 10:05:03*
%MOMM*%
%LPD*%
G01*
G04 APERTURE LIST*
%ADD10C,3.200000*%
%ADD11R,1.200000X2.000000*%
%ADD12O,1.200000X2.000000*%
%ADD13R,1.700000X1.700000*%
%ADD14C,1.700000*%
G04 APERTURE END LIST*
D10*
%TO.C,H4*%
X119800000Y-94800000D03*
%TD*%
%TO.C,H1*%
X54000000Y-54000000D03*
%TD*%
D11*
%TO.C,U1*%
X63000000Y-80860000D03*
D12*
X65540000Y-80860000D03*
X68080000Y-80860000D03*
X70620000Y-80860000D03*
X73160000Y-80860000D03*
X75700000Y-80860000D03*
X78240000Y-80860000D03*
X80780000Y-80860000D03*
X83320000Y-80860000D03*
X85860000Y-80860000D03*
X88400000Y-80860000D03*
X90940000Y-80860000D03*
X93480000Y-80860000D03*
X96020000Y-80860000D03*
X98560000Y-80860000D03*
X101100000Y-80860000D03*
X103640000Y-80860000D03*
X106180000Y-80860000D03*
X108720000Y-80860000D03*
X111257280Y-80863680D03*
X113797280Y-80863680D03*
X116337280Y-80863680D03*
X116340000Y-58000000D03*
X113800000Y-58000000D03*
X111260000Y-58000000D03*
X108720000Y-58000000D03*
X106180000Y-58000000D03*
X103640000Y-58000000D03*
X101100000Y-58000000D03*
X98560000Y-58000000D03*
X96020000Y-58000000D03*
X93480000Y-58000000D03*
X90940000Y-58000000D03*
X88400000Y-58000000D03*
X85860000Y-58000000D03*
X83320000Y-58000000D03*
X80780000Y-58000000D03*
X78240000Y-58000000D03*
X75700000Y-58000000D03*
X73160000Y-58000000D03*
X70620000Y-58000000D03*
X68080000Y-58000000D03*
X65540000Y-58000000D03*
X63000000Y-58000000D03*
%TD*%
D10*
%TO.C,H3*%
X54000000Y-93000000D03*
%TD*%
%TO.C,H2*%
X118000000Y-53200000D03*
%TD*%
D13*
%TO.C,J2*%
X76000000Y-90000000D03*
D14*
X78540000Y-90000000D03*
X81080000Y-90000000D03*
%TD*%
D13*
%TO.C,J1*%
X63000000Y-90000000D03*
D14*
X65540000Y-90000000D03*
X68080000Y-90000000D03*
%TD*%
M02*
