M48
; DRILL file KiCad 10.0.2 date 2026-07-19T10:05:04
; FORMAT={-:-/ absolute / metric / decimal}
; #@! TF.CreationDate,2026-07-19T10:05:04+10:00
; #@! TF.GenerationSoftware,Kicad,Pcbnew,10.0.2
; #@! TF.FileFunction,MixedPlating,1,2
FMAT,2
METRIC
; #@! TA.AperFunction,Plated,PTH,ViaDrill
T1C0.300
; #@! TA.AperFunction,Plated,PTH,ComponentDrill
T2C0.800
; #@! TA.AperFunction,Plated,PTH,ComponentDrill
T3C1.000
; #@! TA.AperFunction,NonPlated,NPTH,ComponentDrill
T4C3.200
%
G90
G05
T1
X99.862Y-85.8
X111.0Y-85.8
T2
X63.0Y-58.0
X63.0Y-80.86
X65.54Y-58.0
X65.54Y-80.86
X68.08Y-58.0
X68.08Y-80.86
X70.62Y-58.0
X70.62Y-80.86
X73.16Y-58.0
X73.16Y-80.86
X75.7Y-58.0
X75.7Y-80.86
X78.24Y-58.0
X78.24Y-80.86
X80.78Y-58.0
X80.78Y-80.86
X83.32Y-58.0
X83.32Y-80.86
X85.86Y-58.0
X85.86Y-80.86
X88.4Y-58.0
X88.4Y-80.86
X90.94Y-58.0
X90.94Y-80.86
X93.48Y-58.0
X93.48Y-80.86
X96.02Y-58.0
X96.02Y-80.86
X98.56Y-58.0
X98.56Y-80.86
X101.1Y-58.0
X101.1Y-80.86
X103.64Y-58.0
X103.64Y-80.86
X106.18Y-58.0
X106.18Y-80.86
X108.72Y-58.0
X108.72Y-80.86
X111.257Y-80.864
X111.26Y-58.0
X113.797Y-80.864
X113.8Y-58.0
X116.337Y-80.864
X116.34Y-58.0
T3
X63.0Y-90.0
X65.54Y-90.0
X68.08Y-90.0
X76.0Y-90.0
X78.54Y-90.0
X81.08Y-90.0
T4
X54.0Y-54.0
X54.0Y-93.0
X118.0Y-53.2
X119.8Y-94.8
M30
