%TF.GenerationSoftware,KiCad,Pcbnew,10.0.2*%
%TF.CreationDate,2026-07-19T10:05:03+10:00*%
%TF.ProjectId,carrier,63617272-6965-4722-9e6b-696361645f70,rev?*%
%TF.SameCoordinates,Original*%
%TF.FileFunction,Copper,L1,Top*%
%TF.FilePolarity,Positive*%
%FSLAX46Y46*%
G04 Gerber Fmt 4.6, Leading zero omitted, Abs format (unit mm)*
G04 Created by KiCad (PCBNEW 10.0.2) date 2026-07-19 10:05:03*
%MOMM*%
%LPD*%
G01*
G04 APERTURE LIST*
G04 Aperture macros list*
%AMRoundRect*
0 Rectangle with rounded corners*
0 $1 Rounding radius*
0 $2 $3 $4 $5 $6 $7 $8 $9 X,Y pos of 4 corners*
0 Add a 4 corners polygon primitive as box body*
4,1,4,$2,$3,$4,$5,$6,$7,$8,$9,$2,$3,0*
0 Add four circle primitives for the rounded corners*
1,1,$1+$1,$2,$3*
1,1,$1+$1,$4,$5*
1,1,$1+$1,$6,$7*
1,1,$1+$1,$8,$9*
0 Add four rect primitives between the rounded corners*
20,1,$1+$1,$2,$3,$4,$5,0*
20,1,$1+$1,$4,$5,$6,$7,0*
20,1,$1+$1,$6,$7,$8,$9,0*
20,1,$1+$1,$8,$9,$2,$3,0*%
G04 Aperture macros list end*
%TA.AperFunction,SMDPad,CuDef*%
%ADD10RoundRect,0.250000X-0.475000X0.250000X-0.475000X-0.250000X0.475000X-0.250000X0.475000X0.250000X0*%
%TD*%
%TA.AperFunction,SMDPad,CuDef*%
%ADD11RoundRect,0.250000X1.000000X0.650000X-1.000000X0.650000X-1.000000X-0.650000X1.000000X-0.650000X0*%
%TD*%
%TA.AperFunction,SMDPad,CuDef*%
%ADD12RoundRect,0.200000X0.275000X-0.200000X0.275000X0.200000X-0.275000X0.200000X-0.275000X-0.200000X0*%
%TD*%
%TA.AperFunction,SMDPad,CuDef*%
%ADD13C,1.500000*%
%TD*%
%TA.AperFunction,SMDPad,CuDef*%
%ADD14RoundRect,0.250000X-0.312500X-1.450000X0.312500X-1.450000X0.312500X1.450000X-0.312500X1.450000X0*%
%TD*%
%TA.AperFunction,SMDPad,CuDef*%
%ADD15RoundRect,0.200000X-0.275000X0.200000X-0.275000X-0.200000X0.275000X-0.200000X0.275000X0.200000X0*%
%TD*%
%TA.AperFunction,ComponentPad*%
%ADD16R,1.200000X2.000000*%
%TD*%
%TA.AperFunction,ComponentPad*%
%ADD17O,1.200000X2.000000*%
%TD*%
%TA.AperFunction,SMDPad,CuDef*%
%ADD18RoundRect,0.250000X-0.300000X-1.600000X0.300000X-1.600000X0.300000X1.600000X-0.300000X1.600000X0*%
%TD*%
%TA.AperFunction,SMDPad,CuDef*%
%ADD19RoundRect,0.225000X-0.225000X-0.250000X0.225000X-0.250000X0.225000X0.250000X-0.225000X0.250000X0*%
%TD*%
%TA.AperFunction,ComponentPad*%
%ADD20R,1.700000X1.700000*%
%TD*%
%TA.AperFunction,ComponentPad*%
%ADD21C,1.700000*%
%TD*%
%TA.AperFunction,SMDPad,CuDef*%
%ADD22RoundRect,0.150000X-0.512500X-0.150000X0.512500X-0.150000X0.512500X0.150000X-0.512500X0.150000X0*%
%TD*%
%TA.AperFunction,ViaPad*%
%ADD23C,0.600000*%
%TD*%
%TA.AperFunction,Conductor*%
%ADD24C,0.500000*%
%TD*%
%TA.AperFunction,Conductor*%
%ADD25C,0.300000*%
%TD*%
%TA.AperFunction,Conductor*%
%ADD26C,0.800000*%
%TD*%
%TA.AperFunction,Conductor*%
%ADD27C,0.400000*%
%TD*%
%TA.AperFunction,Conductor*%
%ADD28C,0.600000*%
%TD*%
G04 APERTURE END LIST*
D10*
%TO.P,C3,1*%
%TO.N,P5V_BUCK*%
X111000000Y-91050000D03*
%TO.P,C3,2*%
%TO.N,GND*%
X111000000Y-92950000D03*
%TD*%
D11*
%TO.P,D1,1*%
%TO.N,VIN_PROT*%
X95000000Y-88000000D03*
%TO.P,D1,2*%
%TO.N,VIN_F*%
X91000000Y-88000000D03*
%TD*%
D12*
%TO.P,R1,1*%
%TO.N,ST_PWM_RAW*%
X63000000Y-86825000D03*
%TO.P,R1,2*%
%TO.N,ST_PWM_3V*%
X63000000Y-85175000D03*
%TD*%
D10*
%TO.P,C1,1*%
%TO.N,VIN_PROT*%
X97500000Y-91050000D03*
%TO.P,C1,2*%
%TO.N,GND*%
X97500000Y-92950000D03*
%TD*%
D12*
%TO.P,R3,1*%
%TO.N,TH_PWM_RAW*%
X76000000Y-86825000D03*
%TO.P,R3,2*%
%TO.N,TH_PWM_3V*%
X76000000Y-85175000D03*
%TD*%
D13*
%TO.P,TP3,1*%
%TO.N,P5V_DK*%
X120000000Y-84500000D03*
%TD*%
D10*
%TO.P,C4,1*%
%TO.N,P5V_BUCK*%
X114500000Y-91050000D03*
%TO.P,C4,2*%
%TO.N,GND*%
X114500000Y-92950000D03*
%TD*%
D14*
%TO.P,F1,1*%
%TO.N,VIN_RAW*%
X83862500Y-88000000D03*
%TO.P,F1,2*%
%TO.N,VIN_F*%
X88137500Y-88000000D03*
%TD*%
D11*
%TO.P,D2,1*%
%TO.N,P5V_DK*%
X119000000Y-88000000D03*
%TO.P,D2,2*%
%TO.N,P5V_BUCK*%
X115000000Y-88000000D03*
%TD*%
D15*
%TO.P,R2,1*%
%TO.N,ST_PWM_3V*%
X66500000Y-85175000D03*
%TO.P,R2,2*%
%TO.N,GND*%
X66500000Y-86825000D03*
%TD*%
D16*
%TO.P,U1,1*%
%TO.N,N/C*%
X63000000Y-80860000D03*
D17*
%TO.P,U1,2*%
X65540000Y-80860000D03*
%TO.P,U1,3*%
X68080000Y-80860000D03*
%TO.P,U1,4*%
%TO.N,ST_PWM_3V*%
X70620000Y-80860000D03*
%TO.P,U1,5*%
%TO.N,TH_PWM_3V*%
X73160000Y-80860000D03*
%TO.P,U1,6*%
%TO.N,N/C*%
X75700000Y-80860000D03*
%TO.P,U1,7*%
X78240000Y-80860000D03*
%TO.P,U1,8*%
X80780000Y-80860000D03*
%TO.P,U1,9*%
X83320000Y-80860000D03*
%TO.P,U1,10*%
X85860000Y-80860000D03*
%TO.P,U1,11*%
X88400000Y-80860000D03*
%TO.P,U1,12*%
X90940000Y-80860000D03*
%TO.P,U1,13*%
X93480000Y-80860000D03*
%TO.P,U1,14*%
X96020000Y-80860000D03*
%TO.P,U1,15*%
X98560000Y-80860000D03*
%TO.P,U1,16*%
X101100000Y-80860000D03*
%TO.P,U1,17*%
X103640000Y-80860000D03*
%TO.P,U1,18*%
X106180000Y-80860000D03*
%TO.P,U1,19*%
X108720000Y-80860000D03*
%TO.P,U1,20*%
X111257280Y-80863680D03*
%TO.P,U1,21*%
%TO.N,P5V_DK*%
X113797280Y-80863680D03*
%TO.P,U1,22*%
%TO.N,GND*%
X116337280Y-80863680D03*
%TO.P,U1,23*%
X116340000Y-58000000D03*
%TO.P,U1,24*%
X113800000Y-58000000D03*
%TO.P,U1,25*%
%TO.N,N/C*%
X111260000Y-58000000D03*
%TO.P,U1,26*%
X108720000Y-58000000D03*
%TO.P,U1,27*%
X106180000Y-58000000D03*
%TO.P,U1,28*%
X103640000Y-58000000D03*
%TO.P,U1,29*%
X101100000Y-58000000D03*
%TO.P,U1,30*%
X98560000Y-58000000D03*
%TO.P,U1,31*%
X96020000Y-58000000D03*
%TO.P,U1,32*%
X93480000Y-58000000D03*
%TO.P,U1,33*%
X90940000Y-58000000D03*
%TO.P,U1,34*%
X88400000Y-58000000D03*
%TO.P,U1,35*%
X85860000Y-58000000D03*
%TO.P,U1,36*%
X83320000Y-58000000D03*
%TO.P,U1,37*%
X80780000Y-58000000D03*
%TO.P,U1,38*%
X78240000Y-58000000D03*
%TO.P,U1,39*%
X75700000Y-58000000D03*
%TO.P,U1,40*%
X73160000Y-58000000D03*
%TO.P,U1,41*%
X70620000Y-58000000D03*
%TO.P,U1,42*%
X68080000Y-58000000D03*
%TO.P,U1,43*%
X65540000Y-58000000D03*
%TO.P,U1,44*%
%TO.N,GND*%
X63000000Y-58000000D03*
%TD*%
D18*
%TO.P,L1,1*%
%TO.N,SW*%
X106500000Y-88000000D03*
%TO.P,L1,2*%
%TO.N,P5V_BUCK*%
X109500000Y-88000000D03*
%TD*%
D13*
%TO.P,TP4,1*%
%TO.N,GND*%
X90000000Y-93000000D03*
%TD*%
D19*
%TO.P,C2,1*%
%TO.N,BST*%
X103225000Y-84500000D03*
%TO.P,C2,2*%
%TO.N,SW*%
X104775000Y-84500000D03*
%TD*%
D13*
%TO.P,TP1,1*%
%TO.N,ST_PWM_3V*%
X59500000Y-84000000D03*
%TD*%
D20*
%TO.P,J2,1*%
%TO.N,TH_PWM_RAW*%
X76000000Y-90000000D03*
D21*
%TO.P,J2,2*%
%TO.N,VIN_RAW*%
X78540000Y-90000000D03*
%TO.P,J2,3*%
%TO.N,GND*%
X81080000Y-90000000D03*
%TD*%
D20*
%TO.P,J1,1*%
%TO.N,ST_PWM_RAW*%
X63000000Y-90000000D03*
D21*
%TO.P,J1,2*%
%TO.N,VIN_RAW*%
X65540000Y-90000000D03*
%TO.P,J1,3*%
%TO.N,GND*%
X68080000Y-90000000D03*
%TD*%
D15*
%TO.P,R4,1*%
%TO.N,TH_PWM_3V*%
X72500000Y-85175000D03*
%TO.P,R4,2*%
%TO.N,GND*%
X72500000Y-86825000D03*
%TD*%
D22*
%TO.P,U2,1*%
%TO.N,P5V_BUCK*%
X99862500Y-87050000D03*
%TO.P,U2,2*%
%TO.N,VIN_PROT*%
X99862500Y-88000000D03*
%TO.P,U2,3*%
X99862500Y-88950000D03*
%TO.P,U2,4*%
%TO.N,GND*%
X102137500Y-88950000D03*
%TO.P,U2,5*%
%TO.N,SW*%
X102137500Y-88000000D03*
%TO.P,U2,6*%
%TO.N,BST*%
X102137500Y-87050000D03*
%TD*%
D13*
%TO.P,TP2,1*%
%TO.N,TH_PWM_3V*%
X80000000Y-84000000D03*
%TD*%
D23*
%TO.N,P5V_BUCK*%
X99862500Y-85800000D03*
X111000000Y-85800000D03*
%TD*%
%TO.N,P5V_BUCK*%
D24*
X114500000Y-91050000D02*
X114500000Y-88000000D01*
D25*
X99862500Y-87050000D02*
X99862500Y-85800000D01*
D24*
X111000000Y-91050000D02*
X111000000Y-88000000D01*
D26*
X109500000Y-88000000D02*
X115000000Y-88000000D01*
D25*
X111000000Y-85800000D02*
X111000000Y-91050000D01*
%TO.N,VIN_PROT*%
D26*
X98362500Y-88950000D02*
X99862500Y-88950000D01*
D24*
X97500000Y-91050000D02*
X97500000Y-88000000D01*
D26*
X98362500Y-88000000D02*
X98362500Y-88950000D01*
D25*
X99862500Y-88000000D02*
X98362500Y-88000000D01*
D26*
X95000000Y-88000000D02*
X98362500Y-88000000D01*
%TO.N,VIN_F*%
X88137500Y-88000000D02*
X91000000Y-88000000D01*
%TO.N,ST_PWM_RAW*%
D25*
X63000000Y-90000000D02*
X63000000Y-86825000D01*
%TO.N,ST_PWM_3V*%
X63000000Y-85175000D02*
X63000000Y-83500000D01*
X63000000Y-83500000D02*
X70620000Y-83500000D01*
X70620000Y-83500000D02*
X70620000Y-80860000D01*
X59500000Y-84000000D02*
X63000000Y-84000000D01*
X66500000Y-85175000D02*
X66500000Y-83500000D01*
%TO.N,TH_PWM_RAW*%
X76000000Y-90000000D02*
X76000000Y-86825000D01*
%TO.N,TH_PWM_3V*%
X76000000Y-83000000D02*
X73160000Y-83000000D01*
X72500000Y-83000000D02*
X73160000Y-83000000D01*
X72500000Y-85175000D02*
X72500000Y-83000000D01*
X73160000Y-83000000D02*
X73160000Y-80860000D01*
X76000000Y-85175000D02*
X76000000Y-83000000D01*
X80000000Y-84000000D02*
X76000000Y-84000000D01*
%TO.N,P5V_DK*%
D26*
X119000000Y-83500000D02*
X113797280Y-83500000D01*
X119000000Y-88000000D02*
X119000000Y-83500000D01*
D27*
X120000000Y-84500000D02*
X119000000Y-84500000D01*
D26*
X113797280Y-83500000D02*
X113797280Y-80863680D01*
%TO.N,VIN_RAW*%
X83862500Y-88000000D02*
X83862500Y-93500000D01*
X65540000Y-90000000D02*
X65540000Y-93500000D01*
X78540000Y-93500000D02*
X78540000Y-90000000D01*
X83862500Y-93500000D02*
X78540000Y-93500000D01*
X65540000Y-93500000D02*
X78540000Y-93500000D01*
%TO.N,SW*%
D27*
X105575000Y-84500000D02*
X105575000Y-88000000D01*
D28*
X102137500Y-88000000D02*
X103337500Y-88000000D01*
D27*
X104775000Y-84500000D02*
X105575000Y-84500000D01*
D28*
X103337500Y-88000000D02*
X106500000Y-88000000D01*
%TO.N,BST*%
D25*
X102637500Y-87050000D02*
X102637500Y-84500000D01*
X102137500Y-87050000D02*
X102637500Y-87050000D01*
X102637500Y-84500000D02*
X103225000Y-84500000D01*
%TD*%
%TA.AperFunction,Conductor*%
%TO.N,GND*%
G36*
X121442539Y-50520185D02*
G01*
X121488294Y-50572989D01*
X121499500Y-50624500D01*
X121499500Y-93609759D01*
X121479815Y-93676798D01*
X121427011Y-93722553D01*
X121357853Y-93732497D01*
X121294297Y-93703472D01*
X121277124Y-93685246D01*
X121208720Y-93596100D01*
X121194265Y-93577262D01*
X121194263Y-93577260D01*
X121194260Y-93577256D01*
X121022743Y-93405739D01*
X121022736Y-93405733D01*
X120830293Y-93258067D01*
X120830292Y-93258066D01*
X120830289Y-93258064D01*
X120620212Y-93136776D01*
X120582821Y-93121288D01*
X120396104Y-93043947D01*
X120161785Y-92981161D01*
X119921289Y-92949500D01*
X119921288Y-92949500D01*
X119678712Y-92949500D01*
X119678711Y-92949500D01*
X119438214Y-92981161D01*
X119203895Y-93043947D01*
X118979794Y-93136773D01*
X118979785Y-93136777D01*
X118769706Y-93258067D01*
X118577263Y-93405733D01*
X118577256Y-93405739D01*
X118405739Y-93577256D01*
X118405733Y-93577263D01*
X118258067Y-93769706D01*
X118136777Y-93979785D01*
X118136773Y-93979794D01*
X118043947Y-94203895D01*
X117981161Y-94438214D01*
X117949500Y-94678711D01*
X117949500Y-94921288D01*
X117981161Y-95161785D01*
X118043947Y-95396104D01*
X118136773Y-95620205D01*
X118136776Y-95620212D01*
X118258064Y-95830289D01*
X118258066Y-95830292D01*
X118258067Y-95830293D01*
X118405733Y-96022736D01*
X118405739Y-96022743D01*
X118577256Y-96194260D01*
X118577263Y-96194266D01*
X118685246Y-96277124D01*
X118726449Y-96333552D01*
X118730604Y-96403298D01*
X118696392Y-96464218D01*
X118634675Y-96496971D01*
X118609760Y-96499500D01*
X50624500Y-96499500D01*
X50557461Y-96479815D01*
X50511706Y-96427011D01*
X50500500Y-96375500D01*
X50500500Y-92878711D01*
X52149500Y-92878711D01*
X52149500Y-93121288D01*
X52180077Y-93353553D01*
X52181162Y-93361789D01*
X52194431Y-93411309D01*
X52243947Y-93596104D01*
X52312940Y-93762667D01*
X52336776Y-93820212D01*
X52458064Y-94030289D01*
X52458066Y-94030292D01*
X52458067Y-94030293D01*
X52605733Y-94222736D01*
X52605739Y-94222743D01*
X52777256Y-94394260D01*
X52777263Y-94394266D01*
X52890321Y-94481018D01*
X52969711Y-94541936D01*
X53179788Y-94663224D01*
X53403900Y-94756054D01*
X53638211Y-94818838D01*
X53818586Y-94842584D01*
X53878711Y-94850500D01*
X53878712Y-94850500D01*
X54121289Y-94850500D01*
X54169388Y-94844167D01*
X54361789Y-94818838D01*
X54596100Y-94756054D01*
X54820212Y-94663224D01*
X55030289Y-94541936D01*
X55222738Y-94394265D01*
X55394265Y-94222738D01*
X55541936Y-94030289D01*
X55663224Y-93820212D01*
X55756054Y-93596100D01*
X55818838Y-93361789D01*
X55850500Y-93121288D01*
X55850500Y-92878712D01*
X55818838Y-92638211D01*
X55756054Y-92403900D01*
X55663224Y-92179788D01*
X55541936Y-91969711D01*
X55394265Y-91777262D01*
X55394260Y-91777256D01*
X55222743Y-91605739D01*
X55222736Y-91605733D01*
X55030293Y-91458067D01*
X55030292Y-91458066D01*
X55030289Y-91458064D01*
X54843132Y-91350009D01*
X54820214Y-91336777D01*
X54820205Y-91336773D01*
X54596104Y-91243947D01*
X54361785Y-91181161D01*
X54121289Y-91149500D01*
X54121288Y-91149500D01*
X53878712Y-91149500D01*
X53878711Y-91149500D01*
X53638214Y-91181161D01*
X53403895Y-91243947D01*
X53179794Y-91336773D01*
X53179785Y-91336777D01*
X52997851Y-91441817D01*
X52978836Y-91452796D01*
X52969706Y-91458067D01*
X52777263Y-91605733D01*
X52777256Y-91605739D01*
X52605739Y-91777256D01*
X52605733Y-91777263D01*
X52458067Y-91969706D01*
X52336777Y-92179785D01*
X52336773Y-92179794D01*
X52243947Y-92403895D01*
X52181161Y-92638214D01*
X52149500Y-92878711D01*
X50500500Y-92878711D01*
X50500500Y-83901577D01*
X58249500Y-83901577D01*
X58249500Y-84098422D01*
X58280290Y-84292826D01*
X58341117Y-84480029D01*
X58371578Y-84539811D01*
X58430476Y-84655405D01*
X58546172Y-84814646D01*
X58685354Y-84953828D01*
X58844595Y-85069524D01*
X58885977Y-85090609D01*
X59019970Y-85158882D01*
X59019972Y-85158882D01*
X59019975Y-85158884D01*
X59120317Y-85191487D01*
X59207173Y-85219709D01*
X59401578Y-85250500D01*
X59401583Y-85250500D01*
X59598422Y-85250500D01*
X59792826Y-85219709D01*
X59980025Y-85158884D01*
X60155405Y-85069524D01*
X60314646Y-84953828D01*
X60453828Y-84814646D01*
X60535950Y-84701614D01*
X60591280Y-84658949D01*
X60636268Y-84650500D01*
X61923876Y-84650500D01*
X61990915Y-84670185D01*
X62036670Y-84722989D01*
X62046614Y-84792147D01*
X62042261Y-84811388D01*
X62041246Y-84814646D01*
X62030914Y-84847802D01*
X62024500Y-84918386D01*
X62024500Y-85431613D01*
X62030913Y-85502192D01*
X62030913Y-85502194D01*
X62030914Y-85502196D01*
X62050954Y-85566508D01*
X62081522Y-85664606D01*
X62169530Y-85810188D01*
X62271661Y-85912319D01*
X62305146Y-85973642D01*
X62300162Y-86043334D01*
X62271661Y-86087681D01*
X62169531Y-86189810D01*
X62169530Y-86189811D01*
X62081522Y-86335393D01*
X62030913Y-86497807D01*
X62024500Y-86568386D01*
X62024500Y-87081613D01*
X62030913Y-87152192D01*
X62030913Y-87152194D01*
X62030914Y-87152196D01*
X62081522Y-87314606D01*
X62121266Y-87380351D01*
X62169530Y-87460188D01*
X62289810Y-87580468D01*
X62295715Y-87585094D01*
X62294911Y-87586119D01*
X62336833Y-87631890D01*
X62349500Y-87686488D01*
X62349500Y-88525500D01*
X62329815Y-88592539D01*
X62277011Y-88638294D01*
X62225501Y-88649500D01*
X62102130Y-88649500D01*
X62102123Y-88649501D01*
X62042516Y-88655908D01*
X61907671Y-88706202D01*
X61907664Y-88706206D01*
X61792455Y-88792452D01*
X61792452Y-88792455D01*
X61706206Y-88907664D01*
X61706202Y-88907671D01*
X61655908Y-89042517D01*
X61649501Y-89102116D01*
X61649500Y-89102135D01*
X61649500Y-90897870D01*
X61649501Y-90897876D01*
X61655908Y-90957483D01*
X61706202Y-91092328D01*
X61706206Y-91092335D01*
X61792452Y-91207544D01*
X61792455Y-91207547D01*
X61907664Y-91293793D01*
X61907671Y-91293797D01*
X62042517Y-91344091D01*
X62042516Y-91344091D01*
X62049444Y-91344835D01*
X62102127Y-91350500D01*
X63897872Y-91350499D01*
X63957483Y-91344091D01*
X64092331Y-91293796D01*
X64207546Y-91207546D01*
X64293796Y-91092331D01*
X64342811Y-90960914D01*
X64384682Y-90904983D01*
X64441652Y-90883734D01*
X64450145Y-90880566D01*
X64450146Y-90880566D01*
X64463578Y-90883488D01*
X64518418Y-90895417D01*
X64534991Y-90907824D01*
X64546673Y-90916569D01*
X64603181Y-90973077D01*
X64636666Y-91034400D01*
X64639500Y-91060758D01*
X64639500Y-93588695D01*
X64674103Y-93762658D01*
X64674106Y-93762667D01*
X64741983Y-93926540D01*
X64741990Y-93926553D01*
X64840535Y-94074034D01*
X64840538Y-94074038D01*
X64965961Y-94199461D01*
X64965965Y-94199464D01*
X65113446Y-94298009D01*
X65113459Y-94298016D01*
X65236363Y-94348923D01*
X65277334Y-94365894D01*
X65277336Y-94365894D01*
X65277341Y-94365896D01*
X65451304Y-94400499D01*
X65451307Y-94400500D01*
X65451309Y-94400500D01*
X83951193Y-94400500D01*
X83951194Y-94400499D01*
X84009182Y-94388964D01*
X84125158Y-94365896D01*
X84125161Y-94365894D01*
X84125166Y-94365894D01*
X84289047Y-94298013D01*
X84436535Y-94199464D01*
X84561964Y-94074035D01*
X84582249Y-94043677D01*
X89309873Y-94043677D01*
X89309873Y-94043678D01*
X89344858Y-94069096D01*
X89520164Y-94158418D01*
X89707294Y-94219221D01*
X89901618Y-94250000D01*
X90098382Y-94250000D01*
X90292705Y-94219221D01*
X90479835Y-94158418D01*
X90655143Y-94069095D01*
X90690125Y-94043678D01*
X90690126Y-94043678D01*
X90000001Y-93353553D01*
X90000000Y-93353553D01*
X89309873Y-94043677D01*
X84582249Y-94043677D01*
X84644843Y-93949999D01*
X84659858Y-93927528D01*
X84659858Y-93927527D01*
X84659859Y-93927526D01*
X84659980Y-93927344D01*
X84660513Y-93926547D01*
X84728394Y-93762666D01*
X84740169Y-93703472D01*
X84762999Y-93588695D01*
X84763000Y-93588693D01*
X84763000Y-92901617D01*
X88750000Y-92901617D01*
X88750000Y-93098382D01*
X88780778Y-93292705D01*
X88841581Y-93479835D01*
X88930905Y-93655145D01*
X88956319Y-93690125D01*
X88956320Y-93690125D01*
X89646446Y-93000000D01*
X89646446Y-92999999D01*
X90353553Y-92999999D01*
X90353553Y-93000000D01*
X91043678Y-93690126D01*
X91043678Y-93690125D01*
X91069095Y-93655143D01*
X91158418Y-93479835D01*
X91219221Y-93292706D01*
X91225987Y-93249986D01*
X96275001Y-93249986D01*
X96285494Y-93352697D01*
X96340641Y-93519119D01*
X96340643Y-93519124D01*
X96432684Y-93668345D01*
X96556654Y-93792315D01*
X96705875Y-93884356D01*
X96705880Y-93884358D01*
X96872302Y-93939505D01*
X96872309Y-93939506D01*
X96975019Y-93949999D01*
X97249999Y-93949999D01*
X97750000Y-93949999D01*
X98024972Y-93949999D01*
X98024986Y-93949998D01*
X98127697Y-93939505D01*
X98294119Y-93884358D01*
X98294124Y-93884356D01*
X98443345Y-93792315D01*
X98567315Y-93668345D01*
X98659356Y-93519124D01*
X98659358Y-93519119D01*
X98714505Y-93352697D01*
X98714506Y-93352690D01*
X98724999Y-93249986D01*
X109775001Y-93249986D01*
X109785494Y-93352697D01*
X109840641Y-93519119D01*
X109840643Y-93519124D01*
X109932684Y-93668345D01*
X110056654Y-93792315D01*
X110205875Y-93884356D01*
X110205880Y-93884358D01*
X110372302Y-93939505D01*
X110372309Y-93939506D01*
X110475019Y-93949999D01*
X110749999Y-93949999D01*
X111250000Y-93949999D01*
X111524972Y-93949999D01*
X111524986Y-93949998D01*
X111627697Y-93939505D01*
X111794119Y-93884358D01*
X111794124Y-93884356D01*
X111943345Y-93792315D01*
X112067315Y-93668345D01*
X112159356Y-93519124D01*
X112159358Y-93519119D01*
X112214505Y-93352697D01*
X112214506Y-93352690D01*
X112224999Y-93249986D01*
X113275001Y-93249986D01*
X113285494Y-93352697D01*
X113340641Y-93519119D01*
X113340643Y-93519124D01*
X113432684Y-93668345D01*
X113556654Y-93792315D01*
X113705875Y-93884356D01*
X113705880Y-93884358D01*
X113872302Y-93939505D01*
X113872309Y-93939506D01*
X113975019Y-93949999D01*
X114249999Y-93949999D01*
X114750000Y-93949999D01*
X115024972Y-93949999D01*
X115024986Y-93949998D01*
X115127697Y-93939505D01*
X115294119Y-93884358D01*
X115294124Y-93884356D01*
X115443345Y-93792315D01*
X115567315Y-93668345D01*
X115659356Y-93519124D01*
X115659358Y-93519119D01*
X115714505Y-93352697D01*
X115714506Y-93352690D01*
X115724999Y-93249986D01*
X115725000Y-93249973D01*
X115725000Y-93200000D01*
X114750000Y-93200000D01*
X114750000Y-93949999D01*
X114249999Y-93949999D01*
X114250000Y-93949998D01*
X114250000Y-93200000D01*
X113275001Y-93200000D01*
X113275001Y-93249986D01*
X112224999Y-93249986D01*
X112225000Y-93249973D01*
X112225000Y-93200000D01*
X111250000Y-93200000D01*
X111250000Y-93949999D01*
X110749999Y-93949999D01*
X110750000Y-93949998D01*
X110750000Y-93200000D01*
X109775001Y-93200000D01*
X109775001Y-93249986D01*
X98724999Y-93249986D01*
X98725000Y-93249973D01*
X98725000Y-93200000D01*
X97750000Y-93200000D01*
X97750000Y-93949999D01*
X97249999Y-93949999D01*
X97250000Y-93949998D01*
X97250000Y-93200000D01*
X96275001Y-93200000D01*
X96275001Y-93249986D01*
X91225987Y-93249986D01*
X91245098Y-93129331D01*
X91245112Y-93129241D01*
X91250000Y-93098377D01*
X91250000Y-92901617D01*
X91219221Y-92707294D01*
X91158418Y-92520164D01*
X91069096Y-92344858D01*
X91043678Y-92309873D01*
X91043677Y-92309873D01*
X90353553Y-92999999D01*
X89646446Y-92999999D01*
X88956320Y-92309872D01*
X88956320Y-92309873D01*
X88930902Y-92344859D01*
X88930899Y-92344863D01*
X88841582Y-92520161D01*
X88780778Y-92707294D01*
X88750000Y-92901617D01*
X84763000Y-92901617D01*
X84763000Y-91956320D01*
X89309872Y-91956320D01*
X90000000Y-92646446D01*
X90000001Y-92646446D01*
X90690125Y-91956320D01*
X90690125Y-91956319D01*
X90655145Y-91930905D01*
X90479835Y-91841581D01*
X90292705Y-91780778D01*
X90098382Y-91750000D01*
X89901618Y-91750000D01*
X89707294Y-91780778D01*
X89520161Y-91841582D01*
X89344863Y-91930899D01*
X89344859Y-91930902D01*
X89309873Y-91956320D01*
X89309872Y-91956320D01*
X84763000Y-91956320D01*
X84763000Y-89961461D01*
X84781460Y-89896366D01*
X84859814Y-89769334D01*
X84914999Y-89602797D01*
X84925500Y-89500009D01*
X84925499Y-86499992D01*
X84925498Y-86499983D01*
X87074500Y-86499983D01*
X87074500Y-89500001D01*
X87074501Y-89500018D01*
X87085000Y-89602796D01*
X87085001Y-89602799D01*
X87140185Y-89769331D01*
X87140187Y-89769336D01*
X87175069Y-89825888D01*
X87232288Y-89918656D01*
X87356344Y-90042712D01*
X87505666Y-90134814D01*
X87672203Y-90189999D01*
X87774991Y-90200500D01*
X88500008Y-90200499D01*
X88500016Y-90200498D01*
X88500019Y-90200498D01*
X88576238Y-90192712D01*
X88602797Y-90189999D01*
X88769334Y-90134814D01*
X88918656Y-90042712D01*
X89042712Y-89918656D01*
X89134814Y-89769334D01*
X89189999Y-89602797D01*
X89200500Y-89500009D01*
X89200500Y-89211230D01*
X89220185Y-89144191D01*
X89272989Y-89098436D01*
X89342147Y-89088492D01*
X89405703Y-89117517D01*
X89412181Y-89123549D01*
X89531344Y-89242712D01*
X89680666Y-89334814D01*
X89847203Y-89389999D01*
X89949991Y-89400500D01*
X92050008Y-89400499D01*
X92152797Y-89389999D01*
X92319334Y-89334814D01*
X92468656Y-89242712D01*
X92592712Y-89118656D01*
X92684814Y-88969334D01*
X92739999Y-88802797D01*
X92750500Y-88700009D01*
X92750499Y-87299992D01*
X92750498Y-87299983D01*
X93249500Y-87299983D01*
X93249500Y-88700001D01*
X93249501Y-88700018D01*
X93260000Y-88802796D01*
X93260001Y-88802799D01*
X93315185Y-88969331D01*
X93315187Y-88969336D01*
X93338394Y-89006961D01*
X93407288Y-89118656D01*
X93531344Y-89242712D01*
X93680666Y-89334814D01*
X93847203Y-89389999D01*
X93949991Y-89400500D01*
X96050008Y-89400499D01*
X96152797Y-89389999D01*
X96319334Y-89334814D01*
X96468656Y-89242712D01*
X96537819Y-89173549D01*
X96599142Y-89140064D01*
X96668834Y-89145048D01*
X96724767Y-89186920D01*
X96749184Y-89252384D01*
X96749500Y-89261230D01*
X96749500Y-90018942D01*
X96729815Y-90085981D01*
X96690598Y-90124479D01*
X96673844Y-90134814D01*
X96556342Y-90207289D01*
X96432289Y-90331342D01*
X96340187Y-90480663D01*
X96340186Y-90480666D01*
X96285001Y-90647203D01*
X96285001Y-90647204D01*
X96285000Y-90647204D01*
X96274500Y-90749983D01*
X96274500Y-90749996D01*
X96274501Y-91350000D01*
X96274501Y-91350019D01*
X96285000Y-91452796D01*
X96285001Y-91452799D01*
X96286746Y-91458064D01*
X96340186Y-91619334D01*
X96432288Y-91768656D01*
X96556344Y-91892712D01*
X96559628Y-91894737D01*
X96559653Y-91894753D01*
X96561445Y-91896746D01*
X96562011Y-91897193D01*
X96561934Y-91897289D01*
X96606379Y-91946699D01*
X96617603Y-92015661D01*
X96589761Y-92079744D01*
X96559665Y-92105826D01*
X96556660Y-92107679D01*
X96556655Y-92107683D01*
X96432684Y-92231654D01*
X96340643Y-92380875D01*
X96340641Y-92380880D01*
X96285494Y-92547302D01*
X96285493Y-92547309D01*
X96275000Y-92650013D01*
X96275000Y-92700000D01*
X98724999Y-92700000D01*
X98724999Y-92650028D01*
X98724998Y-92650013D01*
X98714505Y-92547302D01*
X98659358Y-92380880D01*
X98659356Y-92380875D01*
X98567315Y-92231654D01*
X98443344Y-92107683D01*
X98443341Y-92107681D01*
X98440339Y-92105829D01*
X98438713Y-92104021D01*
X98437677Y-92103202D01*
X98437817Y-92103024D01*
X98393617Y-92053880D01*
X98382397Y-91984917D01*
X98410243Y-91920836D01*
X98440344Y-91894754D01*
X98443656Y-91892712D01*
X98567712Y-91768656D01*
X98659814Y-91619334D01*
X98714999Y-91452797D01*
X98725500Y-91350009D01*
X98725499Y-90749992D01*
X98714999Y-90647203D01*
X98659814Y-90480666D01*
X98567712Y-90331344D01*
X98443656Y-90207288D01*
X98309402Y-90124480D01*
X98302578Y-90116893D01*
X98293297Y-90112655D01*
X98279608Y-90091355D01*
X98262679Y-90072533D01*
X98260034Y-90060897D01*
X98255523Y-90053877D01*
X98250500Y-90018942D01*
X98250500Y-89974500D01*
X98270185Y-89907461D01*
X98322989Y-89861706D01*
X98374500Y-89850500D01*
X99951193Y-89850500D01*
X99951194Y-89850499D01*
X100009182Y-89838964D01*
X100125158Y-89815896D01*
X100125161Y-89815894D01*
X100125166Y-89815894D01*
X100260255Y-89759939D01*
X100307707Y-89750500D01*
X100440686Y-89750500D01*
X100440694Y-89750500D01*
X100477569Y-89747598D01*
X100477571Y-89747597D01*
X100477573Y-89747597D01*
X100519191Y-89735505D01*
X100635398Y-89701744D01*
X100776865Y-89618081D01*
X100893081Y-89501865D01*
X100893555Y-89501062D01*
X100894090Y-89500562D01*
X100897861Y-89495702D01*
X100898644Y-89496310D01*
X100944622Y-89453377D01*
X101013363Y-89440870D01*
X101077953Y-89467513D01*
X101102283Y-89495589D01*
X101102537Y-89495393D01*
X101106150Y-89500051D01*
X101107020Y-89501055D01*
X101107313Y-89501550D01*
X101107321Y-89501561D01*
X101223438Y-89617678D01*
X101223447Y-89617685D01*
X101364803Y-89701282D01*
X101364806Y-89701283D01*
X101522504Y-89747099D01*
X101522510Y-89747100D01*
X101559350Y-89749999D01*
X101559366Y-89750000D01*
X101887500Y-89750000D01*
X102387500Y-89750000D01*
X102715634Y-89750000D01*
X102715649Y-89749999D01*
X102752489Y-89747100D01*
X102752495Y-89747099D01*
X102910193Y-89701283D01*
X102910196Y-89701282D01*
X103051552Y-89617685D01*
X103051561Y-89617678D01*
X103167678Y-89501561D01*
X103167685Y-89501552D01*
X103251281Y-89360198D01*
X103297100Y-89202486D01*
X103297295Y-89200001D01*
X103297295Y-89200000D01*
X102387500Y-89200000D01*
X102387500Y-89750000D01*
X101887500Y-89750000D01*
X101887500Y-89074000D01*
X101907185Y-89006961D01*
X101959989Y-88961206D01*
X102011500Y-88950000D01*
X102137500Y-88950000D01*
X102137500Y-88924500D01*
X102157185Y-88857461D01*
X102209989Y-88811706D01*
X102261500Y-88800500D01*
X103258658Y-88800500D01*
X105325501Y-88800500D01*
X105392540Y-88820185D01*
X105438295Y-88872989D01*
X105449501Y-88924500D01*
X105449501Y-89650018D01*
X105460000Y-89752796D01*
X105460001Y-89752799D01*
X105496090Y-89861706D01*
X105515186Y-89919334D01*
X105607288Y-90068656D01*
X105731344Y-90192712D01*
X105880666Y-90284814D01*
X106047203Y-90339999D01*
X106149991Y-90350500D01*
X106850008Y-90350499D01*
X106850016Y-90350498D01*
X106850019Y-90350498D01*
X106925220Y-90342816D01*
X106952797Y-90339999D01*
X107119334Y-90284814D01*
X107268656Y-90192712D01*
X107392712Y-90068656D01*
X107484814Y-89919334D01*
X107539999Y-89752797D01*
X107550500Y-89650009D01*
X107550499Y-86349992D01*
X107550498Y-86349983D01*
X108449500Y-86349983D01*
X108449500Y-89650001D01*
X108449501Y-89650018D01*
X108460000Y-89752796D01*
X108460001Y-89752799D01*
X108496090Y-89861706D01*
X108515186Y-89919334D01*
X108607288Y-90068656D01*
X108731344Y-90192712D01*
X108880666Y-90284814D01*
X109047203Y-90339999D01*
X109149991Y-90350500D01*
X109711599Y-90350499D01*
X109778638Y-90370183D01*
X109824393Y-90422987D01*
X109834337Y-90492146D01*
X109829305Y-90513503D01*
X109785001Y-90647203D01*
X109785000Y-90647204D01*
X109774500Y-90749983D01*
X109774500Y-90749996D01*
X109774501Y-91350000D01*
X109774501Y-91350019D01*
X109785000Y-91452796D01*
X109785001Y-91452799D01*
X109786746Y-91458064D01*
X109840186Y-91619334D01*
X109932288Y-91768656D01*
X110056344Y-91892712D01*
X110059628Y-91894737D01*
X110059653Y-91894753D01*
X110061445Y-91896746D01*
X110062011Y-91897193D01*
X110061934Y-91897289D01*
X110106379Y-91946699D01*
X110117603Y-92015661D01*
X110089761Y-92079744D01*
X110059665Y-92105826D01*
X110056660Y-92107679D01*
X110056655Y-92107683D01*
X109932684Y-92231654D01*
X109840643Y-92380875D01*
X109840641Y-92380880D01*
X109785494Y-92547302D01*
X109785493Y-92547309D01*
X109775000Y-92650013D01*
X109775000Y-92700000D01*
X112224999Y-92700000D01*
X112224999Y-92650028D01*
X112224998Y-92650013D01*
X112214505Y-92547302D01*
X112159358Y-92380880D01*
X112159356Y-92380875D01*
X112067315Y-92231654D01*
X111943344Y-92107683D01*
X111943341Y-92107681D01*
X111940339Y-92105829D01*
X111938713Y-92104021D01*
X111937677Y-92103202D01*
X111937817Y-92103024D01*
X111893617Y-92053880D01*
X111882397Y-91984917D01*
X111910243Y-91920836D01*
X111940344Y-91894754D01*
X111943656Y-91892712D01*
X112067712Y-91768656D01*
X112159814Y-91619334D01*
X112214999Y-91452797D01*
X112225500Y-91350009D01*
X112225499Y-90749992D01*
X112214999Y-90647203D01*
X112159814Y-90480666D01*
X112067712Y-90331344D01*
X111943656Y-90207288D01*
X111809402Y-90124480D01*
X111762679Y-90072533D01*
X111750500Y-90018942D01*
X111750500Y-89024500D01*
X111770185Y-88957461D01*
X111822989Y-88911706D01*
X111874500Y-88900500D01*
X113204092Y-88900500D01*
X113271131Y-88920185D01*
X113309636Y-88964271D01*
X113311395Y-88963187D01*
X113315185Y-88969331D01*
X113315186Y-88969334D01*
X113407288Y-89118656D01*
X113531344Y-89242712D01*
X113680666Y-89334814D01*
X113680667Y-89334814D01*
X113686813Y-89338605D01*
X113685706Y-89340399D01*
X113730337Y-89379687D01*
X113749500Y-89445908D01*
X113749500Y-90018942D01*
X113729815Y-90085981D01*
X113690598Y-90124479D01*
X113673844Y-90134814D01*
X113556342Y-90207289D01*
X113432289Y-90331342D01*
X113340187Y-90480663D01*
X113340186Y-90480666D01*
X113285001Y-90647203D01*
X113285001Y-90647204D01*
X113285000Y-90647204D01*
X113274500Y-90749983D01*
X113274500Y-90749996D01*
X113274501Y-91350000D01*
X113274501Y-91350019D01*
X113285000Y-91452796D01*
X113285001Y-91452799D01*
X113286746Y-91458064D01*
X113340186Y-91619334D01*
X113432288Y-91768656D01*
X113556344Y-91892712D01*
X113559628Y-91894737D01*
X113559653Y-91894753D01*
X113561445Y-91896746D01*
X113562011Y-91897193D01*
X113561934Y-91897289D01*
X113606379Y-91946699D01*
X113617603Y-92015661D01*
X113589761Y-92079744D01*
X113559665Y-92105826D01*
X113556660Y-92107679D01*
X113556655Y-92107683D01*
X113432684Y-92231654D01*
X113340643Y-92380875D01*
X113340641Y-92380880D01*
X113285494Y-92547302D01*
X113285493Y-92547309D01*
X113275000Y-92650013D01*
X113275000Y-92700000D01*
X115724999Y-92700000D01*
X115724999Y-92650028D01*
X115724998Y-92650013D01*
X115714505Y-92547302D01*
X115659358Y-92380880D01*
X115659356Y-92380875D01*
X115567315Y-92231654D01*
X115443344Y-92107683D01*
X115443341Y-92107681D01*
X115440339Y-92105829D01*
X115438713Y-92104021D01*
X115437677Y-92103202D01*
X115437817Y-92103024D01*
X115393617Y-92053880D01*
X115382397Y-91984917D01*
X115410243Y-91920836D01*
X115440344Y-91894754D01*
X115443656Y-91892712D01*
X115567712Y-91768656D01*
X115659814Y-91619334D01*
X115714999Y-91452797D01*
X115725500Y-91350009D01*
X115725499Y-90749992D01*
X115714999Y-90647203D01*
X115659814Y-90480666D01*
X115567712Y-90331344D01*
X115443656Y-90207288D01*
X115309402Y-90124480D01*
X115262679Y-90072533D01*
X115250500Y-90018942D01*
X115250500Y-89524499D01*
X115270185Y-89457460D01*
X115322989Y-89411705D01*
X115374500Y-89400499D01*
X116050002Y-89400499D01*
X116050008Y-89400499D01*
X116152797Y-89389999D01*
X116319334Y-89334814D01*
X116468656Y-89242712D01*
X116592712Y-89118656D01*
X116684814Y-88969334D01*
X116739999Y-88802797D01*
X116750500Y-88700009D01*
X116750499Y-87299992D01*
X116739999Y-87197203D01*
X116684814Y-87030666D01*
X116592712Y-86881344D01*
X116468656Y-86757288D01*
X116319334Y-86665186D01*
X116152797Y-86610001D01*
X116152795Y-86610000D01*
X116050010Y-86599500D01*
X113949998Y-86599500D01*
X113949981Y-86599501D01*
X113847203Y-86610000D01*
X113847200Y-86610001D01*
X113680668Y-86665185D01*
X113680663Y-86665187D01*
X113531342Y-86757289D01*
X113407289Y-86881342D01*
X113407288Y-86881344D01*
X113317441Y-87027011D01*
X113311395Y-87036813D01*
X113309600Y-87035706D01*
X113270313Y-87080337D01*
X113204092Y-87099500D01*
X111774500Y-87099500D01*
X111707461Y-87079815D01*
X111661706Y-87027011D01*
X111650500Y-86975500D01*
X111650500Y-86304935D01*
X111670185Y-86237896D01*
X111671366Y-86236090D01*
X111709394Y-86179179D01*
X111769737Y-86033497D01*
X111800500Y-85878842D01*
X111800500Y-85721158D01*
X111800500Y-85721155D01*
X111800499Y-85721153D01*
X111799312Y-85715185D01*
X111769737Y-85566503D01*
X111769735Y-85566498D01*
X111709397Y-85420827D01*
X111709390Y-85420814D01*
X111621789Y-85289711D01*
X111621786Y-85289707D01*
X111510292Y-85178213D01*
X111510288Y-85178210D01*
X111379185Y-85090609D01*
X111379172Y-85090602D01*
X111233501Y-85030264D01*
X111233489Y-85030261D01*
X111078845Y-84999500D01*
X111078842Y-84999500D01*
X110921158Y-84999500D01*
X110921155Y-84999500D01*
X110766510Y-85030261D01*
X110766498Y-85030264D01*
X110620827Y-85090602D01*
X110620814Y-85090609D01*
X110489711Y-85178210D01*
X110489707Y-85178213D01*
X110378213Y-85289707D01*
X110378210Y-85289711D01*
X110290609Y-85420814D01*
X110290602Y-85420827D01*
X110230264Y-85566498D01*
X110230261Y-85566508D01*
X110223040Y-85602812D01*
X110190655Y-85664723D01*
X110129939Y-85699297D01*
X110062420Y-85696326D01*
X109952799Y-85660001D01*
X109952795Y-85660000D01*
X109850010Y-85649500D01*
X109149998Y-85649500D01*
X109149980Y-85649501D01*
X109047203Y-85660000D01*
X109047200Y-85660001D01*
X108880668Y-85715185D01*
X108880663Y-85715187D01*
X108731342Y-85807289D01*
X108607289Y-85931342D01*
X108515187Y-86080663D01*
X108515186Y-86080666D01*
X108460001Y-86247203D01*
X108460001Y-86247204D01*
X108460000Y-86247204D01*
X108449500Y-86349983D01*
X107550498Y-86349983D01*
X107545896Y-86304935D01*
X107539999Y-86247203D01*
X107539998Y-86247200D01*
X107534518Y-86230663D01*
X107484814Y-86080666D01*
X107392712Y-85931344D01*
X107268656Y-85807288D01*
X107175888Y-85750069D01*
X107119336Y-85715187D01*
X107119331Y-85715185D01*
X107062418Y-85696326D01*
X106952797Y-85660001D01*
X106952795Y-85660000D01*
X106850016Y-85649500D01*
X106850009Y-85649500D01*
X106399500Y-85649500D01*
X106332461Y-85629815D01*
X106286706Y-85577011D01*
X106275500Y-85525500D01*
X106275500Y-84431004D01*
X106248581Y-84295677D01*
X106248580Y-84295676D01*
X106248580Y-84295672D01*
X106211923Y-84207173D01*
X106195778Y-84168195D01*
X106195771Y-84168182D01*
X106119114Y-84053458D01*
X106119111Y-84053454D01*
X106021545Y-83955888D01*
X106021541Y-83955885D01*
X105906817Y-83879228D01*
X105906804Y-83879221D01*
X105779332Y-83826421D01*
X105779322Y-83826418D01*
X105643995Y-83799500D01*
X105643993Y-83799500D01*
X105626874Y-83799500D01*
X105559835Y-83779815D01*
X105539193Y-83763181D01*
X105453044Y-83677032D01*
X105453040Y-83677029D01*
X105308705Y-83588001D01*
X105308699Y-83587998D01*
X105308697Y-83587997D01*
X105308694Y-83587996D01*
X105147709Y-83534651D01*
X105048346Y-83524500D01*
X104501662Y-83524500D01*
X104501644Y-83524501D01*
X104402292Y-83534650D01*
X104402289Y-83534651D01*
X104241305Y-83587996D01*
X104241294Y-83588001D01*
X104096959Y-83677029D01*
X104096955Y-83677032D01*
X104087681Y-83686307D01*
X104026358Y-83719792D01*
X103956666Y-83714808D01*
X103912319Y-83686307D01*
X103903044Y-83677032D01*
X103903040Y-83677029D01*
X103758705Y-83588001D01*
X103758699Y-83587998D01*
X103758697Y-83587997D01*
X103758694Y-83587996D01*
X103597709Y-83534651D01*
X103498346Y-83524500D01*
X102951662Y-83524500D01*
X102951644Y-83524501D01*
X102852292Y-83534650D01*
X102852289Y-83534651D01*
X102691305Y-83587996D01*
X102691294Y-83588001D01*
X102546959Y-83677029D01*
X102546955Y-83677032D01*
X102427031Y-83796956D01*
X102376157Y-83879435D01*
X102333823Y-83919234D01*
X102334437Y-83920152D01*
X102329375Y-83923534D01*
X102329373Y-83923535D01*
X102290491Y-83949514D01*
X102222828Y-83994725D01*
X102132226Y-84085327D01*
X102132223Y-84085331D01*
X102061038Y-84191866D01*
X102061033Y-84191875D01*
X102011999Y-84310255D01*
X102011997Y-84310261D01*
X101987000Y-84435928D01*
X101987000Y-86125500D01*
X101967315Y-86192539D01*
X101914511Y-86238294D01*
X101863000Y-86249500D01*
X101559298Y-86249500D01*
X101522432Y-86252401D01*
X101522426Y-86252402D01*
X101364606Y-86298254D01*
X101364603Y-86298255D01*
X101223137Y-86381917D01*
X101223129Y-86381923D01*
X101106923Y-86498129D01*
X101106914Y-86498140D01*
X101106729Y-86498455D01*
X101106519Y-86498650D01*
X101102139Y-86504298D01*
X101101227Y-86503591D01*
X101055657Y-86546136D01*
X100986915Y-86558637D01*
X100922327Y-86531988D01*
X100898143Y-86504078D01*
X100897861Y-86504298D01*
X100893823Y-86499092D01*
X100893271Y-86498455D01*
X100893085Y-86498140D01*
X100893076Y-86498129D01*
X100776870Y-86381923D01*
X100776862Y-86381917D01*
X100686365Y-86328398D01*
X100637387Y-86299432D01*
X100589705Y-86248364D01*
X100577201Y-86179623D01*
X100585948Y-86145249D01*
X100632237Y-86033497D01*
X100663000Y-85878842D01*
X100663000Y-85721158D01*
X100663000Y-85721155D01*
X100662999Y-85721153D01*
X100661812Y-85715185D01*
X100632237Y-85566503D01*
X100632235Y-85566498D01*
X100571897Y-85420827D01*
X100571890Y-85420814D01*
X100484289Y-85289711D01*
X100484286Y-85289707D01*
X100372792Y-85178213D01*
X100372788Y-85178210D01*
X100241685Y-85090609D01*
X100241672Y-85090602D01*
X100096001Y-85030264D01*
X100095989Y-85030261D01*
X99941345Y-84999500D01*
X99941342Y-84999500D01*
X99783658Y-84999500D01*
X99783655Y-84999500D01*
X99629010Y-85030261D01*
X99628998Y-85030264D01*
X99483327Y-85090602D01*
X99483314Y-85090609D01*
X99352211Y-85178210D01*
X99352207Y-85178213D01*
X99240713Y-85289707D01*
X99240710Y-85289711D01*
X99153109Y-85420814D01*
X99153102Y-85420827D01*
X99092764Y-85566498D01*
X99092761Y-85566510D01*
X99062000Y-85721153D01*
X99062000Y-85878846D01*
X99092761Y-86033489D01*
X99092764Y-86033501D01*
X99139051Y-86145249D01*
X99146520Y-86214718D01*
X99115244Y-86277197D01*
X99087611Y-86299433D01*
X98948138Y-86381916D01*
X98948129Y-86381923D01*
X98831923Y-86498129D01*
X98831917Y-86498137D01*
X98748255Y-86639603D01*
X98748254Y-86639606D01*
X98702402Y-86797426D01*
X98702401Y-86797432D01*
X98699500Y-86834298D01*
X98699500Y-86997797D01*
X98679815Y-87064836D01*
X98627011Y-87110591D01*
X98557853Y-87120535D01*
X98551309Y-87119414D01*
X98451195Y-87099500D01*
X98451191Y-87099500D01*
X96795908Y-87099500D01*
X96728869Y-87079815D01*
X96690363Y-87035728D01*
X96688605Y-87036813D01*
X96684812Y-87030663D01*
X96592712Y-86881344D01*
X96468656Y-86757288D01*
X96319334Y-86665186D01*
X96152797Y-86610001D01*
X96152795Y-86610000D01*
X96050010Y-86599500D01*
X93949998Y-86599500D01*
X93949981Y-86599501D01*
X93847203Y-86610000D01*
X93847200Y-86610001D01*
X93680668Y-86665185D01*
X93680663Y-86665187D01*
X93531342Y-86757289D01*
X93407289Y-86881342D01*
X93315187Y-87030663D01*
X93315185Y-87030668D01*
X93298317Y-87081572D01*
X93260001Y-87197203D01*
X93260001Y-87197204D01*
X93260000Y-87197204D01*
X93249500Y-87299983D01*
X92750498Y-87299983D01*
X92739999Y-87197203D01*
X92684814Y-87030666D01*
X92592712Y-86881344D01*
X92468656Y-86757288D01*
X92319334Y-86665186D01*
X92152797Y-86610001D01*
X92152795Y-86610000D01*
X92050010Y-86599500D01*
X89949998Y-86599500D01*
X89949981Y-86599501D01*
X89847203Y-86610000D01*
X89847200Y-86610001D01*
X89680668Y-86665185D01*
X89680663Y-86665187D01*
X89531342Y-86757289D01*
X89412180Y-86876452D01*
X89350857Y-86909937D01*
X89281165Y-86904953D01*
X89225232Y-86863081D01*
X89200815Y-86797617D01*
X89200499Y-86788771D01*
X89200499Y-86499998D01*
X89200498Y-86499981D01*
X89189999Y-86397203D01*
X89189998Y-86397200D01*
X89169587Y-86335604D01*
X89134814Y-86230666D01*
X89042712Y-86081344D01*
X88918656Y-85957288D01*
X88791481Y-85878846D01*
X88769336Y-85865187D01*
X88769331Y-85865185D01*
X88767862Y-85864698D01*
X88602797Y-85810001D01*
X88602795Y-85810000D01*
X88500010Y-85799500D01*
X87774998Y-85799500D01*
X87774980Y-85799501D01*
X87672203Y-85810000D01*
X87672200Y-85810001D01*
X87505668Y-85865185D01*
X87505663Y-85865187D01*
X87356342Y-85957289D01*
X87232289Y-86081342D01*
X87140187Y-86230663D01*
X87140185Y-86230668D01*
X87117789Y-86298255D01*
X87085001Y-86397203D01*
X87085001Y-86397204D01*
X87085000Y-86397204D01*
X87074500Y-86499983D01*
X84925498Y-86499983D01*
X84925309Y-86498135D01*
X84914999Y-86397203D01*
X84914998Y-86397200D01*
X84894587Y-86335604D01*
X84859814Y-86230666D01*
X84767712Y-86081344D01*
X84643656Y-85957288D01*
X84516481Y-85878846D01*
X84494336Y-85865187D01*
X84494331Y-85865185D01*
X84492862Y-85864698D01*
X84327797Y-85810001D01*
X84327795Y-85810000D01*
X84225010Y-85799500D01*
X83499998Y-85799500D01*
X83499980Y-85799501D01*
X83397203Y-85810000D01*
X83397200Y-85810001D01*
X83230668Y-85865185D01*
X83230663Y-85865187D01*
X83081342Y-85957289D01*
X82957289Y-86081342D01*
X82865187Y-86230663D01*
X82865185Y-86230668D01*
X82842789Y-86298255D01*
X82810001Y-86397203D01*
X82810001Y-86397204D01*
X82810000Y-86397204D01*
X82799500Y-86499983D01*
X82799500Y-89500001D01*
X82799501Y-89500018D01*
X82810000Y-89602796D01*
X82810001Y-89602799D01*
X82859706Y-89752796D01*
X82865186Y-89769334D01*
X82943539Y-89896366D01*
X82962000Y-89961461D01*
X82962000Y-92475500D01*
X82942315Y-92542539D01*
X82889511Y-92588294D01*
X82838000Y-92599500D01*
X79564500Y-92599500D01*
X79497461Y-92579815D01*
X79451706Y-92527011D01*
X79440500Y-92475500D01*
X79440500Y-91060758D01*
X79460185Y-90993719D01*
X79476819Y-90973077D01*
X79492413Y-90957483D01*
X79570104Y-90879792D01*
X79570106Y-90879788D01*
X79570109Y-90879786D01*
X79655890Y-90761717D01*
X79695051Y-90707816D01*
X79699793Y-90698508D01*
X79747763Y-90647711D01*
X79815583Y-90630911D01*
X79881719Y-90653445D01*
X79920763Y-90698500D01*
X79925373Y-90707547D01*
X79964728Y-90761716D01*
X80597037Y-90129408D01*
X80614075Y-90192993D01*
X80679901Y-90307007D01*
X80772993Y-90400099D01*
X80887007Y-90465925D01*
X80950590Y-90482962D01*
X80318282Y-91115269D01*
X80318282Y-91115270D01*
X80372449Y-91154624D01*
X80561782Y-91251095D01*
X80763870Y-91316757D01*
X80973754Y-91350000D01*
X81186246Y-91350000D01*
X81396127Y-91316757D01*
X81396130Y-91316757D01*
X81598217Y-91251095D01*
X81787554Y-91154622D01*
X81841716Y-91115270D01*
X81841717Y-91115270D01*
X81209408Y-90482962D01*
X81272993Y-90465925D01*
X81387007Y-90400099D01*
X81480099Y-90307007D01*
X81545925Y-90192993D01*
X81562962Y-90129408D01*
X82195270Y-90761717D01*
X82195270Y-90761716D01*
X82234622Y-90707554D01*
X82331095Y-90518217D01*
X82396757Y-90316130D01*
X82396757Y-90316127D01*
X82430000Y-90106246D01*
X82430000Y-89893753D01*
X82396757Y-89683872D01*
X82396757Y-89683869D01*
X82331095Y-89481782D01*
X82234624Y-89292449D01*
X82195270Y-89238282D01*
X82195269Y-89238282D01*
X81562962Y-89870590D01*
X81545925Y-89807007D01*
X81480099Y-89692993D01*
X81387007Y-89599901D01*
X81272993Y-89534075D01*
X81209409Y-89517037D01*
X81841716Y-88884728D01*
X81787550Y-88845375D01*
X81598217Y-88748904D01*
X81396129Y-88683242D01*
X81186246Y-88650000D01*
X80973754Y-88650000D01*
X80763872Y-88683242D01*
X80763869Y-88683242D01*
X80561782Y-88748904D01*
X80372439Y-88845380D01*
X80318282Y-88884727D01*
X80318282Y-88884728D01*
X80950591Y-89517037D01*
X80887007Y-89534075D01*
X80772993Y-89599901D01*
X80679901Y-89692993D01*
X80614075Y-89807007D01*
X80597037Y-89870591D01*
X79964728Y-89238282D01*
X79964727Y-89238282D01*
X79925380Y-89292440D01*
X79925376Y-89292446D01*
X79920760Y-89301505D01*
X79872781Y-89352297D01*
X79804959Y-89369087D01*
X79738826Y-89346543D01*
X79699794Y-89301493D01*
X79695051Y-89292184D01*
X79695049Y-89292181D01*
X79695048Y-89292179D01*
X79570109Y-89120213D01*
X79419786Y-88969890D01*
X79247820Y-88844951D01*
X79058414Y-88748444D01*
X79058413Y-88748443D01*
X79058412Y-88748443D01*
X78856243Y-88682754D01*
X78856241Y-88682753D01*
X78856240Y-88682753D01*
X78694957Y-88657208D01*
X78646287Y-88649500D01*
X78433713Y-88649500D01*
X78385042Y-88657208D01*
X78223760Y-88682753D01*
X78021585Y-88748444D01*
X77832179Y-88844951D01*
X77660215Y-88969889D01*
X77546673Y-89083431D01*
X77485350Y-89116915D01*
X77415658Y-89111931D01*
X77359725Y-89070059D01*
X77342810Y-89039082D01*
X77293797Y-88907671D01*
X77293793Y-88907664D01*
X77207547Y-88792455D01*
X77207544Y-88792452D01*
X77092335Y-88706206D01*
X77092328Y-88706202D01*
X76957482Y-88655908D01*
X76957483Y-88655908D01*
X76897883Y-88649501D01*
X76897881Y-88649500D01*
X76897873Y-88649500D01*
X76897865Y-88649500D01*
X76774500Y-88649500D01*
X76707461Y-88629815D01*
X76661706Y-88577011D01*
X76650500Y-88525500D01*
X76650500Y-87686488D01*
X76670185Y-87619449D01*
X76704809Y-87585763D01*
X76704285Y-87585094D01*
X76710180Y-87580474D01*
X76710185Y-87580472D01*
X76830472Y-87460185D01*
X76918478Y-87314606D01*
X76969086Y-87152196D01*
X76975500Y-87081616D01*
X76975500Y-86568384D01*
X76969086Y-86497804D01*
X76918478Y-86335394D01*
X76830472Y-86189815D01*
X76830470Y-86189813D01*
X76830469Y-86189811D01*
X76728339Y-86087681D01*
X76694854Y-86026358D01*
X76699838Y-85956666D01*
X76728339Y-85912319D01*
X76830468Y-85810189D01*
X76830469Y-85810188D01*
X76830472Y-85810185D01*
X76918478Y-85664606D01*
X76969086Y-85502196D01*
X76975500Y-85431616D01*
X76975500Y-84918384D01*
X76969086Y-84847804D01*
X76957738Y-84811389D01*
X76956587Y-84741530D01*
X76993388Y-84682138D01*
X77056457Y-84652070D01*
X77076124Y-84650500D01*
X78863732Y-84650500D01*
X78930771Y-84670185D01*
X78964049Y-84701614D01*
X79046172Y-84814646D01*
X79185354Y-84953828D01*
X79344595Y-85069524D01*
X79385977Y-85090609D01*
X79519970Y-85158882D01*
X79519972Y-85158882D01*
X79519975Y-85158884D01*
X79620317Y-85191487D01*
X79707173Y-85219709D01*
X79901578Y-85250500D01*
X79901583Y-85250500D01*
X80098422Y-85250500D01*
X80292826Y-85219709D01*
X80480025Y-85158884D01*
X80655405Y-85069524D01*
X80814646Y-84953828D01*
X80953828Y-84814646D01*
X81069524Y-84655405D01*
X81158884Y-84480025D01*
X81219709Y-84292826D01*
X81230770Y-84222989D01*
X81250500Y-84098422D01*
X81250500Y-83901577D01*
X81219709Y-83707173D01*
X81191487Y-83620317D01*
X81158884Y-83519975D01*
X81158882Y-83519972D01*
X81158882Y-83519970D01*
X81072023Y-83349500D01*
X81069524Y-83344595D01*
X80953828Y-83185354D01*
X80814646Y-83046172D01*
X80655405Y-82930476D01*
X80641788Y-82923538D01*
X80480029Y-82841117D01*
X80292826Y-82780290D01*
X80098422Y-82749500D01*
X80098417Y-82749500D01*
X79901583Y-82749500D01*
X79901578Y-82749500D01*
X79707173Y-82780290D01*
X79519970Y-82841117D01*
X79344594Y-82930476D01*
X79256167Y-82994723D01*
X79185354Y-83046172D01*
X79185352Y-83046174D01*
X79185351Y-83046174D01*
X79046174Y-83185351D01*
X79046169Y-83185357D01*
X78964050Y-83298385D01*
X78908720Y-83341051D01*
X78863732Y-83349500D01*
X76774500Y-83349500D01*
X76707461Y-83329815D01*
X76661706Y-83277011D01*
X76650500Y-83225500D01*
X76650500Y-82935928D01*
X76625502Y-82810261D01*
X76625501Y-82810260D01*
X76625501Y-82810256D01*
X76576465Y-82691873D01*
X76576464Y-82691872D01*
X76576461Y-82691866D01*
X76505276Y-82585331D01*
X76505273Y-82585327D01*
X76414672Y-82494726D01*
X76414668Y-82494723D01*
X76308133Y-82423538D01*
X76308121Y-82423532D01*
X76297808Y-82419260D01*
X76243405Y-82375418D01*
X76221342Y-82309123D01*
X76238622Y-82241424D01*
X76273971Y-82205645D01*
X76272846Y-82204096D01*
X76276789Y-82201231D01*
X76416928Y-82099414D01*
X76539414Y-81976928D01*
X76641232Y-81836788D01*
X76719873Y-81682445D01*
X76773402Y-81517701D01*
X76800500Y-81346611D01*
X76800500Y-80373389D01*
X77139500Y-80373389D01*
X77139500Y-81346611D01*
X77166598Y-81517701D01*
X77220127Y-81682445D01*
X77298768Y-81836788D01*
X77400586Y-81976928D01*
X77523072Y-82099414D01*
X77663212Y-82201232D01*
X77817555Y-82279873D01*
X77982299Y-82333402D01*
X78153389Y-82360500D01*
X78153390Y-82360500D01*
X78326610Y-82360500D01*
X78326611Y-82360500D01*
X78497701Y-82333402D01*
X78662445Y-82279873D01*
X78816788Y-82201232D01*
X78956928Y-82099414D01*
X79079414Y-81976928D01*
X79181232Y-81836788D01*
X79259873Y-81682445D01*
X79313402Y-81517701D01*
X79340500Y-81346611D01*
X79340500Y-80373389D01*
X79679500Y-80373389D01*
X79679500Y-81346611D01*
X79706598Y-81517701D01*
X79760127Y-81682445D01*
X79838768Y-81836788D01*
X79940586Y-81976928D01*
X80063072Y-82099414D01*
X80203212Y-82201232D01*
X80357555Y-82279873D01*
X80522299Y-82333402D01*
X80693389Y-82360500D01*
X80693390Y-82360500D01*
X80866610Y-82360500D01*
X80866611Y-82360500D01*
X81037701Y-82333402D01*
X81202445Y-82279873D01*
X81356788Y-82201232D01*
X81496928Y-82099414D01*
X81619414Y-81976928D01*
X81721232Y-81836788D01*
X81799873Y-81682445D01*
X81853402Y-81517701D01*
X81880500Y-81346611D01*
X81880500Y-80373389D01*
X82219500Y-80373389D01*
X82219500Y-81346611D01*
X82246598Y-81517701D01*
X82300127Y-81682445D01*
X82378768Y-81836788D01*
X82480586Y-81976928D01*
X82603072Y-82099414D01*
X82743212Y-82201232D01*
X82897555Y-82279873D01*
X83062299Y-82333402D01*
X83233389Y-82360500D01*
X83233390Y-82360500D01*
X83406610Y-82360500D01*
X83406611Y-82360500D01*
X83577701Y-82333402D01*
X83742445Y-82279873D01*
X83896788Y-82201232D01*
X84036928Y-82099414D01*
X84159414Y-81976928D01*
X84261232Y-81836788D01*
X84339873Y-81682445D01*
X84393402Y-81517701D01*
X84420500Y-81346611D01*
X84420500Y-80373389D01*
X84759500Y-80373389D01*
X84759500Y-81346611D01*
X84786598Y-81517701D01*
X84840127Y-81682445D01*
X84918768Y-81836788D01*
X85020586Y-81976928D01*
X85143072Y-82099414D01*
X85283212Y-82201232D01*
X85437555Y-82279873D01*
X85602299Y-82333402D01*
X85773389Y-82360500D01*
X85773390Y-82360500D01*
X85946610Y-82360500D01*
X85946611Y-82360500D01*
X86117701Y-82333402D01*
X86282445Y-82279873D01*
X86436788Y-82201232D01*
X86576928Y-82099414D01*
X86699414Y-81976928D01*
X86801232Y-81836788D01*
X86879873Y-81682445D01*
X86933402Y-81517701D01*
X86960500Y-81346611D01*
X86960500Y-80373389D01*
X87299500Y-80373389D01*
X87299500Y-81346611D01*
X87326598Y-81517701D01*
X87380127Y-81682445D01*
X87458768Y-81836788D01*
X87560586Y-81976928D01*
X87683072Y-82099414D01*
X87823212Y-82201232D01*
X87977555Y-82279873D01*
X88142299Y-82333402D01*
X88313389Y-82360500D01*
X88313390Y-82360500D01*
X88486610Y-82360500D01*
X88486611Y-82360500D01*
X88657701Y-82333402D01*
X88822445Y-82279873D01*
X88976788Y-82201232D01*
X89116928Y-82099414D01*
X89239414Y-81976928D01*
X89341232Y-81836788D01*
X89419873Y-81682445D01*
X89473402Y-81517701D01*
X89500500Y-81346611D01*
X89500500Y-80373389D01*
X89839500Y-80373389D01*
X89839500Y-81346611D01*
X89866598Y-81517701D01*
X89920127Y-81682445D01*
X89998768Y-81836788D01*
X90100586Y-81976928D01*
X90223072Y-82099414D01*
X90363212Y-82201232D01*
X90517555Y-82279873D01*
X90682299Y-82333402D01*
X90853389Y-82360500D01*
X90853390Y-82360500D01*
X91026610Y-82360500D01*
X91026611Y-82360500D01*
X91197701Y-82333402D01*
X91362445Y-82279873D01*
X91516788Y-82201232D01*
X91656928Y-82099414D01*
X91779414Y-81976928D01*
X91881232Y-81836788D01*
X91959873Y-81682445D01*
X92013402Y-81517701D01*
X92040500Y-81346611D01*
X92040500Y-80373389D01*
X92379500Y-80373389D01*
X92379500Y-81346611D01*
X92406598Y-81517701D01*
X92460127Y-81682445D01*
X92538768Y-81836788D01*
X92640586Y-81976928D01*
X92763072Y-82099414D01*
X92903212Y-82201232D01*
X93057555Y-82279873D01*
X93222299Y-82333402D01*
X93393389Y-82360500D01*
X93393390Y-82360500D01*
X93566610Y-82360500D01*
X93566611Y-82360500D01*
X93737701Y-82333402D01*
X93902445Y-82279873D01*
X94056788Y-82201232D01*
X94196928Y-82099414D01*
X94319414Y-81976928D01*
X94421232Y-81836788D01*
X94499873Y-81682445D01*
X94553402Y-81517701D01*
X94580500Y-81346611D01*
X94580500Y-80373389D01*
X94919500Y-80373389D01*
X94919500Y-81346611D01*
X94946598Y-81517701D01*
X95000127Y-81682445D01*
X95078768Y-81836788D01*
X95180586Y-81976928D01*
X95303072Y-82099414D01*
X95443212Y-82201232D01*
X95597555Y-82279873D01*
X95762299Y-82333402D01*
X95933389Y-82360500D01*
X95933390Y-82360500D01*
X96106610Y-82360500D01*
X96106611Y-82360500D01*
X96277701Y-82333402D01*
X96442445Y-82279873D01*
X96596788Y-82201232D01*
X96736928Y-82099414D01*
X96859414Y-81976928D01*
X96961232Y-81836788D01*
X97039873Y-81682445D01*
X97093402Y-81517701D01*
X97120500Y-81346611D01*
X97120500Y-80373389D01*
X97459500Y-80373389D01*
X97459500Y-81346611D01*
X97486598Y-81517701D01*
X97540127Y-81682445D01*
X97618768Y-81836788D01*
X97720586Y-81976928D01*
X97843072Y-82099414D01*
X97983212Y-82201232D01*
X98137555Y-82279873D01*
X98302299Y-82333402D01*
X98473389Y-82360500D01*
X98473390Y-82360500D01*
X98646610Y-82360500D01*
X98646611Y-82360500D01*
X98817701Y-82333402D01*
X98982445Y-82279873D01*
X99136788Y-82201232D01*
X99276928Y-82099414D01*
X99399414Y-81976928D01*
X99501232Y-81836788D01*
X99579873Y-81682445D01*
X99633402Y-81517701D01*
X99660500Y-81346611D01*
X99660500Y-80373389D01*
X99999500Y-80373389D01*
X99999500Y-81346611D01*
X100026598Y-81517701D01*
X100080127Y-81682445D01*
X100158768Y-81836788D01*
X100260586Y-81976928D01*
X100383072Y-82099414D01*
X100523212Y-82201232D01*
X100677555Y-82279873D01*
X100842299Y-82333402D01*
X101013389Y-82360500D01*
X101013390Y-82360500D01*
X101186610Y-82360500D01*
X101186611Y-82360500D01*
X101357701Y-82333402D01*
X101522445Y-82279873D01*
X101676788Y-82201232D01*
X101816928Y-82099414D01*
X101939414Y-81976928D01*
X102041232Y-81836788D01*
X102119873Y-81682445D01*
X102173402Y-81517701D01*
X102200500Y-81346611D01*
X102200500Y-80373389D01*
X102539500Y-80373389D01*
X102539500Y-81346611D01*
X102566598Y-81517701D01*
X102620127Y-81682445D01*
X102698768Y-81836788D01*
X102800586Y-81976928D01*
X102923072Y-82099414D01*
X103063212Y-82201232D01*
X103217555Y-82279873D01*
X103382299Y-82333402D01*
X103553389Y-82360500D01*
X103553390Y-82360500D01*
X103726610Y-82360500D01*
X103726611Y-82360500D01*
X103897701Y-82333402D01*
X104062445Y-82279873D01*
X104216788Y-82201232D01*
X104356928Y-82099414D01*
X104479414Y-81976928D01*
X104581232Y-81836788D01*
X104659873Y-81682445D01*
X104713402Y-81517701D01*
X104740500Y-81346611D01*
X104740500Y-80373389D01*
X105079500Y-80373389D01*
X105079500Y-81346611D01*
X105106598Y-81517701D01*
X105160127Y-81682445D01*
X105238768Y-81836788D01*
X105340586Y-81976928D01*
X105463072Y-82099414D01*
X105603212Y-82201232D01*
X105757555Y-82279873D01*
X105922299Y-82333402D01*
X106093389Y-82360500D01*
X106093390Y-82360500D01*
X106266610Y-82360500D01*
X106266611Y-82360500D01*
X106437701Y-82333402D01*
X106602445Y-82279873D01*
X106756788Y-82201232D01*
X106896928Y-82099414D01*
X107019414Y-81976928D01*
X107121232Y-81836788D01*
X107199873Y-81682445D01*
X107253402Y-81517701D01*
X107280500Y-81346611D01*
X107280500Y-80373389D01*
X107619500Y-80373389D01*
X107619500Y-81346611D01*
X107646598Y-81517701D01*
X107700127Y-81682445D01*
X107778768Y-81836788D01*
X107880586Y-81976928D01*
X108003072Y-82099414D01*
X108143212Y-82201232D01*
X108297555Y-82279873D01*
X108462299Y-82333402D01*
X108633389Y-82360500D01*
X108633390Y-82360500D01*
X108806610Y-82360500D01*
X108806611Y-82360500D01*
X108977701Y-82333402D01*
X109142445Y-82279873D01*
X109296788Y-82201232D01*
X109436928Y-82099414D01*
X109559414Y-81976928D01*
X109661232Y-81836788D01*
X109739873Y-81682445D01*
X109793402Y-81517701D01*
X109820500Y-81346611D01*
X109820500Y-80377069D01*
X110156780Y-80377069D01*
X110156780Y-81350290D01*
X110183294Y-81517697D01*
X110183878Y-81521381D01*
X110237407Y-81686125D01*
X110316048Y-81840468D01*
X110417866Y-81980608D01*
X110540352Y-82103094D01*
X110680492Y-82204912D01*
X110834835Y-82283553D01*
X110999579Y-82337082D01*
X111170669Y-82364180D01*
X111170670Y-82364180D01*
X111343890Y-82364180D01*
X111343891Y-82364180D01*
X111514981Y-82337082D01*
X111679725Y-82283553D01*
X111834068Y-82204912D01*
X111974208Y-82103094D01*
X112096694Y-81980608D01*
X112198512Y-81840468D01*
X112277153Y-81686125D01*
X112330682Y-81521381D01*
X112357780Y-81350291D01*
X112357780Y-80377069D01*
X112696780Y-80377069D01*
X112696780Y-81350290D01*
X112723294Y-81517697D01*
X112723878Y-81521381D01*
X112777407Y-81686125D01*
X112856048Y-81840468D01*
X112873098Y-81863935D01*
X112896578Y-81929738D01*
X112896780Y-81936820D01*
X112896780Y-83588695D01*
X112931383Y-83762658D01*
X112931386Y-83762667D01*
X112999263Y-83926540D01*
X112999270Y-83926553D01*
X113097815Y-84074034D01*
X113097818Y-84074038D01*
X113223241Y-84199461D01*
X113223245Y-84199464D01*
X113370726Y-84298009D01*
X113370739Y-84298016D01*
X113408146Y-84313510D01*
X113534614Y-84365894D01*
X113534616Y-84365894D01*
X113534621Y-84365896D01*
X113708584Y-84400499D01*
X113708587Y-84400500D01*
X113708589Y-84400500D01*
X113885971Y-84400500D01*
X117975500Y-84400500D01*
X118042539Y-84420185D01*
X118088294Y-84472989D01*
X118099500Y-84524500D01*
X118099500Y-86475500D01*
X118079815Y-86542539D01*
X118027011Y-86588294D01*
X117975504Y-86599500D01*
X117950000Y-86599500D01*
X117949980Y-86599501D01*
X117847203Y-86610000D01*
X117847200Y-86610001D01*
X117680668Y-86665185D01*
X117680663Y-86665187D01*
X117531342Y-86757289D01*
X117407289Y-86881342D01*
X117315187Y-87030663D01*
X117315185Y-87030668D01*
X117298317Y-87081572D01*
X117260001Y-87197203D01*
X117260001Y-87197204D01*
X117260000Y-87197204D01*
X117249500Y-87299983D01*
X117249500Y-88700001D01*
X117249501Y-88700018D01*
X117260000Y-88802796D01*
X117260001Y-88802799D01*
X117315185Y-88969331D01*
X117315187Y-88969336D01*
X117338394Y-89006961D01*
X117407288Y-89118656D01*
X117531344Y-89242712D01*
X117680666Y-89334814D01*
X117847203Y-89389999D01*
X117949991Y-89400500D01*
X120050008Y-89400499D01*
X120152797Y-89389999D01*
X120319334Y-89334814D01*
X120468656Y-89242712D01*
X120592712Y-89118656D01*
X120684814Y-88969334D01*
X120739999Y-88802797D01*
X120750500Y-88700009D01*
X120750499Y-87299992D01*
X120739999Y-87197203D01*
X120684814Y-87030666D01*
X120592712Y-86881344D01*
X120468656Y-86757288D01*
X120319334Y-86665186D01*
X120152797Y-86610001D01*
X120152795Y-86610000D01*
X120050016Y-86599500D01*
X120050009Y-86599500D01*
X120024500Y-86599500D01*
X119957461Y-86579815D01*
X119911706Y-86527011D01*
X119900500Y-86475500D01*
X119900500Y-85874500D01*
X119920185Y-85807461D01*
X119972989Y-85761706D01*
X120024500Y-85750500D01*
X120098422Y-85750500D01*
X120292826Y-85719709D01*
X120355647Y-85699297D01*
X120480025Y-85658884D01*
X120655405Y-85569524D01*
X120814646Y-85453828D01*
X120953828Y-85314646D01*
X121069524Y-85155405D01*
X121158884Y-84980025D01*
X121219709Y-84792826D01*
X121219817Y-84792147D01*
X121250500Y-84598422D01*
X121250500Y-84401577D01*
X121219709Y-84207173D01*
X121184373Y-84098422D01*
X121158884Y-84019975D01*
X121158882Y-84019972D01*
X121158882Y-84019970D01*
X121104194Y-83912639D01*
X121069524Y-83844595D01*
X120953828Y-83685354D01*
X120814646Y-83546172D01*
X120655405Y-83430476D01*
X120480029Y-83341117D01*
X120292826Y-83280290D01*
X120098422Y-83249500D01*
X120098417Y-83249500D01*
X119953788Y-83249500D01*
X119886749Y-83229815D01*
X119840994Y-83177011D01*
X119839227Y-83172952D01*
X119798016Y-83073459D01*
X119798009Y-83073446D01*
X119699464Y-82925965D01*
X119699461Y-82925961D01*
X119574038Y-82800538D01*
X119574034Y-82800535D01*
X119426553Y-82701990D01*
X119426540Y-82701983D01*
X119262667Y-82634106D01*
X119262658Y-82634103D01*
X119088694Y-82599500D01*
X119088691Y-82599500D01*
X116510509Y-82599500D01*
X116443470Y-82579815D01*
X116397715Y-82527011D01*
X116387771Y-82457853D01*
X116416796Y-82394297D01*
X116475574Y-82356523D01*
X116491111Y-82353027D01*
X116594864Y-82336593D01*
X116759537Y-82283088D01*
X116913804Y-82204484D01*
X117053882Y-82102712D01*
X117176312Y-81980282D01*
X117278084Y-81840204D01*
X117356688Y-81685937D01*
X117410194Y-81521264D01*
X117437280Y-81350251D01*
X117437280Y-81113680D01*
X116652966Y-81113680D01*
X116657360Y-81109286D01*
X116710021Y-81018074D01*
X116737280Y-80916341D01*
X116737280Y-80811019D01*
X116710021Y-80709286D01*
X116657360Y-80618074D01*
X116652966Y-80613680D01*
X117437280Y-80613680D01*
X117437280Y-80377108D01*
X117410194Y-80206095D01*
X117356688Y-80041422D01*
X117278083Y-79887154D01*
X117176312Y-79747077D01*
X117053882Y-79624647D01*
X116913804Y-79522875D01*
X116759537Y-79444271D01*
X116594869Y-79390767D01*
X116594861Y-79390765D01*
X116587280Y-79389564D01*
X116587280Y-80547994D01*
X116582886Y-80543600D01*
X116491674Y-80490939D01*
X116389941Y-80463680D01*
X116284619Y-80463680D01*
X116182886Y-80490939D01*
X116091674Y-80543600D01*
X116087280Y-80547994D01*
X116087280Y-79389564D01*
X116087279Y-79389564D01*
X116079698Y-79390765D01*
X116079690Y-79390767D01*
X115915022Y-79444271D01*
X115760755Y-79522875D01*
X115620677Y-79624647D01*
X115498247Y-79747077D01*
X115396477Y-79887154D01*
X115317871Y-80041422D01*
X115264365Y-80206095D01*
X115237280Y-80377108D01*
X115237280Y-80613680D01*
X116021594Y-80613680D01*
X116017200Y-80618074D01*
X115964539Y-80709286D01*
X115937280Y-80811019D01*
X115937280Y-80916341D01*
X115964539Y-81018074D01*
X116017200Y-81109286D01*
X116021594Y-81113680D01*
X115237280Y-81113680D01*
X115237280Y-81350251D01*
X115264365Y-81521264D01*
X115317871Y-81685937D01*
X115396475Y-81840204D01*
X115498247Y-81980282D01*
X115620677Y-82102712D01*
X115760755Y-82204484D01*
X115915022Y-82283088D01*
X116079695Y-82336593D01*
X116183449Y-82353027D01*
X116246584Y-82382956D01*
X116283515Y-82442268D01*
X116282517Y-82512130D01*
X116243907Y-82570363D01*
X116179944Y-82598477D01*
X116164051Y-82599500D01*
X114821780Y-82599500D01*
X114754741Y-82579815D01*
X114708986Y-82527011D01*
X114697780Y-82475500D01*
X114697780Y-81936820D01*
X114717465Y-81869781D01*
X114721444Y-81863959D01*
X114738512Y-81840468D01*
X114817153Y-81686125D01*
X114870682Y-81521381D01*
X114897780Y-81350291D01*
X114897780Y-80377069D01*
X114870682Y-80205979D01*
X114817153Y-80041235D01*
X114738512Y-79886892D01*
X114636694Y-79746752D01*
X114514208Y-79624266D01*
X114374068Y-79522448D01*
X114219725Y-79443807D01*
X114054981Y-79390278D01*
X114054979Y-79390277D01*
X114054978Y-79390277D01*
X113901121Y-79365909D01*
X113883891Y-79363180D01*
X113710669Y-79363180D01*
X113693439Y-79365909D01*
X113539582Y-79390277D01*
X113374832Y-79443808D01*
X113220491Y-79522448D01*
X113140536Y-79580539D01*
X113080352Y-79624266D01*
X113080350Y-79624268D01*
X113080349Y-79624268D01*
X112957868Y-79746749D01*
X112957868Y-79746750D01*
X112957866Y-79746752D01*
X112914139Y-79806936D01*
X112856048Y-79886891D01*
X112777408Y-80041232D01*
X112723877Y-80205982D01*
X112696780Y-80377069D01*
X112357780Y-80377069D01*
X112330682Y-80205979D01*
X112277153Y-80041235D01*
X112198512Y-79886892D01*
X112096694Y-79746752D01*
X111974208Y-79624266D01*
X111834068Y-79522448D01*
X111679725Y-79443807D01*
X111514981Y-79390278D01*
X111514979Y-79390277D01*
X111514978Y-79390277D01*
X111361121Y-79365909D01*
X111343891Y-79363180D01*
X111170669Y-79363180D01*
X111153439Y-79365909D01*
X110999582Y-79390277D01*
X110834832Y-79443808D01*
X110680491Y-79522448D01*
X110600536Y-79580539D01*
X110540352Y-79624266D01*
X110540350Y-79624268D01*
X110540349Y-79624268D01*
X110417868Y-79746749D01*
X110417868Y-79746750D01*
X110417866Y-79746752D01*
X110374139Y-79806936D01*
X110316048Y-79886891D01*
X110237408Y-80041232D01*
X110183877Y-80205982D01*
X110156780Y-80377069D01*
X109820500Y-80377069D01*
X109820500Y-80373389D01*
X109793402Y-80202299D01*
X109739873Y-80037555D01*
X109661232Y-79883212D01*
X109559414Y-79743072D01*
X109436928Y-79620586D01*
X109296788Y-79518768D01*
X109149669Y-79443808D01*
X109142447Y-79440128D01*
X109142446Y-79440127D01*
X109142445Y-79440127D01*
X108977701Y-79386598D01*
X108977699Y-79386597D01*
X108977698Y-79386597D01*
X108846271Y-79365781D01*
X108806611Y-79359500D01*
X108633389Y-79359500D01*
X108593728Y-79365781D01*
X108462302Y-79386597D01*
X108297552Y-79440128D01*
X108143211Y-79518768D01*
X108063256Y-79576859D01*
X108003072Y-79620586D01*
X108003070Y-79620588D01*
X108003069Y-79620588D01*
X107880588Y-79743069D01*
X107880588Y-79743070D01*
X107880586Y-79743072D01*
X107873725Y-79752516D01*
X107778768Y-79883211D01*
X107700128Y-80037552D01*
X107646597Y-80202302D01*
X107619500Y-80373389D01*
X107280500Y-80373389D01*
X107253402Y-80202299D01*
X107199873Y-80037555D01*
X107121232Y-79883212D01*
X107019414Y-79743072D01*
X106896928Y-79620586D01*
X106756788Y-79518768D01*
X106609669Y-79443808D01*
X106602447Y-79440128D01*
X106602446Y-79440127D01*
X106602445Y-79440127D01*
X106437701Y-79386598D01*
X106437699Y-79386597D01*
X106437698Y-79386597D01*
X106306271Y-79365781D01*
X106266611Y-79359500D01*
X106093389Y-79359500D01*
X106053728Y-79365781D01*
X105922302Y-79386597D01*
X105757552Y-79440128D01*
X105603211Y-79518768D01*
X105523256Y-79576859D01*
X105463072Y-79620586D01*
X105463070Y-79620588D01*
X105463069Y-79620588D01*
X105340588Y-79743069D01*
X105340588Y-79743070D01*
X105340586Y-79743072D01*
X105333725Y-79752516D01*
X105238768Y-79883211D01*
X105160128Y-80037552D01*
X105106597Y-80202302D01*
X105079500Y-80373389D01*
X104740500Y-80373389D01*
X104713402Y-80202299D01*
X104659873Y-80037555D01*
X104581232Y-79883212D01*
X104479414Y-79743072D01*
X104356928Y-79620586D01*
X104216788Y-79518768D01*
X104069669Y-79443808D01*
X104062447Y-79440128D01*
X104062446Y-79440127D01*
X104062445Y-79440127D01*
X103897701Y-79386598D01*
X103897699Y-79386597D01*
X103897698Y-79386597D01*
X103766271Y-79365781D01*
X103726611Y-79359500D01*
X103553389Y-79359500D01*
X103513728Y-79365781D01*
X103382302Y-79386597D01*
X103217552Y-79440128D01*
X103063211Y-79518768D01*
X102983256Y-79576859D01*
X102923072Y-79620586D01*
X102923070Y-79620588D01*
X102923069Y-79620588D01*
X102800588Y-79743069D01*
X102800588Y-79743070D01*
X102800586Y-79743072D01*
X102793725Y-79752516D01*
X102698768Y-79883211D01*
X102620128Y-80037552D01*
X102566597Y-80202302D01*
X102539500Y-80373389D01*
X102200500Y-80373389D01*
X102173402Y-80202299D01*
X102119873Y-80037555D01*
X102041232Y-79883212D01*
X101939414Y-79743072D01*
X101816928Y-79620586D01*
X101676788Y-79518768D01*
X101529669Y-79443808D01*
X101522447Y-79440128D01*
X101522446Y-79440127D01*
X101522445Y-79440127D01*
X101357701Y-79386598D01*
X101357699Y-79386597D01*
X101357698Y-79386597D01*
X101226271Y-79365781D01*
X101186611Y-79359500D01*
X101013389Y-79359500D01*
X100973728Y-79365781D01*
X100842302Y-79386597D01*
X100677552Y-79440128D01*
X100523211Y-79518768D01*
X100443256Y-79576859D01*
X100383072Y-79620586D01*
X100383070Y-79620588D01*
X100383069Y-79620588D01*
X100260588Y-79743069D01*
X100260588Y-79743070D01*
X100260586Y-79743072D01*
X100253725Y-79752516D01*
X100158768Y-79883211D01*
X100080128Y-80037552D01*
X100026597Y-80202302D01*
X99999500Y-80373389D01*
X99660500Y-80373389D01*
X99633402Y-80202299D01*
X99579873Y-80037555D01*
X99501232Y-79883212D01*
X99399414Y-79743072D01*
X99276928Y-79620586D01*
X99136788Y-79518768D01*
X98989669Y-79443808D01*
X98982447Y-79440128D01*
X98982446Y-79440127D01*
X98982445Y-79440127D01*
X98817701Y-79386598D01*
X98817699Y-79386597D01*
X98817698Y-79386597D01*
X98686271Y-79365781D01*
X98646611Y-79359500D01*
X98473389Y-79359500D01*
X98433728Y-79365781D01*
X98302302Y-79386597D01*
X98137552Y-79440128D01*
X97983211Y-79518768D01*
X97903256Y-79576859D01*
X97843072Y-79620586D01*
X97843070Y-79620588D01*
X97843069Y-79620588D01*
X97720588Y-79743069D01*
X97720588Y-79743070D01*
X97720586Y-79743072D01*
X97713725Y-79752516D01*
X97618768Y-79883211D01*
X97540128Y-80037552D01*
X97486597Y-80202302D01*
X97459500Y-80373389D01*
X97120500Y-80373389D01*
X97093402Y-80202299D01*
X97039873Y-80037555D01*
X96961232Y-79883212D01*
X96859414Y-79743072D01*
X96736928Y-79620586D01*
X96596788Y-79518768D01*
X96449669Y-79443808D01*
X96442447Y-79440128D01*
X96442446Y-79440127D01*
X96442445Y-79440127D01*
X96277701Y-79386598D01*
X96277699Y-79386597D01*
X96277698Y-79386597D01*
X96146271Y-79365781D01*
X96106611Y-79359500D01*
X95933389Y-79359500D01*
X95893728Y-79365781D01*
X95762302Y-79386597D01*
X95597552Y-79440128D01*
X95443211Y-79518768D01*
X95363256Y-79576859D01*
X95303072Y-79620586D01*
X95303070Y-79620588D01*
X95303069Y-79620588D01*
X95180588Y-79743069D01*
X95180588Y-79743070D01*
X95180586Y-79743072D01*
X95173725Y-79752516D01*
X95078768Y-79883211D01*
X95000128Y-80037552D01*
X94946597Y-80202302D01*
X94919500Y-80373389D01*
X94580500Y-80373389D01*
X94553402Y-80202299D01*
X94499873Y-80037555D01*
X94421232Y-79883212D01*
X94319414Y-79743072D01*
X94196928Y-79620586D01*
X94056788Y-79518768D01*
X93909669Y-79443808D01*
X93902447Y-79440128D01*
X93902446Y-79440127D01*
X93902445Y-79440127D01*
X93737701Y-79386598D01*
X93737699Y-79386597D01*
X93737698Y-79386597D01*
X93606271Y-79365781D01*
X93566611Y-79359500D01*
X93393389Y-79359500D01*
X93353728Y-79365781D01*
X93222302Y-79386597D01*
X93057552Y-79440128D01*
X92903211Y-79518768D01*
X92823256Y-79576859D01*
X92763072Y-79620586D01*
X92763070Y-79620588D01*
X92763069Y-79620588D01*
X92640588Y-79743069D01*
X92640588Y-79743070D01*
X92640586Y-79743072D01*
X92633725Y-79752516D01*
X92538768Y-79883211D01*
X92460128Y-80037552D01*
X92406597Y-80202302D01*
X92379500Y-80373389D01*
X92040500Y-80373389D01*
X92013402Y-80202299D01*
X91959873Y-80037555D01*
X91881232Y-79883212D01*
X91779414Y-79743072D01*
X91656928Y-79620586D01*
X91516788Y-79518768D01*
X91369669Y-79443808D01*
X91362447Y-79440128D01*
X91362446Y-79440127D01*
X91362445Y-79440127D01*
X91197701Y-79386598D01*
X91197699Y-79386597D01*
X91197698Y-79386597D01*
X91066271Y-79365781D01*
X91026611Y-79359500D01*
X90853389Y-79359500D01*
X90813728Y-79365781D01*
X90682302Y-79386597D01*
X90517552Y-79440128D01*
X90363211Y-79518768D01*
X90283256Y-79576859D01*
X90223072Y-79620586D01*
X90223070Y-79620588D01*
X90223069Y-79620588D01*
X90100588Y-79743069D01*
X90100588Y-79743070D01*
X90100586Y-79743072D01*
X90093725Y-79752516D01*
X89998768Y-79883211D01*
X89920128Y-80037552D01*
X89866597Y-80202302D01*
X89839500Y-80373389D01*
X89500500Y-80373389D01*
X89473402Y-80202299D01*
X89419873Y-80037555D01*
X89341232Y-79883212D01*
X89239414Y-79743072D01*
X89116928Y-79620586D01*
X88976788Y-79518768D01*
X88829669Y-79443808D01*
X88822447Y-79440128D01*
X88822446Y-79440127D01*
X88822445Y-79440127D01*
X88657701Y-79386598D01*
X88657699Y-79386597D01*
X88657698Y-79386597D01*
X88526271Y-79365781D01*
X88486611Y-79359500D01*
X88313389Y-79359500D01*
X88273728Y-79365781D01*
X88142302Y-79386597D01*
X87977552Y-79440128D01*
X87823211Y-79518768D01*
X87743256Y-79576859D01*
X87683072Y-79620586D01*
X87683070Y-79620588D01*
X87683069Y-79620588D01*
X87560588Y-79743069D01*
X87560588Y-79743070D01*
X87560586Y-79743072D01*
X87553725Y-79752516D01*
X87458768Y-79883211D01*
X87380128Y-80037552D01*
X87326597Y-80202302D01*
X87299500Y-80373389D01*
X86960500Y-80373389D01*
X86933402Y-80202299D01*
X86879873Y-80037555D01*
X86801232Y-79883212D01*
X86699414Y-79743072D01*
X86576928Y-79620586D01*
X86436788Y-79518768D01*
X86289669Y-79443808D01*
X86282447Y-79440128D01*
X86282446Y-79440127D01*
X86282445Y-79440127D01*
X86117701Y-79386598D01*
X86117699Y-79386597D01*
X86117698Y-79386597D01*
X85986271Y-79365781D01*
X85946611Y-79359500D01*
X85773389Y-79359500D01*
X85733728Y-79365781D01*
X85602302Y-79386597D01*
X85437552Y-79440128D01*
X85283211Y-79518768D01*
X85203256Y-79576859D01*
X85143072Y-79620586D01*
X85143070Y-79620588D01*
X85143069Y-79620588D01*
X85020588Y-79743069D01*
X85020588Y-79743070D01*
X85020586Y-79743072D01*
X85013725Y-79752516D01*
X84918768Y-79883211D01*
X84840128Y-80037552D01*
X84786597Y-80202302D01*
X84759500Y-80373389D01*
X84420500Y-80373389D01*
X84393402Y-80202299D01*
X84339873Y-80037555D01*
X84261232Y-79883212D01*
X84159414Y-79743072D01*
X84036928Y-79620586D01*
X83896788Y-79518768D01*
X83749669Y-79443808D01*
X83742447Y-79440128D01*
X83742446Y-79440127D01*
X83742445Y-79440127D01*
X83577701Y-79386598D01*
X83577699Y-79386597D01*
X83577698Y-79386597D01*
X83446271Y-79365781D01*
X83406611Y-79359500D01*
X83233389Y-79359500D01*
X83193728Y-79365781D01*
X83062302Y-79386597D01*
X82897552Y-79440128D01*
X82743211Y-79518768D01*
X82663256Y-79576859D01*
X82603072Y-79620586D01*
X82603070Y-79620588D01*
X82603069Y-79620588D01*
X82480588Y-79743069D01*
X82480588Y-79743070D01*
X82480586Y-79743072D01*
X82473725Y-79752516D01*
X82378768Y-79883211D01*
X82300128Y-80037552D01*
X82246597Y-80202302D01*
X82219500Y-80373389D01*
X81880500Y-80373389D01*
X81853402Y-80202299D01*
X81799873Y-80037555D01*
X81721232Y-79883212D01*
X81619414Y-79743072D01*
X81496928Y-79620586D01*
X81356788Y-79518768D01*
X81209669Y-79443808D01*
X81202447Y-79440128D01*
X81202446Y-79440127D01*
X81202445Y-79440127D01*
X81037701Y-79386598D01*
X81037699Y-79386597D01*
X81037698Y-79386597D01*
X80906271Y-79365781D01*
X80866611Y-79359500D01*
X80693389Y-79359500D01*
X80653728Y-79365781D01*
X80522302Y-79386597D01*
X80357552Y-79440128D01*
X80203211Y-79518768D01*
X80123256Y-79576859D01*
X80063072Y-79620586D01*
X80063070Y-79620588D01*
X80063069Y-79620588D01*
X79940588Y-79743069D01*
X79940588Y-79743070D01*
X79940586Y-79743072D01*
X79933725Y-79752516D01*
X79838768Y-79883211D01*
X79760128Y-80037552D01*
X79706597Y-80202302D01*
X79679500Y-80373389D01*
X79340500Y-80373389D01*
X79313402Y-80202299D01*
X79259873Y-80037555D01*
X79181232Y-79883212D01*
X79079414Y-79743072D01*
X78956928Y-79620586D01*
X78816788Y-79518768D01*
X78669669Y-79443808D01*
X78662447Y-79440128D01*
X78662446Y-79440127D01*
X78662445Y-79440127D01*
X78497701Y-79386598D01*
X78497699Y-79386597D01*
X78497698Y-79386597D01*
X78366271Y-79365781D01*
X78326611Y-79359500D01*
X78153389Y-79359500D01*
X78113728Y-79365781D01*
X77982302Y-79386597D01*
X77817552Y-79440128D01*
X77663211Y-79518768D01*
X77583256Y-79576859D01*
X77523072Y-79620586D01*
X77523070Y-79620588D01*
X77523069Y-79620588D01*
X77400588Y-79743069D01*
X77400588Y-79743070D01*
X77400586Y-79743072D01*
X77393725Y-79752516D01*
X77298768Y-79883211D01*
X77220128Y-80037552D01*
X77166597Y-80202302D01*
X77139500Y-80373389D01*
X76800500Y-80373389D01*
X76773402Y-80202299D01*
X76719873Y-80037555D01*
X76641232Y-79883212D01*
X76539414Y-79743072D01*
X76416928Y-79620586D01*
X76276788Y-79518768D01*
X76129669Y-79443808D01*
X76122447Y-79440128D01*
X76122446Y-79440127D01*
X76122445Y-79440127D01*
X75957701Y-79386598D01*
X75957699Y-79386597D01*
X75957698Y-79386597D01*
X75826271Y-79365781D01*
X75786611Y-79359500D01*
X75613389Y-79359500D01*
X75573728Y-79365781D01*
X75442302Y-79386597D01*
X75277552Y-79440128D01*
X75123211Y-79518768D01*
X75043256Y-79576859D01*
X74983072Y-79620586D01*
X74983070Y-79620588D01*
X74983069Y-79620588D01*
X74860588Y-79743069D01*
X74860588Y-79743070D01*
X74860586Y-79743072D01*
X74853725Y-79752516D01*
X74758768Y-79883211D01*
X74680128Y-80037552D01*
X74626597Y-80202302D01*
X74599500Y-80373389D01*
X74599500Y-81346611D01*
X74626598Y-81517701D01*
X74680127Y-81682445D01*
X74758768Y-81836788D01*
X74860586Y-81976928D01*
X74983072Y-82099414D01*
X75018539Y-82125182D01*
X75061204Y-82180513D01*
X75067183Y-82250126D01*
X75034577Y-82311921D01*
X74973738Y-82346278D01*
X74945653Y-82349500D01*
X73934500Y-82349500D01*
X73925814Y-82346949D01*
X73916853Y-82348238D01*
X73892812Y-82337259D01*
X73867461Y-82329815D01*
X73861533Y-82322974D01*
X73853297Y-82319213D01*
X73839007Y-82296978D01*
X73821706Y-82277011D01*
X73819418Y-82266496D01*
X73815523Y-82260435D01*
X73810500Y-82225500D01*
X73810500Y-82210857D01*
X73830185Y-82143818D01*
X73861618Y-82110537D01*
X73876928Y-82099414D01*
X73999414Y-81976928D01*
X74101232Y-81836788D01*
X74179873Y-81682445D01*
X74233402Y-81517701D01*
X74260500Y-81346611D01*
X74260500Y-80373389D01*
X74233402Y-80202299D01*
X74179873Y-80037555D01*
X74101232Y-79883212D01*
X73999414Y-79743072D01*
X73876928Y-79620586D01*
X73736788Y-79518768D01*
X73589669Y-79443808D01*
X73582447Y-79440128D01*
X73582446Y-79440127D01*
X73582445Y-79440127D01*
X73417701Y-79386598D01*
X73417699Y-79386597D01*
X73417698Y-79386597D01*
X73286271Y-79365781D01*
X73246611Y-79359500D01*
X73073389Y-79359500D01*
X73033728Y-79365781D01*
X72902302Y-79386597D01*
X72737552Y-79440128D01*
X72583211Y-79518768D01*
X72503256Y-79576859D01*
X72443072Y-79620586D01*
X72443070Y-79620588D01*
X72443069Y-79620588D01*
X72320588Y-79743069D01*
X72320588Y-79743070D01*
X72320586Y-79743072D01*
X72313725Y-79752516D01*
X72218768Y-79883211D01*
X72140128Y-80037552D01*
X72086597Y-80202302D01*
X72059500Y-80373389D01*
X72059500Y-81346611D01*
X72086598Y-81517701D01*
X72140127Y-81682445D01*
X72218768Y-81836788D01*
X72320586Y-81976928D01*
X72320588Y-81976930D01*
X72443070Y-82099412D01*
X72443076Y-82099417D01*
X72458382Y-82110537D01*
X72461723Y-82114869D01*
X72466703Y-82117144D01*
X72482834Y-82142245D01*
X72501050Y-82165866D01*
X72502303Y-82172539D01*
X72504477Y-82175922D01*
X72509500Y-82210857D01*
X72509500Y-82233101D01*
X72489815Y-82300140D01*
X72437011Y-82345895D01*
X72409693Y-82354718D01*
X72310260Y-82374497D01*
X72310255Y-82374499D01*
X72191875Y-82423533D01*
X72191866Y-82423538D01*
X72085331Y-82494723D01*
X72085327Y-82494726D01*
X71994726Y-82585327D01*
X71994723Y-82585331D01*
X71923538Y-82691866D01*
X71923533Y-82691875D01*
X71874499Y-82810255D01*
X71874497Y-82810261D01*
X71849500Y-82935928D01*
X71849500Y-84313510D01*
X71829815Y-84380549D01*
X71795194Y-84414234D01*
X71795718Y-84414903D01*
X71789811Y-84419530D01*
X71669530Y-84539811D01*
X71581522Y-84685393D01*
X71530913Y-84847807D01*
X71524500Y-84918386D01*
X71524500Y-85431613D01*
X71530913Y-85502192D01*
X71530913Y-85502194D01*
X71530914Y-85502196D01*
X71550954Y-85566508D01*
X71581522Y-85664606D01*
X71669530Y-85810188D01*
X71772015Y-85912673D01*
X71805500Y-85973996D01*
X71800516Y-86043688D01*
X71772015Y-86088035D01*
X71669928Y-86190121D01*
X71669927Y-86190122D01*
X71581980Y-86335604D01*
X71531409Y-86497893D01*
X71525000Y-86568427D01*
X71525000Y-86575000D01*
X73474999Y-86575000D01*
X73474999Y-86568417D01*
X73468591Y-86497897D01*
X73468590Y-86497892D01*
X73418018Y-86335603D01*
X73330072Y-86190122D01*
X73227984Y-86088034D01*
X73194499Y-86026711D01*
X73199483Y-85957019D01*
X73227983Y-85912673D01*
X73330472Y-85810185D01*
X73418478Y-85664606D01*
X73469086Y-85502196D01*
X73475500Y-85431616D01*
X73475500Y-84918384D01*
X73469086Y-84847804D01*
X73418478Y-84685394D01*
X73330472Y-84539815D01*
X73330470Y-84539813D01*
X73330469Y-84539811D01*
X73210188Y-84419530D01*
X73204282Y-84414903D01*
X73205083Y-84413879D01*
X73163158Y-84368090D01*
X73150500Y-84313510D01*
X73150500Y-83774500D01*
X73170185Y-83707461D01*
X73222989Y-83661706D01*
X73274500Y-83650500D01*
X75225500Y-83650500D01*
X75292539Y-83670185D01*
X75338294Y-83722989D01*
X75349500Y-83774500D01*
X75349500Y-84313510D01*
X75329815Y-84380549D01*
X75295194Y-84414234D01*
X75295718Y-84414903D01*
X75289811Y-84419530D01*
X75169530Y-84539811D01*
X75081522Y-84685393D01*
X75030913Y-84847807D01*
X75024500Y-84918386D01*
X75024500Y-85431613D01*
X75030913Y-85502192D01*
X75030913Y-85502194D01*
X75030914Y-85502196D01*
X75050954Y-85566508D01*
X75081522Y-85664606D01*
X75169530Y-85810188D01*
X75271661Y-85912319D01*
X75305146Y-85973642D01*
X75300162Y-86043334D01*
X75271661Y-86087681D01*
X75169531Y-86189810D01*
X75169530Y-86189811D01*
X75081522Y-86335393D01*
X75030913Y-86497807D01*
X75024500Y-86568386D01*
X75024500Y-87081613D01*
X75030913Y-87152192D01*
X75030913Y-87152194D01*
X75030914Y-87152196D01*
X75081522Y-87314606D01*
X75121266Y-87380351D01*
X75169530Y-87460188D01*
X75289810Y-87580468D01*
X75295715Y-87585094D01*
X75294911Y-87586119D01*
X75336833Y-87631890D01*
X75349500Y-87686488D01*
X75349500Y-88525500D01*
X75329815Y-88592539D01*
X75277011Y-88638294D01*
X75225501Y-88649500D01*
X75102130Y-88649500D01*
X75102123Y-88649501D01*
X75042516Y-88655908D01*
X74907671Y-88706202D01*
X74907664Y-88706206D01*
X74792455Y-88792452D01*
X74792452Y-88792455D01*
X74706206Y-88907664D01*
X74706202Y-88907671D01*
X74655908Y-89042517D01*
X74649501Y-89102116D01*
X74649500Y-89102135D01*
X74649500Y-90897870D01*
X74649501Y-90897876D01*
X74655908Y-90957483D01*
X74706202Y-91092328D01*
X74706206Y-91092335D01*
X74792452Y-91207544D01*
X74792455Y-91207547D01*
X74907664Y-91293793D01*
X74907671Y-91293797D01*
X75042517Y-91344091D01*
X75042516Y-91344091D01*
X75049444Y-91344835D01*
X75102127Y-91350500D01*
X76897872Y-91350499D01*
X76957483Y-91344091D01*
X77092331Y-91293796D01*
X77207546Y-91207546D01*
X77293796Y-91092331D01*
X77342811Y-90960914D01*
X77384682Y-90904983D01*
X77441652Y-90883734D01*
X77450145Y-90880566D01*
X77450146Y-90880566D01*
X77463578Y-90883488D01*
X77518418Y-90895417D01*
X77534991Y-90907824D01*
X77546673Y-90916569D01*
X77603181Y-90973077D01*
X77636666Y-91034400D01*
X77639500Y-91060758D01*
X77639500Y-92475500D01*
X77619815Y-92542539D01*
X77567011Y-92588294D01*
X77515500Y-92599500D01*
X66564500Y-92599500D01*
X66497461Y-92579815D01*
X66451706Y-92527011D01*
X66440500Y-92475500D01*
X66440500Y-91060758D01*
X66460185Y-90993719D01*
X66476819Y-90973077D01*
X66492413Y-90957483D01*
X66570104Y-90879792D01*
X66570106Y-90879788D01*
X66570109Y-90879786D01*
X66655890Y-90761717D01*
X66695051Y-90707816D01*
X66699793Y-90698508D01*
X66747763Y-90647711D01*
X66815583Y-90630911D01*
X66881719Y-90653445D01*
X66920763Y-90698500D01*
X66925373Y-90707547D01*
X66964728Y-90761716D01*
X67597037Y-90129408D01*
X67614075Y-90192993D01*
X67679901Y-90307007D01*
X67772993Y-90400099D01*
X67887007Y-90465925D01*
X67950590Y-90482962D01*
X67318282Y-91115269D01*
X67318282Y-91115270D01*
X67372449Y-91154624D01*
X67561782Y-91251095D01*
X67763870Y-91316757D01*
X67973754Y-91350000D01*
X68186246Y-91350000D01*
X68396127Y-91316757D01*
X68396130Y-91316757D01*
X68598217Y-91251095D01*
X68787554Y-91154622D01*
X68841716Y-91115270D01*
X68841717Y-91115270D01*
X68209408Y-90482962D01*
X68272993Y-90465925D01*
X68387007Y-90400099D01*
X68480099Y-90307007D01*
X68545925Y-90192993D01*
X68562962Y-90129408D01*
X69195270Y-90761717D01*
X69195270Y-90761716D01*
X69234622Y-90707554D01*
X69331095Y-90518217D01*
X69396757Y-90316130D01*
X69396757Y-90316127D01*
X69430000Y-90106246D01*
X69430000Y-89893753D01*
X69396757Y-89683872D01*
X69396757Y-89683869D01*
X69331095Y-89481782D01*
X69234624Y-89292449D01*
X69195270Y-89238282D01*
X69195269Y-89238282D01*
X68562962Y-89870590D01*
X68545925Y-89807007D01*
X68480099Y-89692993D01*
X68387007Y-89599901D01*
X68272993Y-89534075D01*
X68209409Y-89517037D01*
X68841716Y-88884728D01*
X68787550Y-88845375D01*
X68598217Y-88748904D01*
X68396129Y-88683242D01*
X68186246Y-88650000D01*
X67973754Y-88650000D01*
X67763872Y-88683242D01*
X67763869Y-88683242D01*
X67561782Y-88748904D01*
X67372439Y-88845380D01*
X67318282Y-88884727D01*
X67318282Y-88884728D01*
X67950591Y-89517037D01*
X67887007Y-89534075D01*
X67772993Y-89599901D01*
X67679901Y-89692993D01*
X67614075Y-89807007D01*
X67597037Y-89870591D01*
X66964728Y-89238282D01*
X66964727Y-89238282D01*
X66925380Y-89292440D01*
X66925376Y-89292446D01*
X66920760Y-89301505D01*
X66872781Y-89352297D01*
X66804959Y-89369087D01*
X66738826Y-89346543D01*
X66699794Y-89301493D01*
X66695051Y-89292184D01*
X66695049Y-89292181D01*
X66695048Y-89292179D01*
X66570109Y-89120213D01*
X66419786Y-88969890D01*
X66247820Y-88844951D01*
X66058414Y-88748444D01*
X66058413Y-88748443D01*
X66058412Y-88748443D01*
X65856243Y-88682754D01*
X65856241Y-88682753D01*
X65856240Y-88682753D01*
X65694957Y-88657208D01*
X65646287Y-88649500D01*
X65433713Y-88649500D01*
X65385042Y-88657208D01*
X65223760Y-88682753D01*
X65021585Y-88748444D01*
X64832179Y-88844951D01*
X64660215Y-88969889D01*
X64546673Y-89083431D01*
X64485350Y-89116915D01*
X64415658Y-89111931D01*
X64359725Y-89070059D01*
X64342810Y-89039082D01*
X64293797Y-88907671D01*
X64293793Y-88907664D01*
X64207547Y-88792455D01*
X64207544Y-88792452D01*
X64092335Y-88706206D01*
X64092328Y-88706202D01*
X63957482Y-88655908D01*
X63957483Y-88655908D01*
X63897883Y-88649501D01*
X63897881Y-88649500D01*
X63897873Y-88649500D01*
X63897865Y-88649500D01*
X63774500Y-88649500D01*
X63707461Y-88629815D01*
X63661706Y-88577011D01*
X63650500Y-88525500D01*
X63650500Y-87686488D01*
X63670185Y-87619449D01*
X63704809Y-87585763D01*
X63704285Y-87585094D01*
X63710180Y-87580474D01*
X63710185Y-87580472D01*
X63830472Y-87460185D01*
X63918478Y-87314606D01*
X63969086Y-87152196D01*
X63975500Y-87081616D01*
X63975500Y-87081582D01*
X65525001Y-87081582D01*
X65531408Y-87152102D01*
X65531409Y-87152107D01*
X65581981Y-87314396D01*
X65669927Y-87459877D01*
X65790122Y-87580072D01*
X65935604Y-87668019D01*
X65935603Y-87668019D01*
X66097894Y-87718590D01*
X66097892Y-87718590D01*
X66168418Y-87724999D01*
X66750000Y-87724999D01*
X66831581Y-87724999D01*
X66902102Y-87718591D01*
X66902107Y-87718590D01*
X67064396Y-87668018D01*
X67209877Y-87580072D01*
X67330072Y-87459877D01*
X67418019Y-87314395D01*
X67468590Y-87152106D01*
X67474999Y-87081582D01*
X71525001Y-87081582D01*
X71531408Y-87152102D01*
X71531409Y-87152107D01*
X71581981Y-87314396D01*
X71669927Y-87459877D01*
X71790122Y-87580072D01*
X71935604Y-87668019D01*
X71935603Y-87668019D01*
X72097894Y-87718590D01*
X72097892Y-87718590D01*
X72168418Y-87724999D01*
X72750000Y-87724999D01*
X72831581Y-87724999D01*
X72902102Y-87718591D01*
X72902107Y-87718590D01*
X73064396Y-87668018D01*
X73209877Y-87580072D01*
X73330072Y-87459877D01*
X73418019Y-87314395D01*
X73468590Y-87152106D01*
X73475000Y-87081572D01*
X73475000Y-87075000D01*
X72750000Y-87075000D01*
X72750000Y-87724999D01*
X72168418Y-87724999D01*
X72249999Y-87724998D01*
X72250000Y-87724998D01*
X72250000Y-87075000D01*
X71525001Y-87075000D01*
X71525001Y-87081582D01*
X67474999Y-87081582D01*
X67475000Y-87081572D01*
X67475000Y-87075000D01*
X66750000Y-87075000D01*
X66750000Y-87724999D01*
X66168418Y-87724999D01*
X66249999Y-87724998D01*
X66250000Y-87724998D01*
X66250000Y-87075000D01*
X65525001Y-87075000D01*
X65525001Y-87081582D01*
X63975500Y-87081582D01*
X63975500Y-86568384D01*
X63969086Y-86497804D01*
X63918478Y-86335394D01*
X63830472Y-86189815D01*
X63830470Y-86189813D01*
X63830469Y-86189811D01*
X63728339Y-86087681D01*
X63694854Y-86026358D01*
X63699838Y-85956666D01*
X63728339Y-85912319D01*
X63830468Y-85810189D01*
X63830469Y-85810188D01*
X63830472Y-85810185D01*
X63918478Y-85664606D01*
X63969086Y-85502196D01*
X63975500Y-85431616D01*
X63975500Y-84918384D01*
X63969086Y-84847804D01*
X63918478Y-84685394D01*
X63830472Y-84539815D01*
X63830470Y-84539813D01*
X63830469Y-84539811D01*
X63710188Y-84419530D01*
X63704282Y-84414903D01*
X63705083Y-84413879D01*
X63703079Y-84411690D01*
X63693297Y-84407223D01*
X63679895Y-84386370D01*
X63663158Y-84368090D01*
X63660340Y-84355941D01*
X63655523Y-84348445D01*
X63650500Y-84313510D01*
X63650500Y-84274500D01*
X63670185Y-84207461D01*
X63722989Y-84161706D01*
X63774500Y-84150500D01*
X65725500Y-84150500D01*
X65792539Y-84170185D01*
X65838294Y-84222989D01*
X65849500Y-84274500D01*
X65849500Y-84313510D01*
X65829815Y-84380549D01*
X65795194Y-84414234D01*
X65795718Y-84414903D01*
X65789811Y-84419530D01*
X65669530Y-84539811D01*
X65581522Y-84685393D01*
X65530913Y-84847807D01*
X65524500Y-84918386D01*
X65524500Y-85431613D01*
X65530913Y-85502192D01*
X65530913Y-85502194D01*
X65530914Y-85502196D01*
X65550954Y-85566508D01*
X65581522Y-85664606D01*
X65669530Y-85810188D01*
X65772015Y-85912673D01*
X65805500Y-85973996D01*
X65800516Y-86043688D01*
X65772015Y-86088035D01*
X65669928Y-86190121D01*
X65669927Y-86190122D01*
X65581980Y-86335604D01*
X65531409Y-86497893D01*
X65525000Y-86568427D01*
X65525000Y-86575000D01*
X67474999Y-86575000D01*
X67474999Y-86568417D01*
X67468591Y-86497897D01*
X67468590Y-86497892D01*
X67418018Y-86335603D01*
X67330072Y-86190122D01*
X67227984Y-86088034D01*
X67194499Y-86026711D01*
X67199483Y-85957019D01*
X67227983Y-85912673D01*
X67330472Y-85810185D01*
X67418478Y-85664606D01*
X67469086Y-85502196D01*
X67475500Y-85431616D01*
X67475500Y-84918384D01*
X67469086Y-84847804D01*
X67418478Y-84685394D01*
X67330472Y-84539815D01*
X67330470Y-84539813D01*
X67330469Y-84539811D01*
X67210188Y-84419530D01*
X67204282Y-84414903D01*
X67205083Y-84413879D01*
X67203079Y-84411690D01*
X67193297Y-84407223D01*
X67179895Y-84386370D01*
X67163158Y-84368090D01*
X67160340Y-84355941D01*
X67155523Y-84348445D01*
X67150500Y-84313510D01*
X67150500Y-84274500D01*
X67170185Y-84207461D01*
X67222989Y-84161706D01*
X67274500Y-84150500D01*
X70684071Y-84150500D01*
X70768615Y-84133682D01*
X70809744Y-84125501D01*
X70928127Y-84076465D01*
X71034669Y-84005276D01*
X71125276Y-83914669D01*
X71196465Y-83808127D01*
X71245501Y-83689744D01*
X71253682Y-83648615D01*
X71270500Y-83564071D01*
X71270500Y-82210857D01*
X71290185Y-82143818D01*
X71321618Y-82110537D01*
X71336928Y-82099414D01*
X71459414Y-81976928D01*
X71561232Y-81836788D01*
X71639873Y-81682445D01*
X71693402Y-81517701D01*
X71720500Y-81346611D01*
X71720500Y-80373389D01*
X71693402Y-80202299D01*
X71639873Y-80037555D01*
X71561232Y-79883212D01*
X71459414Y-79743072D01*
X71336928Y-79620586D01*
X71196788Y-79518768D01*
X71049669Y-79443808D01*
X71042447Y-79440128D01*
X71042446Y-79440127D01*
X71042445Y-79440127D01*
X70877701Y-79386598D01*
X70877699Y-79386597D01*
X70877698Y-79386597D01*
X70746271Y-79365781D01*
X70706611Y-79359500D01*
X70533389Y-79359500D01*
X70493728Y-79365781D01*
X70362302Y-79386597D01*
X70197552Y-79440128D01*
X70043211Y-79518768D01*
X69963256Y-79576859D01*
X69903072Y-79620586D01*
X69903070Y-79620588D01*
X69903069Y-79620588D01*
X69780588Y-79743069D01*
X69780588Y-79743070D01*
X69780586Y-79743072D01*
X69773725Y-79752516D01*
X69678768Y-79883211D01*
X69600128Y-80037552D01*
X69546597Y-80202302D01*
X69519500Y-80373389D01*
X69519500Y-81346611D01*
X69546598Y-81517701D01*
X69600127Y-81682445D01*
X69678768Y-81836788D01*
X69780586Y-81976928D01*
X69780588Y-81976930D01*
X69903070Y-82099412D01*
X69903076Y-82099417D01*
X69918382Y-82110537D01*
X69961050Y-82165866D01*
X69969500Y-82210857D01*
X69969500Y-82725500D01*
X69949815Y-82792539D01*
X69897011Y-82838294D01*
X69845500Y-82849500D01*
X62935929Y-82849500D01*
X62810261Y-82874497D01*
X62810255Y-82874499D01*
X62691875Y-82923533D01*
X62691866Y-82923538D01*
X62585331Y-82994723D01*
X62585327Y-82994726D01*
X62494726Y-83085327D01*
X62494723Y-83085331D01*
X62423538Y-83191866D01*
X62423531Y-83191879D01*
X62389951Y-83272952D01*
X62346111Y-83327356D01*
X62279817Y-83349421D01*
X62275390Y-83349500D01*
X60636268Y-83349500D01*
X60569229Y-83329815D01*
X60535950Y-83298385D01*
X60453830Y-83185357D01*
X60453825Y-83185351D01*
X60314648Y-83046174D01*
X60314646Y-83046172D01*
X60155405Y-82930476D01*
X60141788Y-82923538D01*
X59980029Y-82841117D01*
X59792826Y-82780290D01*
X59598422Y-82749500D01*
X59598417Y-82749500D01*
X59401583Y-82749500D01*
X59401578Y-82749500D01*
X59207173Y-82780290D01*
X59019970Y-82841117D01*
X58844594Y-82930476D01*
X58756167Y-82994723D01*
X58685354Y-83046172D01*
X58685352Y-83046174D01*
X58685351Y-83046174D01*
X58546174Y-83185351D01*
X58546174Y-83185352D01*
X58546172Y-83185354D01*
X58517004Y-83225500D01*
X58430476Y-83344594D01*
X58341117Y-83519970D01*
X58280290Y-83707173D01*
X58249500Y-83901577D01*
X50500500Y-83901577D01*
X50500500Y-79812135D01*
X61899500Y-79812135D01*
X61899500Y-81907870D01*
X61899501Y-81907876D01*
X61905908Y-81967483D01*
X61956202Y-82102328D01*
X61956206Y-82102335D01*
X62042452Y-82217544D01*
X62042455Y-82217547D01*
X62157664Y-82303793D01*
X62157671Y-82303797D01*
X62292517Y-82354091D01*
X62292516Y-82354091D01*
X62298349Y-82354718D01*
X62352127Y-82360500D01*
X63647872Y-82360499D01*
X63707483Y-82354091D01*
X63842331Y-82303796D01*
X63957546Y-82217546D01*
X64043796Y-82102331D01*
X64094091Y-81967483D01*
X64100500Y-81907873D01*
X64100499Y-80373389D01*
X64439500Y-80373389D01*
X64439500Y-81346611D01*
X64466598Y-81517701D01*
X64520127Y-81682445D01*
X64598768Y-81836788D01*
X64700586Y-81976928D01*
X64823072Y-82099414D01*
X64963212Y-82201232D01*
X65117555Y-82279873D01*
X65282299Y-82333402D01*
X65453389Y-82360500D01*
X65453390Y-82360500D01*
X65626610Y-82360500D01*
X65626611Y-82360500D01*
X65797701Y-82333402D01*
X65962445Y-82279873D01*
X66116788Y-82201232D01*
X66256928Y-82099414D01*
X66379414Y-81976928D01*
X66481232Y-81836788D01*
X66559873Y-81682445D01*
X66613402Y-81517701D01*
X66640500Y-81346611D01*
X66640500Y-80373389D01*
X66979500Y-80373389D01*
X66979500Y-81346611D01*
X67006598Y-81517701D01*
X67060127Y-81682445D01*
X67138768Y-81836788D01*
X67240586Y-81976928D01*
X67363072Y-82099414D01*
X67503212Y-82201232D01*
X67657555Y-82279873D01*
X67822299Y-82333402D01*
X67993389Y-82360500D01*
X67993390Y-82360500D01*
X68166610Y-82360500D01*
X68166611Y-82360500D01*
X68337701Y-82333402D01*
X68502445Y-82279873D01*
X68656788Y-82201232D01*
X68796928Y-82099414D01*
X68919414Y-81976928D01*
X69021232Y-81836788D01*
X69099873Y-81682445D01*
X69153402Y-81517701D01*
X69180500Y-81346611D01*
X69180500Y-80373389D01*
X69153402Y-80202299D01*
X69099873Y-80037555D01*
X69021232Y-79883212D01*
X68919414Y-79743072D01*
X68796928Y-79620586D01*
X68656788Y-79518768D01*
X68509669Y-79443808D01*
X68502447Y-79440128D01*
X68502446Y-79440127D01*
X68502445Y-79440127D01*
X68337701Y-79386598D01*
X68337699Y-79386597D01*
X68337698Y-79386597D01*
X68206271Y-79365781D01*
X68166611Y-79359500D01*
X67993389Y-79359500D01*
X67953728Y-79365781D01*
X67822302Y-79386597D01*
X67657552Y-79440128D01*
X67503211Y-79518768D01*
X67423256Y-79576859D01*
X67363072Y-79620586D01*
X67363070Y-79620588D01*
X67363069Y-79620588D01*
X67240588Y-79743069D01*
X67240588Y-79743070D01*
X67240586Y-79743072D01*
X67233725Y-79752516D01*
X67138768Y-79883211D01*
X67060128Y-80037552D01*
X67006597Y-80202302D01*
X66979500Y-80373389D01*
X66640500Y-80373389D01*
X66613402Y-80202299D01*
X66559873Y-80037555D01*
X66481232Y-79883212D01*
X66379414Y-79743072D01*
X66256928Y-79620586D01*
X66116788Y-79518768D01*
X65969669Y-79443808D01*
X65962447Y-79440128D01*
X65962446Y-79440127D01*
X65962445Y-79440127D01*
X65797701Y-79386598D01*
X65797699Y-79386597D01*
X65797698Y-79386597D01*
X65666271Y-79365781D01*
X65626611Y-79359500D01*
X65453389Y-79359500D01*
X65413728Y-79365781D01*
X65282302Y-79386597D01*
X65117552Y-79440128D01*
X64963211Y-79518768D01*
X64883256Y-79576859D01*
X64823072Y-79620586D01*
X64823070Y-79620588D01*
X64823069Y-79620588D01*
X64700588Y-79743069D01*
X64700588Y-79743070D01*
X64700586Y-79743072D01*
X64693725Y-79752516D01*
X64598768Y-79883211D01*
X64520128Y-80037552D01*
X64466597Y-80202302D01*
X64439500Y-80373389D01*
X64100499Y-80373389D01*
X64100499Y-79812128D01*
X64094091Y-79752517D01*
X64090568Y-79743072D01*
X64043797Y-79617671D01*
X64043793Y-79617664D01*
X63957547Y-79502455D01*
X63957544Y-79502452D01*
X63842335Y-79416206D01*
X63842328Y-79416202D01*
X63707482Y-79365908D01*
X63707483Y-79365908D01*
X63647883Y-79359501D01*
X63647881Y-79359500D01*
X63647873Y-79359500D01*
X63647864Y-79359500D01*
X62352129Y-79359500D01*
X62352123Y-79359501D01*
X62292516Y-79365908D01*
X62157671Y-79416202D01*
X62157664Y-79416206D01*
X62042455Y-79502452D01*
X62042452Y-79502455D01*
X61956206Y-79617664D01*
X61956202Y-79617671D01*
X61905908Y-79752517D01*
X61899501Y-79812116D01*
X61899501Y-79812123D01*
X61899500Y-79812135D01*
X50500500Y-79812135D01*
X50500500Y-57513428D01*
X61900000Y-57513428D01*
X61900000Y-57750000D01*
X62684314Y-57750000D01*
X62679920Y-57754394D01*
X62627259Y-57845606D01*
X62600000Y-57947339D01*
X62600000Y-58052661D01*
X62627259Y-58154394D01*
X62679920Y-58245606D01*
X62684314Y-58250000D01*
X61900000Y-58250000D01*
X61900000Y-58486571D01*
X61927085Y-58657584D01*
X61980591Y-58822257D01*
X62059195Y-58976524D01*
X62160967Y-59116602D01*
X62283397Y-59239032D01*
X62423475Y-59340804D01*
X62577744Y-59419408D01*
X62742415Y-59472914D01*
X62742414Y-59472914D01*
X62749999Y-59474115D01*
X62750000Y-59474114D01*
X62750000Y-58315686D01*
X62754394Y-58320080D01*
X62845606Y-58372741D01*
X62947339Y-58400000D01*
X63052661Y-58400000D01*
X63154394Y-58372741D01*
X63245606Y-58320080D01*
X63250000Y-58315686D01*
X63250000Y-59474115D01*
X63257584Y-59472914D01*
X63422255Y-59419408D01*
X63576524Y-59340804D01*
X63716602Y-59239032D01*
X63839032Y-59116602D01*
X63940804Y-58976524D01*
X64019408Y-58822257D01*
X64072914Y-58657584D01*
X64100000Y-58486571D01*
X64100000Y-58250000D01*
X63315686Y-58250000D01*
X63320080Y-58245606D01*
X63372741Y-58154394D01*
X63400000Y-58052661D01*
X63400000Y-57947339D01*
X63372741Y-57845606D01*
X63320080Y-57754394D01*
X63315686Y-57750000D01*
X64100000Y-57750000D01*
X64100000Y-57513428D01*
X64099994Y-57513389D01*
X64439500Y-57513389D01*
X64439500Y-58486611D01*
X64466598Y-58657701D01*
X64520127Y-58822445D01*
X64598768Y-58976788D01*
X64700586Y-59116928D01*
X64823072Y-59239414D01*
X64963212Y-59341232D01*
X65117555Y-59419873D01*
X65282299Y-59473402D01*
X65453389Y-59500500D01*
X65453390Y-59500500D01*
X65626610Y-59500500D01*
X65626611Y-59500500D01*
X65797701Y-59473402D01*
X65962445Y-59419873D01*
X66116788Y-59341232D01*
X66256928Y-59239414D01*
X66379414Y-59116928D01*
X66481232Y-58976788D01*
X66559873Y-58822445D01*
X66613402Y-58657701D01*
X66640500Y-58486611D01*
X66640500Y-57513389D01*
X66979500Y-57513389D01*
X66979500Y-58486611D01*
X67006598Y-58657701D01*
X67060127Y-58822445D01*
X67138768Y-58976788D01*
X67240586Y-59116928D01*
X67363072Y-59239414D01*
X67503212Y-59341232D01*
X67657555Y-59419873D01*
X67822299Y-59473402D01*
X67993389Y-59500500D01*
X67993390Y-59500500D01*
X68166610Y-59500500D01*
X68166611Y-59500500D01*
X68337701Y-59473402D01*
X68502445Y-59419873D01*
X68656788Y-59341232D01*
X68796928Y-59239414D01*
X68919414Y-59116928D01*
X69021232Y-58976788D01*
X69099873Y-58822445D01*
X69153402Y-58657701D01*
X69180500Y-58486611D01*
X69180500Y-57513389D01*
X69519500Y-57513389D01*
X69519500Y-58486611D01*
X69546598Y-58657701D01*
X69600127Y-58822445D01*
X69678768Y-58976788D01*
X69780586Y-59116928D01*
X69903072Y-59239414D01*
X70043212Y-59341232D01*
X70197555Y-59419873D01*
X70362299Y-59473402D01*
X70533389Y-59500500D01*
X70533390Y-59500500D01*
X70706610Y-59500500D01*
X70706611Y-59500500D01*
X70877701Y-59473402D01*
X71042445Y-59419873D01*
X71196788Y-59341232D01*
X71336928Y-59239414D01*
X71459414Y-59116928D01*
X71561232Y-58976788D01*
X71639873Y-58822445D01*
X71693402Y-58657701D01*
X71720500Y-58486611D01*
X71720500Y-57513389D01*
X72059500Y-57513389D01*
X72059500Y-58486611D01*
X72086598Y-58657701D01*
X72140127Y-58822445D01*
X72218768Y-58976788D01*
X72320586Y-59116928D01*
X72443072Y-59239414D01*
X72583212Y-59341232D01*
X72737555Y-59419873D01*
X72902299Y-59473402D01*
X73073389Y-59500500D01*
X73073390Y-59500500D01*
X73246610Y-59500500D01*
X73246611Y-59500500D01*
X73417701Y-59473402D01*
X73582445Y-59419873D01*
X73736788Y-59341232D01*
X73876928Y-59239414D01*
X73999414Y-59116928D01*
X74101232Y-58976788D01*
X74179873Y-58822445D01*
X74233402Y-58657701D01*
X74260500Y-58486611D01*
X74260500Y-57513389D01*
X74599500Y-57513389D01*
X74599500Y-58486611D01*
X74626598Y-58657701D01*
X74680127Y-58822445D01*
X74758768Y-58976788D01*
X74860586Y-59116928D01*
X74983072Y-59239414D01*
X75123212Y-59341232D01*
X75277555Y-59419873D01*
X75442299Y-59473402D01*
X75613389Y-59500500D01*
X75613390Y-59500500D01*
X75786610Y-59500500D01*
X75786611Y-59500500D01*
X75957701Y-59473402D01*
X76122445Y-59419873D01*
X76276788Y-59341232D01*
X76416928Y-59239414D01*
X76539414Y-59116928D01*
X76641232Y-58976788D01*
X76719873Y-58822445D01*
X76773402Y-58657701D01*
X76800500Y-58486611D01*
X76800500Y-57513389D01*
X77139500Y-57513389D01*
X77139500Y-58486611D01*
X77166598Y-58657701D01*
X77220127Y-58822445D01*
X77298768Y-58976788D01*
X77400586Y-59116928D01*
X77523072Y-59239414D01*
X77663212Y-59341232D01*
X77817555Y-59419873D01*
X77982299Y-59473402D01*
X78153389Y-59500500D01*
X78153390Y-59500500D01*
X78326610Y-59500500D01*
X78326611Y-59500500D01*
X78497701Y-59473402D01*
X78662445Y-59419873D01*
X78816788Y-59341232D01*
X78956928Y-59239414D01*
X79079414Y-59116928D01*
X79181232Y-58976788D01*
X79259873Y-58822445D01*
X79313402Y-58657701D01*
X79340500Y-58486611D01*
X79340500Y-57513389D01*
X79679500Y-57513389D01*
X79679500Y-58486611D01*
X79706598Y-58657701D01*
X79760127Y-58822445D01*
X79838768Y-58976788D01*
X79940586Y-59116928D01*
X80063072Y-59239414D01*
X80203212Y-59341232D01*
X80357555Y-59419873D01*
X80522299Y-59473402D01*
X80693389Y-59500500D01*
X80693390Y-59500500D01*
X80866610Y-59500500D01*
X80866611Y-59500500D01*
X81037701Y-59473402D01*
X81202445Y-59419873D01*
X81356788Y-59341232D01*
X81496928Y-59239414D01*
X81619414Y-59116928D01*
X81721232Y-58976788D01*
X81799873Y-58822445D01*
X81853402Y-58657701D01*
X81880500Y-58486611D01*
X81880500Y-57513389D01*
X82219500Y-57513389D01*
X82219500Y-58486611D01*
X82246598Y-58657701D01*
X82300127Y-58822445D01*
X82378768Y-58976788D01*
X82480586Y-59116928D01*
X82603072Y-59239414D01*
X82743212Y-59341232D01*
X82897555Y-59419873D01*
X83062299Y-59473402D01*
X83233389Y-59500500D01*
X83233390Y-59500500D01*
X83406610Y-59500500D01*
X83406611Y-59500500D01*
X83577701Y-59473402D01*
X83742445Y-59419873D01*
X83896788Y-59341232D01*
X84036928Y-59239414D01*
X84159414Y-59116928D01*
X84261232Y-58976788D01*
X84339873Y-58822445D01*
X84393402Y-58657701D01*
X84420500Y-58486611D01*
X84420500Y-57513389D01*
X84759500Y-57513389D01*
X84759500Y-58486611D01*
X84786598Y-58657701D01*
X84840127Y-58822445D01*
X84918768Y-58976788D01*
X85020586Y-59116928D01*
X85143072Y-59239414D01*
X85283212Y-59341232D01*
X85437555Y-59419873D01*
X85602299Y-59473402D01*
X85773389Y-59500500D01*
X85773390Y-59500500D01*
X85946610Y-59500500D01*
X85946611Y-59500500D01*
X86117701Y-59473402D01*
X86282445Y-59419873D01*
X86436788Y-59341232D01*
X86576928Y-59239414D01*
X86699414Y-59116928D01*
X86801232Y-58976788D01*
X86879873Y-58822445D01*
X86933402Y-58657701D01*
X86960500Y-58486611D01*
X86960500Y-57513389D01*
X87299500Y-57513389D01*
X87299500Y-58486611D01*
X87326598Y-58657701D01*
X87380127Y-58822445D01*
X87458768Y-58976788D01*
X87560586Y-59116928D01*
X87683072Y-59239414D01*
X87823212Y-59341232D01*
X87977555Y-59419873D01*
X88142299Y-59473402D01*
X88313389Y-59500500D01*
X88313390Y-59500500D01*
X88486610Y-59500500D01*
X88486611Y-59500500D01*
X88657701Y-59473402D01*
X88822445Y-59419873D01*
X88976788Y-59341232D01*
X89116928Y-59239414D01*
X89239414Y-59116928D01*
X89341232Y-58976788D01*
X89419873Y-58822445D01*
X89473402Y-58657701D01*
X89500500Y-58486611D01*
X89500500Y-57513389D01*
X89839500Y-57513389D01*
X89839500Y-58486611D01*
X89866598Y-58657701D01*
X89920127Y-58822445D01*
X89998768Y-58976788D01*
X90100586Y-59116928D01*
X90223072Y-59239414D01*
X90363212Y-59341232D01*
X90517555Y-59419873D01*
X90682299Y-59473402D01*
X90853389Y-59500500D01*
X90853390Y-59500500D01*
X91026610Y-59500500D01*
X91026611Y-59500500D01*
X91197701Y-59473402D01*
X91362445Y-59419873D01*
X91516788Y-59341232D01*
X91656928Y-59239414D01*
X91779414Y-59116928D01*
X91881232Y-58976788D01*
X91959873Y-58822445D01*
X92013402Y-58657701D01*
X92040500Y-58486611D01*
X92040500Y-57513389D01*
X92379500Y-57513389D01*
X92379500Y-58486611D01*
X92406598Y-58657701D01*
X92460127Y-58822445D01*
X92538768Y-58976788D01*
X92640586Y-59116928D01*
X92763072Y-59239414D01*
X92903212Y-59341232D01*
X93057555Y-59419873D01*
X93222299Y-59473402D01*
X93393389Y-59500500D01*
X93393390Y-59500500D01*
X93566610Y-59500500D01*
X93566611Y-59500500D01*
X93737701Y-59473402D01*
X93902445Y-59419873D01*
X94056788Y-59341232D01*
X94196928Y-59239414D01*
X94319414Y-59116928D01*
X94421232Y-58976788D01*
X94499873Y-58822445D01*
X94553402Y-58657701D01*
X94580500Y-58486611D01*
X94580500Y-57513389D01*
X94919500Y-57513389D01*
X94919500Y-58486611D01*
X94946598Y-58657701D01*
X95000127Y-58822445D01*
X95078768Y-58976788D01*
X95180586Y-59116928D01*
X95303072Y-59239414D01*
X95443212Y-59341232D01*
X95597555Y-59419873D01*
X95762299Y-59473402D01*
X95933389Y-59500500D01*
X95933390Y-59500500D01*
X96106610Y-59500500D01*
X96106611Y-59500500D01*
X96277701Y-59473402D01*
X96442445Y-59419873D01*
X96596788Y-59341232D01*
X96736928Y-59239414D01*
X96859414Y-59116928D01*
X96961232Y-58976788D01*
X97039873Y-58822445D01*
X97093402Y-58657701D01*
X97120500Y-58486611D01*
X97120500Y-57513389D01*
X97459500Y-57513389D01*
X97459500Y-58486611D01*
X97486598Y-58657701D01*
X97540127Y-58822445D01*
X97618768Y-58976788D01*
X97720586Y-59116928D01*
X97843072Y-59239414D01*
X97983212Y-59341232D01*
X98137555Y-59419873D01*
X98302299Y-59473402D01*
X98473389Y-59500500D01*
X98473390Y-59500500D01*
X98646610Y-59500500D01*
X98646611Y-59500500D01*
X98817701Y-59473402D01*
X98982445Y-59419873D01*
X99136788Y-59341232D01*
X99276928Y-59239414D01*
X99399414Y-59116928D01*
X99501232Y-58976788D01*
X99579873Y-58822445D01*
X99633402Y-58657701D01*
X99660500Y-58486611D01*
X99660500Y-57513389D01*
X99999500Y-57513389D01*
X99999500Y-58486611D01*
X100026598Y-58657701D01*
X100080127Y-58822445D01*
X100158768Y-58976788D01*
X100260586Y-59116928D01*
X100383072Y-59239414D01*
X100523212Y-59341232D01*
X100677555Y-59419873D01*
X100842299Y-59473402D01*
X101013389Y-59500500D01*
X101013390Y-59500500D01*
X101186610Y-59500500D01*
X101186611Y-59500500D01*
X101357701Y-59473402D01*
X101522445Y-59419873D01*
X101676788Y-59341232D01*
X101816928Y-59239414D01*
X101939414Y-59116928D01*
X102041232Y-58976788D01*
X102119873Y-58822445D01*
X102173402Y-58657701D01*
X102200500Y-58486611D01*
X102200500Y-57513389D01*
X102539500Y-57513389D01*
X102539500Y-58486611D01*
X102566598Y-58657701D01*
X102620127Y-58822445D01*
X102698768Y-58976788D01*
X102800586Y-59116928D01*
X102923072Y-59239414D01*
X103063212Y-59341232D01*
X103217555Y-59419873D01*
X103382299Y-59473402D01*
X103553389Y-59500500D01*
X103553390Y-59500500D01*
X103726610Y-59500500D01*
X103726611Y-59500500D01*
X103897701Y-59473402D01*
X104062445Y-59419873D01*
X104216788Y-59341232D01*
X104356928Y-59239414D01*
X104479414Y-59116928D01*
X104581232Y-58976788D01*
X104659873Y-58822445D01*
X104713402Y-58657701D01*
X104740500Y-58486611D01*
X104740500Y-57513389D01*
X105079500Y-57513389D01*
X105079500Y-58486611D01*
X105106598Y-58657701D01*
X105160127Y-58822445D01*
X105238768Y-58976788D01*
X105340586Y-59116928D01*
X105463072Y-59239414D01*
X105603212Y-59341232D01*
X105757555Y-59419873D01*
X105922299Y-59473402D01*
X106093389Y-59500500D01*
X106093390Y-59500500D01*
X106266610Y-59500500D01*
X106266611Y-59500500D01*
X106437701Y-59473402D01*
X106602445Y-59419873D01*
X106756788Y-59341232D01*
X106896928Y-59239414D01*
X107019414Y-59116928D01*
X107121232Y-58976788D01*
X107199873Y-58822445D01*
X107253402Y-58657701D01*
X107280500Y-58486611D01*
X107280500Y-57513389D01*
X107619500Y-57513389D01*
X107619500Y-58486611D01*
X107646598Y-58657701D01*
X107700127Y-58822445D01*
X107778768Y-58976788D01*
X107880586Y-59116928D01*
X108003072Y-59239414D01*
X108143212Y-59341232D01*
X108297555Y-59419873D01*
X108462299Y-59473402D01*
X108633389Y-59500500D01*
X108633390Y-59500500D01*
X108806610Y-59500500D01*
X108806611Y-59500500D01*
X108977701Y-59473402D01*
X109142445Y-59419873D01*
X109296788Y-59341232D01*
X109436928Y-59239414D01*
X109559414Y-59116928D01*
X109661232Y-58976788D01*
X109739873Y-58822445D01*
X109793402Y-58657701D01*
X109820500Y-58486611D01*
X109820500Y-57513389D01*
X110159500Y-57513389D01*
X110159500Y-58486611D01*
X110186598Y-58657701D01*
X110240127Y-58822445D01*
X110318768Y-58976788D01*
X110420586Y-59116928D01*
X110543072Y-59239414D01*
X110683212Y-59341232D01*
X110837555Y-59419873D01*
X111002299Y-59473402D01*
X111173389Y-59500500D01*
X111173390Y-59500500D01*
X111346610Y-59500500D01*
X111346611Y-59500500D01*
X111517701Y-59473402D01*
X111682445Y-59419873D01*
X111836788Y-59341232D01*
X111976928Y-59239414D01*
X112099414Y-59116928D01*
X112201232Y-58976788D01*
X112279873Y-58822445D01*
X112333402Y-58657701D01*
X112360500Y-58486611D01*
X112360500Y-57513428D01*
X112700000Y-57513428D01*
X112700000Y-57750000D01*
X113484314Y-57750000D01*
X113479920Y-57754394D01*
X113427259Y-57845606D01*
X113400000Y-57947339D01*
X113400000Y-58052661D01*
X113427259Y-58154394D01*
X113479920Y-58245606D01*
X113484314Y-58250000D01*
X112700000Y-58250000D01*
X112700000Y-58486571D01*
X112727085Y-58657584D01*
X112780591Y-58822257D01*
X112859195Y-58976524D01*
X112960967Y-59116602D01*
X113083397Y-59239032D01*
X113223475Y-59340804D01*
X113377744Y-59419408D01*
X113542415Y-59472914D01*
X113542414Y-59472914D01*
X113549999Y-59474115D01*
X113550000Y-59474114D01*
X113550000Y-58315686D01*
X113554394Y-58320080D01*
X113645606Y-58372741D01*
X113747339Y-58400000D01*
X113852661Y-58400000D01*
X113954394Y-58372741D01*
X114045606Y-58320080D01*
X114050000Y-58315686D01*
X114050000Y-59474115D01*
X114057584Y-59472914D01*
X114222255Y-59419408D01*
X114376524Y-59340804D01*
X114516602Y-59239032D01*
X114639032Y-59116602D01*
X114740804Y-58976524D01*
X114819408Y-58822257D01*
X114872914Y-58657584D01*
X114900000Y-58486571D01*
X114900000Y-58250000D01*
X114115686Y-58250000D01*
X114120080Y-58245606D01*
X114172741Y-58154394D01*
X114200000Y-58052661D01*
X114200000Y-57947339D01*
X114172741Y-57845606D01*
X114120080Y-57754394D01*
X114115686Y-57750000D01*
X114900000Y-57750000D01*
X114900000Y-57513428D01*
X115240000Y-57513428D01*
X115240000Y-57750000D01*
X116024314Y-57750000D01*
X116019920Y-57754394D01*
X115967259Y-57845606D01*
X115940000Y-57947339D01*
X115940000Y-58052661D01*
X115967259Y-58154394D01*
X116019920Y-58245606D01*
X116024314Y-58250000D01*
X115240000Y-58250000D01*
X115240000Y-58486571D01*
X115267085Y-58657584D01*
X115320591Y-58822257D01*
X115399195Y-58976524D01*
X115500967Y-59116602D01*
X115623397Y-59239032D01*
X115763475Y-59340804D01*
X115917744Y-59419408D01*
X116082415Y-59472914D01*
X116082414Y-59472914D01*
X116089999Y-59474115D01*
X116090000Y-59474114D01*
X116090000Y-58315686D01*
X116094394Y-58320080D01*
X116185606Y-58372741D01*
X116287339Y-58400000D01*
X116392661Y-58400000D01*
X116494394Y-58372741D01*
X116585606Y-58320080D01*
X116590000Y-58315686D01*
X116590000Y-59474115D01*
X116597584Y-59472914D01*
X116762255Y-59419408D01*
X116916524Y-59340804D01*
X117056602Y-59239032D01*
X117179032Y-59116602D01*
X117280804Y-58976524D01*
X117359408Y-58822257D01*
X117412914Y-58657584D01*
X117440000Y-58486571D01*
X117440000Y-58250000D01*
X116655686Y-58250000D01*
X116660080Y-58245606D01*
X116712741Y-58154394D01*
X116740000Y-58052661D01*
X116740000Y-57947339D01*
X116712741Y-57845606D01*
X116660080Y-57754394D01*
X116655686Y-57750000D01*
X117440000Y-57750000D01*
X117440000Y-57513428D01*
X117412914Y-57342415D01*
X117359408Y-57177742D01*
X117280804Y-57023475D01*
X117179032Y-56883397D01*
X117056602Y-56760967D01*
X116916524Y-56659195D01*
X116762257Y-56580591D01*
X116597589Y-56527087D01*
X116597581Y-56527085D01*
X116590000Y-56525884D01*
X116590000Y-57684314D01*
X116585606Y-57679920D01*
X116494394Y-57627259D01*
X116392661Y-57600000D01*
X116287339Y-57600000D01*
X116185606Y-57627259D01*
X116094394Y-57679920D01*
X116090000Y-57684314D01*
X116090000Y-56525884D01*
X116089999Y-56525884D01*
X116082418Y-56527085D01*
X116082410Y-56527087D01*
X115917742Y-56580591D01*
X115763475Y-56659195D01*
X115623397Y-56760967D01*
X115500967Y-56883397D01*
X115399195Y-57023475D01*
X115320591Y-57177742D01*
X115267085Y-57342415D01*
X115240000Y-57513428D01*
X114900000Y-57513428D01*
X114872914Y-57342415D01*
X114819408Y-57177742D01*
X114740804Y-57023475D01*
X114639032Y-56883397D01*
X114516602Y-56760967D01*
X114376524Y-56659195D01*
X114222257Y-56580591D01*
X114057589Y-56527087D01*
X114057581Y-56527085D01*
X114050000Y-56525884D01*
X114050000Y-57684314D01*
X114045606Y-57679920D01*
X113954394Y-57627259D01*
X113852661Y-57600000D01*
X113747339Y-57600000D01*
X113645606Y-57627259D01*
X113554394Y-57679920D01*
X113550000Y-57684314D01*
X113550000Y-56525884D01*
X113549999Y-56525884D01*
X113542418Y-56527085D01*
X113542410Y-56527087D01*
X113377742Y-56580591D01*
X113223475Y-56659195D01*
X113083397Y-56760967D01*
X112960967Y-56883397D01*
X112859195Y-57023475D01*
X112780591Y-57177742D01*
X112727085Y-57342415D01*
X112700000Y-57513428D01*
X112360500Y-57513428D01*
X112360500Y-57513389D01*
X112333402Y-57342299D01*
X112279873Y-57177555D01*
X112201232Y-57023212D01*
X112099414Y-56883072D01*
X111976928Y-56760586D01*
X111836788Y-56658768D01*
X111682445Y-56580127D01*
X111517701Y-56526598D01*
X111517699Y-56526597D01*
X111517698Y-56526597D01*
X111386271Y-56505781D01*
X111346611Y-56499500D01*
X111173389Y-56499500D01*
X111133728Y-56505781D01*
X111002302Y-56526597D01*
X110837552Y-56580128D01*
X110683211Y-56658768D01*
X110603256Y-56716859D01*
X110543072Y-56760586D01*
X110543070Y-56760588D01*
X110543069Y-56760588D01*
X110420588Y-56883069D01*
X110420588Y-56883070D01*
X110420586Y-56883072D01*
X110420350Y-56883397D01*
X110318768Y-57023211D01*
X110240128Y-57177552D01*
X110186597Y-57342302D01*
X110159500Y-57513389D01*
X109820500Y-57513389D01*
X109793402Y-57342299D01*
X109739873Y-57177555D01*
X109661232Y-57023212D01*
X109559414Y-56883072D01*
X109436928Y-56760586D01*
X109296788Y-56658768D01*
X109142445Y-56580127D01*
X108977701Y-56526598D01*
X108977699Y-56526597D01*
X108977698Y-56526597D01*
X108846271Y-56505781D01*
X108806611Y-56499500D01*
X108633389Y-56499500D01*
X108593728Y-56505781D01*
X108462302Y-56526597D01*
X108297552Y-56580128D01*
X108143211Y-56658768D01*
X108063256Y-56716859D01*
X108003072Y-56760586D01*
X108003070Y-56760588D01*
X108003069Y-56760588D01*
X107880588Y-56883069D01*
X107880588Y-56883070D01*
X107880586Y-56883072D01*
X107880350Y-56883397D01*
X107778768Y-57023211D01*
X107700128Y-57177552D01*
X107646597Y-57342302D01*
X107619500Y-57513389D01*
X107280500Y-57513389D01*
X107253402Y-57342299D01*
X107199873Y-57177555D01*
X107121232Y-57023212D01*
X107019414Y-56883072D01*
X106896928Y-56760586D01*
X106756788Y-56658768D01*
X106602445Y-56580127D01*
X106437701Y-56526598D01*
X106437699Y-56526597D01*
X106437698Y-56526597D01*
X106306271Y-56505781D01*
X106266611Y-56499500D01*
X106093389Y-56499500D01*
X106053728Y-56505781D01*
X105922302Y-56526597D01*
X105757552Y-56580128D01*
X105603211Y-56658768D01*
X105523256Y-56716859D01*
X105463072Y-56760586D01*
X105463070Y-56760588D01*
X105463069Y-56760588D01*
X105340588Y-56883069D01*
X105340588Y-56883070D01*
X105340586Y-56883072D01*
X105340350Y-56883397D01*
X105238768Y-57023211D01*
X105160128Y-57177552D01*
X105106597Y-57342302D01*
X105079500Y-57513389D01*
X104740500Y-57513389D01*
X104713402Y-57342299D01*
X104659873Y-57177555D01*
X104581232Y-57023212D01*
X104479414Y-56883072D01*
X104356928Y-56760586D01*
X104216788Y-56658768D01*
X104062445Y-56580127D01*
X103897701Y-56526598D01*
X103897699Y-56526597D01*
X103897698Y-56526597D01*
X103766271Y-56505781D01*
X103726611Y-56499500D01*
X103553389Y-56499500D01*
X103513728Y-56505781D01*
X103382302Y-56526597D01*
X103217552Y-56580128D01*
X103063211Y-56658768D01*
X102983256Y-56716859D01*
X102923072Y-56760586D01*
X102923070Y-56760588D01*
X102923069Y-56760588D01*
X102800588Y-56883069D01*
X102800588Y-56883070D01*
X102800586Y-56883072D01*
X102800350Y-56883397D01*
X102698768Y-57023211D01*
X102620128Y-57177552D01*
X102566597Y-57342302D01*
X102539500Y-57513389D01*
X102200500Y-57513389D01*
X102173402Y-57342299D01*
X102119873Y-57177555D01*
X102041232Y-57023212D01*
X101939414Y-56883072D01*
X101816928Y-56760586D01*
X101676788Y-56658768D01*
X101522445Y-56580127D01*
X101357701Y-56526598D01*
X101357699Y-56526597D01*
X101357698Y-56526597D01*
X101226271Y-56505781D01*
X101186611Y-56499500D01*
X101013389Y-56499500D01*
X100973728Y-56505781D01*
X100842302Y-56526597D01*
X100677552Y-56580128D01*
X100523211Y-56658768D01*
X100443256Y-56716859D01*
X100383072Y-56760586D01*
X100383070Y-56760588D01*
X100383069Y-56760588D01*
X100260588Y-56883069D01*
X100260588Y-56883070D01*
X100260586Y-56883072D01*
X100260350Y-56883397D01*
X100158768Y-57023211D01*
X100080128Y-57177552D01*
X100026597Y-57342302D01*
X99999500Y-57513389D01*
X99660500Y-57513389D01*
X99633402Y-57342299D01*
X99579873Y-57177555D01*
X99501232Y-57023212D01*
X99399414Y-56883072D01*
X99276928Y-56760586D01*
X99136788Y-56658768D01*
X98982445Y-56580127D01*
X98817701Y-56526598D01*
X98817699Y-56526597D01*
X98817698Y-56526597D01*
X98686271Y-56505781D01*
X98646611Y-56499500D01*
X98473389Y-56499500D01*
X98433728Y-56505781D01*
X98302302Y-56526597D01*
X98137552Y-56580128D01*
X97983211Y-56658768D01*
X97903256Y-56716859D01*
X97843072Y-56760586D01*
X97843070Y-56760588D01*
X97843069Y-56760588D01*
X97720588Y-56883069D01*
X97720588Y-56883070D01*
X97720586Y-56883072D01*
X97720350Y-56883397D01*
X97618768Y-57023211D01*
X97540128Y-57177552D01*
X97486597Y-57342302D01*
X97459500Y-57513389D01*
X97120500Y-57513389D01*
X97093402Y-57342299D01*
X97039873Y-57177555D01*
X96961232Y-57023212D01*
X96859414Y-56883072D01*
X96736928Y-56760586D01*
X96596788Y-56658768D01*
X96442445Y-56580127D01*
X96277701Y-56526598D01*
X96277699Y-56526597D01*
X96277698Y-56526597D01*
X96146271Y-56505781D01*
X96106611Y-56499500D01*
X95933389Y-56499500D01*
X95893728Y-56505781D01*
X95762302Y-56526597D01*
X95597552Y-56580128D01*
X95443211Y-56658768D01*
X95363256Y-56716859D01*
X95303072Y-56760586D01*
X95303070Y-56760588D01*
X95303069Y-56760588D01*
X95180588Y-56883069D01*
X95180588Y-56883070D01*
X95180586Y-56883072D01*
X95180350Y-56883397D01*
X95078768Y-57023211D01*
X95000128Y-57177552D01*
X94946597Y-57342302D01*
X94919500Y-57513389D01*
X94580500Y-57513389D01*
X94553402Y-57342299D01*
X94499873Y-57177555D01*
X94421232Y-57023212D01*
X94319414Y-56883072D01*
X94196928Y-56760586D01*
X94056788Y-56658768D01*
X93902445Y-56580127D01*
X93737701Y-56526598D01*
X93737699Y-56526597D01*
X93737698Y-56526597D01*
X93606271Y-56505781D01*
X93566611Y-56499500D01*
X93393389Y-56499500D01*
X93353728Y-56505781D01*
X93222302Y-56526597D01*
X93057552Y-56580128D01*
X92903211Y-56658768D01*
X92823256Y-56716859D01*
X92763072Y-56760586D01*
X92763070Y-56760588D01*
X92763069Y-56760588D01*
X92640588Y-56883069D01*
X92640588Y-56883070D01*
X92640586Y-56883072D01*
X92640350Y-56883397D01*
X92538768Y-57023211D01*
X92460128Y-57177552D01*
X92406597Y-57342302D01*
X92379500Y-57513389D01*
X92040500Y-57513389D01*
X92013402Y-57342299D01*
X91959873Y-57177555D01*
X91881232Y-57023212D01*
X91779414Y-56883072D01*
X91656928Y-56760586D01*
X91516788Y-56658768D01*
X91362445Y-56580127D01*
X91197701Y-56526598D01*
X91197699Y-56526597D01*
X91197698Y-56526597D01*
X91066271Y-56505781D01*
X91026611Y-56499500D01*
X90853389Y-56499500D01*
X90813728Y-56505781D01*
X90682302Y-56526597D01*
X90517552Y-56580128D01*
X90363211Y-56658768D01*
X90283256Y-56716859D01*
X90223072Y-56760586D01*
X90223070Y-56760588D01*
X90223069Y-56760588D01*
X90100588Y-56883069D01*
X90100588Y-56883070D01*
X90100586Y-56883072D01*
X90100350Y-56883397D01*
X89998768Y-57023211D01*
X89920128Y-57177552D01*
X89866597Y-57342302D01*
X89839500Y-57513389D01*
X89500500Y-57513389D01*
X89473402Y-57342299D01*
X89419873Y-57177555D01*
X89341232Y-57023212D01*
X89239414Y-56883072D01*
X89116928Y-56760586D01*
X88976788Y-56658768D01*
X88822445Y-56580127D01*
X88657701Y-56526598D01*
X88657699Y-56526597D01*
X88657698Y-56526597D01*
X88526271Y-56505781D01*
X88486611Y-56499500D01*
X88313389Y-56499500D01*
X88273728Y-56505781D01*
X88142302Y-56526597D01*
X87977552Y-56580128D01*
X87823211Y-56658768D01*
X87743256Y-56716859D01*
X87683072Y-56760586D01*
X87683070Y-56760588D01*
X87683069Y-56760588D01*
X87560588Y-56883069D01*
X87560588Y-56883070D01*
X87560586Y-56883072D01*
X87560350Y-56883397D01*
X87458768Y-57023211D01*
X87380128Y-57177552D01*
X87326597Y-57342302D01*
X87299500Y-57513389D01*
X86960500Y-57513389D01*
X86933402Y-57342299D01*
X86879873Y-57177555D01*
X86801232Y-57023212D01*
X86699414Y-56883072D01*
X86576928Y-56760586D01*
X86436788Y-56658768D01*
X86282445Y-56580127D01*
X86117701Y-56526598D01*
X86117699Y-56526597D01*
X86117698Y-56526597D01*
X85986271Y-56505781D01*
X85946611Y-56499500D01*
X85773389Y-56499500D01*
X85733728Y-56505781D01*
X85602302Y-56526597D01*
X85437552Y-56580128D01*
X85283211Y-56658768D01*
X85203256Y-56716859D01*
X85143072Y-56760586D01*
X85143070Y-56760588D01*
X85143069Y-56760588D01*
X85020588Y-56883069D01*
X85020588Y-56883070D01*
X85020586Y-56883072D01*
X85020350Y-56883397D01*
X84918768Y-57023211D01*
X84840128Y-57177552D01*
X84786597Y-57342302D01*
X84759500Y-57513389D01*
X84420500Y-57513389D01*
X84393402Y-57342299D01*
X84339873Y-57177555D01*
X84261232Y-57023212D01*
X84159414Y-56883072D01*
X84036928Y-56760586D01*
X83896788Y-56658768D01*
X83742445Y-56580127D01*
X83577701Y-56526598D01*
X83577699Y-56526597D01*
X83577698Y-56526597D01*
X83446271Y-56505781D01*
X83406611Y-56499500D01*
X83233389Y-56499500D01*
X83193728Y-56505781D01*
X83062302Y-56526597D01*
X82897552Y-56580128D01*
X82743211Y-56658768D01*
X82663256Y-56716859D01*
X82603072Y-56760586D01*
X82603070Y-56760588D01*
X82603069Y-56760588D01*
X82480588Y-56883069D01*
X82480588Y-56883070D01*
X82480586Y-56883072D01*
X82480350Y-56883397D01*
X82378768Y-57023211D01*
X82300128Y-57177552D01*
X82246597Y-57342302D01*
X82219500Y-57513389D01*
X81880500Y-57513389D01*
X81853402Y-57342299D01*
X81799873Y-57177555D01*
X81721232Y-57023212D01*
X81619414Y-56883072D01*
X81496928Y-56760586D01*
X81356788Y-56658768D01*
X81202445Y-56580127D01*
X81037701Y-56526598D01*
X81037699Y-56526597D01*
X81037698Y-56526597D01*
X80906271Y-56505781D01*
X80866611Y-56499500D01*
X80693389Y-56499500D01*
X80653728Y-56505781D01*
X80522302Y-56526597D01*
X80357552Y-56580128D01*
X80203211Y-56658768D01*
X80123256Y-56716859D01*
X80063072Y-56760586D01*
X80063070Y-56760588D01*
X80063069Y-56760588D01*
X79940588Y-56883069D01*
X79940588Y-56883070D01*
X79940586Y-56883072D01*
X79940350Y-56883397D01*
X79838768Y-57023211D01*
X79760128Y-57177552D01*
X79706597Y-57342302D01*
X79679500Y-57513389D01*
X79340500Y-57513389D01*
X79313402Y-57342299D01*
X79259873Y-57177555D01*
X79181232Y-57023212D01*
X79079414Y-56883072D01*
X78956928Y-56760586D01*
X78816788Y-56658768D01*
X78662445Y-56580127D01*
X78497701Y-56526598D01*
X78497699Y-56526597D01*
X78497698Y-56526597D01*
X78366271Y-56505781D01*
X78326611Y-56499500D01*
X78153389Y-56499500D01*
X78113728Y-56505781D01*
X77982302Y-56526597D01*
X77817552Y-56580128D01*
X77663211Y-56658768D01*
X77583256Y-56716859D01*
X77523072Y-56760586D01*
X77523070Y-56760588D01*
X77523069Y-56760588D01*
X77400588Y-56883069D01*
X77400588Y-56883070D01*
X77400586Y-56883072D01*
X77400350Y-56883397D01*
X77298768Y-57023211D01*
X77220128Y-57177552D01*
X77166597Y-57342302D01*
X77139500Y-57513389D01*
X76800500Y-57513389D01*
X76773402Y-57342299D01*
X76719873Y-57177555D01*
X76641232Y-57023212D01*
X76539414Y-56883072D01*
X76416928Y-56760586D01*
X76276788Y-56658768D01*
X76122445Y-56580127D01*
X75957701Y-56526598D01*
X75957699Y-56526597D01*
X75957698Y-56526597D01*
X75826271Y-56505781D01*
X75786611Y-56499500D01*
X75613389Y-56499500D01*
X75573728Y-56505781D01*
X75442302Y-56526597D01*
X75277552Y-56580128D01*
X75123211Y-56658768D01*
X75043256Y-56716859D01*
X74983072Y-56760586D01*
X74983070Y-56760588D01*
X74983069Y-56760588D01*
X74860588Y-56883069D01*
X74860588Y-56883070D01*
X74860586Y-56883072D01*
X74860350Y-56883397D01*
X74758768Y-57023211D01*
X74680128Y-57177552D01*
X74626597Y-57342302D01*
X74599500Y-57513389D01*
X74260500Y-57513389D01*
X74233402Y-57342299D01*
X74179873Y-57177555D01*
X74101232Y-57023212D01*
X73999414Y-56883072D01*
X73876928Y-56760586D01*
X73736788Y-56658768D01*
X73582445Y-56580127D01*
X73417701Y-56526598D01*
X73417699Y-56526597D01*
X73417698Y-56526597D01*
X73286271Y-56505781D01*
X73246611Y-56499500D01*
X73073389Y-56499500D01*
X73033728Y-56505781D01*
X72902302Y-56526597D01*
X72737552Y-56580128D01*
X72583211Y-56658768D01*
X72503256Y-56716859D01*
X72443072Y-56760586D01*
X72443070Y-56760588D01*
X72443069Y-56760588D01*
X72320588Y-56883069D01*
X72320588Y-56883070D01*
X72320586Y-56883072D01*
X72320350Y-56883397D01*
X72218768Y-57023211D01*
X72140128Y-57177552D01*
X72086597Y-57342302D01*
X72059500Y-57513389D01*
X71720500Y-57513389D01*
X71693402Y-57342299D01*
X71639873Y-57177555D01*
X71561232Y-57023212D01*
X71459414Y-56883072D01*
X71336928Y-56760586D01*
X71196788Y-56658768D01*
X71042445Y-56580127D01*
X70877701Y-56526598D01*
X70877699Y-56526597D01*
X70877698Y-56526597D01*
X70746271Y-56505781D01*
X70706611Y-56499500D01*
X70533389Y-56499500D01*
X70493728Y-56505781D01*
X70362302Y-56526597D01*
X70197552Y-56580128D01*
X70043211Y-56658768D01*
X69963256Y-56716859D01*
X69903072Y-56760586D01*
X69903070Y-56760588D01*
X69903069Y-56760588D01*
X69780588Y-56883069D01*
X69780588Y-56883070D01*
X69780586Y-56883072D01*
X69780350Y-56883397D01*
X69678768Y-57023211D01*
X69600128Y-57177552D01*
X69546597Y-57342302D01*
X69519500Y-57513389D01*
X69180500Y-57513389D01*
X69153402Y-57342299D01*
X69099873Y-57177555D01*
X69021232Y-57023212D01*
X68919414Y-56883072D01*
X68796928Y-56760586D01*
X68656788Y-56658768D01*
X68502445Y-56580127D01*
X68337701Y-56526598D01*
X68337699Y-56526597D01*
X68337698Y-56526597D01*
X68206271Y-56505781D01*
X68166611Y-56499500D01*
X67993389Y-56499500D01*
X67953728Y-56505781D01*
X67822302Y-56526597D01*
X67657552Y-56580128D01*
X67503211Y-56658768D01*
X67423256Y-56716859D01*
X67363072Y-56760586D01*
X67363070Y-56760588D01*
X67363069Y-56760588D01*
X67240588Y-56883069D01*
X67240588Y-56883070D01*
X67240586Y-56883072D01*
X67240350Y-56883397D01*
X67138768Y-57023211D01*
X67060128Y-57177552D01*
X67006597Y-57342302D01*
X66979500Y-57513389D01*
X66640500Y-57513389D01*
X66613402Y-57342299D01*
X66559873Y-57177555D01*
X66481232Y-57023212D01*
X66379414Y-56883072D01*
X66256928Y-56760586D01*
X66116788Y-56658768D01*
X65962445Y-56580127D01*
X65797701Y-56526598D01*
X65797699Y-56526597D01*
X65797698Y-56526597D01*
X65666271Y-56505781D01*
X65626611Y-56499500D01*
X65453389Y-56499500D01*
X65413728Y-56505781D01*
X65282302Y-56526597D01*
X65117552Y-56580128D01*
X64963211Y-56658768D01*
X64883256Y-56716859D01*
X64823072Y-56760586D01*
X64823070Y-56760588D01*
X64823069Y-56760588D01*
X64700588Y-56883069D01*
X64700588Y-56883070D01*
X64700586Y-56883072D01*
X64700350Y-56883397D01*
X64598768Y-57023211D01*
X64520128Y-57177552D01*
X64466597Y-57342302D01*
X64439500Y-57513389D01*
X64099994Y-57513389D01*
X64072914Y-57342415D01*
X64019408Y-57177742D01*
X63940804Y-57023475D01*
X63839032Y-56883397D01*
X63716602Y-56760967D01*
X63576524Y-56659195D01*
X63422257Y-56580591D01*
X63257589Y-56527087D01*
X63257581Y-56527085D01*
X63250000Y-56525884D01*
X63250000Y-57684314D01*
X63245606Y-57679920D01*
X63154394Y-57627259D01*
X63052661Y-57600000D01*
X62947339Y-57600000D01*
X62845606Y-57627259D01*
X62754394Y-57679920D01*
X62750000Y-57684314D01*
X62750000Y-56525884D01*
X62749999Y-56525884D01*
X62742418Y-56527085D01*
X62742410Y-56527087D01*
X62577742Y-56580591D01*
X62423475Y-56659195D01*
X62283397Y-56760967D01*
X62160967Y-56883397D01*
X62059195Y-57023475D01*
X61980591Y-57177742D01*
X61927085Y-57342415D01*
X61900000Y-57513428D01*
X50500500Y-57513428D01*
X50500500Y-53878711D01*
X52149500Y-53878711D01*
X52149500Y-54121288D01*
X52181161Y-54361785D01*
X52243947Y-54596104D01*
X52304351Y-54741932D01*
X52336776Y-54820212D01*
X52458064Y-55030289D01*
X52458066Y-55030292D01*
X52458067Y-55030293D01*
X52605733Y-55222736D01*
X52605739Y-55222743D01*
X52777256Y-55394260D01*
X52777262Y-55394265D01*
X52969711Y-55541936D01*
X53179788Y-55663224D01*
X53403900Y-55756054D01*
X53638211Y-55818838D01*
X53818586Y-55842584D01*
X53878711Y-55850500D01*
X53878712Y-55850500D01*
X54121289Y-55850500D01*
X54169388Y-55844167D01*
X54361789Y-55818838D01*
X54596100Y-55756054D01*
X54820212Y-55663224D01*
X55030289Y-55541936D01*
X55222738Y-55394265D01*
X55394265Y-55222738D01*
X55541936Y-55030289D01*
X55663224Y-54820212D01*
X55756054Y-54596100D01*
X55818838Y-54361789D01*
X55850500Y-54121288D01*
X55850500Y-53878712D01*
X55818838Y-53638211D01*
X55756054Y-53403900D01*
X55663224Y-53179788D01*
X55604867Y-53078711D01*
X116149500Y-53078711D01*
X116149500Y-53321288D01*
X116181161Y-53561785D01*
X116243947Y-53796104D01*
X116336773Y-54020205D01*
X116336776Y-54020212D01*
X116458064Y-54230289D01*
X116458066Y-54230292D01*
X116458067Y-54230293D01*
X116605733Y-54422736D01*
X116605739Y-54422743D01*
X116777256Y-54594260D01*
X116777263Y-54594266D01*
X116890321Y-54681018D01*
X116969711Y-54741936D01*
X117179788Y-54863224D01*
X117403900Y-54956054D01*
X117638211Y-55018838D01*
X117818586Y-55042584D01*
X117878711Y-55050500D01*
X117878712Y-55050500D01*
X118121289Y-55050500D01*
X118169388Y-55044167D01*
X118361789Y-55018838D01*
X118596100Y-54956054D01*
X118820212Y-54863224D01*
X119030289Y-54741936D01*
X119222738Y-54594265D01*
X119394265Y-54422738D01*
X119541936Y-54230289D01*
X119663224Y-54020212D01*
X119756054Y-53796100D01*
X119818838Y-53561789D01*
X119850500Y-53321288D01*
X119850500Y-53078712D01*
X119818838Y-52838211D01*
X119756054Y-52603900D01*
X119663224Y-52379788D01*
X119541936Y-52169711D01*
X119394265Y-51977262D01*
X119394260Y-51977256D01*
X119222743Y-51805739D01*
X119222736Y-51805733D01*
X119030293Y-51658067D01*
X119030292Y-51658066D01*
X119030289Y-51658064D01*
X118820212Y-51536776D01*
X118820205Y-51536773D01*
X118596104Y-51443947D01*
X118361785Y-51381161D01*
X118121289Y-51349500D01*
X118121288Y-51349500D01*
X117878712Y-51349500D01*
X117878711Y-51349500D01*
X117638214Y-51381161D01*
X117403895Y-51443947D01*
X117179794Y-51536773D01*
X117179785Y-51536777D01*
X116969706Y-51658067D01*
X116777263Y-51805733D01*
X116777256Y-51805739D01*
X116605739Y-51977256D01*
X116605733Y-51977263D01*
X116458067Y-52169706D01*
X116336777Y-52379785D01*
X116336773Y-52379794D01*
X116243947Y-52603895D01*
X116181161Y-52838214D01*
X116149500Y-53078711D01*
X55604867Y-53078711D01*
X55541936Y-52969711D01*
X55394265Y-52777262D01*
X55394260Y-52777256D01*
X55222743Y-52605739D01*
X55222736Y-52605733D01*
X55030293Y-52458067D01*
X55030292Y-52458066D01*
X55030289Y-52458064D01*
X54820212Y-52336776D01*
X54820205Y-52336773D01*
X54596104Y-52243947D01*
X54361785Y-52181161D01*
X54121289Y-52149500D01*
X54121288Y-52149500D01*
X53878712Y-52149500D01*
X53878711Y-52149500D01*
X53638214Y-52181161D01*
X53403895Y-52243947D01*
X53179794Y-52336773D01*
X53179785Y-52336777D01*
X52969706Y-52458067D01*
X52777263Y-52605733D01*
X52777256Y-52605739D01*
X52605739Y-52777256D01*
X52605733Y-52777263D01*
X52458067Y-52969706D01*
X52336777Y-53179785D01*
X52336773Y-53179794D01*
X52243947Y-53403895D01*
X52181161Y-53638214D01*
X52149500Y-53878711D01*
X50500500Y-53878711D01*
X50500500Y-50624500D01*
X50520185Y-50557461D01*
X50572989Y-50511706D01*
X50624500Y-50500500D01*
X121375500Y-50500500D01*
X121442539Y-50520185D01*
G37*
%TD.AperFunction*%
%TD*%
M02*
