%TF.GenerationSoftware,KiCad,Pcbnew,10.0.2*%
%TF.CreationDate,2026-07-19T10:05:03+10:00*%
%TF.ProjectId,carrier,63617272-6965-4722-9e6b-696361645f70,rev?*%
%TF.SameCoordinates,Original*%
%TF.FileFunction,Copper,L2,Bot*%
%TF.FilePolarity,Positive*%
%FSLAX46Y46*%
G04 Gerber Fmt 4.6, Leading zero omitted, Abs format (unit mm)*
G04 Created by KiCad (PCBNEW 10.0.2) date 2026-07-19 10:05:03*
%MOMM*%
%LPD*%
G01*
G04 APERTURE LIST*
%TA.AperFunction,ComponentPad*%
%ADD10R,1.200000X2.000000*%
%TD*%
%TA.AperFunction,ComponentPad*%
%ADD11O,1.200000X2.000000*%
%TD*%
%TA.AperFunction,ComponentPad*%
%ADD12R,1.700000X1.700000*%
%TD*%
%TA.AperFunction,ComponentPad*%
%ADD13C,1.700000*%
%TD*%
%TA.AperFunction,ViaPad*%
%ADD14C,0.600000*%
%TD*%
%TA.AperFunction,Conductor*%
%ADD15C,0.300000*%
%TD*%
G04 APERTURE END LIST*
D10*
%TO.P,U1,1*%
%TO.N,N/C*%
X63000000Y-80860000D03*
D11*
%TO.P,U1,2*%
X65540000Y-80860000D03*
%TO.P,U1,3*%
X68080000Y-80860000D03*
%TO.P,U1,4*%
%TO.N,ST_PWM_3V*%
X70620000Y-80860000D03*
%TO.P,U1,5*%
%TO.N,TH_PWM_3V*%
X73160000Y-80860000D03*
%TO.P,U1,6*%
%TO.N,N/C*%
X75700000Y-80860000D03*
%TO.P,U1,7*%
X78240000Y-80860000D03*
%TO.P,U1,8*%
X80780000Y-80860000D03*
%TO.P,U1,9*%
X83320000Y-80860000D03*
%TO.P,U1,10*%
X85860000Y-80860000D03*
%TO.P,U1,11*%
X88400000Y-80860000D03*
%TO.P,U1,12*%
X90940000Y-80860000D03*
%TO.P,U1,13*%
X93480000Y-80860000D03*
%TO.P,U1,14*%
X96020000Y-80860000D03*
%TO.P,U1,15*%
X98560000Y-80860000D03*
%TO.P,U1,16*%
X101100000Y-80860000D03*
%TO.P,U1,17*%
X103640000Y-80860000D03*
%TO.P,U1,18*%
X106180000Y-80860000D03*
%TO.P,U1,19*%
X108720000Y-80860000D03*
%TO.P,U1,20*%
X111257280Y-80863680D03*
%TO.P,U1,21*%
%TO.N,P5V_DK*%
X113797280Y-80863680D03*
%TO.P,U1,22*%
%TO.N,GND*%
X116337280Y-80863680D03*
%TO.P,U1,23*%
X116340000Y-58000000D03*
%TO.P,U1,24*%
X113800000Y-58000000D03*
%TO.P,U1,25*%
%TO.N,N/C*%
X111260000Y-58000000D03*
%TO.P,U1,26*%
X108720000Y-58000000D03*
%TO.P,U1,27*%
X106180000Y-58000000D03*
%TO.P,U1,28*%
X103640000Y-58000000D03*
%TO.P,U1,29*%
X101100000Y-58000000D03*
%TO.P,U1,30*%
X98560000Y-58000000D03*
%TO.P,U1,31*%
X96020000Y-58000000D03*
%TO.P,U1,32*%
X93480000Y-58000000D03*
%TO.P,U1,33*%
X90940000Y-58000000D03*
%TO.P,U1,34*%
X88400000Y-58000000D03*
%TO.P,U1,35*%
X85860000Y-58000000D03*
%TO.P,U1,36*%
X83320000Y-58000000D03*
%TO.P,U1,37*%
X80780000Y-58000000D03*
%TO.P,U1,38*%
X78240000Y-58000000D03*
%TO.P,U1,39*%
X75700000Y-58000000D03*
%TO.P,U1,40*%
X73160000Y-58000000D03*
%TO.P,U1,41*%
X70620000Y-58000000D03*
%TO.P,U1,42*%
X68080000Y-58000000D03*
%TO.P,U1,43*%
X65540000Y-58000000D03*
%TO.P,U1,44*%
%TO.N,GND*%
X63000000Y-58000000D03*
%TD*%
D12*
%TO.P,J2,1*%
%TO.N,TH_PWM_RAW*%
X76000000Y-90000000D03*
D13*
%TO.P,J2,2*%
%TO.N,VIN_RAW*%
X78540000Y-90000000D03*
%TO.P,J2,3*%
%TO.N,GND*%
X81080000Y-90000000D03*
%TD*%
D12*
%TO.P,J1,1*%
%TO.N,ST_PWM_RAW*%
X63000000Y-90000000D03*
D13*
%TO.P,J1,2*%
%TO.N,VIN_RAW*%
X65540000Y-90000000D03*
%TO.P,J1,3*%
%TO.N,GND*%
X68080000Y-90000000D03*
%TD*%
D14*
%TO.N,P5V_BUCK*%
X99862500Y-85800000D03*
X111000000Y-85800000D03*
%TD*%
%TO.N,P5V_BUCK*%
D15*
X99862500Y-85800000D02*
X111000000Y-85800000D01*
%TD*%
%TA.AperFunction,Conductor*%
%TO.N,GND*%
G36*
X121442539Y-50520185D02*
G01*
X121488294Y-50572989D01*
X121499500Y-50624500D01*
X121499500Y-93609759D01*
X121479815Y-93676798D01*
X121427011Y-93722553D01*
X121357853Y-93732497D01*
X121294297Y-93703472D01*
X121277124Y-93685246D01*
X121208720Y-93596100D01*
X121194265Y-93577262D01*
X121194263Y-93577260D01*
X121194260Y-93577256D01*
X121022743Y-93405739D01*
X121022736Y-93405733D01*
X120830293Y-93258067D01*
X120830292Y-93258066D01*
X120830289Y-93258064D01*
X120620212Y-93136776D01*
X120582821Y-93121288D01*
X120396104Y-93043947D01*
X120161785Y-92981161D01*
X119921289Y-92949500D01*
X119921288Y-92949500D01*
X119678712Y-92949500D01*
X119678711Y-92949500D01*
X119438214Y-92981161D01*
X119203895Y-93043947D01*
X118979794Y-93136773D01*
X118979785Y-93136777D01*
X118769706Y-93258067D01*
X118577263Y-93405733D01*
X118577256Y-93405739D01*
X118405739Y-93577256D01*
X118405733Y-93577263D01*
X118258067Y-93769706D01*
X118136777Y-93979785D01*
X118136773Y-93979794D01*
X118043947Y-94203895D01*
X117981161Y-94438214D01*
X117949500Y-94678711D01*
X117949500Y-94921288D01*
X117981161Y-95161785D01*
X118043947Y-95396104D01*
X118136773Y-95620205D01*
X118136776Y-95620212D01*
X118258064Y-95830289D01*
X118258066Y-95830292D01*
X118258067Y-95830293D01*
X118405733Y-96022736D01*
X118405739Y-96022743D01*
X118577256Y-96194260D01*
X118577263Y-96194266D01*
X118685246Y-96277124D01*
X118726449Y-96333552D01*
X118730604Y-96403298D01*
X118696392Y-96464218D01*
X118634675Y-96496971D01*
X118609760Y-96499500D01*
X50624500Y-96499500D01*
X50557461Y-96479815D01*
X50511706Y-96427011D01*
X50500500Y-96375500D01*
X50500500Y-92878711D01*
X52149500Y-92878711D01*
X52149500Y-93121288D01*
X52167506Y-93258064D01*
X52181162Y-93361789D01*
X52212554Y-93478944D01*
X52243947Y-93596104D01*
X52296324Y-93722553D01*
X52336776Y-93820212D01*
X52458064Y-94030289D01*
X52458066Y-94030292D01*
X52458067Y-94030293D01*
X52605733Y-94222736D01*
X52605739Y-94222743D01*
X52777256Y-94394260D01*
X52777263Y-94394266D01*
X52890321Y-94481018D01*
X52969711Y-94541936D01*
X53179788Y-94663224D01*
X53403900Y-94756054D01*
X53638211Y-94818838D01*
X53818586Y-94842584D01*
X53878711Y-94850500D01*
X53878712Y-94850500D01*
X54121289Y-94850500D01*
X54169388Y-94844167D01*
X54361789Y-94818838D01*
X54596100Y-94756054D01*
X54820212Y-94663224D01*
X55030289Y-94541936D01*
X55222738Y-94394265D01*
X55394265Y-94222738D01*
X55541936Y-94030289D01*
X55663224Y-93820212D01*
X55756054Y-93596100D01*
X55818838Y-93361789D01*
X55850500Y-93121288D01*
X55850500Y-92878712D01*
X55818838Y-92638211D01*
X55756054Y-92403900D01*
X55663224Y-92179788D01*
X55541936Y-91969711D01*
X55394265Y-91777262D01*
X55394260Y-91777256D01*
X55222743Y-91605739D01*
X55222736Y-91605733D01*
X55030293Y-91458067D01*
X55030292Y-91458066D01*
X55030289Y-91458064D01*
X54820212Y-91336776D01*
X54820205Y-91336773D01*
X54596104Y-91243947D01*
X54361785Y-91181161D01*
X54121289Y-91149500D01*
X54121288Y-91149500D01*
X53878712Y-91149500D01*
X53878711Y-91149500D01*
X53638214Y-91181161D01*
X53403895Y-91243947D01*
X53179794Y-91336773D01*
X53179785Y-91336777D01*
X52969706Y-91458067D01*
X52777263Y-91605733D01*
X52777256Y-91605739D01*
X52605739Y-91777256D01*
X52605733Y-91777263D01*
X52458067Y-91969706D01*
X52336777Y-92179785D01*
X52336773Y-92179794D01*
X52243947Y-92403895D01*
X52181161Y-92638214D01*
X52149500Y-92878711D01*
X50500500Y-92878711D01*
X50500500Y-89102135D01*
X61649500Y-89102135D01*
X61649500Y-90897870D01*
X61649501Y-90897876D01*
X61655908Y-90957483D01*
X61706202Y-91092328D01*
X61706206Y-91092335D01*
X61792452Y-91207544D01*
X61792455Y-91207547D01*
X61907664Y-91293793D01*
X61907671Y-91293797D01*
X62042517Y-91344091D01*
X62042516Y-91344091D01*
X62049444Y-91344835D01*
X62102127Y-91350500D01*
X63897872Y-91350499D01*
X63957483Y-91344091D01*
X64092331Y-91293796D01*
X64207546Y-91207546D01*
X64293796Y-91092331D01*
X64342810Y-90960916D01*
X64384681Y-90904984D01*
X64450145Y-90880566D01*
X64518418Y-90895417D01*
X64546673Y-90916569D01*
X64660213Y-91030109D01*
X64832179Y-91155048D01*
X64832181Y-91155049D01*
X64832184Y-91155051D01*
X65021588Y-91251557D01*
X65223757Y-91317246D01*
X65433713Y-91350500D01*
X65433714Y-91350500D01*
X65646286Y-91350500D01*
X65646287Y-91350500D01*
X65856243Y-91317246D01*
X66058412Y-91251557D01*
X66247816Y-91155051D01*
X66334138Y-91092335D01*
X66419786Y-91030109D01*
X66419788Y-91030106D01*
X66419792Y-91030104D01*
X66570104Y-90879792D01*
X66570106Y-90879788D01*
X66570109Y-90879786D01*
X66655890Y-90761717D01*
X66695051Y-90707816D01*
X66699793Y-90698508D01*
X66747763Y-90647711D01*
X66815583Y-90630911D01*
X66881719Y-90653445D01*
X66920763Y-90698500D01*
X66925373Y-90707547D01*
X66964728Y-90761716D01*
X67597037Y-90129408D01*
X67614075Y-90192993D01*
X67679901Y-90307007D01*
X67772993Y-90400099D01*
X67887007Y-90465925D01*
X67950590Y-90482962D01*
X67318282Y-91115269D01*
X67318282Y-91115270D01*
X67372449Y-91154624D01*
X67561782Y-91251095D01*
X67763870Y-91316757D01*
X67973754Y-91350000D01*
X68186246Y-91350000D01*
X68396127Y-91316757D01*
X68396130Y-91316757D01*
X68598217Y-91251095D01*
X68787554Y-91154622D01*
X68841716Y-91115270D01*
X68841717Y-91115270D01*
X68209408Y-90482962D01*
X68272993Y-90465925D01*
X68387007Y-90400099D01*
X68480099Y-90307007D01*
X68545925Y-90192993D01*
X68562962Y-90129408D01*
X69195270Y-90761717D01*
X69195270Y-90761716D01*
X69234622Y-90707554D01*
X69331095Y-90518217D01*
X69396757Y-90316130D01*
X69396757Y-90316127D01*
X69430000Y-90106246D01*
X69430000Y-89893753D01*
X69396757Y-89683872D01*
X69396757Y-89683869D01*
X69331095Y-89481782D01*
X69234624Y-89292449D01*
X69195270Y-89238282D01*
X69195269Y-89238282D01*
X68562962Y-89870590D01*
X68545925Y-89807007D01*
X68480099Y-89692993D01*
X68387007Y-89599901D01*
X68272993Y-89534075D01*
X68209409Y-89517037D01*
X68624310Y-89102135D01*
X74649500Y-89102135D01*
X74649500Y-90897870D01*
X74649501Y-90897876D01*
X74655908Y-90957483D01*
X74706202Y-91092328D01*
X74706206Y-91092335D01*
X74792452Y-91207544D01*
X74792455Y-91207547D01*
X74907664Y-91293793D01*
X74907671Y-91293797D01*
X75042517Y-91344091D01*
X75042516Y-91344091D01*
X75049444Y-91344835D01*
X75102127Y-91350500D01*
X76897872Y-91350499D01*
X76957483Y-91344091D01*
X77092331Y-91293796D01*
X77207546Y-91207546D01*
X77293796Y-91092331D01*
X77342810Y-90960916D01*
X77384681Y-90904984D01*
X77450145Y-90880566D01*
X77518418Y-90895417D01*
X77546673Y-90916569D01*
X77660213Y-91030109D01*
X77832179Y-91155048D01*
X77832181Y-91155049D01*
X77832184Y-91155051D01*
X78021588Y-91251557D01*
X78223757Y-91317246D01*
X78433713Y-91350500D01*
X78433714Y-91350500D01*
X78646286Y-91350500D01*
X78646287Y-91350500D01*
X78856243Y-91317246D01*
X79058412Y-91251557D01*
X79247816Y-91155051D01*
X79334138Y-91092335D01*
X79419786Y-91030109D01*
X79419788Y-91030106D01*
X79419792Y-91030104D01*
X79570104Y-90879792D01*
X79570106Y-90879788D01*
X79570109Y-90879786D01*
X79655890Y-90761717D01*
X79695051Y-90707816D01*
X79699793Y-90698508D01*
X79747763Y-90647711D01*
X79815583Y-90630911D01*
X79881719Y-90653445D01*
X79920763Y-90698500D01*
X79925373Y-90707547D01*
X79964728Y-90761716D01*
X80597037Y-90129408D01*
X80614075Y-90192993D01*
X80679901Y-90307007D01*
X80772993Y-90400099D01*
X80887007Y-90465925D01*
X80950590Y-90482962D01*
X80318282Y-91115269D01*
X80318282Y-91115270D01*
X80372449Y-91154624D01*
X80561782Y-91251095D01*
X80763870Y-91316757D01*
X80973754Y-91350000D01*
X81186246Y-91350000D01*
X81396127Y-91316757D01*
X81396130Y-91316757D01*
X81598217Y-91251095D01*
X81787554Y-91154622D01*
X81841716Y-91115270D01*
X81841717Y-91115270D01*
X81209408Y-90482962D01*
X81272993Y-90465925D01*
X81387007Y-90400099D01*
X81480099Y-90307007D01*
X81545925Y-90192993D01*
X81562962Y-90129408D01*
X82195270Y-90761717D01*
X82195270Y-90761716D01*
X82234622Y-90707554D01*
X82331095Y-90518217D01*
X82396757Y-90316130D01*
X82396757Y-90316127D01*
X82430000Y-90106246D01*
X82430000Y-89893753D01*
X82396757Y-89683872D01*
X82396757Y-89683869D01*
X82331095Y-89481782D01*
X82234624Y-89292449D01*
X82195270Y-89238282D01*
X82195269Y-89238282D01*
X81562962Y-89870590D01*
X81545925Y-89807007D01*
X81480099Y-89692993D01*
X81387007Y-89599901D01*
X81272993Y-89534075D01*
X81209409Y-89517037D01*
X81841716Y-88884728D01*
X81787550Y-88845375D01*
X81598217Y-88748904D01*
X81396129Y-88683242D01*
X81186246Y-88650000D01*
X80973754Y-88650000D01*
X80763872Y-88683242D01*
X80763869Y-88683242D01*
X80561782Y-88748904D01*
X80372439Y-88845380D01*
X80318282Y-88884727D01*
X80318282Y-88884728D01*
X80950591Y-89517037D01*
X80887007Y-89534075D01*
X80772993Y-89599901D01*
X80679901Y-89692993D01*
X80614075Y-89807007D01*
X80597037Y-89870591D01*
X79964728Y-89238282D01*
X79964727Y-89238282D01*
X79925380Y-89292440D01*
X79925376Y-89292446D01*
X79920760Y-89301505D01*
X79872781Y-89352297D01*
X79804959Y-89369087D01*
X79738826Y-89346543D01*
X79699794Y-89301493D01*
X79695051Y-89292184D01*
X79695049Y-89292181D01*
X79695048Y-89292179D01*
X79570109Y-89120213D01*
X79419786Y-88969890D01*
X79247820Y-88844951D01*
X79058414Y-88748444D01*
X79058413Y-88748443D01*
X79058412Y-88748443D01*
X78856243Y-88682754D01*
X78856241Y-88682753D01*
X78856240Y-88682753D01*
X78694957Y-88657208D01*
X78646287Y-88649500D01*
X78433713Y-88649500D01*
X78385042Y-88657208D01*
X78223760Y-88682753D01*
X78021585Y-88748444D01*
X77832179Y-88844951D01*
X77660215Y-88969889D01*
X77546673Y-89083431D01*
X77485350Y-89116915D01*
X77415658Y-89111931D01*
X77359725Y-89070059D01*
X77342810Y-89039082D01*
X77293797Y-88907671D01*
X77293793Y-88907664D01*
X77207547Y-88792455D01*
X77207544Y-88792452D01*
X77092335Y-88706206D01*
X77092328Y-88706202D01*
X76957482Y-88655908D01*
X76957483Y-88655908D01*
X76897883Y-88649501D01*
X76897881Y-88649500D01*
X76897873Y-88649500D01*
X76897864Y-88649500D01*
X75102129Y-88649500D01*
X75102123Y-88649501D01*
X75042516Y-88655908D01*
X74907671Y-88706202D01*
X74907664Y-88706206D01*
X74792455Y-88792452D01*
X74792452Y-88792455D01*
X74706206Y-88907664D01*
X74706202Y-88907671D01*
X74655908Y-89042517D01*
X74649501Y-89102116D01*
X74649500Y-89102135D01*
X68624310Y-89102135D01*
X68715320Y-89011125D01*
X68841716Y-88884728D01*
X68787550Y-88845375D01*
X68598217Y-88748904D01*
X68396129Y-88683242D01*
X68186246Y-88650000D01*
X67973754Y-88650000D01*
X67763872Y-88683242D01*
X67763869Y-88683242D01*
X67561782Y-88748904D01*
X67372439Y-88845380D01*
X67318282Y-88884727D01*
X67318282Y-88884728D01*
X67950591Y-89517037D01*
X67887007Y-89534075D01*
X67772993Y-89599901D01*
X67679901Y-89692993D01*
X67614075Y-89807007D01*
X67597037Y-89870591D01*
X66964728Y-89238282D01*
X66964727Y-89238282D01*
X66925380Y-89292440D01*
X66925376Y-89292446D01*
X66920760Y-89301505D01*
X66872781Y-89352297D01*
X66804959Y-89369087D01*
X66738826Y-89346543D01*
X66699794Y-89301493D01*
X66695051Y-89292184D01*
X66695049Y-89292181D01*
X66695048Y-89292179D01*
X66570109Y-89120213D01*
X66419786Y-88969890D01*
X66247820Y-88844951D01*
X66058414Y-88748444D01*
X66058413Y-88748443D01*
X66058412Y-88748443D01*
X65856243Y-88682754D01*
X65856241Y-88682753D01*
X65856240Y-88682753D01*
X65694957Y-88657208D01*
X65646287Y-88649500D01*
X65433713Y-88649500D01*
X65385042Y-88657208D01*
X65223760Y-88682753D01*
X65021585Y-88748444D01*
X64832179Y-88844951D01*
X64660215Y-88969889D01*
X64546673Y-89083431D01*
X64485350Y-89116915D01*
X64415658Y-89111931D01*
X64359725Y-89070059D01*
X64342810Y-89039082D01*
X64293797Y-88907671D01*
X64293793Y-88907664D01*
X64207547Y-88792455D01*
X64207544Y-88792452D01*
X64092335Y-88706206D01*
X64092328Y-88706202D01*
X63957482Y-88655908D01*
X63957483Y-88655908D01*
X63897883Y-88649501D01*
X63897881Y-88649500D01*
X63897873Y-88649500D01*
X63897864Y-88649500D01*
X62102129Y-88649500D01*
X62102123Y-88649501D01*
X62042516Y-88655908D01*
X61907671Y-88706202D01*
X61907664Y-88706206D01*
X61792455Y-88792452D01*
X61792452Y-88792455D01*
X61706206Y-88907664D01*
X61706202Y-88907671D01*
X61655908Y-89042517D01*
X61649501Y-89102116D01*
X61649500Y-89102135D01*
X50500500Y-89102135D01*
X50500500Y-85721153D01*
X99062000Y-85721153D01*
X99062000Y-85878846D01*
X99092761Y-86033489D01*
X99092764Y-86033501D01*
X99153102Y-86179172D01*
X99153109Y-86179185D01*
X99240710Y-86310288D01*
X99240713Y-86310292D01*
X99352207Y-86421786D01*
X99352211Y-86421789D01*
X99483314Y-86509390D01*
X99483327Y-86509397D01*
X99628998Y-86569735D01*
X99629003Y-86569737D01*
X99783653Y-86600499D01*
X99783656Y-86600500D01*
X99783658Y-86600500D01*
X99941344Y-86600500D01*
X99941345Y-86600499D01*
X100095997Y-86569737D01*
X100241679Y-86509394D01*
X100298544Y-86471397D01*
X100365221Y-86450520D01*
X100367435Y-86450500D01*
X110495065Y-86450500D01*
X110562104Y-86470185D01*
X110563909Y-86471366D01*
X110620821Y-86509394D01*
X110620823Y-86509395D01*
X110620827Y-86509397D01*
X110766498Y-86569735D01*
X110766503Y-86569737D01*
X110921153Y-86600499D01*
X110921156Y-86600500D01*
X110921158Y-86600500D01*
X111078844Y-86600500D01*
X111078845Y-86600499D01*
X111233497Y-86569737D01*
X111379179Y-86509394D01*
X111510289Y-86421789D01*
X111621789Y-86310289D01*
X111709394Y-86179179D01*
X111769737Y-86033497D01*
X111800500Y-85878842D01*
X111800500Y-85721158D01*
X111800500Y-85721155D01*
X111800499Y-85721153D01*
X111769738Y-85566510D01*
X111769737Y-85566503D01*
X111769735Y-85566498D01*
X111709397Y-85420827D01*
X111709390Y-85420814D01*
X111621789Y-85289711D01*
X111621786Y-85289707D01*
X111510292Y-85178213D01*
X111510288Y-85178210D01*
X111379185Y-85090609D01*
X111379172Y-85090602D01*
X111233501Y-85030264D01*
X111233489Y-85030261D01*
X111078845Y-84999500D01*
X111078842Y-84999500D01*
X110921158Y-84999500D01*
X110921155Y-84999500D01*
X110766510Y-85030261D01*
X110766498Y-85030264D01*
X110620827Y-85090602D01*
X110620820Y-85090606D01*
X110591928Y-85109911D01*
X110563955Y-85128602D01*
X110497279Y-85149480D01*
X110495065Y-85149500D01*
X100367435Y-85149500D01*
X100300396Y-85129815D01*
X100298590Y-85128633D01*
X100241679Y-85090606D01*
X100241672Y-85090602D01*
X100096001Y-85030264D01*
X100095989Y-85030261D01*
X99941345Y-84999500D01*
X99941342Y-84999500D01*
X99783658Y-84999500D01*
X99783655Y-84999500D01*
X99629010Y-85030261D01*
X99628998Y-85030264D01*
X99483327Y-85090602D01*
X99483314Y-85090609D01*
X99352211Y-85178210D01*
X99352207Y-85178213D01*
X99240713Y-85289707D01*
X99240710Y-85289711D01*
X99153109Y-85420814D01*
X99153102Y-85420827D01*
X99092764Y-85566498D01*
X99092761Y-85566510D01*
X99062000Y-85721153D01*
X50500500Y-85721153D01*
X50500500Y-79812135D01*
X61899500Y-79812135D01*
X61899500Y-81907870D01*
X61899501Y-81907876D01*
X61905908Y-81967483D01*
X61956202Y-82102328D01*
X61956206Y-82102335D01*
X62042452Y-82217544D01*
X62042455Y-82217547D01*
X62157664Y-82303793D01*
X62157671Y-82303797D01*
X62292517Y-82354091D01*
X62292516Y-82354091D01*
X62299444Y-82354835D01*
X62352127Y-82360500D01*
X63647872Y-82360499D01*
X63707483Y-82354091D01*
X63842331Y-82303796D01*
X63957546Y-82217546D01*
X64043796Y-82102331D01*
X64094091Y-81967483D01*
X64100500Y-81907873D01*
X64100499Y-80373389D01*
X64439500Y-80373389D01*
X64439500Y-81346611D01*
X64466598Y-81517701D01*
X64520127Y-81682445D01*
X64598768Y-81836788D01*
X64700586Y-81976928D01*
X64823072Y-82099414D01*
X64963212Y-82201232D01*
X65117555Y-82279873D01*
X65282299Y-82333402D01*
X65453389Y-82360500D01*
X65453390Y-82360500D01*
X65626610Y-82360500D01*
X65626611Y-82360500D01*
X65797701Y-82333402D01*
X65962445Y-82279873D01*
X66116788Y-82201232D01*
X66256928Y-82099414D01*
X66379414Y-81976928D01*
X66481232Y-81836788D01*
X66559873Y-81682445D01*
X66613402Y-81517701D01*
X66640500Y-81346611D01*
X66640500Y-80373389D01*
X66979500Y-80373389D01*
X66979500Y-81346611D01*
X67006598Y-81517701D01*
X67060127Y-81682445D01*
X67138768Y-81836788D01*
X67240586Y-81976928D01*
X67363072Y-82099414D01*
X67503212Y-82201232D01*
X67657555Y-82279873D01*
X67822299Y-82333402D01*
X67993389Y-82360500D01*
X67993390Y-82360500D01*
X68166610Y-82360500D01*
X68166611Y-82360500D01*
X68337701Y-82333402D01*
X68502445Y-82279873D01*
X68656788Y-82201232D01*
X68796928Y-82099414D01*
X68919414Y-81976928D01*
X69021232Y-81836788D01*
X69099873Y-81682445D01*
X69153402Y-81517701D01*
X69180500Y-81346611D01*
X69180500Y-80373389D01*
X69519500Y-80373389D01*
X69519500Y-81346611D01*
X69546598Y-81517701D01*
X69600127Y-81682445D01*
X69678768Y-81836788D01*
X69780586Y-81976928D01*
X69903072Y-82099414D01*
X70043212Y-82201232D01*
X70197555Y-82279873D01*
X70362299Y-82333402D01*
X70533389Y-82360500D01*
X70533390Y-82360500D01*
X70706610Y-82360500D01*
X70706611Y-82360500D01*
X70877701Y-82333402D01*
X71042445Y-82279873D01*
X71196788Y-82201232D01*
X71336928Y-82099414D01*
X71459414Y-81976928D01*
X71561232Y-81836788D01*
X71639873Y-81682445D01*
X71693402Y-81517701D01*
X71720500Y-81346611D01*
X71720500Y-80373389D01*
X72059500Y-80373389D01*
X72059500Y-81346611D01*
X72086598Y-81517701D01*
X72140127Y-81682445D01*
X72218768Y-81836788D01*
X72320586Y-81976928D01*
X72443072Y-82099414D01*
X72583212Y-82201232D01*
X72737555Y-82279873D01*
X72902299Y-82333402D01*
X73073389Y-82360500D01*
X73073390Y-82360500D01*
X73246610Y-82360500D01*
X73246611Y-82360500D01*
X73417701Y-82333402D01*
X73582445Y-82279873D01*
X73736788Y-82201232D01*
X73876928Y-82099414D01*
X73999414Y-81976928D01*
X74101232Y-81836788D01*
X74179873Y-81682445D01*
X74233402Y-81517701D01*
X74260500Y-81346611D01*
X74260500Y-80373389D01*
X74599500Y-80373389D01*
X74599500Y-81346611D01*
X74626598Y-81517701D01*
X74680127Y-81682445D01*
X74758768Y-81836788D01*
X74860586Y-81976928D01*
X74983072Y-82099414D01*
X75123212Y-82201232D01*
X75277555Y-82279873D01*
X75442299Y-82333402D01*
X75613389Y-82360500D01*
X75613390Y-82360500D01*
X75786610Y-82360500D01*
X75786611Y-82360500D01*
X75957701Y-82333402D01*
X76122445Y-82279873D01*
X76276788Y-82201232D01*
X76416928Y-82099414D01*
X76539414Y-81976928D01*
X76641232Y-81836788D01*
X76719873Y-81682445D01*
X76773402Y-81517701D01*
X76800500Y-81346611D01*
X76800500Y-80373389D01*
X77139500Y-80373389D01*
X77139500Y-81346611D01*
X77166598Y-81517701D01*
X77220127Y-81682445D01*
X77298768Y-81836788D01*
X77400586Y-81976928D01*
X77523072Y-82099414D01*
X77663212Y-82201232D01*
X77817555Y-82279873D01*
X77982299Y-82333402D01*
X78153389Y-82360500D01*
X78153390Y-82360500D01*
X78326610Y-82360500D01*
X78326611Y-82360500D01*
X78497701Y-82333402D01*
X78662445Y-82279873D01*
X78816788Y-82201232D01*
X78956928Y-82099414D01*
X79079414Y-81976928D01*
X79181232Y-81836788D01*
X79259873Y-81682445D01*
X79313402Y-81517701D01*
X79340500Y-81346611D01*
X79340500Y-80373389D01*
X79679500Y-80373389D01*
X79679500Y-81346611D01*
X79706598Y-81517701D01*
X79760127Y-81682445D01*
X79838768Y-81836788D01*
X79940586Y-81976928D01*
X80063072Y-82099414D01*
X80203212Y-82201232D01*
X80357555Y-82279873D01*
X80522299Y-82333402D01*
X80693389Y-82360500D01*
X80693390Y-82360500D01*
X80866610Y-82360500D01*
X80866611Y-82360500D01*
X81037701Y-82333402D01*
X81202445Y-82279873D01*
X81356788Y-82201232D01*
X81496928Y-82099414D01*
X81619414Y-81976928D01*
X81721232Y-81836788D01*
X81799873Y-81682445D01*
X81853402Y-81517701D01*
X81880500Y-81346611D01*
X81880500Y-80373389D01*
X82219500Y-80373389D01*
X82219500Y-81346611D01*
X82246598Y-81517701D01*
X82300127Y-81682445D01*
X82378768Y-81836788D01*
X82480586Y-81976928D01*
X82603072Y-82099414D01*
X82743212Y-82201232D01*
X82897555Y-82279873D01*
X83062299Y-82333402D01*
X83233389Y-82360500D01*
X83233390Y-82360500D01*
X83406610Y-82360500D01*
X83406611Y-82360500D01*
X83577701Y-82333402D01*
X83742445Y-82279873D01*
X83896788Y-82201232D01*
X84036928Y-82099414D01*
X84159414Y-81976928D01*
X84261232Y-81836788D01*
X84339873Y-81682445D01*
X84393402Y-81517701D01*
X84420500Y-81346611D01*
X84420500Y-80373389D01*
X84759500Y-80373389D01*
X84759500Y-81346611D01*
X84786598Y-81517701D01*
X84840127Y-81682445D01*
X84918768Y-81836788D01*
X85020586Y-81976928D01*
X85143072Y-82099414D01*
X85283212Y-82201232D01*
X85437555Y-82279873D01*
X85602299Y-82333402D01*
X85773389Y-82360500D01*
X85773390Y-82360500D01*
X85946610Y-82360500D01*
X85946611Y-82360500D01*
X86117701Y-82333402D01*
X86282445Y-82279873D01*
X86436788Y-82201232D01*
X86576928Y-82099414D01*
X86699414Y-81976928D01*
X86801232Y-81836788D01*
X86879873Y-81682445D01*
X86933402Y-81517701D01*
X86960500Y-81346611D01*
X86960500Y-80373389D01*
X87299500Y-80373389D01*
X87299500Y-81346611D01*
X87326598Y-81517701D01*
X87380127Y-81682445D01*
X87458768Y-81836788D01*
X87560586Y-81976928D01*
X87683072Y-82099414D01*
X87823212Y-82201232D01*
X87977555Y-82279873D01*
X88142299Y-82333402D01*
X88313389Y-82360500D01*
X88313390Y-82360500D01*
X88486610Y-82360500D01*
X88486611Y-82360500D01*
X88657701Y-82333402D01*
X88822445Y-82279873D01*
X88976788Y-82201232D01*
X89116928Y-82099414D01*
X89239414Y-81976928D01*
X89341232Y-81836788D01*
X89419873Y-81682445D01*
X89473402Y-81517701D01*
X89500500Y-81346611D01*
X89500500Y-80373389D01*
X89839500Y-80373389D01*
X89839500Y-81346611D01*
X89866598Y-81517701D01*
X89920127Y-81682445D01*
X89998768Y-81836788D01*
X90100586Y-81976928D01*
X90223072Y-82099414D01*
X90363212Y-82201232D01*
X90517555Y-82279873D01*
X90682299Y-82333402D01*
X90853389Y-82360500D01*
X90853390Y-82360500D01*
X91026610Y-82360500D01*
X91026611Y-82360500D01*
X91197701Y-82333402D01*
X91362445Y-82279873D01*
X91516788Y-82201232D01*
X91656928Y-82099414D01*
X91779414Y-81976928D01*
X91881232Y-81836788D01*
X91959873Y-81682445D01*
X92013402Y-81517701D01*
X92040500Y-81346611D01*
X92040500Y-80373389D01*
X92379500Y-80373389D01*
X92379500Y-81346611D01*
X92406598Y-81517701D01*
X92460127Y-81682445D01*
X92538768Y-81836788D01*
X92640586Y-81976928D01*
X92763072Y-82099414D01*
X92903212Y-82201232D01*
X93057555Y-82279873D01*
X93222299Y-82333402D01*
X93393389Y-82360500D01*
X93393390Y-82360500D01*
X93566610Y-82360500D01*
X93566611Y-82360500D01*
X93737701Y-82333402D01*
X93902445Y-82279873D01*
X94056788Y-82201232D01*
X94196928Y-82099414D01*
X94319414Y-81976928D01*
X94421232Y-81836788D01*
X94499873Y-81682445D01*
X94553402Y-81517701D01*
X94580500Y-81346611D01*
X94580500Y-80373389D01*
X94919500Y-80373389D01*
X94919500Y-81346611D01*
X94946598Y-81517701D01*
X95000127Y-81682445D01*
X95078768Y-81836788D01*
X95180586Y-81976928D01*
X95303072Y-82099414D01*
X95443212Y-82201232D01*
X95597555Y-82279873D01*
X95762299Y-82333402D01*
X95933389Y-82360500D01*
X95933390Y-82360500D01*
X96106610Y-82360500D01*
X96106611Y-82360500D01*
X96277701Y-82333402D01*
X96442445Y-82279873D01*
X96596788Y-82201232D01*
X96736928Y-82099414D01*
X96859414Y-81976928D01*
X96961232Y-81836788D01*
X97039873Y-81682445D01*
X97093402Y-81517701D01*
X97120500Y-81346611D01*
X97120500Y-80373389D01*
X97459500Y-80373389D01*
X97459500Y-81346611D01*
X97486598Y-81517701D01*
X97540127Y-81682445D01*
X97618768Y-81836788D01*
X97720586Y-81976928D01*
X97843072Y-82099414D01*
X97983212Y-82201232D01*
X98137555Y-82279873D01*
X98302299Y-82333402D01*
X98473389Y-82360500D01*
X98473390Y-82360500D01*
X98646610Y-82360500D01*
X98646611Y-82360500D01*
X98817701Y-82333402D01*
X98982445Y-82279873D01*
X99136788Y-82201232D01*
X99276928Y-82099414D01*
X99399414Y-81976928D01*
X99501232Y-81836788D01*
X99579873Y-81682445D01*
X99633402Y-81517701D01*
X99660500Y-81346611D01*
X99660500Y-80373389D01*
X99999500Y-80373389D01*
X99999500Y-81346611D01*
X100026598Y-81517701D01*
X100080127Y-81682445D01*
X100158768Y-81836788D01*
X100260586Y-81976928D01*
X100383072Y-82099414D01*
X100523212Y-82201232D01*
X100677555Y-82279873D01*
X100842299Y-82333402D01*
X101013389Y-82360500D01*
X101013390Y-82360500D01*
X101186610Y-82360500D01*
X101186611Y-82360500D01*
X101357701Y-82333402D01*
X101522445Y-82279873D01*
X101676788Y-82201232D01*
X101816928Y-82099414D01*
X101939414Y-81976928D01*
X102041232Y-81836788D01*
X102119873Y-81682445D01*
X102173402Y-81517701D01*
X102200500Y-81346611D01*
X102200500Y-80373389D01*
X102539500Y-80373389D01*
X102539500Y-81346611D01*
X102566598Y-81517701D01*
X102620127Y-81682445D01*
X102698768Y-81836788D01*
X102800586Y-81976928D01*
X102923072Y-82099414D01*
X103063212Y-82201232D01*
X103217555Y-82279873D01*
X103382299Y-82333402D01*
X103553389Y-82360500D01*
X103553390Y-82360500D01*
X103726610Y-82360500D01*
X103726611Y-82360500D01*
X103897701Y-82333402D01*
X104062445Y-82279873D01*
X104216788Y-82201232D01*
X104356928Y-82099414D01*
X104479414Y-81976928D01*
X104581232Y-81836788D01*
X104659873Y-81682445D01*
X104713402Y-81517701D01*
X104740500Y-81346611D01*
X104740500Y-80373389D01*
X105079500Y-80373389D01*
X105079500Y-81346611D01*
X105106598Y-81517701D01*
X105160127Y-81682445D01*
X105238768Y-81836788D01*
X105340586Y-81976928D01*
X105463072Y-82099414D01*
X105603212Y-82201232D01*
X105757555Y-82279873D01*
X105922299Y-82333402D01*
X106093389Y-82360500D01*
X106093390Y-82360500D01*
X106266610Y-82360500D01*
X106266611Y-82360500D01*
X106437701Y-82333402D01*
X106602445Y-82279873D01*
X106756788Y-82201232D01*
X106896928Y-82099414D01*
X107019414Y-81976928D01*
X107121232Y-81836788D01*
X107199873Y-81682445D01*
X107253402Y-81517701D01*
X107280500Y-81346611D01*
X107280500Y-80373389D01*
X107619500Y-80373389D01*
X107619500Y-81346611D01*
X107646598Y-81517701D01*
X107700127Y-81682445D01*
X107778768Y-81836788D01*
X107880586Y-81976928D01*
X108003072Y-82099414D01*
X108143212Y-82201232D01*
X108297555Y-82279873D01*
X108462299Y-82333402D01*
X108633389Y-82360500D01*
X108633390Y-82360500D01*
X108806610Y-82360500D01*
X108806611Y-82360500D01*
X108977701Y-82333402D01*
X109142445Y-82279873D01*
X109296788Y-82201232D01*
X109436928Y-82099414D01*
X109559414Y-81976928D01*
X109661232Y-81836788D01*
X109739873Y-81682445D01*
X109793402Y-81517701D01*
X109820500Y-81346611D01*
X109820500Y-80377069D01*
X110156780Y-80377069D01*
X110156780Y-81350290D01*
X110183294Y-81517697D01*
X110183878Y-81521381D01*
X110237407Y-81686125D01*
X110316048Y-81840468D01*
X110417866Y-81980608D01*
X110540352Y-82103094D01*
X110680492Y-82204912D01*
X110834835Y-82283553D01*
X110999579Y-82337082D01*
X111170669Y-82364180D01*
X111170670Y-82364180D01*
X111343890Y-82364180D01*
X111343891Y-82364180D01*
X111514981Y-82337082D01*
X111679725Y-82283553D01*
X111834068Y-82204912D01*
X111974208Y-82103094D01*
X112096694Y-81980608D01*
X112198512Y-81840468D01*
X112277153Y-81686125D01*
X112330682Y-81521381D01*
X112357780Y-81350291D01*
X112357780Y-80377069D01*
X112696780Y-80377069D01*
X112696780Y-81350290D01*
X112723294Y-81517697D01*
X112723878Y-81521381D01*
X112777407Y-81686125D01*
X112856048Y-81840468D01*
X112957866Y-81980608D01*
X113080352Y-82103094D01*
X113220492Y-82204912D01*
X113374835Y-82283553D01*
X113539579Y-82337082D01*
X113710669Y-82364180D01*
X113710670Y-82364180D01*
X113883890Y-82364180D01*
X113883891Y-82364180D01*
X114054981Y-82337082D01*
X114219725Y-82283553D01*
X114374068Y-82204912D01*
X114514208Y-82103094D01*
X114636694Y-81980608D01*
X114738512Y-81840468D01*
X114817153Y-81686125D01*
X114870682Y-81521381D01*
X114897780Y-81350291D01*
X114897780Y-80377108D01*
X115237280Y-80377108D01*
X115237280Y-80613680D01*
X116021594Y-80613680D01*
X116017200Y-80618074D01*
X115964539Y-80709286D01*
X115937280Y-80811019D01*
X115937280Y-80916341D01*
X115964539Y-81018074D01*
X116017200Y-81109286D01*
X116021594Y-81113680D01*
X115237280Y-81113680D01*
X115237280Y-81350251D01*
X115264365Y-81521264D01*
X115317871Y-81685937D01*
X115396475Y-81840204D01*
X115498247Y-81980282D01*
X115620677Y-82102712D01*
X115760755Y-82204484D01*
X115915024Y-82283088D01*
X116079695Y-82336594D01*
X116079694Y-82336594D01*
X116087279Y-82337795D01*
X116087280Y-82337794D01*
X116087280Y-81179366D01*
X116091674Y-81183760D01*
X116182886Y-81236421D01*
X116284619Y-81263680D01*
X116389941Y-81263680D01*
X116491674Y-81236421D01*
X116582886Y-81183760D01*
X116587280Y-81179366D01*
X116587280Y-82337795D01*
X116594864Y-82336594D01*
X116759535Y-82283088D01*
X116913804Y-82204484D01*
X117053882Y-82102712D01*
X117176312Y-81980282D01*
X117278084Y-81840204D01*
X117356688Y-81685937D01*
X117410194Y-81521264D01*
X117437280Y-81350251D01*
X117437280Y-81113680D01*
X116652966Y-81113680D01*
X116657360Y-81109286D01*
X116710021Y-81018074D01*
X116737280Y-80916341D01*
X116737280Y-80811019D01*
X116710021Y-80709286D01*
X116657360Y-80618074D01*
X116652966Y-80613680D01*
X117437280Y-80613680D01*
X117437280Y-80377108D01*
X117410194Y-80206095D01*
X117356688Y-80041422D01*
X117278083Y-79887154D01*
X117176312Y-79747077D01*
X117053882Y-79624647D01*
X116913804Y-79522875D01*
X116759537Y-79444271D01*
X116594869Y-79390767D01*
X116594861Y-79390765D01*
X116587280Y-79389564D01*
X116587280Y-80547994D01*
X116582886Y-80543600D01*
X116491674Y-80490939D01*
X116389941Y-80463680D01*
X116284619Y-80463680D01*
X116182886Y-80490939D01*
X116091674Y-80543600D01*
X116087280Y-80547994D01*
X116087280Y-79389564D01*
X116087279Y-79389564D01*
X116079698Y-79390765D01*
X116079690Y-79390767D01*
X115915022Y-79444271D01*
X115760755Y-79522875D01*
X115620677Y-79624647D01*
X115498247Y-79747077D01*
X115396477Y-79887154D01*
X115317871Y-80041422D01*
X115264365Y-80206095D01*
X115237280Y-80377108D01*
X114897780Y-80377108D01*
X114897780Y-80377069D01*
X114870682Y-80205979D01*
X114817153Y-80041235D01*
X114738512Y-79886892D01*
X114636694Y-79746752D01*
X114514208Y-79624266D01*
X114374068Y-79522448D01*
X114219725Y-79443807D01*
X114054981Y-79390278D01*
X114054979Y-79390277D01*
X114054978Y-79390277D01*
X113901121Y-79365909D01*
X113883891Y-79363180D01*
X113710669Y-79363180D01*
X113693439Y-79365909D01*
X113539582Y-79390277D01*
X113374832Y-79443808D01*
X113220491Y-79522448D01*
X113140536Y-79580539D01*
X113080352Y-79624266D01*
X113080350Y-79624268D01*
X113080349Y-79624268D01*
X112957868Y-79746749D01*
X112957868Y-79746750D01*
X112957866Y-79746752D01*
X112914139Y-79806936D01*
X112856048Y-79886891D01*
X112777408Y-80041232D01*
X112723877Y-80205982D01*
X112696780Y-80377069D01*
X112357780Y-80377069D01*
X112330682Y-80205979D01*
X112277153Y-80041235D01*
X112198512Y-79886892D01*
X112096694Y-79746752D01*
X111974208Y-79624266D01*
X111834068Y-79522448D01*
X111679725Y-79443807D01*
X111514981Y-79390278D01*
X111514979Y-79390277D01*
X111514978Y-79390277D01*
X111361121Y-79365909D01*
X111343891Y-79363180D01*
X111170669Y-79363180D01*
X111153439Y-79365909D01*
X110999582Y-79390277D01*
X110834832Y-79443808D01*
X110680491Y-79522448D01*
X110600536Y-79580539D01*
X110540352Y-79624266D01*
X110540350Y-79624268D01*
X110540349Y-79624268D01*
X110417868Y-79746749D01*
X110417868Y-79746750D01*
X110417866Y-79746752D01*
X110374139Y-79806936D01*
X110316048Y-79886891D01*
X110237408Y-80041232D01*
X110183877Y-80205982D01*
X110156780Y-80377069D01*
X109820500Y-80377069D01*
X109820500Y-80373389D01*
X109793402Y-80202299D01*
X109739873Y-80037555D01*
X109661232Y-79883212D01*
X109559414Y-79743072D01*
X109436928Y-79620586D01*
X109296788Y-79518768D01*
X109149669Y-79443808D01*
X109142447Y-79440128D01*
X109142446Y-79440127D01*
X109142445Y-79440127D01*
X108977701Y-79386598D01*
X108977699Y-79386597D01*
X108977698Y-79386597D01*
X108846271Y-79365781D01*
X108806611Y-79359500D01*
X108633389Y-79359500D01*
X108593728Y-79365781D01*
X108462302Y-79386597D01*
X108297552Y-79440128D01*
X108143211Y-79518768D01*
X108063256Y-79576859D01*
X108003072Y-79620586D01*
X108003070Y-79620588D01*
X108003069Y-79620588D01*
X107880588Y-79743069D01*
X107880588Y-79743070D01*
X107880586Y-79743072D01*
X107873725Y-79752516D01*
X107778768Y-79883211D01*
X107700128Y-80037552D01*
X107646597Y-80202302D01*
X107619500Y-80373389D01*
X107280500Y-80373389D01*
X107253402Y-80202299D01*
X107199873Y-80037555D01*
X107121232Y-79883212D01*
X107019414Y-79743072D01*
X106896928Y-79620586D01*
X106756788Y-79518768D01*
X106609669Y-79443808D01*
X106602447Y-79440128D01*
X106602446Y-79440127D01*
X106602445Y-79440127D01*
X106437701Y-79386598D01*
X106437699Y-79386597D01*
X106437698Y-79386597D01*
X106306271Y-79365781D01*
X106266611Y-79359500D01*
X106093389Y-79359500D01*
X106053728Y-79365781D01*
X105922302Y-79386597D01*
X105757552Y-79440128D01*
X105603211Y-79518768D01*
X105523256Y-79576859D01*
X105463072Y-79620586D01*
X105463070Y-79620588D01*
X105463069Y-79620588D01*
X105340588Y-79743069D01*
X105340588Y-79743070D01*
X105340586Y-79743072D01*
X105333725Y-79752516D01*
X105238768Y-79883211D01*
X105160128Y-80037552D01*
X105106597Y-80202302D01*
X105079500Y-80373389D01*
X104740500Y-80373389D01*
X104713402Y-80202299D01*
X104659873Y-80037555D01*
X104581232Y-79883212D01*
X104479414Y-79743072D01*
X104356928Y-79620586D01*
X104216788Y-79518768D01*
X104069669Y-79443808D01*
X104062447Y-79440128D01*
X104062446Y-79440127D01*
X104062445Y-79440127D01*
X103897701Y-79386598D01*
X103897699Y-79386597D01*
X103897698Y-79386597D01*
X103766271Y-79365781D01*
X103726611Y-79359500D01*
X103553389Y-79359500D01*
X103513728Y-79365781D01*
X103382302Y-79386597D01*
X103217552Y-79440128D01*
X103063211Y-79518768D01*
X102983256Y-79576859D01*
X102923072Y-79620586D01*
X102923070Y-79620588D01*
X102923069Y-79620588D01*
X102800588Y-79743069D01*
X102800588Y-79743070D01*
X102800586Y-79743072D01*
X102793725Y-79752516D01*
X102698768Y-79883211D01*
X102620128Y-80037552D01*
X102566597Y-80202302D01*
X102539500Y-80373389D01*
X102200500Y-80373389D01*
X102173402Y-80202299D01*
X102119873Y-80037555D01*
X102041232Y-79883212D01*
X101939414Y-79743072D01*
X101816928Y-79620586D01*
X101676788Y-79518768D01*
X101529669Y-79443808D01*
X101522447Y-79440128D01*
X101522446Y-79440127D01*
X101522445Y-79440127D01*
X101357701Y-79386598D01*
X101357699Y-79386597D01*
X101357698Y-79386597D01*
X101226271Y-79365781D01*
X101186611Y-79359500D01*
X101013389Y-79359500D01*
X100973728Y-79365781D01*
X100842302Y-79386597D01*
X100677552Y-79440128D01*
X100523211Y-79518768D01*
X100443256Y-79576859D01*
X100383072Y-79620586D01*
X100383070Y-79620588D01*
X100383069Y-79620588D01*
X100260588Y-79743069D01*
X100260588Y-79743070D01*
X100260586Y-79743072D01*
X100253725Y-79752516D01*
X100158768Y-79883211D01*
X100080128Y-80037552D01*
X100026597Y-80202302D01*
X99999500Y-80373389D01*
X99660500Y-80373389D01*
X99633402Y-80202299D01*
X99579873Y-80037555D01*
X99501232Y-79883212D01*
X99399414Y-79743072D01*
X99276928Y-79620586D01*
X99136788Y-79518768D01*
X98989669Y-79443808D01*
X98982447Y-79440128D01*
X98982446Y-79440127D01*
X98982445Y-79440127D01*
X98817701Y-79386598D01*
X98817699Y-79386597D01*
X98817698Y-79386597D01*
X98686271Y-79365781D01*
X98646611Y-79359500D01*
X98473389Y-79359500D01*
X98433728Y-79365781D01*
X98302302Y-79386597D01*
X98137552Y-79440128D01*
X97983211Y-79518768D01*
X97903256Y-79576859D01*
X97843072Y-79620586D01*
X97843070Y-79620588D01*
X97843069Y-79620588D01*
X97720588Y-79743069D01*
X97720588Y-79743070D01*
X97720586Y-79743072D01*
X97713725Y-79752516D01*
X97618768Y-79883211D01*
X97540128Y-80037552D01*
X97486597Y-80202302D01*
X97459500Y-80373389D01*
X97120500Y-80373389D01*
X97093402Y-80202299D01*
X97039873Y-80037555D01*
X96961232Y-79883212D01*
X96859414Y-79743072D01*
X96736928Y-79620586D01*
X96596788Y-79518768D01*
X96449669Y-79443808D01*
X96442447Y-79440128D01*
X96442446Y-79440127D01*
X96442445Y-79440127D01*
X96277701Y-79386598D01*
X96277699Y-79386597D01*
X96277698Y-79386597D01*
X96146271Y-79365781D01*
X96106611Y-79359500D01*
X95933389Y-79359500D01*
X95893728Y-79365781D01*
X95762302Y-79386597D01*
X95597552Y-79440128D01*
X95443211Y-79518768D01*
X95363256Y-79576859D01*
X95303072Y-79620586D01*
X95303070Y-79620588D01*
X95303069Y-79620588D01*
X95180588Y-79743069D01*
X95180588Y-79743070D01*
X95180586Y-79743072D01*
X95173725Y-79752516D01*
X95078768Y-79883211D01*
X95000128Y-80037552D01*
X94946597Y-80202302D01*
X94919500Y-80373389D01*
X94580500Y-80373389D01*
X94553402Y-80202299D01*
X94499873Y-80037555D01*
X94421232Y-79883212D01*
X94319414Y-79743072D01*
X94196928Y-79620586D01*
X94056788Y-79518768D01*
X93909669Y-79443808D01*
X93902447Y-79440128D01*
X93902446Y-79440127D01*
X93902445Y-79440127D01*
X93737701Y-79386598D01*
X93737699Y-79386597D01*
X93737698Y-79386597D01*
X93606271Y-79365781D01*
X93566611Y-79359500D01*
X93393389Y-79359500D01*
X93353728Y-79365781D01*
X93222302Y-79386597D01*
X93057552Y-79440128D01*
X92903211Y-79518768D01*
X92823256Y-79576859D01*
X92763072Y-79620586D01*
X92763070Y-79620588D01*
X92763069Y-79620588D01*
X92640588Y-79743069D01*
X92640588Y-79743070D01*
X92640586Y-79743072D01*
X92633725Y-79752516D01*
X92538768Y-79883211D01*
X92460128Y-80037552D01*
X92406597Y-80202302D01*
X92379500Y-80373389D01*
X92040500Y-80373389D01*
X92013402Y-80202299D01*
X91959873Y-80037555D01*
X91881232Y-79883212D01*
X91779414Y-79743072D01*
X91656928Y-79620586D01*
X91516788Y-79518768D01*
X91369669Y-79443808D01*
X91362447Y-79440128D01*
X91362446Y-79440127D01*
X91362445Y-79440127D01*
X91197701Y-79386598D01*
X91197699Y-79386597D01*
X91197698Y-79386597D01*
X91066271Y-79365781D01*
X91026611Y-79359500D01*
X90853389Y-79359500D01*
X90813728Y-79365781D01*
X90682302Y-79386597D01*
X90517552Y-79440128D01*
X90363211Y-79518768D01*
X90283256Y-79576859D01*
X90223072Y-79620586D01*
X90223070Y-79620588D01*
X90223069Y-79620588D01*
X90100588Y-79743069D01*
X90100588Y-79743070D01*
X90100586Y-79743072D01*
X90093725Y-79752516D01*
X89998768Y-79883211D01*
X89920128Y-80037552D01*
X89866597Y-80202302D01*
X89839500Y-80373389D01*
X89500500Y-80373389D01*
X89473402Y-80202299D01*
X89419873Y-80037555D01*
X89341232Y-79883212D01*
X89239414Y-79743072D01*
X89116928Y-79620586D01*
X88976788Y-79518768D01*
X88829669Y-79443808D01*
X88822447Y-79440128D01*
X88822446Y-79440127D01*
X88822445Y-79440127D01*
X88657701Y-79386598D01*
X88657699Y-79386597D01*
X88657698Y-79386597D01*
X88526271Y-79365781D01*
X88486611Y-79359500D01*
X88313389Y-79359500D01*
X88273728Y-79365781D01*
X88142302Y-79386597D01*
X87977552Y-79440128D01*
X87823211Y-79518768D01*
X87743256Y-79576859D01*
X87683072Y-79620586D01*
X87683070Y-79620588D01*
X87683069Y-79620588D01*
X87560588Y-79743069D01*
X87560588Y-79743070D01*
X87560586Y-79743072D01*
X87553725Y-79752516D01*
X87458768Y-79883211D01*
X87380128Y-80037552D01*
X87326597Y-80202302D01*
X87299500Y-80373389D01*
X86960500Y-80373389D01*
X86933402Y-80202299D01*
X86879873Y-80037555D01*
X86801232Y-79883212D01*
X86699414Y-79743072D01*
X86576928Y-79620586D01*
X86436788Y-79518768D01*
X86289669Y-79443808D01*
X86282447Y-79440128D01*
X86282446Y-79440127D01*
X86282445Y-79440127D01*
X86117701Y-79386598D01*
X86117699Y-79386597D01*
X86117698Y-79386597D01*
X85986271Y-79365781D01*
X85946611Y-79359500D01*
X85773389Y-79359500D01*
X85733728Y-79365781D01*
X85602302Y-79386597D01*
X85437552Y-79440128D01*
X85283211Y-79518768D01*
X85203256Y-79576859D01*
X85143072Y-79620586D01*
X85143070Y-79620588D01*
X85143069Y-79620588D01*
X85020588Y-79743069D01*
X85020588Y-79743070D01*
X85020586Y-79743072D01*
X85013725Y-79752516D01*
X84918768Y-79883211D01*
X84840128Y-80037552D01*
X84786597Y-80202302D01*
X84759500Y-80373389D01*
X84420500Y-80373389D01*
X84393402Y-80202299D01*
X84339873Y-80037555D01*
X84261232Y-79883212D01*
X84159414Y-79743072D01*
X84036928Y-79620586D01*
X83896788Y-79518768D01*
X83749669Y-79443808D01*
X83742447Y-79440128D01*
X83742446Y-79440127D01*
X83742445Y-79440127D01*
X83577701Y-79386598D01*
X83577699Y-79386597D01*
X83577698Y-79386597D01*
X83446271Y-79365781D01*
X83406611Y-79359500D01*
X83233389Y-79359500D01*
X83193728Y-79365781D01*
X83062302Y-79386597D01*
X82897552Y-79440128D01*
X82743211Y-79518768D01*
X82663256Y-79576859D01*
X82603072Y-79620586D01*
X82603070Y-79620588D01*
X82603069Y-79620588D01*
X82480588Y-79743069D01*
X82480588Y-79743070D01*
X82480586Y-79743072D01*
X82473725Y-79752516D01*
X82378768Y-79883211D01*
X82300128Y-80037552D01*
X82246597Y-80202302D01*
X82219500Y-80373389D01*
X81880500Y-80373389D01*
X81853402Y-80202299D01*
X81799873Y-80037555D01*
X81721232Y-79883212D01*
X81619414Y-79743072D01*
X81496928Y-79620586D01*
X81356788Y-79518768D01*
X81209669Y-79443808D01*
X81202447Y-79440128D01*
X81202446Y-79440127D01*
X81202445Y-79440127D01*
X81037701Y-79386598D01*
X81037699Y-79386597D01*
X81037698Y-79386597D01*
X80906271Y-79365781D01*
X80866611Y-79359500D01*
X80693389Y-79359500D01*
X80653728Y-79365781D01*
X80522302Y-79386597D01*
X80357552Y-79440128D01*
X80203211Y-79518768D01*
X80123256Y-79576859D01*
X80063072Y-79620586D01*
X80063070Y-79620588D01*
X80063069Y-79620588D01*
X79940588Y-79743069D01*
X79940588Y-79743070D01*
X79940586Y-79743072D01*
X79933725Y-79752516D01*
X79838768Y-79883211D01*
X79760128Y-80037552D01*
X79706597Y-80202302D01*
X79679500Y-80373389D01*
X79340500Y-80373389D01*
X79313402Y-80202299D01*
X79259873Y-80037555D01*
X79181232Y-79883212D01*
X79079414Y-79743072D01*
X78956928Y-79620586D01*
X78816788Y-79518768D01*
X78669669Y-79443808D01*
X78662447Y-79440128D01*
X78662446Y-79440127D01*
X78662445Y-79440127D01*
X78497701Y-79386598D01*
X78497699Y-79386597D01*
X78497698Y-79386597D01*
X78366271Y-79365781D01*
X78326611Y-79359500D01*
X78153389Y-79359500D01*
X78113728Y-79365781D01*
X77982302Y-79386597D01*
X77817552Y-79440128D01*
X77663211Y-79518768D01*
X77583256Y-79576859D01*
X77523072Y-79620586D01*
X77523070Y-79620588D01*
X77523069Y-79620588D01*
X77400588Y-79743069D01*
X77400588Y-79743070D01*
X77400586Y-79743072D01*
X77393725Y-79752516D01*
X77298768Y-79883211D01*
X77220128Y-80037552D01*
X77166597Y-80202302D01*
X77139500Y-80373389D01*
X76800500Y-80373389D01*
X76773402Y-80202299D01*
X76719873Y-80037555D01*
X76641232Y-79883212D01*
X76539414Y-79743072D01*
X76416928Y-79620586D01*
X76276788Y-79518768D01*
X76129669Y-79443808D01*
X76122447Y-79440128D01*
X76122446Y-79440127D01*
X76122445Y-79440127D01*
X75957701Y-79386598D01*
X75957699Y-79386597D01*
X75957698Y-79386597D01*
X75826271Y-79365781D01*
X75786611Y-79359500D01*
X75613389Y-79359500D01*
X75573728Y-79365781D01*
X75442302Y-79386597D01*
X75277552Y-79440128D01*
X75123211Y-79518768D01*
X75043256Y-79576859D01*
X74983072Y-79620586D01*
X74983070Y-79620588D01*
X74983069Y-79620588D01*
X74860588Y-79743069D01*
X74860588Y-79743070D01*
X74860586Y-79743072D01*
X74853725Y-79752516D01*
X74758768Y-79883211D01*
X74680128Y-80037552D01*
X74626597Y-80202302D01*
X74599500Y-80373389D01*
X74260500Y-80373389D01*
X74233402Y-80202299D01*
X74179873Y-80037555D01*
X74101232Y-79883212D01*
X73999414Y-79743072D01*
X73876928Y-79620586D01*
X73736788Y-79518768D01*
X73589669Y-79443808D01*
X73582447Y-79440128D01*
X73582446Y-79440127D01*
X73582445Y-79440127D01*
X73417701Y-79386598D01*
X73417699Y-79386597D01*
X73417698Y-79386597D01*
X73286271Y-79365781D01*
X73246611Y-79359500D01*
X73073389Y-79359500D01*
X73033728Y-79365781D01*
X72902302Y-79386597D01*
X72737552Y-79440128D01*
X72583211Y-79518768D01*
X72503256Y-79576859D01*
X72443072Y-79620586D01*
X72443070Y-79620588D01*
X72443069Y-79620588D01*
X72320588Y-79743069D01*
X72320588Y-79743070D01*
X72320586Y-79743072D01*
X72313725Y-79752516D01*
X72218768Y-79883211D01*
X72140128Y-80037552D01*
X72086597Y-80202302D01*
X72059500Y-80373389D01*
X71720500Y-80373389D01*
X71693402Y-80202299D01*
X71639873Y-80037555D01*
X71561232Y-79883212D01*
X71459414Y-79743072D01*
X71336928Y-79620586D01*
X71196788Y-79518768D01*
X71049669Y-79443808D01*
X71042447Y-79440128D01*
X71042446Y-79440127D01*
X71042445Y-79440127D01*
X70877701Y-79386598D01*
X70877699Y-79386597D01*
X70877698Y-79386597D01*
X70746271Y-79365781D01*
X70706611Y-79359500D01*
X70533389Y-79359500D01*
X70493728Y-79365781D01*
X70362302Y-79386597D01*
X70197552Y-79440128D01*
X70043211Y-79518768D01*
X69963256Y-79576859D01*
X69903072Y-79620586D01*
X69903070Y-79620588D01*
X69903069Y-79620588D01*
X69780588Y-79743069D01*
X69780588Y-79743070D01*
X69780586Y-79743072D01*
X69773725Y-79752516D01*
X69678768Y-79883211D01*
X69600128Y-80037552D01*
X69546597Y-80202302D01*
X69519500Y-80373389D01*
X69180500Y-80373389D01*
X69153402Y-80202299D01*
X69099873Y-80037555D01*
X69021232Y-79883212D01*
X68919414Y-79743072D01*
X68796928Y-79620586D01*
X68656788Y-79518768D01*
X68509669Y-79443808D01*
X68502447Y-79440128D01*
X68502446Y-79440127D01*
X68502445Y-79440127D01*
X68337701Y-79386598D01*
X68337699Y-79386597D01*
X68337698Y-79386597D01*
X68206271Y-79365781D01*
X68166611Y-79359500D01*
X67993389Y-79359500D01*
X67953728Y-79365781D01*
X67822302Y-79386597D01*
X67657552Y-79440128D01*
X67503211Y-79518768D01*
X67423256Y-79576859D01*
X67363072Y-79620586D01*
X67363070Y-79620588D01*
X67363069Y-79620588D01*
X67240588Y-79743069D01*
X67240588Y-79743070D01*
X67240586Y-79743072D01*
X67233725Y-79752516D01*
X67138768Y-79883211D01*
X67060128Y-80037552D01*
X67006597Y-80202302D01*
X66979500Y-80373389D01*
X66640500Y-80373389D01*
X66613402Y-80202299D01*
X66559873Y-80037555D01*
X66481232Y-79883212D01*
X66379414Y-79743072D01*
X66256928Y-79620586D01*
X66116788Y-79518768D01*
X65969669Y-79443808D01*
X65962447Y-79440128D01*
X65962446Y-79440127D01*
X65962445Y-79440127D01*
X65797701Y-79386598D01*
X65797699Y-79386597D01*
X65797698Y-79386597D01*
X65666271Y-79365781D01*
X65626611Y-79359500D01*
X65453389Y-79359500D01*
X65413728Y-79365781D01*
X65282302Y-79386597D01*
X65117552Y-79440128D01*
X64963211Y-79518768D01*
X64883256Y-79576859D01*
X64823072Y-79620586D01*
X64823070Y-79620588D01*
X64823069Y-79620588D01*
X64700588Y-79743069D01*
X64700588Y-79743070D01*
X64700586Y-79743072D01*
X64693725Y-79752516D01*
X64598768Y-79883211D01*
X64520128Y-80037552D01*
X64466597Y-80202302D01*
X64439500Y-80373389D01*
X64100499Y-80373389D01*
X64100499Y-79812128D01*
X64094091Y-79752517D01*
X64090568Y-79743072D01*
X64043797Y-79617671D01*
X64043793Y-79617664D01*
X63957547Y-79502455D01*
X63957544Y-79502452D01*
X63842335Y-79416206D01*
X63842328Y-79416202D01*
X63707482Y-79365908D01*
X63707483Y-79365908D01*
X63647883Y-79359501D01*
X63647881Y-79359500D01*
X63647873Y-79359500D01*
X63647864Y-79359500D01*
X62352129Y-79359500D01*
X62352123Y-79359501D01*
X62292516Y-79365908D01*
X62157671Y-79416202D01*
X62157664Y-79416206D01*
X62042455Y-79502452D01*
X62042452Y-79502455D01*
X61956206Y-79617664D01*
X61956202Y-79617671D01*
X61905908Y-79752517D01*
X61899501Y-79812116D01*
X61899501Y-79812123D01*
X61899500Y-79812135D01*
X50500500Y-79812135D01*
X50500500Y-57513428D01*
X61900000Y-57513428D01*
X61900000Y-57750000D01*
X62684314Y-57750000D01*
X62679920Y-57754394D01*
X62627259Y-57845606D01*
X62600000Y-57947339D01*
X62600000Y-58052661D01*
X62627259Y-58154394D01*
X62679920Y-58245606D01*
X62684314Y-58250000D01*
X61900000Y-58250000D01*
X61900000Y-58486571D01*
X61927085Y-58657584D01*
X61980591Y-58822257D01*
X62059195Y-58976524D01*
X62160967Y-59116602D01*
X62283397Y-59239032D01*
X62423475Y-59340804D01*
X62577744Y-59419408D01*
X62742415Y-59472914D01*
X62742414Y-59472914D01*
X62749999Y-59474115D01*
X62750000Y-59474114D01*
X62750000Y-58315686D01*
X62754394Y-58320080D01*
X62845606Y-58372741D01*
X62947339Y-58400000D01*
X63052661Y-58400000D01*
X63154394Y-58372741D01*
X63245606Y-58320080D01*
X63250000Y-58315686D01*
X63250000Y-59474115D01*
X63257584Y-59472914D01*
X63422255Y-59419408D01*
X63576524Y-59340804D01*
X63716602Y-59239032D01*
X63839032Y-59116602D01*
X63940804Y-58976524D01*
X64019408Y-58822257D01*
X64072914Y-58657584D01*
X64100000Y-58486571D01*
X64100000Y-58250000D01*
X63315686Y-58250000D01*
X63320080Y-58245606D01*
X63372741Y-58154394D01*
X63400000Y-58052661D01*
X63400000Y-57947339D01*
X63372741Y-57845606D01*
X63320080Y-57754394D01*
X63315686Y-57750000D01*
X64100000Y-57750000D01*
X64100000Y-57513428D01*
X64099994Y-57513389D01*
X64439500Y-57513389D01*
X64439500Y-58486611D01*
X64466598Y-58657701D01*
X64520127Y-58822445D01*
X64598768Y-58976788D01*
X64700586Y-59116928D01*
X64823072Y-59239414D01*
X64963212Y-59341232D01*
X65117555Y-59419873D01*
X65282299Y-59473402D01*
X65453389Y-59500500D01*
X65453390Y-59500500D01*
X65626610Y-59500500D01*
X65626611Y-59500500D01*
X65797701Y-59473402D01*
X65962445Y-59419873D01*
X66116788Y-59341232D01*
X66256928Y-59239414D01*
X66379414Y-59116928D01*
X66481232Y-58976788D01*
X66559873Y-58822445D01*
X66613402Y-58657701D01*
X66640500Y-58486611D01*
X66640500Y-57513389D01*
X66979500Y-57513389D01*
X66979500Y-58486611D01*
X67006598Y-58657701D01*
X67060127Y-58822445D01*
X67138768Y-58976788D01*
X67240586Y-59116928D01*
X67363072Y-59239414D01*
X67503212Y-59341232D01*
X67657555Y-59419873D01*
X67822299Y-59473402D01*
X67993389Y-59500500D01*
X67993390Y-59500500D01*
X68166610Y-59500500D01*
X68166611Y-59500500D01*
X68337701Y-59473402D01*
X68502445Y-59419873D01*
X68656788Y-59341232D01*
X68796928Y-59239414D01*
X68919414Y-59116928D01*
X69021232Y-58976788D01*
X69099873Y-58822445D01*
X69153402Y-58657701D01*
X69180500Y-58486611D01*
X69180500Y-57513389D01*
X69519500Y-57513389D01*
X69519500Y-58486611D01*
X69546598Y-58657701D01*
X69600127Y-58822445D01*
X69678768Y-58976788D01*
X69780586Y-59116928D01*
X69903072Y-59239414D01*
X70043212Y-59341232D01*
X70197555Y-59419873D01*
X70362299Y-59473402D01*
X70533389Y-59500500D01*
X70533390Y-59500500D01*
X70706610Y-59500500D01*
X70706611Y-59500500D01*
X70877701Y-59473402D01*
X71042445Y-59419873D01*
X71196788Y-59341232D01*
X71336928Y-59239414D01*
X71459414Y-59116928D01*
X71561232Y-58976788D01*
X71639873Y-58822445D01*
X71693402Y-58657701D01*
X71720500Y-58486611D01*
X71720500Y-57513389D01*
X72059500Y-57513389D01*
X72059500Y-58486611D01*
X72086598Y-58657701D01*
X72140127Y-58822445D01*
X72218768Y-58976788D01*
X72320586Y-59116928D01*
X72443072Y-59239414D01*
X72583212Y-59341232D01*
X72737555Y-59419873D01*
X72902299Y-59473402D01*
X73073389Y-59500500D01*
X73073390Y-59500500D01*
X73246610Y-59500500D01*
X73246611Y-59500500D01*
X73417701Y-59473402D01*
X73582445Y-59419873D01*
X73736788Y-59341232D01*
X73876928Y-59239414D01*
X73999414Y-59116928D01*
X74101232Y-58976788D01*
X74179873Y-58822445D01*
X74233402Y-58657701D01*
X74260500Y-58486611D01*
X74260500Y-57513389D01*
X74599500Y-57513389D01*
X74599500Y-58486611D01*
X74626598Y-58657701D01*
X74680127Y-58822445D01*
X74758768Y-58976788D01*
X74860586Y-59116928D01*
X74983072Y-59239414D01*
X75123212Y-59341232D01*
X75277555Y-59419873D01*
X75442299Y-59473402D01*
X75613389Y-59500500D01*
X75613390Y-59500500D01*
X75786610Y-59500500D01*
X75786611Y-59500500D01*
X75957701Y-59473402D01*
X76122445Y-59419873D01*
X76276788Y-59341232D01*
X76416928Y-59239414D01*
X76539414Y-59116928D01*
X76641232Y-58976788D01*
X76719873Y-58822445D01*
X76773402Y-58657701D01*
X76800500Y-58486611D01*
X76800500Y-57513389D01*
X77139500Y-57513389D01*
X77139500Y-58486611D01*
X77166598Y-58657701D01*
X77220127Y-58822445D01*
X77298768Y-58976788D01*
X77400586Y-59116928D01*
X77523072Y-59239414D01*
X77663212Y-59341232D01*
X77817555Y-59419873D01*
X77982299Y-59473402D01*
X78153389Y-59500500D01*
X78153390Y-59500500D01*
X78326610Y-59500500D01*
X78326611Y-59500500D01*
X78497701Y-59473402D01*
X78662445Y-59419873D01*
X78816788Y-59341232D01*
X78956928Y-59239414D01*
X79079414Y-59116928D01*
X79181232Y-58976788D01*
X79259873Y-58822445D01*
X79313402Y-58657701D01*
X79340500Y-58486611D01*
X79340500Y-57513389D01*
X79679500Y-57513389D01*
X79679500Y-58486611D01*
X79706598Y-58657701D01*
X79760127Y-58822445D01*
X79838768Y-58976788D01*
X79940586Y-59116928D01*
X80063072Y-59239414D01*
X80203212Y-59341232D01*
X80357555Y-59419873D01*
X80522299Y-59473402D01*
X80693389Y-59500500D01*
X80693390Y-59500500D01*
X80866610Y-59500500D01*
X80866611Y-59500500D01*
X81037701Y-59473402D01*
X81202445Y-59419873D01*
X81356788Y-59341232D01*
X81496928Y-59239414D01*
X81619414Y-59116928D01*
X81721232Y-58976788D01*
X81799873Y-58822445D01*
X81853402Y-58657701D01*
X81880500Y-58486611D01*
X81880500Y-57513389D01*
X82219500Y-57513389D01*
X82219500Y-58486611D01*
X82246598Y-58657701D01*
X82300127Y-58822445D01*
X82378768Y-58976788D01*
X82480586Y-59116928D01*
X82603072Y-59239414D01*
X82743212Y-59341232D01*
X82897555Y-59419873D01*
X83062299Y-59473402D01*
X83233389Y-59500500D01*
X83233390Y-59500500D01*
X83406610Y-59500500D01*
X83406611Y-59500500D01*
X83577701Y-59473402D01*
X83742445Y-59419873D01*
X83896788Y-59341232D01*
X84036928Y-59239414D01*
X84159414Y-59116928D01*
X84261232Y-58976788D01*
X84339873Y-58822445D01*
X84393402Y-58657701D01*
X84420500Y-58486611D01*
X84420500Y-57513389D01*
X84759500Y-57513389D01*
X84759500Y-58486611D01*
X84786598Y-58657701D01*
X84840127Y-58822445D01*
X84918768Y-58976788D01*
X85020586Y-59116928D01*
X85143072Y-59239414D01*
X85283212Y-59341232D01*
X85437555Y-59419873D01*
X85602299Y-59473402D01*
X85773389Y-59500500D01*
X85773390Y-59500500D01*
X85946610Y-59500500D01*
X85946611Y-59500500D01*
X86117701Y-59473402D01*
X86282445Y-59419873D01*
X86436788Y-59341232D01*
X86576928Y-59239414D01*
X86699414Y-59116928D01*
X86801232Y-58976788D01*
X86879873Y-58822445D01*
X86933402Y-58657701D01*
X86960500Y-58486611D01*
X86960500Y-57513389D01*
X87299500Y-57513389D01*
X87299500Y-58486611D01*
X87326598Y-58657701D01*
X87380127Y-58822445D01*
X87458768Y-58976788D01*
X87560586Y-59116928D01*
X87683072Y-59239414D01*
X87823212Y-59341232D01*
X87977555Y-59419873D01*
X88142299Y-59473402D01*
X88313389Y-59500500D01*
X88313390Y-59500500D01*
X88486610Y-59500500D01*
X88486611Y-59500500D01*
X88657701Y-59473402D01*
X88822445Y-59419873D01*
X88976788Y-59341232D01*
X89116928Y-59239414D01*
X89239414Y-59116928D01*
X89341232Y-58976788D01*
X89419873Y-58822445D01*
X89473402Y-58657701D01*
X89500500Y-58486611D01*
X89500500Y-57513389D01*
X89839500Y-57513389D01*
X89839500Y-58486611D01*
X89866598Y-58657701D01*
X89920127Y-58822445D01*
X89998768Y-58976788D01*
X90100586Y-59116928D01*
X90223072Y-59239414D01*
X90363212Y-59341232D01*
X90517555Y-59419873D01*
X90682299Y-59473402D01*
X90853389Y-59500500D01*
X90853390Y-59500500D01*
X91026610Y-59500500D01*
X91026611Y-59500500D01*
X91197701Y-59473402D01*
X91362445Y-59419873D01*
X91516788Y-59341232D01*
X91656928Y-59239414D01*
X91779414Y-59116928D01*
X91881232Y-58976788D01*
X91959873Y-58822445D01*
X92013402Y-58657701D01*
X92040500Y-58486611D01*
X92040500Y-57513389D01*
X92379500Y-57513389D01*
X92379500Y-58486611D01*
X92406598Y-58657701D01*
X92460127Y-58822445D01*
X92538768Y-58976788D01*
X92640586Y-59116928D01*
X92763072Y-59239414D01*
X92903212Y-59341232D01*
X93057555Y-59419873D01*
X93222299Y-59473402D01*
X93393389Y-59500500D01*
X93393390Y-59500500D01*
X93566610Y-59500500D01*
X93566611Y-59500500D01*
X93737701Y-59473402D01*
X93902445Y-59419873D01*
X94056788Y-59341232D01*
X94196928Y-59239414D01*
X94319414Y-59116928D01*
X94421232Y-58976788D01*
X94499873Y-58822445D01*
X94553402Y-58657701D01*
X94580500Y-58486611D01*
X94580500Y-57513389D01*
X94919500Y-57513389D01*
X94919500Y-58486611D01*
X94946598Y-58657701D01*
X95000127Y-58822445D01*
X95078768Y-58976788D01*
X95180586Y-59116928D01*
X95303072Y-59239414D01*
X95443212Y-59341232D01*
X95597555Y-59419873D01*
X95762299Y-59473402D01*
X95933389Y-59500500D01*
X95933390Y-59500500D01*
X96106610Y-59500500D01*
X96106611Y-59500500D01*
X96277701Y-59473402D01*
X96442445Y-59419873D01*
X96596788Y-59341232D01*
X96736928Y-59239414D01*
X96859414Y-59116928D01*
X96961232Y-58976788D01*
X97039873Y-58822445D01*
X97093402Y-58657701D01*
X97120500Y-58486611D01*
X97120500Y-57513389D01*
X97459500Y-57513389D01*
X97459500Y-58486611D01*
X97486598Y-58657701D01*
X97540127Y-58822445D01*
X97618768Y-58976788D01*
X97720586Y-59116928D01*
X97843072Y-59239414D01*
X97983212Y-59341232D01*
X98137555Y-59419873D01*
X98302299Y-59473402D01*
X98473389Y-59500500D01*
X98473390Y-59500500D01*
X98646610Y-59500500D01*
X98646611Y-59500500D01*
X98817701Y-59473402D01*
X98982445Y-59419873D01*
X99136788Y-59341232D01*
X99276928Y-59239414D01*
X99399414Y-59116928D01*
X99501232Y-58976788D01*
X99579873Y-58822445D01*
X99633402Y-58657701D01*
X99660500Y-58486611D01*
X99660500Y-57513389D01*
X99999500Y-57513389D01*
X99999500Y-58486611D01*
X100026598Y-58657701D01*
X100080127Y-58822445D01*
X100158768Y-58976788D01*
X100260586Y-59116928D01*
X100383072Y-59239414D01*
X100523212Y-59341232D01*
X100677555Y-59419873D01*
X100842299Y-59473402D01*
X101013389Y-59500500D01*
X101013390Y-59500500D01*
X101186610Y-59500500D01*
X101186611Y-59500500D01*
X101357701Y-59473402D01*
X101522445Y-59419873D01*
X101676788Y-59341232D01*
X101816928Y-59239414D01*
X101939414Y-59116928D01*
X102041232Y-58976788D01*
X102119873Y-58822445D01*
X102173402Y-58657701D01*
X102200500Y-58486611D01*
X102200500Y-57513389D01*
X102539500Y-57513389D01*
X102539500Y-58486611D01*
X102566598Y-58657701D01*
X102620127Y-58822445D01*
X102698768Y-58976788D01*
X102800586Y-59116928D01*
X102923072Y-59239414D01*
X103063212Y-59341232D01*
X103217555Y-59419873D01*
X103382299Y-59473402D01*
X103553389Y-59500500D01*
X103553390Y-59500500D01*
X103726610Y-59500500D01*
X103726611Y-59500500D01*
X103897701Y-59473402D01*
X104062445Y-59419873D01*
X104216788Y-59341232D01*
X104356928Y-59239414D01*
X104479414Y-59116928D01*
X104581232Y-58976788D01*
X104659873Y-58822445D01*
X104713402Y-58657701D01*
X104740500Y-58486611D01*
X104740500Y-57513389D01*
X105079500Y-57513389D01*
X105079500Y-58486611D01*
X105106598Y-58657701D01*
X105160127Y-58822445D01*
X105238768Y-58976788D01*
X105340586Y-59116928D01*
X105463072Y-59239414D01*
X105603212Y-59341232D01*
X105757555Y-59419873D01*
X105922299Y-59473402D01*
X106093389Y-59500500D01*
X106093390Y-59500500D01*
X106266610Y-59500500D01*
X106266611Y-59500500D01*
X106437701Y-59473402D01*
X106602445Y-59419873D01*
X106756788Y-59341232D01*
X106896928Y-59239414D01*
X107019414Y-59116928D01*
X107121232Y-58976788D01*
X107199873Y-58822445D01*
X107253402Y-58657701D01*
X107280500Y-58486611D01*
X107280500Y-57513389D01*
X107619500Y-57513389D01*
X107619500Y-58486611D01*
X107646598Y-58657701D01*
X107700127Y-58822445D01*
X107778768Y-58976788D01*
X107880586Y-59116928D01*
X108003072Y-59239414D01*
X108143212Y-59341232D01*
X108297555Y-59419873D01*
X108462299Y-59473402D01*
X108633389Y-59500500D01*
X108633390Y-59500500D01*
X108806610Y-59500500D01*
X108806611Y-59500500D01*
X108977701Y-59473402D01*
X109142445Y-59419873D01*
X109296788Y-59341232D01*
X109436928Y-59239414D01*
X109559414Y-59116928D01*
X109661232Y-58976788D01*
X109739873Y-58822445D01*
X109793402Y-58657701D01*
X109820500Y-58486611D01*
X109820500Y-57513389D01*
X110159500Y-57513389D01*
X110159500Y-58486611D01*
X110186598Y-58657701D01*
X110240127Y-58822445D01*
X110318768Y-58976788D01*
X110420586Y-59116928D01*
X110543072Y-59239414D01*
X110683212Y-59341232D01*
X110837555Y-59419873D01*
X111002299Y-59473402D01*
X111173389Y-59500500D01*
X111173390Y-59500500D01*
X111346610Y-59500500D01*
X111346611Y-59500500D01*
X111517701Y-59473402D01*
X111682445Y-59419873D01*
X111836788Y-59341232D01*
X111976928Y-59239414D01*
X112099414Y-59116928D01*
X112201232Y-58976788D01*
X112279873Y-58822445D01*
X112333402Y-58657701D01*
X112360500Y-58486611D01*
X112360500Y-57513428D01*
X112700000Y-57513428D01*
X112700000Y-57750000D01*
X113484314Y-57750000D01*
X113479920Y-57754394D01*
X113427259Y-57845606D01*
X113400000Y-57947339D01*
X113400000Y-58052661D01*
X113427259Y-58154394D01*
X113479920Y-58245606D01*
X113484314Y-58250000D01*
X112700000Y-58250000D01*
X112700000Y-58486571D01*
X112727085Y-58657584D01*
X112780591Y-58822257D01*
X112859195Y-58976524D01*
X112960967Y-59116602D01*
X113083397Y-59239032D01*
X113223475Y-59340804D01*
X113377744Y-59419408D01*
X113542415Y-59472914D01*
X113542414Y-59472914D01*
X113549999Y-59474115D01*
X113550000Y-59474114D01*
X113550000Y-58315686D01*
X113554394Y-58320080D01*
X113645606Y-58372741D01*
X113747339Y-58400000D01*
X113852661Y-58400000D01*
X113954394Y-58372741D01*
X114045606Y-58320080D01*
X114050000Y-58315686D01*
X114050000Y-59474115D01*
X114057584Y-59472914D01*
X114222255Y-59419408D01*
X114376524Y-59340804D01*
X114516602Y-59239032D01*
X114639032Y-59116602D01*
X114740804Y-58976524D01*
X114819408Y-58822257D01*
X114872914Y-58657584D01*
X114900000Y-58486571D01*
X114900000Y-58250000D01*
X114115686Y-58250000D01*
X114120080Y-58245606D01*
X114172741Y-58154394D01*
X114200000Y-58052661D01*
X114200000Y-57947339D01*
X114172741Y-57845606D01*
X114120080Y-57754394D01*
X114115686Y-57750000D01*
X114900000Y-57750000D01*
X114900000Y-57513428D01*
X115240000Y-57513428D01*
X115240000Y-57750000D01*
X116024314Y-57750000D01*
X116019920Y-57754394D01*
X115967259Y-57845606D01*
X115940000Y-57947339D01*
X115940000Y-58052661D01*
X115967259Y-58154394D01*
X116019920Y-58245606D01*
X116024314Y-58250000D01*
X115240000Y-58250000D01*
X115240000Y-58486571D01*
X115267085Y-58657584D01*
X115320591Y-58822257D01*
X115399195Y-58976524D01*
X115500967Y-59116602D01*
X115623397Y-59239032D01*
X115763475Y-59340804D01*
X115917744Y-59419408D01*
X116082415Y-59472914D01*
X116082414Y-59472914D01*
X116089999Y-59474115D01*
X116090000Y-59474114D01*
X116090000Y-58315686D01*
X116094394Y-58320080D01*
X116185606Y-58372741D01*
X116287339Y-58400000D01*
X116392661Y-58400000D01*
X116494394Y-58372741D01*
X116585606Y-58320080D01*
X116590000Y-58315686D01*
X116590000Y-59474115D01*
X116597584Y-59472914D01*
X116762255Y-59419408D01*
X116916524Y-59340804D01*
X117056602Y-59239032D01*
X117179032Y-59116602D01*
X117280804Y-58976524D01*
X117359408Y-58822257D01*
X117412914Y-58657584D01*
X117440000Y-58486571D01*
X117440000Y-58250000D01*
X116655686Y-58250000D01*
X116660080Y-58245606D01*
X116712741Y-58154394D01*
X116740000Y-58052661D01*
X116740000Y-57947339D01*
X116712741Y-57845606D01*
X116660080Y-57754394D01*
X116655686Y-57750000D01*
X117440000Y-57750000D01*
X117440000Y-57513428D01*
X117412914Y-57342415D01*
X117359408Y-57177742D01*
X117280804Y-57023475D01*
X117179032Y-56883397D01*
X117056602Y-56760967D01*
X116916524Y-56659195D01*
X116762257Y-56580591D01*
X116597589Y-56527087D01*
X116597581Y-56527085D01*
X116590000Y-56525884D01*
X116590000Y-57684314D01*
X116585606Y-57679920D01*
X116494394Y-57627259D01*
X116392661Y-57600000D01*
X116287339Y-57600000D01*
X116185606Y-57627259D01*
X116094394Y-57679920D01*
X116090000Y-57684314D01*
X116090000Y-56525884D01*
X116089999Y-56525884D01*
X116082418Y-56527085D01*
X116082410Y-56527087D01*
X115917742Y-56580591D01*
X115763475Y-56659195D01*
X115623397Y-56760967D01*
X115500967Y-56883397D01*
X115399195Y-57023475D01*
X115320591Y-57177742D01*
X115267085Y-57342415D01*
X115240000Y-57513428D01*
X114900000Y-57513428D01*
X114872914Y-57342415D01*
X114819408Y-57177742D01*
X114740804Y-57023475D01*
X114639032Y-56883397D01*
X114516602Y-56760967D01*
X114376524Y-56659195D01*
X114222257Y-56580591D01*
X114057589Y-56527087D01*
X114057581Y-56527085D01*
X114050000Y-56525884D01*
X114050000Y-57684314D01*
X114045606Y-57679920D01*
X113954394Y-57627259D01*
X113852661Y-57600000D01*
X113747339Y-57600000D01*
X113645606Y-57627259D01*
X113554394Y-57679920D01*
X113550000Y-57684314D01*
X113550000Y-56525884D01*
X113549999Y-56525884D01*
X113542418Y-56527085D01*
X113542410Y-56527087D01*
X113377742Y-56580591D01*
X113223475Y-56659195D01*
X113083397Y-56760967D01*
X112960967Y-56883397D01*
X112859195Y-57023475D01*
X112780591Y-57177742D01*
X112727085Y-57342415D01*
X112700000Y-57513428D01*
X112360500Y-57513428D01*
X112360500Y-57513389D01*
X112333402Y-57342299D01*
X112279873Y-57177555D01*
X112201232Y-57023212D01*
X112099414Y-56883072D01*
X111976928Y-56760586D01*
X111836788Y-56658768D01*
X111682445Y-56580127D01*
X111517701Y-56526598D01*
X111517699Y-56526597D01*
X111517698Y-56526597D01*
X111386271Y-56505781D01*
X111346611Y-56499500D01*
X111173389Y-56499500D01*
X111133728Y-56505781D01*
X111002302Y-56526597D01*
X110837552Y-56580128D01*
X110683211Y-56658768D01*
X110603256Y-56716859D01*
X110543072Y-56760586D01*
X110543070Y-56760588D01*
X110543069Y-56760588D01*
X110420588Y-56883069D01*
X110420588Y-56883070D01*
X110420586Y-56883072D01*
X110420350Y-56883397D01*
X110318768Y-57023211D01*
X110240128Y-57177552D01*
X110186597Y-57342302D01*
X110159500Y-57513389D01*
X109820500Y-57513389D01*
X109793402Y-57342299D01*
X109739873Y-57177555D01*
X109661232Y-57023212D01*
X109559414Y-56883072D01*
X109436928Y-56760586D01*
X109296788Y-56658768D01*
X109142445Y-56580127D01*
X108977701Y-56526598D01*
X108977699Y-56526597D01*
X108977698Y-56526597D01*
X108846271Y-56505781D01*
X108806611Y-56499500D01*
X108633389Y-56499500D01*
X108593728Y-56505781D01*
X108462302Y-56526597D01*
X108297552Y-56580128D01*
X108143211Y-56658768D01*
X108063256Y-56716859D01*
X108003072Y-56760586D01*
X108003070Y-56760588D01*
X108003069Y-56760588D01*
X107880588Y-56883069D01*
X107880588Y-56883070D01*
X107880586Y-56883072D01*
X107880350Y-56883397D01*
X107778768Y-57023211D01*
X107700128Y-57177552D01*
X107646597Y-57342302D01*
X107619500Y-57513389D01*
X107280500Y-57513389D01*
X107253402Y-57342299D01*
X107199873Y-57177555D01*
X107121232Y-57023212D01*
X107019414Y-56883072D01*
X106896928Y-56760586D01*
X106756788Y-56658768D01*
X106602445Y-56580127D01*
X106437701Y-56526598D01*
X106437699Y-56526597D01*
X106437698Y-56526597D01*
X106306271Y-56505781D01*
X106266611Y-56499500D01*
X106093389Y-56499500D01*
X106053728Y-56505781D01*
X105922302Y-56526597D01*
X105757552Y-56580128D01*
X105603211Y-56658768D01*
X105523256Y-56716859D01*
X105463072Y-56760586D01*
X105463070Y-56760588D01*
X105463069Y-56760588D01*
X105340588Y-56883069D01*
X105340588Y-56883070D01*
X105340586Y-56883072D01*
X105340350Y-56883397D01*
X105238768Y-57023211D01*
X105160128Y-57177552D01*
X105106597Y-57342302D01*
X105079500Y-57513389D01*
X104740500Y-57513389D01*
X104713402Y-57342299D01*
X104659873Y-57177555D01*
X104581232Y-57023212D01*
X104479414Y-56883072D01*
X104356928Y-56760586D01*
X104216788Y-56658768D01*
X104062445Y-56580127D01*
X103897701Y-56526598D01*
X103897699Y-56526597D01*
X103897698Y-56526597D01*
X103766271Y-56505781D01*
X103726611Y-56499500D01*
X103553389Y-56499500D01*
X103513728Y-56505781D01*
X103382302Y-56526597D01*
X103217552Y-56580128D01*
X103063211Y-56658768D01*
X102983256Y-56716859D01*
X102923072Y-56760586D01*
X102923070Y-56760588D01*
X102923069Y-56760588D01*
X102800588Y-56883069D01*
X102800588Y-56883070D01*
X102800586Y-56883072D01*
X102800350Y-56883397D01*
X102698768Y-57023211D01*
X102620128Y-57177552D01*
X102566597Y-57342302D01*
X102539500Y-57513389D01*
X102200500Y-57513389D01*
X102173402Y-57342299D01*
X102119873Y-57177555D01*
X102041232Y-57023212D01*
X101939414Y-56883072D01*
X101816928Y-56760586D01*
X101676788Y-56658768D01*
X101522445Y-56580127D01*
X101357701Y-56526598D01*
X101357699Y-56526597D01*
X101357698Y-56526597D01*
X101226271Y-56505781D01*
X101186611Y-56499500D01*
X101013389Y-56499500D01*
X100973728Y-56505781D01*
X100842302Y-56526597D01*
X100677552Y-56580128D01*
X100523211Y-56658768D01*
X100443256Y-56716859D01*
X100383072Y-56760586D01*
X100383070Y-56760588D01*
X100383069Y-56760588D01*
X100260588Y-56883069D01*
X100260588Y-56883070D01*
X100260586Y-56883072D01*
X100260350Y-56883397D01*
X100158768Y-57023211D01*
X100080128Y-57177552D01*
X100026597Y-57342302D01*
X99999500Y-57513389D01*
X99660500Y-57513389D01*
X99633402Y-57342299D01*
X99579873Y-57177555D01*
X99501232Y-57023212D01*
X99399414Y-56883072D01*
X99276928Y-56760586D01*
X99136788Y-56658768D01*
X98982445Y-56580127D01*
X98817701Y-56526598D01*
X98817699Y-56526597D01*
X98817698Y-56526597D01*
X98686271Y-56505781D01*
X98646611Y-56499500D01*
X98473389Y-56499500D01*
X98433728Y-56505781D01*
X98302302Y-56526597D01*
X98137552Y-56580128D01*
X97983211Y-56658768D01*
X97903256Y-56716859D01*
X97843072Y-56760586D01*
X97843070Y-56760588D01*
X97843069Y-56760588D01*
X97720588Y-56883069D01*
X97720588Y-56883070D01*
X97720586Y-56883072D01*
X97720350Y-56883397D01*
X97618768Y-57023211D01*
X97540128Y-57177552D01*
X97486597Y-57342302D01*
X97459500Y-57513389D01*
X97120500Y-57513389D01*
X97093402Y-57342299D01*
X97039873Y-57177555D01*
X96961232Y-57023212D01*
X96859414Y-56883072D01*
X96736928Y-56760586D01*
X96596788Y-56658768D01*
X96442445Y-56580127D01*
X96277701Y-56526598D01*
X96277699Y-56526597D01*
X96277698Y-56526597D01*
X96146271Y-56505781D01*
X96106611Y-56499500D01*
X95933389Y-56499500D01*
X95893728Y-56505781D01*
X95762302Y-56526597D01*
X95597552Y-56580128D01*
X95443211Y-56658768D01*
X95363256Y-56716859D01*
X95303072Y-56760586D01*
X95303070Y-56760588D01*
X95303069Y-56760588D01*
X95180588Y-56883069D01*
X95180588Y-56883070D01*
X95180586Y-56883072D01*
X95180350Y-56883397D01*
X95078768Y-57023211D01*
X95000128Y-57177552D01*
X94946597Y-57342302D01*
X94919500Y-57513389D01*
X94580500Y-57513389D01*
X94553402Y-57342299D01*
X94499873Y-57177555D01*
X94421232Y-57023212D01*
X94319414Y-56883072D01*
X94196928Y-56760586D01*
X94056788Y-56658768D01*
X93902445Y-56580127D01*
X93737701Y-56526598D01*
X93737699Y-56526597D01*
X93737698Y-56526597D01*
X93606271Y-56505781D01*
X93566611Y-56499500D01*
X93393389Y-56499500D01*
X93353728Y-56505781D01*
X93222302Y-56526597D01*
X93057552Y-56580128D01*
X92903211Y-56658768D01*
X92823256Y-56716859D01*
X92763072Y-56760586D01*
X92763070Y-56760588D01*
X92763069Y-56760588D01*
X92640588Y-56883069D01*
X92640588Y-56883070D01*
X92640586Y-56883072D01*
X92640350Y-56883397D01*
X92538768Y-57023211D01*
X92460128Y-57177552D01*
X92406597Y-57342302D01*
X92379500Y-57513389D01*
X92040500Y-57513389D01*
X92013402Y-57342299D01*
X91959873Y-57177555D01*
X91881232Y-57023212D01*
X91779414Y-56883072D01*
X91656928Y-56760586D01*
X91516788Y-56658768D01*
X91362445Y-56580127D01*
X91197701Y-56526598D01*
X91197699Y-56526597D01*
X91197698Y-56526597D01*
X91066271Y-56505781D01*
X91026611Y-56499500D01*
X90853389Y-56499500D01*
X90813728Y-56505781D01*
X90682302Y-56526597D01*
X90517552Y-56580128D01*
X90363211Y-56658768D01*
X90283256Y-56716859D01*
X90223072Y-56760586D01*
X90223070Y-56760588D01*
X90223069Y-56760588D01*
X90100588Y-56883069D01*
X90100588Y-56883070D01*
X90100586Y-56883072D01*
X90100350Y-56883397D01*
X89998768Y-57023211D01*
X89920128Y-57177552D01*
X89866597Y-57342302D01*
X89839500Y-57513389D01*
X89500500Y-57513389D01*
X89473402Y-57342299D01*
X89419873Y-57177555D01*
X89341232Y-57023212D01*
X89239414Y-56883072D01*
X89116928Y-56760586D01*
X88976788Y-56658768D01*
X88822445Y-56580127D01*
X88657701Y-56526598D01*
X88657699Y-56526597D01*
X88657698Y-56526597D01*
X88526271Y-56505781D01*
X88486611Y-56499500D01*
X88313389Y-56499500D01*
X88273728Y-56505781D01*
X88142302Y-56526597D01*
X87977552Y-56580128D01*
X87823211Y-56658768D01*
X87743256Y-56716859D01*
X87683072Y-56760586D01*
X87683070Y-56760588D01*
X87683069Y-56760588D01*
X87560588Y-56883069D01*
X87560588Y-56883070D01*
X87560586Y-56883072D01*
X87560350Y-56883397D01*
X87458768Y-57023211D01*
X87380128Y-57177552D01*
X87326597Y-57342302D01*
X87299500Y-57513389D01*
X86960500Y-57513389D01*
X86933402Y-57342299D01*
X86879873Y-57177555D01*
X86801232Y-57023212D01*
X86699414Y-56883072D01*
X86576928Y-56760586D01*
X86436788Y-56658768D01*
X86282445Y-56580127D01*
X86117701Y-56526598D01*
X86117699Y-56526597D01*
X86117698Y-56526597D01*
X85986271Y-56505781D01*
X85946611Y-56499500D01*
X85773389Y-56499500D01*
X85733728Y-56505781D01*
X85602302Y-56526597D01*
X85437552Y-56580128D01*
X85283211Y-56658768D01*
X85203256Y-56716859D01*
X85143072Y-56760586D01*
X85143070Y-56760588D01*
X85143069Y-56760588D01*
X85020588Y-56883069D01*
X85020588Y-56883070D01*
X85020586Y-56883072D01*
X85020350Y-56883397D01*
X84918768Y-57023211D01*
X84840128Y-57177552D01*
X84786597Y-57342302D01*
X84759500Y-57513389D01*
X84420500Y-57513389D01*
X84393402Y-57342299D01*
X84339873Y-57177555D01*
X84261232Y-57023212D01*
X84159414Y-56883072D01*
X84036928Y-56760586D01*
X83896788Y-56658768D01*
X83742445Y-56580127D01*
X83577701Y-56526598D01*
X83577699Y-56526597D01*
X83577698Y-56526597D01*
X83446271Y-56505781D01*
X83406611Y-56499500D01*
X83233389Y-56499500D01*
X83193728Y-56505781D01*
X83062302Y-56526597D01*
X82897552Y-56580128D01*
X82743211Y-56658768D01*
X82663256Y-56716859D01*
X82603072Y-56760586D01*
X82603070Y-56760588D01*
X82603069Y-56760588D01*
X82480588Y-56883069D01*
X82480588Y-56883070D01*
X82480586Y-56883072D01*
X82480350Y-56883397D01*
X82378768Y-57023211D01*
X82300128Y-57177552D01*
X82246597Y-57342302D01*
X82219500Y-57513389D01*
X81880500Y-57513389D01*
X81853402Y-57342299D01*
X81799873Y-57177555D01*
X81721232Y-57023212D01*
X81619414Y-56883072D01*
X81496928Y-56760586D01*
X81356788Y-56658768D01*
X81202445Y-56580127D01*
X81037701Y-56526598D01*
X81037699Y-56526597D01*
X81037698Y-56526597D01*
X80906271Y-56505781D01*
X80866611Y-56499500D01*
X80693389Y-56499500D01*
X80653728Y-56505781D01*
X80522302Y-56526597D01*
X80357552Y-56580128D01*
X80203211Y-56658768D01*
X80123256Y-56716859D01*
X80063072Y-56760586D01*
X80063070Y-56760588D01*
X80063069Y-56760588D01*
X79940588Y-56883069D01*
X79940588Y-56883070D01*
X79940586Y-56883072D01*
X79940350Y-56883397D01*
X79838768Y-57023211D01*
X79760128Y-57177552D01*
X79706597Y-57342302D01*
X79679500Y-57513389D01*
X79340500Y-57513389D01*
X79313402Y-57342299D01*
X79259873Y-57177555D01*
X79181232Y-57023212D01*
X79079414Y-56883072D01*
X78956928Y-56760586D01*
X78816788Y-56658768D01*
X78662445Y-56580127D01*
X78497701Y-56526598D01*
X78497699Y-56526597D01*
X78497698Y-56526597D01*
X78366271Y-56505781D01*
X78326611Y-56499500D01*
X78153389Y-56499500D01*
X78113728Y-56505781D01*
X77982302Y-56526597D01*
X77817552Y-56580128D01*
X77663211Y-56658768D01*
X77583256Y-56716859D01*
X77523072Y-56760586D01*
X77523070Y-56760588D01*
X77523069Y-56760588D01*
X77400588Y-56883069D01*
X77400588Y-56883070D01*
X77400586Y-56883072D01*
X77400350Y-56883397D01*
X77298768Y-57023211D01*
X77220128Y-57177552D01*
X77166597Y-57342302D01*
X77139500Y-57513389D01*
X76800500Y-57513389D01*
X76773402Y-57342299D01*
X76719873Y-57177555D01*
X76641232Y-57023212D01*
X76539414Y-56883072D01*
X76416928Y-56760586D01*
X76276788Y-56658768D01*
X76122445Y-56580127D01*
X75957701Y-56526598D01*
X75957699Y-56526597D01*
X75957698Y-56526597D01*
X75826271Y-56505781D01*
X75786611Y-56499500D01*
X75613389Y-56499500D01*
X75573728Y-56505781D01*
X75442302Y-56526597D01*
X75277552Y-56580128D01*
X75123211Y-56658768D01*
X75043256Y-56716859D01*
X74983072Y-56760586D01*
X74983070Y-56760588D01*
X74983069Y-56760588D01*
X74860588Y-56883069D01*
X74860588Y-56883070D01*
X74860586Y-56883072D01*
X74860350Y-56883397D01*
X74758768Y-57023211D01*
X74680128Y-57177552D01*
X74626597Y-57342302D01*
X74599500Y-57513389D01*
X74260500Y-57513389D01*
X74233402Y-57342299D01*
X74179873Y-57177555D01*
X74101232Y-57023212D01*
X73999414Y-56883072D01*
X73876928Y-56760586D01*
X73736788Y-56658768D01*
X73582445Y-56580127D01*
X73417701Y-56526598D01*
X73417699Y-56526597D01*
X73417698Y-56526597D01*
X73286271Y-56505781D01*
X73246611Y-56499500D01*
X73073389Y-56499500D01*
X73033728Y-56505781D01*
X72902302Y-56526597D01*
X72737552Y-56580128D01*
X72583211Y-56658768D01*
X72503256Y-56716859D01*
X72443072Y-56760586D01*
X72443070Y-56760588D01*
X72443069Y-56760588D01*
X72320588Y-56883069D01*
X72320588Y-56883070D01*
X72320586Y-56883072D01*
X72320350Y-56883397D01*
X72218768Y-57023211D01*
X72140128Y-57177552D01*
X72086597Y-57342302D01*
X72059500Y-57513389D01*
X71720500Y-57513389D01*
X71693402Y-57342299D01*
X71639873Y-57177555D01*
X71561232Y-57023212D01*
X71459414Y-56883072D01*
X71336928Y-56760586D01*
X71196788Y-56658768D01*
X71042445Y-56580127D01*
X70877701Y-56526598D01*
X70877699Y-56526597D01*
X70877698Y-56526597D01*
X70746271Y-56505781D01*
X70706611Y-56499500D01*
X70533389Y-56499500D01*
X70493728Y-56505781D01*
X70362302Y-56526597D01*
X70197552Y-56580128D01*
X70043211Y-56658768D01*
X69963256Y-56716859D01*
X69903072Y-56760586D01*
X69903070Y-56760588D01*
X69903069Y-56760588D01*
X69780588Y-56883069D01*
X69780588Y-56883070D01*
X69780586Y-56883072D01*
X69780350Y-56883397D01*
X69678768Y-57023211D01*
X69600128Y-57177552D01*
X69546597Y-57342302D01*
X69519500Y-57513389D01*
X69180500Y-57513389D01*
X69153402Y-57342299D01*
X69099873Y-57177555D01*
X69021232Y-57023212D01*
X68919414Y-56883072D01*
X68796928Y-56760586D01*
X68656788Y-56658768D01*
X68502445Y-56580127D01*
X68337701Y-56526598D01*
X68337699Y-56526597D01*
X68337698Y-56526597D01*
X68206271Y-56505781D01*
X68166611Y-56499500D01*
X67993389Y-56499500D01*
X67953728Y-56505781D01*
X67822302Y-56526597D01*
X67657552Y-56580128D01*
X67503211Y-56658768D01*
X67423256Y-56716859D01*
X67363072Y-56760586D01*
X67363070Y-56760588D01*
X67363069Y-56760588D01*
X67240588Y-56883069D01*
X67240588Y-56883070D01*
X67240586Y-56883072D01*
X67240350Y-56883397D01*
X67138768Y-57023211D01*
X67060128Y-57177552D01*
X67006597Y-57342302D01*
X66979500Y-57513389D01*
X66640500Y-57513389D01*
X66613402Y-57342299D01*
X66559873Y-57177555D01*
X66481232Y-57023212D01*
X66379414Y-56883072D01*
X66256928Y-56760586D01*
X66116788Y-56658768D01*
X65962445Y-56580127D01*
X65797701Y-56526598D01*
X65797699Y-56526597D01*
X65797698Y-56526597D01*
X65666271Y-56505781D01*
X65626611Y-56499500D01*
X65453389Y-56499500D01*
X65413728Y-56505781D01*
X65282302Y-56526597D01*
X65117552Y-56580128D01*
X64963211Y-56658768D01*
X64883256Y-56716859D01*
X64823072Y-56760586D01*
X64823070Y-56760588D01*
X64823069Y-56760588D01*
X64700588Y-56883069D01*
X64700588Y-56883070D01*
X64700586Y-56883072D01*
X64700350Y-56883397D01*
X64598768Y-57023211D01*
X64520128Y-57177552D01*
X64466597Y-57342302D01*
X64439500Y-57513389D01*
X64099994Y-57513389D01*
X64072914Y-57342415D01*
X64019408Y-57177742D01*
X63940804Y-57023475D01*
X63839032Y-56883397D01*
X63716602Y-56760967D01*
X63576524Y-56659195D01*
X63422257Y-56580591D01*
X63257589Y-56527087D01*
X63257581Y-56527085D01*
X63250000Y-56525884D01*
X63250000Y-57684314D01*
X63245606Y-57679920D01*
X63154394Y-57627259D01*
X63052661Y-57600000D01*
X62947339Y-57600000D01*
X62845606Y-57627259D01*
X62754394Y-57679920D01*
X62750000Y-57684314D01*
X62750000Y-56525884D01*
X62749999Y-56525884D01*
X62742418Y-56527085D01*
X62742410Y-56527087D01*
X62577742Y-56580591D01*
X62423475Y-56659195D01*
X62283397Y-56760967D01*
X62160967Y-56883397D01*
X62059195Y-57023475D01*
X61980591Y-57177742D01*
X61927085Y-57342415D01*
X61900000Y-57513428D01*
X50500500Y-57513428D01*
X50500500Y-53878711D01*
X52149500Y-53878711D01*
X52149500Y-54121288D01*
X52181161Y-54361785D01*
X52243947Y-54596104D01*
X52304351Y-54741932D01*
X52336776Y-54820212D01*
X52458064Y-55030289D01*
X52458066Y-55030292D01*
X52458067Y-55030293D01*
X52605733Y-55222736D01*
X52605739Y-55222743D01*
X52777256Y-55394260D01*
X52777262Y-55394265D01*
X52969711Y-55541936D01*
X53179788Y-55663224D01*
X53403900Y-55756054D01*
X53638211Y-55818838D01*
X53818586Y-55842584D01*
X53878711Y-55850500D01*
X53878712Y-55850500D01*
X54121289Y-55850500D01*
X54169388Y-55844167D01*
X54361789Y-55818838D01*
X54596100Y-55756054D01*
X54820212Y-55663224D01*
X55030289Y-55541936D01*
X55222738Y-55394265D01*
X55394265Y-55222738D01*
X55541936Y-55030289D01*
X55663224Y-54820212D01*
X55756054Y-54596100D01*
X55818838Y-54361789D01*
X55850500Y-54121288D01*
X55850500Y-53878712D01*
X55818838Y-53638211D01*
X55756054Y-53403900D01*
X55663224Y-53179788D01*
X55604867Y-53078711D01*
X116149500Y-53078711D01*
X116149500Y-53321288D01*
X116181161Y-53561785D01*
X116243947Y-53796104D01*
X116336773Y-54020205D01*
X116336776Y-54020212D01*
X116458064Y-54230289D01*
X116458066Y-54230292D01*
X116458067Y-54230293D01*
X116605733Y-54422736D01*
X116605739Y-54422743D01*
X116777256Y-54594260D01*
X116777263Y-54594266D01*
X116890321Y-54681018D01*
X116969711Y-54741936D01*
X117179788Y-54863224D01*
X117403900Y-54956054D01*
X117638211Y-55018838D01*
X117818586Y-55042584D01*
X117878711Y-55050500D01*
X117878712Y-55050500D01*
X118121289Y-55050500D01*
X118169388Y-55044167D01*
X118361789Y-55018838D01*
X118596100Y-54956054D01*
X118820212Y-54863224D01*
X119030289Y-54741936D01*
X119222738Y-54594265D01*
X119394265Y-54422738D01*
X119541936Y-54230289D01*
X119663224Y-54020212D01*
X119756054Y-53796100D01*
X119818838Y-53561789D01*
X119850500Y-53321288D01*
X119850500Y-53078712D01*
X119818838Y-52838211D01*
X119756054Y-52603900D01*
X119663224Y-52379788D01*
X119541936Y-52169711D01*
X119394265Y-51977262D01*
X119394260Y-51977256D01*
X119222743Y-51805739D01*
X119222736Y-51805733D01*
X119030293Y-51658067D01*
X119030292Y-51658066D01*
X119030289Y-51658064D01*
X118820212Y-51536776D01*
X118820205Y-51536773D01*
X118596104Y-51443947D01*
X118361785Y-51381161D01*
X118121289Y-51349500D01*
X118121288Y-51349500D01*
X117878712Y-51349500D01*
X117878711Y-51349500D01*
X117638214Y-51381161D01*
X117403895Y-51443947D01*
X117179794Y-51536773D01*
X117179785Y-51536777D01*
X116969706Y-51658067D01*
X116777263Y-51805733D01*
X116777256Y-51805739D01*
X116605739Y-51977256D01*
X116605733Y-51977263D01*
X116458067Y-52169706D01*
X116336777Y-52379785D01*
X116336773Y-52379794D01*
X116243947Y-52603895D01*
X116181161Y-52838214D01*
X116149500Y-53078711D01*
X55604867Y-53078711D01*
X55541936Y-52969711D01*
X55394265Y-52777262D01*
X55394260Y-52777256D01*
X55222743Y-52605739D01*
X55222736Y-52605733D01*
X55030293Y-52458067D01*
X55030292Y-52458066D01*
X55030289Y-52458064D01*
X54820212Y-52336776D01*
X54820205Y-52336773D01*
X54596104Y-52243947D01*
X54361785Y-52181161D01*
X54121289Y-52149500D01*
X54121288Y-52149500D01*
X53878712Y-52149500D01*
X53878711Y-52149500D01*
X53638214Y-52181161D01*
X53403895Y-52243947D01*
X53179794Y-52336773D01*
X53179785Y-52336777D01*
X52969706Y-52458067D01*
X52777263Y-52605733D01*
X52777256Y-52605739D01*
X52605739Y-52777256D01*
X52605733Y-52777263D01*
X52458067Y-52969706D01*
X52336777Y-53179785D01*
X52336773Y-53179794D01*
X52243947Y-53403895D01*
X52181161Y-53638214D01*
X52149500Y-53878711D01*
X50500500Y-53878711D01*
X50500500Y-50624500D01*
X50520185Y-50557461D01*
X50572989Y-50511706D01*
X50624500Y-50500500D01*
X121375500Y-50500500D01*
X121442539Y-50520185D01*
G37*
%TD.AperFunction*%
%TD*%
M02*
