%TF.GenerationSoftware,KiCad,Pcbnew,10.0.2*%
%TF.CreationDate,2026-07-19T10:05:03+10:00*%
%TF.ProjectId,carrier,63617272-6965-4722-9e6b-696361645f70,rev?*%
%TF.SameCoordinates,Original*%
%TF.FileFunction,Soldermask,Top*%
%TF.FilePolarity,Negative*%
%FSLAX46Y46*%
G04 Gerber Fmt 4.6, Leading zero omitted, Abs format (unit mm)*
G04 Created by KiCad (PCBNEW 10.0.2) date 2026-07-19 10:05:03*
%MOMM*%
%LPD*%
G01*
G04 APERTURE LIST*
G04 Aperture macros list*
%AMRoundRect*
0 Rectangle with rounded corners*
0 $1 Rounding radius*
0 $2 $3 $4 $5 $6 $7 $8 $9 X,Y pos of 4 corners*
0 Add a 4 corners polygon primitive as box body*
4,1,4,$2,$3,$4,$5,$6,$7,$8,$9,$2,$3,0*
0 Add four circle primitives for the rounded corners*
1,1,$1+$1,$2,$3*
1,1,$1+$1,$4,$5*
1,1,$1+$1,$6,$7*
1,1,$1+$1,$8,$9*
0 Add four rect primitives between the rounded corners*
20,1,$1+$1,$2,$3,$4,$5,0*
20,1,$1+$1,$4,$5,$6,$7,0*
20,1,$1+$1,$6,$7,$8,$9,0*
20,1,$1+$1,$8,$9,$2,$3,0*%
G04 Aperture macros list end*
%ADD10RoundRect,0.250000X-0.475000X0.250000X-0.475000X-0.250000X0.475000X-0.250000X0.475000X0.250000X0*%
%ADD11RoundRect,0.250000X1.000000X0.650000X-1.000000X0.650000X-1.000000X-0.650000X1.000000X-0.650000X0*%
%ADD12RoundRect,0.200000X0.275000X-0.200000X0.275000X0.200000X-0.275000X0.200000X-0.275000X-0.200000X0*%
%ADD13C,1.500000*%
%ADD14C,3.200000*%
%ADD15RoundRect,0.250000X-0.312500X-1.450000X0.312500X-1.450000X0.312500X1.450000X-0.312500X1.450000X0*%
%ADD16RoundRect,0.200000X-0.275000X0.200000X-0.275000X-0.200000X0.275000X-0.200000X0.275000X0.200000X0*%
%ADD17R,1.200000X2.000000*%
%ADD18O,1.200000X2.000000*%
%ADD19RoundRect,0.250000X-0.300000X-1.600000X0.300000X-1.600000X0.300000X1.600000X-0.300000X1.600000X0*%
%ADD20RoundRect,0.225000X-0.225000X-0.250000X0.225000X-0.250000X0.225000X0.250000X-0.225000X0.250000X0*%
%ADD21R,1.700000X1.700000*%
%ADD22C,1.700000*%
%ADD23RoundRect,0.150000X-0.512500X-0.150000X0.512500X-0.150000X0.512500X0.150000X-0.512500X0.150000X0*%
G04 APERTURE END LIST*
D10*
%TO.C,C3*%
X111000000Y-91050000D03*
X111000000Y-92950000D03*
%TD*%
D11*
%TO.C,D1*%
X95000000Y-88000000D03*
X91000000Y-88000000D03*
%TD*%
D12*
%TO.C,R1*%
X63000000Y-86825000D03*
X63000000Y-85175000D03*
%TD*%
D10*
%TO.C,C1*%
X97500000Y-91050000D03*
X97500000Y-92950000D03*
%TD*%
D12*
%TO.C,R3*%
X76000000Y-86825000D03*
X76000000Y-85175000D03*
%TD*%
D13*
%TO.C,TP3*%
X120000000Y-84500000D03*
%TD*%
D10*
%TO.C,C4*%
X114500000Y-91050000D03*
X114500000Y-92950000D03*
%TD*%
D14*
%TO.C,H4*%
X119800000Y-94800000D03*
%TD*%
%TO.C,H1*%
X54000000Y-54000000D03*
%TD*%
D15*
%TO.C,F1*%
X83862500Y-88000000D03*
X88137500Y-88000000D03*
%TD*%
D11*
%TO.C,D2*%
X119000000Y-88000000D03*
X115000000Y-88000000D03*
%TD*%
D16*
%TO.C,R2*%
X66500000Y-85175000D03*
X66500000Y-86825000D03*
%TD*%
D17*
%TO.C,U1*%
X63000000Y-80860000D03*
D18*
X65540000Y-80860000D03*
X68080000Y-80860000D03*
X70620000Y-80860000D03*
X73160000Y-80860000D03*
X75700000Y-80860000D03*
X78240000Y-80860000D03*
X80780000Y-80860000D03*
X83320000Y-80860000D03*
X85860000Y-80860000D03*
X88400000Y-80860000D03*
X90940000Y-80860000D03*
X93480000Y-80860000D03*
X96020000Y-80860000D03*
X98560000Y-80860000D03*
X101100000Y-80860000D03*
X103640000Y-80860000D03*
X106180000Y-80860000D03*
X108720000Y-80860000D03*
X111257280Y-80863680D03*
X113797280Y-80863680D03*
X116337280Y-80863680D03*
X116340000Y-58000000D03*
X113800000Y-58000000D03*
X111260000Y-58000000D03*
X108720000Y-58000000D03*
X106180000Y-58000000D03*
X103640000Y-58000000D03*
X101100000Y-58000000D03*
X98560000Y-58000000D03*
X96020000Y-58000000D03*
X93480000Y-58000000D03*
X90940000Y-58000000D03*
X88400000Y-58000000D03*
X85860000Y-58000000D03*
X83320000Y-58000000D03*
X80780000Y-58000000D03*
X78240000Y-58000000D03*
X75700000Y-58000000D03*
X73160000Y-58000000D03*
X70620000Y-58000000D03*
X68080000Y-58000000D03*
X65540000Y-58000000D03*
X63000000Y-58000000D03*
%TD*%
D14*
%TO.C,H3*%
X54000000Y-93000000D03*
%TD*%
D19*
%TO.C,L1*%
X106500000Y-88000000D03*
X109500000Y-88000000D03*
%TD*%
D13*
%TO.C,TP4*%
X90000000Y-93000000D03*
%TD*%
D14*
%TO.C,H2*%
X118000000Y-53200000D03*
%TD*%
D20*
%TO.C,C2*%
X103225000Y-84500000D03*
X104775000Y-84500000D03*
%TD*%
D13*
%TO.C,TP1*%
X59500000Y-84000000D03*
%TD*%
D21*
%TO.C,J2*%
X76000000Y-90000000D03*
D22*
X78540000Y-90000000D03*
X81080000Y-90000000D03*
%TD*%
D21*
%TO.C,J1*%
X63000000Y-90000000D03*
D22*
X65540000Y-90000000D03*
X68080000Y-90000000D03*
%TD*%
D16*
%TO.C,R4*%
X72500000Y-85175000D03*
X72500000Y-86825000D03*
%TD*%
D23*
%TO.C,U2*%
X99862500Y-87050000D03*
X99862500Y-88000000D03*
X99862500Y-88950000D03*
X102137500Y-88950000D03*
X102137500Y-88000000D03*
X102137500Y-87050000D03*
%TD*%
D13*
%TO.C,TP2*%
X80000000Y-84000000D03*
%TD*%
M02*
