%TF.GenerationSoftware,KiCad,Pcbnew,10.0.2*%
%TF.CreationDate,2026-07-19T10:05:04+10:00*%
%TF.ProjectId,carrier,63617272-6965-4722-9e6b-696361645f70,rev?*%
%TF.SameCoordinates,Original*%
%TF.FileFunction,Drillmap*%
%TF.FilePolarity,Positive*%
%FSLAX45Y45*%
G04 Gerber Fmt 4.5, Leading zero omitted, Abs format (unit mm)*
G04 Created by KiCad (PCBNEW 10.0.2) date 2026-07-19 10:05:04*
%MOMM*%
%LPD*%
G01*
G04 APERTURE LIST*
%ADD10C,0.100000*%
%ADD11C,0.200000*%
%ADD12C,0.320000*%
G04 APERTURE END LIST*
D10*
X5000000Y-5000000D02*
X12200000Y-5000000D01*
X12200000Y-9700000D01*
X5000000Y-9700000D01*
X5000000Y-5000000D01*
D11*
D10*
X9971250Y-8565000D02*
X10001250Y-8595000D01*
X10001250Y-8565000D02*
X9971250Y-8595000D01*
X11085000Y-8565000D02*
X11115000Y-8595000D01*
X11115000Y-8565000D02*
X11085000Y-8595000D01*
X6340000Y-5800000D02*
G75*
G02*
X6260000Y-5800000I-40000J0D01*
G01*
X6260000Y-5800000D02*
G75*
G02*
X6340000Y-5800000I40000J0D01*
G01*
X6340000Y-8086000D02*
G75*
G02*
X6260000Y-8086000I-40000J0D01*
G01*
X6260000Y-8086000D02*
G75*
G02*
X6340000Y-8086000I40000J0D01*
G01*
X6594000Y-5800000D02*
G75*
G02*
X6514000Y-5800000I-40000J0D01*
G01*
X6514000Y-5800000D02*
G75*
G02*
X6594000Y-5800000I40000J0D01*
G01*
X6594000Y-8086000D02*
G75*
G02*
X6514000Y-8086000I-40000J0D01*
G01*
X6514000Y-8086000D02*
G75*
G02*
X6594000Y-8086000I40000J0D01*
G01*
X6848000Y-5800000D02*
G75*
G02*
X6768000Y-5800000I-40000J0D01*
G01*
X6768000Y-5800000D02*
G75*
G02*
X6848000Y-5800000I40000J0D01*
G01*
X6848000Y-8086000D02*
G75*
G02*
X6768000Y-8086000I-40000J0D01*
G01*
X6768000Y-8086000D02*
G75*
G02*
X6848000Y-8086000I40000J0D01*
G01*
X7102000Y-5800000D02*
G75*
G02*
X7022000Y-5800000I-40000J0D01*
G01*
X7022000Y-5800000D02*
G75*
G02*
X7102000Y-5800000I40000J0D01*
G01*
X7102000Y-8086000D02*
G75*
G02*
X7022000Y-8086000I-40000J0D01*
G01*
X7022000Y-8086000D02*
G75*
G02*
X7102000Y-8086000I40000J0D01*
G01*
X7356000Y-5800000D02*
G75*
G02*
X7276000Y-5800000I-40000J0D01*
G01*
X7276000Y-5800000D02*
G75*
G02*
X7356000Y-5800000I40000J0D01*
G01*
X7356000Y-8086000D02*
G75*
G02*
X7276000Y-8086000I-40000J0D01*
G01*
X7276000Y-8086000D02*
G75*
G02*
X7356000Y-8086000I40000J0D01*
G01*
X7610000Y-5800000D02*
G75*
G02*
X7530000Y-5800000I-40000J0D01*
G01*
X7530000Y-5800000D02*
G75*
G02*
X7610000Y-5800000I40000J0D01*
G01*
X7610000Y-8086000D02*
G75*
G02*
X7530000Y-8086000I-40000J0D01*
G01*
X7530000Y-8086000D02*
G75*
G02*
X7610000Y-8086000I40000J0D01*
G01*
X7864000Y-5800000D02*
G75*
G02*
X7784000Y-5800000I-40000J0D01*
G01*
X7784000Y-5800000D02*
G75*
G02*
X7864000Y-5800000I40000J0D01*
G01*
X7864000Y-8086000D02*
G75*
G02*
X7784000Y-8086000I-40000J0D01*
G01*
X7784000Y-8086000D02*
G75*
G02*
X7864000Y-8086000I40000J0D01*
G01*
X8118000Y-5800000D02*
G75*
G02*
X8038000Y-5800000I-40000J0D01*
G01*
X8038000Y-5800000D02*
G75*
G02*
X8118000Y-5800000I40000J0D01*
G01*
X8118000Y-8086000D02*
G75*
G02*
X8038000Y-8086000I-40000J0D01*
G01*
X8038000Y-8086000D02*
G75*
G02*
X8118000Y-8086000I40000J0D01*
G01*
X8372000Y-5800000D02*
G75*
G02*
X8292000Y-5800000I-40000J0D01*
G01*
X8292000Y-5800000D02*
G75*
G02*
X8372000Y-5800000I40000J0D01*
G01*
X8372000Y-8086000D02*
G75*
G02*
X8292000Y-8086000I-40000J0D01*
G01*
X8292000Y-8086000D02*
G75*
G02*
X8372000Y-8086000I40000J0D01*
G01*
X8626000Y-5800000D02*
G75*
G02*
X8546000Y-5800000I-40000J0D01*
G01*
X8546000Y-5800000D02*
G75*
G02*
X8626000Y-5800000I40000J0D01*
G01*
X8626000Y-8086000D02*
G75*
G02*
X8546000Y-8086000I-40000J0D01*
G01*
X8546000Y-8086000D02*
G75*
G02*
X8626000Y-8086000I40000J0D01*
G01*
X8880000Y-5800000D02*
G75*
G02*
X8800000Y-5800000I-40000J0D01*
G01*
X8800000Y-5800000D02*
G75*
G02*
X8880000Y-5800000I40000J0D01*
G01*
X8880000Y-8086000D02*
G75*
G02*
X8800000Y-8086000I-40000J0D01*
G01*
X8800000Y-8086000D02*
G75*
G02*
X8880000Y-8086000I40000J0D01*
G01*
X9134000Y-5800000D02*
G75*
G02*
X9054000Y-5800000I-40000J0D01*
G01*
X9054000Y-5800000D02*
G75*
G02*
X9134000Y-5800000I40000J0D01*
G01*
X9134000Y-8086000D02*
G75*
G02*
X9054000Y-8086000I-40000J0D01*
G01*
X9054000Y-8086000D02*
G75*
G02*
X9134000Y-8086000I40000J0D01*
G01*
X9388000Y-5800000D02*
G75*
G02*
X9308000Y-5800000I-40000J0D01*
G01*
X9308000Y-5800000D02*
G75*
G02*
X9388000Y-5800000I40000J0D01*
G01*
X9388000Y-8086000D02*
G75*
G02*
X9308000Y-8086000I-40000J0D01*
G01*
X9308000Y-8086000D02*
G75*
G02*
X9388000Y-8086000I40000J0D01*
G01*
X9642000Y-5800000D02*
G75*
G02*
X9562000Y-5800000I-40000J0D01*
G01*
X9562000Y-5800000D02*
G75*
G02*
X9642000Y-5800000I40000J0D01*
G01*
X9642000Y-8086000D02*
G75*
G02*
X9562000Y-8086000I-40000J0D01*
G01*
X9562000Y-8086000D02*
G75*
G02*
X9642000Y-8086000I40000J0D01*
G01*
X9896000Y-5800000D02*
G75*
G02*
X9816000Y-5800000I-40000J0D01*
G01*
X9816000Y-5800000D02*
G75*
G02*
X9896000Y-5800000I40000J0D01*
G01*
X9896000Y-8086000D02*
G75*
G02*
X9816000Y-8086000I-40000J0D01*
G01*
X9816000Y-8086000D02*
G75*
G02*
X9896000Y-8086000I40000J0D01*
G01*
X10150000Y-5800000D02*
G75*
G02*
X10070000Y-5800000I-40000J0D01*
G01*
X10070000Y-5800000D02*
G75*
G02*
X10150000Y-5800000I40000J0D01*
G01*
X10150000Y-8086000D02*
G75*
G02*
X10070000Y-8086000I-40000J0D01*
G01*
X10070000Y-8086000D02*
G75*
G02*
X10150000Y-8086000I40000J0D01*
G01*
X10404000Y-5800000D02*
G75*
G02*
X10324000Y-5800000I-40000J0D01*
G01*
X10324000Y-5800000D02*
G75*
G02*
X10404000Y-5800000I40000J0D01*
G01*
X10404000Y-8086000D02*
G75*
G02*
X10324000Y-8086000I-40000J0D01*
G01*
X10324000Y-8086000D02*
G75*
G02*
X10404000Y-8086000I40000J0D01*
G01*
X10658000Y-5800000D02*
G75*
G02*
X10578000Y-5800000I-40000J0D01*
G01*
X10578000Y-5800000D02*
G75*
G02*
X10658000Y-5800000I40000J0D01*
G01*
X10658000Y-8086000D02*
G75*
G02*
X10578000Y-8086000I-40000J0D01*
G01*
X10578000Y-8086000D02*
G75*
G02*
X10658000Y-8086000I40000J0D01*
G01*
X10912000Y-5800000D02*
G75*
G02*
X10832000Y-5800000I-40000J0D01*
G01*
X10832000Y-5800000D02*
G75*
G02*
X10912000Y-5800000I40000J0D01*
G01*
X10912000Y-8086000D02*
G75*
G02*
X10832000Y-8086000I-40000J0D01*
G01*
X10832000Y-8086000D02*
G75*
G02*
X10912000Y-8086000I40000J0D01*
G01*
X11165728Y-8086368D02*
G75*
G02*
X11085728Y-8086368I-40000J0D01*
G01*
X11085728Y-8086368D02*
G75*
G02*
X11165728Y-8086368I40000J0D01*
G01*
X11166000Y-5800000D02*
G75*
G02*
X11086000Y-5800000I-40000J0D01*
G01*
X11086000Y-5800000D02*
G75*
G02*
X11166000Y-5800000I40000J0D01*
G01*
X11419728Y-8086368D02*
G75*
G02*
X11339728Y-8086368I-40000J0D01*
G01*
X11339728Y-8086368D02*
G75*
G02*
X11419728Y-8086368I40000J0D01*
G01*
X11420000Y-5800000D02*
G75*
G02*
X11340000Y-5800000I-40000J0D01*
G01*
X11340000Y-5800000D02*
G75*
G02*
X11420000Y-5800000I40000J0D01*
G01*
X11673728Y-8086368D02*
G75*
G02*
X11593728Y-8086368I-40000J0D01*
G01*
X11593728Y-8086368D02*
G75*
G02*
X11673728Y-8086368I40000J0D01*
G01*
X11674000Y-5800000D02*
G75*
G02*
X11594000Y-5800000I-40000J0D01*
G01*
X11594000Y-5800000D02*
G75*
G02*
X11674000Y-5800000I40000J0D01*
G01*
X6300000Y-8950000D02*
X6300000Y-9050000D01*
X6250000Y-9000000D02*
X6350000Y-9000000D01*
X6554000Y-8950000D02*
X6554000Y-9050000D01*
X6504000Y-9000000D02*
X6604000Y-9000000D01*
X6808000Y-8950000D02*
X6808000Y-9050000D01*
X6758000Y-9000000D02*
X6858000Y-9000000D01*
X7600000Y-8950000D02*
X7600000Y-9050000D01*
X7550000Y-9000000D02*
X7650000Y-9000000D01*
X7854000Y-8950000D02*
X7854000Y-9050000D01*
X7804000Y-9000000D02*
X7904000Y-9000000D01*
X8108000Y-8950000D02*
X8108000Y-9050000D01*
X8058000Y-9000000D02*
X8158000Y-9000000D01*
D12*
X5513138Y-5513138D02*
X5513138Y-5286862D01*
X5286862Y-5286862D01*
X5286862Y-5513138D01*
X5513138Y-5513138D01*
X5513138Y-9413138D02*
X5513138Y-9186862D01*
X5286862Y-9186862D01*
X5286862Y-9413138D01*
X5513138Y-9413138D01*
X11913138Y-5433138D02*
X11913138Y-5206862D01*
X11686862Y-5206862D01*
X11686862Y-5433138D01*
X11913138Y-5433138D01*
X12093138Y-9593138D02*
X12093138Y-9366862D01*
X11866862Y-9366862D01*
X11866862Y-9593138D01*
X12093138Y-9593138D01*
D11*
X5255777Y-10016484D02*
X5255777Y-9816484D01*
X5255777Y-9816484D02*
X5303396Y-9816484D01*
X5303396Y-9816484D02*
X5331967Y-9826008D01*
X5331967Y-9826008D02*
X5351015Y-9845055D01*
X5351015Y-9845055D02*
X5360539Y-9864103D01*
X5360539Y-9864103D02*
X5370063Y-9902198D01*
X5370063Y-9902198D02*
X5370063Y-9930770D01*
X5370063Y-9930770D02*
X5360539Y-9968865D01*
X5360539Y-9968865D02*
X5351015Y-9987912D01*
X5351015Y-9987912D02*
X5331967Y-10006960D01*
X5331967Y-10006960D02*
X5303396Y-10016484D01*
X5303396Y-10016484D02*
X5255777Y-10016484D01*
X5455777Y-10016484D02*
X5455777Y-9883150D01*
X5455777Y-9921246D02*
X5465301Y-9902198D01*
X5465301Y-9902198D02*
X5474824Y-9892674D01*
X5474824Y-9892674D02*
X5493872Y-9883150D01*
X5493872Y-9883150D02*
X5512920Y-9883150D01*
X5579586Y-10016484D02*
X5579586Y-9883150D01*
X5579586Y-9816484D02*
X5570063Y-9826008D01*
X5570063Y-9826008D02*
X5579586Y-9835531D01*
X5579586Y-9835531D02*
X5589110Y-9826008D01*
X5589110Y-9826008D02*
X5579586Y-9816484D01*
X5579586Y-9816484D02*
X5579586Y-9835531D01*
X5703396Y-10016484D02*
X5684348Y-10006960D01*
X5684348Y-10006960D02*
X5674824Y-9987912D01*
X5674824Y-9987912D02*
X5674824Y-9816484D01*
X5808158Y-10016484D02*
X5789110Y-10006960D01*
X5789110Y-10006960D02*
X5779586Y-9987912D01*
X5779586Y-9987912D02*
X5779586Y-9816484D01*
X6036729Y-10016484D02*
X6036729Y-9816484D01*
X6036729Y-9816484D02*
X6103396Y-9959341D01*
X6103396Y-9959341D02*
X6170062Y-9816484D01*
X6170062Y-9816484D02*
X6170062Y-10016484D01*
X6351015Y-10016484D02*
X6351015Y-9911722D01*
X6351015Y-9911722D02*
X6341491Y-9892674D01*
X6341491Y-9892674D02*
X6322443Y-9883150D01*
X6322443Y-9883150D02*
X6284348Y-9883150D01*
X6284348Y-9883150D02*
X6265301Y-9892674D01*
X6351015Y-10006960D02*
X6331967Y-10016484D01*
X6331967Y-10016484D02*
X6284348Y-10016484D01*
X6284348Y-10016484D02*
X6265301Y-10006960D01*
X6265301Y-10006960D02*
X6255777Y-9987912D01*
X6255777Y-9987912D02*
X6255777Y-9968865D01*
X6255777Y-9968865D02*
X6265301Y-9949817D01*
X6265301Y-9949817D02*
X6284348Y-9940293D01*
X6284348Y-9940293D02*
X6331967Y-9940293D01*
X6331967Y-9940293D02*
X6351015Y-9930770D01*
X6446253Y-9883150D02*
X6446253Y-10083150D01*
X6446253Y-9892674D02*
X6465301Y-9883150D01*
X6465301Y-9883150D02*
X6503396Y-9883150D01*
X6503396Y-9883150D02*
X6522443Y-9892674D01*
X6522443Y-9892674D02*
X6531967Y-9902198D01*
X6531967Y-9902198D02*
X6541491Y-9921246D01*
X6541491Y-9921246D02*
X6541491Y-9978389D01*
X6541491Y-9978389D02*
X6531967Y-9997436D01*
X6531967Y-9997436D02*
X6522443Y-10006960D01*
X6522443Y-10006960D02*
X6503396Y-10016484D01*
X6503396Y-10016484D02*
X6465301Y-10016484D01*
X6465301Y-10016484D02*
X6446253Y-10006960D01*
X6627205Y-9997436D02*
X6636729Y-10006960D01*
X6636729Y-10006960D02*
X6627205Y-10016484D01*
X6627205Y-10016484D02*
X6617682Y-10006960D01*
X6617682Y-10006960D02*
X6627205Y-9997436D01*
X6627205Y-9997436D02*
X6627205Y-10016484D01*
X6627205Y-9892674D02*
X6636729Y-9902198D01*
X6636729Y-9902198D02*
X6627205Y-9911722D01*
X6627205Y-9911722D02*
X6617682Y-9902198D01*
X6617682Y-9902198D02*
X6627205Y-9892674D01*
X6627205Y-9892674D02*
X6627205Y-9911722D01*
D10*
X4965000Y-10330000D02*
X4995000Y-10360000D01*
X4995000Y-10330000D02*
X4965000Y-10360000D01*
D11*
X5293872Y-10236484D02*
X5312920Y-10236484D01*
X5312920Y-10236484D02*
X5331967Y-10246008D01*
X5331967Y-10246008D02*
X5341491Y-10255531D01*
X5341491Y-10255531D02*
X5351015Y-10274579D01*
X5351015Y-10274579D02*
X5360539Y-10312674D01*
X5360539Y-10312674D02*
X5360539Y-10360293D01*
X5360539Y-10360293D02*
X5351015Y-10398389D01*
X5351015Y-10398389D02*
X5341491Y-10417436D01*
X5341491Y-10417436D02*
X5331967Y-10426960D01*
X5331967Y-10426960D02*
X5312920Y-10436484D01*
X5312920Y-10436484D02*
X5293872Y-10436484D01*
X5293872Y-10436484D02*
X5274824Y-10426960D01*
X5274824Y-10426960D02*
X5265301Y-10417436D01*
X5265301Y-10417436D02*
X5255777Y-10398389D01*
X5255777Y-10398389D02*
X5246253Y-10360293D01*
X5246253Y-10360293D02*
X5246253Y-10312674D01*
X5246253Y-10312674D02*
X5255777Y-10274579D01*
X5255777Y-10274579D02*
X5265301Y-10255531D01*
X5265301Y-10255531D02*
X5274824Y-10246008D01*
X5274824Y-10246008D02*
X5293872Y-10236484D01*
X5446253Y-10417436D02*
X5455777Y-10426960D01*
X5455777Y-10426960D02*
X5446253Y-10436484D01*
X5446253Y-10436484D02*
X5436729Y-10426960D01*
X5436729Y-10426960D02*
X5446253Y-10417436D01*
X5446253Y-10417436D02*
X5446253Y-10436484D01*
X5522444Y-10236484D02*
X5646253Y-10236484D01*
X5646253Y-10236484D02*
X5579586Y-10312674D01*
X5579586Y-10312674D02*
X5608158Y-10312674D01*
X5608158Y-10312674D02*
X5627205Y-10322198D01*
X5627205Y-10322198D02*
X5636729Y-10331722D01*
X5636729Y-10331722D02*
X5646253Y-10350770D01*
X5646253Y-10350770D02*
X5646253Y-10398389D01*
X5646253Y-10398389D02*
X5636729Y-10417436D01*
X5636729Y-10417436D02*
X5627205Y-10426960D01*
X5627205Y-10426960D02*
X5608158Y-10436484D01*
X5608158Y-10436484D02*
X5551015Y-10436484D01*
X5551015Y-10436484D02*
X5531967Y-10426960D01*
X5531967Y-10426960D02*
X5522444Y-10417436D01*
X5770062Y-10236484D02*
X5789110Y-10236484D01*
X5789110Y-10236484D02*
X5808158Y-10246008D01*
X5808158Y-10246008D02*
X5817682Y-10255531D01*
X5817682Y-10255531D02*
X5827205Y-10274579D01*
X5827205Y-10274579D02*
X5836729Y-10312674D01*
X5836729Y-10312674D02*
X5836729Y-10360293D01*
X5836729Y-10360293D02*
X5827205Y-10398389D01*
X5827205Y-10398389D02*
X5817682Y-10417436D01*
X5817682Y-10417436D02*
X5808158Y-10426960D01*
X5808158Y-10426960D02*
X5789110Y-10436484D01*
X5789110Y-10436484D02*
X5770062Y-10436484D01*
X5770062Y-10436484D02*
X5751015Y-10426960D01*
X5751015Y-10426960D02*
X5741491Y-10417436D01*
X5741491Y-10417436D02*
X5731967Y-10398389D01*
X5731967Y-10398389D02*
X5722443Y-10360293D01*
X5722443Y-10360293D02*
X5722443Y-10312674D01*
X5722443Y-10312674D02*
X5731967Y-10274579D01*
X5731967Y-10274579D02*
X5741491Y-10255531D01*
X5741491Y-10255531D02*
X5751015Y-10246008D01*
X5751015Y-10246008D02*
X5770062Y-10236484D01*
X5960539Y-10236484D02*
X5979586Y-10236484D01*
X5979586Y-10236484D02*
X5998634Y-10246008D01*
X5998634Y-10246008D02*
X6008158Y-10255531D01*
X6008158Y-10255531D02*
X6017682Y-10274579D01*
X6017682Y-10274579D02*
X6027205Y-10312674D01*
X6027205Y-10312674D02*
X6027205Y-10360293D01*
X6027205Y-10360293D02*
X6017682Y-10398389D01*
X6017682Y-10398389D02*
X6008158Y-10417436D01*
X6008158Y-10417436D02*
X5998634Y-10426960D01*
X5998634Y-10426960D02*
X5979586Y-10436484D01*
X5979586Y-10436484D02*
X5960539Y-10436484D01*
X5960539Y-10436484D02*
X5941491Y-10426960D01*
X5941491Y-10426960D02*
X5931967Y-10417436D01*
X5931967Y-10417436D02*
X5922443Y-10398389D01*
X5922443Y-10398389D02*
X5912920Y-10360293D01*
X5912920Y-10360293D02*
X5912920Y-10312674D01*
X5912920Y-10312674D02*
X5922443Y-10274579D01*
X5922443Y-10274579D02*
X5931967Y-10255531D01*
X5931967Y-10255531D02*
X5941491Y-10246008D01*
X5941491Y-10246008D02*
X5960539Y-10236484D01*
X6112920Y-10436484D02*
X6112920Y-10303150D01*
X6112920Y-10322198D02*
X6122443Y-10312674D01*
X6122443Y-10312674D02*
X6141491Y-10303150D01*
X6141491Y-10303150D02*
X6170063Y-10303150D01*
X6170063Y-10303150D02*
X6189110Y-10312674D01*
X6189110Y-10312674D02*
X6198634Y-10331722D01*
X6198634Y-10331722D02*
X6198634Y-10436484D01*
X6198634Y-10331722D02*
X6208158Y-10312674D01*
X6208158Y-10312674D02*
X6227205Y-10303150D01*
X6227205Y-10303150D02*
X6255777Y-10303150D01*
X6255777Y-10303150D02*
X6274824Y-10312674D01*
X6274824Y-10312674D02*
X6284348Y-10331722D01*
X6284348Y-10331722D02*
X6284348Y-10436484D01*
X6379586Y-10436484D02*
X6379586Y-10303150D01*
X6379586Y-10322198D02*
X6389110Y-10312674D01*
X6389110Y-10312674D02*
X6408158Y-10303150D01*
X6408158Y-10303150D02*
X6436729Y-10303150D01*
X6436729Y-10303150D02*
X6455777Y-10312674D01*
X6455777Y-10312674D02*
X6465301Y-10331722D01*
X6465301Y-10331722D02*
X6465301Y-10436484D01*
X6465301Y-10331722D02*
X6474824Y-10312674D01*
X6474824Y-10312674D02*
X6493872Y-10303150D01*
X6493872Y-10303150D02*
X6522443Y-10303150D01*
X6522443Y-10303150D02*
X6541491Y-10312674D01*
X6541491Y-10312674D02*
X6551015Y-10331722D01*
X6551015Y-10331722D02*
X6551015Y-10436484D01*
X6941491Y-10226960D02*
X6770063Y-10484103D01*
X7198634Y-10236484D02*
X7217682Y-10236484D01*
X7217682Y-10236484D02*
X7236729Y-10246008D01*
X7236729Y-10246008D02*
X7246253Y-10255531D01*
X7246253Y-10255531D02*
X7255777Y-10274579D01*
X7255777Y-10274579D02*
X7265301Y-10312674D01*
X7265301Y-10312674D02*
X7265301Y-10360293D01*
X7265301Y-10360293D02*
X7255777Y-10398389D01*
X7255777Y-10398389D02*
X7246253Y-10417436D01*
X7246253Y-10417436D02*
X7236729Y-10426960D01*
X7236729Y-10426960D02*
X7217682Y-10436484D01*
X7217682Y-10436484D02*
X7198634Y-10436484D01*
X7198634Y-10436484D02*
X7179586Y-10426960D01*
X7179586Y-10426960D02*
X7170063Y-10417436D01*
X7170063Y-10417436D02*
X7160539Y-10398389D01*
X7160539Y-10398389D02*
X7151015Y-10360293D01*
X7151015Y-10360293D02*
X7151015Y-10312674D01*
X7151015Y-10312674D02*
X7160539Y-10274579D01*
X7160539Y-10274579D02*
X7170063Y-10255531D01*
X7170063Y-10255531D02*
X7179586Y-10246008D01*
X7179586Y-10246008D02*
X7198634Y-10236484D01*
X7351015Y-10417436D02*
X7360539Y-10426960D01*
X7360539Y-10426960D02*
X7351015Y-10436484D01*
X7351015Y-10436484D02*
X7341491Y-10426960D01*
X7341491Y-10426960D02*
X7351015Y-10417436D01*
X7351015Y-10417436D02*
X7351015Y-10436484D01*
X7484348Y-10236484D02*
X7503396Y-10236484D01*
X7503396Y-10236484D02*
X7522444Y-10246008D01*
X7522444Y-10246008D02*
X7531967Y-10255531D01*
X7531967Y-10255531D02*
X7541491Y-10274579D01*
X7541491Y-10274579D02*
X7551015Y-10312674D01*
X7551015Y-10312674D02*
X7551015Y-10360293D01*
X7551015Y-10360293D02*
X7541491Y-10398389D01*
X7541491Y-10398389D02*
X7531967Y-10417436D01*
X7531967Y-10417436D02*
X7522444Y-10426960D01*
X7522444Y-10426960D02*
X7503396Y-10436484D01*
X7503396Y-10436484D02*
X7484348Y-10436484D01*
X7484348Y-10436484D02*
X7465301Y-10426960D01*
X7465301Y-10426960D02*
X7455777Y-10417436D01*
X7455777Y-10417436D02*
X7446253Y-10398389D01*
X7446253Y-10398389D02*
X7436729Y-10360293D01*
X7436729Y-10360293D02*
X7436729Y-10312674D01*
X7436729Y-10312674D02*
X7446253Y-10274579D01*
X7446253Y-10274579D02*
X7455777Y-10255531D01*
X7455777Y-10255531D02*
X7465301Y-10246008D01*
X7465301Y-10246008D02*
X7484348Y-10236484D01*
X7741491Y-10436484D02*
X7627206Y-10436484D01*
X7684348Y-10436484D02*
X7684348Y-10236484D01*
X7684348Y-10236484D02*
X7665301Y-10265055D01*
X7665301Y-10265055D02*
X7646253Y-10284103D01*
X7646253Y-10284103D02*
X7627206Y-10293627D01*
X7931967Y-10436484D02*
X7817682Y-10436484D01*
X7874825Y-10436484D02*
X7874825Y-10236484D01*
X7874825Y-10236484D02*
X7855777Y-10265055D01*
X7855777Y-10265055D02*
X7836729Y-10284103D01*
X7836729Y-10284103D02*
X7817682Y-10293627D01*
X8046253Y-10322198D02*
X8027206Y-10312674D01*
X8027206Y-10312674D02*
X8017682Y-10303150D01*
X8017682Y-10303150D02*
X8008158Y-10284103D01*
X8008158Y-10284103D02*
X8008158Y-10274579D01*
X8008158Y-10274579D02*
X8017682Y-10255531D01*
X8017682Y-10255531D02*
X8027206Y-10246008D01*
X8027206Y-10246008D02*
X8046253Y-10236484D01*
X8046253Y-10236484D02*
X8084348Y-10236484D01*
X8084348Y-10236484D02*
X8103396Y-10246008D01*
X8103396Y-10246008D02*
X8112920Y-10255531D01*
X8112920Y-10255531D02*
X8122444Y-10274579D01*
X8122444Y-10274579D02*
X8122444Y-10284103D01*
X8122444Y-10284103D02*
X8112920Y-10303150D01*
X8112920Y-10303150D02*
X8103396Y-10312674D01*
X8103396Y-10312674D02*
X8084348Y-10322198D01*
X8084348Y-10322198D02*
X8046253Y-10322198D01*
X8046253Y-10322198D02*
X8027206Y-10331722D01*
X8027206Y-10331722D02*
X8017682Y-10341246D01*
X8017682Y-10341246D02*
X8008158Y-10360293D01*
X8008158Y-10360293D02*
X8008158Y-10398389D01*
X8008158Y-10398389D02*
X8017682Y-10417436D01*
X8017682Y-10417436D02*
X8027206Y-10426960D01*
X8027206Y-10426960D02*
X8046253Y-10436484D01*
X8046253Y-10436484D02*
X8084348Y-10436484D01*
X8084348Y-10436484D02*
X8103396Y-10426960D01*
X8103396Y-10426960D02*
X8112920Y-10417436D01*
X8112920Y-10417436D02*
X8122444Y-10398389D01*
X8122444Y-10398389D02*
X8122444Y-10360293D01*
X8122444Y-10360293D02*
X8112920Y-10341246D01*
X8112920Y-10341246D02*
X8103396Y-10331722D01*
X8103396Y-10331722D02*
X8084348Y-10322198D01*
X8198634Y-10236484D02*
X8198634Y-10274579D01*
X8274825Y-10236484D02*
X8274825Y-10274579D01*
X8570063Y-10512674D02*
X8560539Y-10503150D01*
X8560539Y-10503150D02*
X8541491Y-10474579D01*
X8541491Y-10474579D02*
X8531968Y-10455531D01*
X8531968Y-10455531D02*
X8522444Y-10426960D01*
X8522444Y-10426960D02*
X8512920Y-10379341D01*
X8512920Y-10379341D02*
X8512920Y-10341246D01*
X8512920Y-10341246D02*
X8522444Y-10293627D01*
X8522444Y-10293627D02*
X8531968Y-10265055D01*
X8531968Y-10265055D02*
X8541491Y-10246008D01*
X8541491Y-10246008D02*
X8560539Y-10217436D01*
X8560539Y-10217436D02*
X8570063Y-10207912D01*
X8636730Y-10255531D02*
X8646253Y-10246008D01*
X8646253Y-10246008D02*
X8665301Y-10236484D01*
X8665301Y-10236484D02*
X8712920Y-10236484D01*
X8712920Y-10236484D02*
X8731968Y-10246008D01*
X8731968Y-10246008D02*
X8741491Y-10255531D01*
X8741491Y-10255531D02*
X8751015Y-10274579D01*
X8751015Y-10274579D02*
X8751015Y-10293627D01*
X8751015Y-10293627D02*
X8741491Y-10322198D01*
X8741491Y-10322198D02*
X8627206Y-10436484D01*
X8627206Y-10436484D02*
X8751015Y-10436484D01*
X8989111Y-10436484D02*
X8989111Y-10236484D01*
X9074825Y-10436484D02*
X9074825Y-10331722D01*
X9074825Y-10331722D02*
X9065301Y-10312674D01*
X9065301Y-10312674D02*
X9046253Y-10303150D01*
X9046253Y-10303150D02*
X9017682Y-10303150D01*
X9017682Y-10303150D02*
X8998634Y-10312674D01*
X8998634Y-10312674D02*
X8989111Y-10322198D01*
X9198634Y-10436484D02*
X9179587Y-10426960D01*
X9179587Y-10426960D02*
X9170063Y-10417436D01*
X9170063Y-10417436D02*
X9160539Y-10398389D01*
X9160539Y-10398389D02*
X9160539Y-10341246D01*
X9160539Y-10341246D02*
X9170063Y-10322198D01*
X9170063Y-10322198D02*
X9179587Y-10312674D01*
X9179587Y-10312674D02*
X9198634Y-10303150D01*
X9198634Y-10303150D02*
X9227206Y-10303150D01*
X9227206Y-10303150D02*
X9246253Y-10312674D01*
X9246253Y-10312674D02*
X9255777Y-10322198D01*
X9255777Y-10322198D02*
X9265301Y-10341246D01*
X9265301Y-10341246D02*
X9265301Y-10398389D01*
X9265301Y-10398389D02*
X9255777Y-10417436D01*
X9255777Y-10417436D02*
X9246253Y-10426960D01*
X9246253Y-10426960D02*
X9227206Y-10436484D01*
X9227206Y-10436484D02*
X9198634Y-10436484D01*
X9379587Y-10436484D02*
X9360539Y-10426960D01*
X9360539Y-10426960D02*
X9351015Y-10407912D01*
X9351015Y-10407912D02*
X9351015Y-10236484D01*
X9531968Y-10426960D02*
X9512920Y-10436484D01*
X9512920Y-10436484D02*
X9474825Y-10436484D01*
X9474825Y-10436484D02*
X9455777Y-10426960D01*
X9455777Y-10426960D02*
X9446253Y-10407912D01*
X9446253Y-10407912D02*
X9446253Y-10331722D01*
X9446253Y-10331722D02*
X9455777Y-10312674D01*
X9455777Y-10312674D02*
X9474825Y-10303150D01*
X9474825Y-10303150D02*
X9512920Y-10303150D01*
X9512920Y-10303150D02*
X9531968Y-10312674D01*
X9531968Y-10312674D02*
X9541492Y-10331722D01*
X9541492Y-10331722D02*
X9541492Y-10350770D01*
X9541492Y-10350770D02*
X9446253Y-10369817D01*
X9617682Y-10426960D02*
X9636730Y-10436484D01*
X9636730Y-10436484D02*
X9674825Y-10436484D01*
X9674825Y-10436484D02*
X9693873Y-10426960D01*
X9693873Y-10426960D02*
X9703396Y-10407912D01*
X9703396Y-10407912D02*
X9703396Y-10398389D01*
X9703396Y-10398389D02*
X9693873Y-10379341D01*
X9693873Y-10379341D02*
X9674825Y-10369817D01*
X9674825Y-10369817D02*
X9646253Y-10369817D01*
X9646253Y-10369817D02*
X9627206Y-10360293D01*
X9627206Y-10360293D02*
X9617682Y-10341246D01*
X9617682Y-10341246D02*
X9617682Y-10331722D01*
X9617682Y-10331722D02*
X9627206Y-10312674D01*
X9627206Y-10312674D02*
X9646253Y-10303150D01*
X9646253Y-10303150D02*
X9674825Y-10303150D01*
X9674825Y-10303150D02*
X9693873Y-10312674D01*
X9770063Y-10512674D02*
X9779587Y-10503150D01*
X9779587Y-10503150D02*
X9798634Y-10474579D01*
X9798634Y-10474579D02*
X9808158Y-10455531D01*
X9808158Y-10455531D02*
X9817682Y-10426960D01*
X9817682Y-10426960D02*
X9827206Y-10379341D01*
X9827206Y-10379341D02*
X9827206Y-10341246D01*
X9827206Y-10341246D02*
X9817682Y-10293627D01*
X9817682Y-10293627D02*
X9808158Y-10265055D01*
X9808158Y-10265055D02*
X9798634Y-10246008D01*
X9798634Y-10246008D02*
X9779587Y-10217436D01*
X9779587Y-10217436D02*
X9770063Y-10207912D01*
D10*
X4995000Y-10609000D02*
G75*
G02*
X4915000Y-10609000I-40000J0D01*
G01*
X4915000Y-10609000D02*
G75*
G02*
X4995000Y-10609000I40000J0D01*
G01*
D11*
X5293872Y-10500484D02*
X5312920Y-10500484D01*
X5312920Y-10500484D02*
X5331967Y-10510008D01*
X5331967Y-10510008D02*
X5341491Y-10519531D01*
X5341491Y-10519531D02*
X5351015Y-10538579D01*
X5351015Y-10538579D02*
X5360539Y-10576674D01*
X5360539Y-10576674D02*
X5360539Y-10624293D01*
X5360539Y-10624293D02*
X5351015Y-10662389D01*
X5351015Y-10662389D02*
X5341491Y-10681436D01*
X5341491Y-10681436D02*
X5331967Y-10690960D01*
X5331967Y-10690960D02*
X5312920Y-10700484D01*
X5312920Y-10700484D02*
X5293872Y-10700484D01*
X5293872Y-10700484D02*
X5274824Y-10690960D01*
X5274824Y-10690960D02*
X5265301Y-10681436D01*
X5265301Y-10681436D02*
X5255777Y-10662389D01*
X5255777Y-10662389D02*
X5246253Y-10624293D01*
X5246253Y-10624293D02*
X5246253Y-10576674D01*
X5246253Y-10576674D02*
X5255777Y-10538579D01*
X5255777Y-10538579D02*
X5265301Y-10519531D01*
X5265301Y-10519531D02*
X5274824Y-10510008D01*
X5274824Y-10510008D02*
X5293872Y-10500484D01*
X5446253Y-10681436D02*
X5455777Y-10690960D01*
X5455777Y-10690960D02*
X5446253Y-10700484D01*
X5446253Y-10700484D02*
X5436729Y-10690960D01*
X5436729Y-10690960D02*
X5446253Y-10681436D01*
X5446253Y-10681436D02*
X5446253Y-10700484D01*
X5570063Y-10586198D02*
X5551015Y-10576674D01*
X5551015Y-10576674D02*
X5541491Y-10567150D01*
X5541491Y-10567150D02*
X5531967Y-10548103D01*
X5531967Y-10548103D02*
X5531967Y-10538579D01*
X5531967Y-10538579D02*
X5541491Y-10519531D01*
X5541491Y-10519531D02*
X5551015Y-10510008D01*
X5551015Y-10510008D02*
X5570063Y-10500484D01*
X5570063Y-10500484D02*
X5608158Y-10500484D01*
X5608158Y-10500484D02*
X5627205Y-10510008D01*
X5627205Y-10510008D02*
X5636729Y-10519531D01*
X5636729Y-10519531D02*
X5646253Y-10538579D01*
X5646253Y-10538579D02*
X5646253Y-10548103D01*
X5646253Y-10548103D02*
X5636729Y-10567150D01*
X5636729Y-10567150D02*
X5627205Y-10576674D01*
X5627205Y-10576674D02*
X5608158Y-10586198D01*
X5608158Y-10586198D02*
X5570063Y-10586198D01*
X5570063Y-10586198D02*
X5551015Y-10595722D01*
X5551015Y-10595722D02*
X5541491Y-10605246D01*
X5541491Y-10605246D02*
X5531967Y-10624293D01*
X5531967Y-10624293D02*
X5531967Y-10662389D01*
X5531967Y-10662389D02*
X5541491Y-10681436D01*
X5541491Y-10681436D02*
X5551015Y-10690960D01*
X5551015Y-10690960D02*
X5570063Y-10700484D01*
X5570063Y-10700484D02*
X5608158Y-10700484D01*
X5608158Y-10700484D02*
X5627205Y-10690960D01*
X5627205Y-10690960D02*
X5636729Y-10681436D01*
X5636729Y-10681436D02*
X5646253Y-10662389D01*
X5646253Y-10662389D02*
X5646253Y-10624293D01*
X5646253Y-10624293D02*
X5636729Y-10605246D01*
X5636729Y-10605246D02*
X5627205Y-10595722D01*
X5627205Y-10595722D02*
X5608158Y-10586198D01*
X5770062Y-10500484D02*
X5789110Y-10500484D01*
X5789110Y-10500484D02*
X5808158Y-10510008D01*
X5808158Y-10510008D02*
X5817682Y-10519531D01*
X5817682Y-10519531D02*
X5827205Y-10538579D01*
X5827205Y-10538579D02*
X5836729Y-10576674D01*
X5836729Y-10576674D02*
X5836729Y-10624293D01*
X5836729Y-10624293D02*
X5827205Y-10662389D01*
X5827205Y-10662389D02*
X5817682Y-10681436D01*
X5817682Y-10681436D02*
X5808158Y-10690960D01*
X5808158Y-10690960D02*
X5789110Y-10700484D01*
X5789110Y-10700484D02*
X5770062Y-10700484D01*
X5770062Y-10700484D02*
X5751015Y-10690960D01*
X5751015Y-10690960D02*
X5741491Y-10681436D01*
X5741491Y-10681436D02*
X5731967Y-10662389D01*
X5731967Y-10662389D02*
X5722443Y-10624293D01*
X5722443Y-10624293D02*
X5722443Y-10576674D01*
X5722443Y-10576674D02*
X5731967Y-10538579D01*
X5731967Y-10538579D02*
X5741491Y-10519531D01*
X5741491Y-10519531D02*
X5751015Y-10510008D01*
X5751015Y-10510008D02*
X5770062Y-10500484D01*
X5960539Y-10500484D02*
X5979586Y-10500484D01*
X5979586Y-10500484D02*
X5998634Y-10510008D01*
X5998634Y-10510008D02*
X6008158Y-10519531D01*
X6008158Y-10519531D02*
X6017682Y-10538579D01*
X6017682Y-10538579D02*
X6027205Y-10576674D01*
X6027205Y-10576674D02*
X6027205Y-10624293D01*
X6027205Y-10624293D02*
X6017682Y-10662389D01*
X6017682Y-10662389D02*
X6008158Y-10681436D01*
X6008158Y-10681436D02*
X5998634Y-10690960D01*
X5998634Y-10690960D02*
X5979586Y-10700484D01*
X5979586Y-10700484D02*
X5960539Y-10700484D01*
X5960539Y-10700484D02*
X5941491Y-10690960D01*
X5941491Y-10690960D02*
X5931967Y-10681436D01*
X5931967Y-10681436D02*
X5922443Y-10662389D01*
X5922443Y-10662389D02*
X5912920Y-10624293D01*
X5912920Y-10624293D02*
X5912920Y-10576674D01*
X5912920Y-10576674D02*
X5922443Y-10538579D01*
X5922443Y-10538579D02*
X5931967Y-10519531D01*
X5931967Y-10519531D02*
X5941491Y-10510008D01*
X5941491Y-10510008D02*
X5960539Y-10500484D01*
X6112920Y-10700484D02*
X6112920Y-10567150D01*
X6112920Y-10586198D02*
X6122443Y-10576674D01*
X6122443Y-10576674D02*
X6141491Y-10567150D01*
X6141491Y-10567150D02*
X6170063Y-10567150D01*
X6170063Y-10567150D02*
X6189110Y-10576674D01*
X6189110Y-10576674D02*
X6198634Y-10595722D01*
X6198634Y-10595722D02*
X6198634Y-10700484D01*
X6198634Y-10595722D02*
X6208158Y-10576674D01*
X6208158Y-10576674D02*
X6227205Y-10567150D01*
X6227205Y-10567150D02*
X6255777Y-10567150D01*
X6255777Y-10567150D02*
X6274824Y-10576674D01*
X6274824Y-10576674D02*
X6284348Y-10595722D01*
X6284348Y-10595722D02*
X6284348Y-10700484D01*
X6379586Y-10700484D02*
X6379586Y-10567150D01*
X6379586Y-10586198D02*
X6389110Y-10576674D01*
X6389110Y-10576674D02*
X6408158Y-10567150D01*
X6408158Y-10567150D02*
X6436729Y-10567150D01*
X6436729Y-10567150D02*
X6455777Y-10576674D01*
X6455777Y-10576674D02*
X6465301Y-10595722D01*
X6465301Y-10595722D02*
X6465301Y-10700484D01*
X6465301Y-10595722D02*
X6474824Y-10576674D01*
X6474824Y-10576674D02*
X6493872Y-10567150D01*
X6493872Y-10567150D02*
X6522443Y-10567150D01*
X6522443Y-10567150D02*
X6541491Y-10576674D01*
X6541491Y-10576674D02*
X6551015Y-10595722D01*
X6551015Y-10595722D02*
X6551015Y-10700484D01*
X6941491Y-10490960D02*
X6770063Y-10748103D01*
X7198634Y-10500484D02*
X7217682Y-10500484D01*
X7217682Y-10500484D02*
X7236729Y-10510008D01*
X7236729Y-10510008D02*
X7246253Y-10519531D01*
X7246253Y-10519531D02*
X7255777Y-10538579D01*
X7255777Y-10538579D02*
X7265301Y-10576674D01*
X7265301Y-10576674D02*
X7265301Y-10624293D01*
X7265301Y-10624293D02*
X7255777Y-10662389D01*
X7255777Y-10662389D02*
X7246253Y-10681436D01*
X7246253Y-10681436D02*
X7236729Y-10690960D01*
X7236729Y-10690960D02*
X7217682Y-10700484D01*
X7217682Y-10700484D02*
X7198634Y-10700484D01*
X7198634Y-10700484D02*
X7179586Y-10690960D01*
X7179586Y-10690960D02*
X7170063Y-10681436D01*
X7170063Y-10681436D02*
X7160539Y-10662389D01*
X7160539Y-10662389D02*
X7151015Y-10624293D01*
X7151015Y-10624293D02*
X7151015Y-10576674D01*
X7151015Y-10576674D02*
X7160539Y-10538579D01*
X7160539Y-10538579D02*
X7170063Y-10519531D01*
X7170063Y-10519531D02*
X7179586Y-10510008D01*
X7179586Y-10510008D02*
X7198634Y-10500484D01*
X7351015Y-10681436D02*
X7360539Y-10690960D01*
X7360539Y-10690960D02*
X7351015Y-10700484D01*
X7351015Y-10700484D02*
X7341491Y-10690960D01*
X7341491Y-10690960D02*
X7351015Y-10681436D01*
X7351015Y-10681436D02*
X7351015Y-10700484D01*
X7484348Y-10500484D02*
X7503396Y-10500484D01*
X7503396Y-10500484D02*
X7522444Y-10510008D01*
X7522444Y-10510008D02*
X7531967Y-10519531D01*
X7531967Y-10519531D02*
X7541491Y-10538579D01*
X7541491Y-10538579D02*
X7551015Y-10576674D01*
X7551015Y-10576674D02*
X7551015Y-10624293D01*
X7551015Y-10624293D02*
X7541491Y-10662389D01*
X7541491Y-10662389D02*
X7531967Y-10681436D01*
X7531967Y-10681436D02*
X7522444Y-10690960D01*
X7522444Y-10690960D02*
X7503396Y-10700484D01*
X7503396Y-10700484D02*
X7484348Y-10700484D01*
X7484348Y-10700484D02*
X7465301Y-10690960D01*
X7465301Y-10690960D02*
X7455777Y-10681436D01*
X7455777Y-10681436D02*
X7446253Y-10662389D01*
X7446253Y-10662389D02*
X7436729Y-10624293D01*
X7436729Y-10624293D02*
X7436729Y-10576674D01*
X7436729Y-10576674D02*
X7446253Y-10538579D01*
X7446253Y-10538579D02*
X7455777Y-10519531D01*
X7455777Y-10519531D02*
X7465301Y-10510008D01*
X7465301Y-10510008D02*
X7484348Y-10500484D01*
X7617682Y-10500484D02*
X7741491Y-10500484D01*
X7741491Y-10500484D02*
X7674825Y-10576674D01*
X7674825Y-10576674D02*
X7703396Y-10576674D01*
X7703396Y-10576674D02*
X7722444Y-10586198D01*
X7722444Y-10586198D02*
X7731967Y-10595722D01*
X7731967Y-10595722D02*
X7741491Y-10614770D01*
X7741491Y-10614770D02*
X7741491Y-10662389D01*
X7741491Y-10662389D02*
X7731967Y-10681436D01*
X7731967Y-10681436D02*
X7722444Y-10690960D01*
X7722444Y-10690960D02*
X7703396Y-10700484D01*
X7703396Y-10700484D02*
X7646253Y-10700484D01*
X7646253Y-10700484D02*
X7627206Y-10690960D01*
X7627206Y-10690960D02*
X7617682Y-10681436D01*
X7931967Y-10700484D02*
X7817682Y-10700484D01*
X7874825Y-10700484D02*
X7874825Y-10500484D01*
X7874825Y-10500484D02*
X7855777Y-10529055D01*
X7855777Y-10529055D02*
X7836729Y-10548103D01*
X7836729Y-10548103D02*
X7817682Y-10557627D01*
X8112920Y-10500484D02*
X8017682Y-10500484D01*
X8017682Y-10500484D02*
X8008158Y-10595722D01*
X8008158Y-10595722D02*
X8017682Y-10586198D01*
X8017682Y-10586198D02*
X8036729Y-10576674D01*
X8036729Y-10576674D02*
X8084348Y-10576674D01*
X8084348Y-10576674D02*
X8103396Y-10586198D01*
X8103396Y-10586198D02*
X8112920Y-10595722D01*
X8112920Y-10595722D02*
X8122444Y-10614770D01*
X8122444Y-10614770D02*
X8122444Y-10662389D01*
X8122444Y-10662389D02*
X8112920Y-10681436D01*
X8112920Y-10681436D02*
X8103396Y-10690960D01*
X8103396Y-10690960D02*
X8084348Y-10700484D01*
X8084348Y-10700484D02*
X8036729Y-10700484D01*
X8036729Y-10700484D02*
X8017682Y-10690960D01*
X8017682Y-10690960D02*
X8008158Y-10681436D01*
X8198634Y-10500484D02*
X8198634Y-10538579D01*
X8274825Y-10500484D02*
X8274825Y-10538579D01*
X8570063Y-10776674D02*
X8560539Y-10767150D01*
X8560539Y-10767150D02*
X8541491Y-10738579D01*
X8541491Y-10738579D02*
X8531968Y-10719531D01*
X8531968Y-10719531D02*
X8522444Y-10690960D01*
X8522444Y-10690960D02*
X8512920Y-10643341D01*
X8512920Y-10643341D02*
X8512920Y-10605246D01*
X8512920Y-10605246D02*
X8522444Y-10557627D01*
X8522444Y-10557627D02*
X8531968Y-10529055D01*
X8531968Y-10529055D02*
X8541491Y-10510008D01*
X8541491Y-10510008D02*
X8560539Y-10481436D01*
X8560539Y-10481436D02*
X8570063Y-10471912D01*
X8731968Y-10567150D02*
X8731968Y-10700484D01*
X8684349Y-10490960D02*
X8636730Y-10633817D01*
X8636730Y-10633817D02*
X8760539Y-10633817D01*
X8922444Y-10567150D02*
X8922444Y-10700484D01*
X8874825Y-10490960D02*
X8827206Y-10633817D01*
X8827206Y-10633817D02*
X8951015Y-10633817D01*
X9179587Y-10700484D02*
X9179587Y-10500484D01*
X9265301Y-10700484D02*
X9265301Y-10595722D01*
X9265301Y-10595722D02*
X9255777Y-10576674D01*
X9255777Y-10576674D02*
X9236730Y-10567150D01*
X9236730Y-10567150D02*
X9208158Y-10567150D01*
X9208158Y-10567150D02*
X9189111Y-10576674D01*
X9189111Y-10576674D02*
X9179587Y-10586198D01*
X9389111Y-10700484D02*
X9370063Y-10690960D01*
X9370063Y-10690960D02*
X9360539Y-10681436D01*
X9360539Y-10681436D02*
X9351015Y-10662389D01*
X9351015Y-10662389D02*
X9351015Y-10605246D01*
X9351015Y-10605246D02*
X9360539Y-10586198D01*
X9360539Y-10586198D02*
X9370063Y-10576674D01*
X9370063Y-10576674D02*
X9389111Y-10567150D01*
X9389111Y-10567150D02*
X9417682Y-10567150D01*
X9417682Y-10567150D02*
X9436730Y-10576674D01*
X9436730Y-10576674D02*
X9446253Y-10586198D01*
X9446253Y-10586198D02*
X9455777Y-10605246D01*
X9455777Y-10605246D02*
X9455777Y-10662389D01*
X9455777Y-10662389D02*
X9446253Y-10681436D01*
X9446253Y-10681436D02*
X9436730Y-10690960D01*
X9436730Y-10690960D02*
X9417682Y-10700484D01*
X9417682Y-10700484D02*
X9389111Y-10700484D01*
X9570063Y-10700484D02*
X9551015Y-10690960D01*
X9551015Y-10690960D02*
X9541492Y-10671912D01*
X9541492Y-10671912D02*
X9541492Y-10500484D01*
X9722444Y-10690960D02*
X9703396Y-10700484D01*
X9703396Y-10700484D02*
X9665301Y-10700484D01*
X9665301Y-10700484D02*
X9646253Y-10690960D01*
X9646253Y-10690960D02*
X9636730Y-10671912D01*
X9636730Y-10671912D02*
X9636730Y-10595722D01*
X9636730Y-10595722D02*
X9646253Y-10576674D01*
X9646253Y-10576674D02*
X9665301Y-10567150D01*
X9665301Y-10567150D02*
X9703396Y-10567150D01*
X9703396Y-10567150D02*
X9722444Y-10576674D01*
X9722444Y-10576674D02*
X9731968Y-10595722D01*
X9731968Y-10595722D02*
X9731968Y-10614770D01*
X9731968Y-10614770D02*
X9636730Y-10633817D01*
X9808158Y-10690960D02*
X9827206Y-10700484D01*
X9827206Y-10700484D02*
X9865301Y-10700484D01*
X9865301Y-10700484D02*
X9884349Y-10690960D01*
X9884349Y-10690960D02*
X9893873Y-10671912D01*
X9893873Y-10671912D02*
X9893873Y-10662389D01*
X9893873Y-10662389D02*
X9884349Y-10643341D01*
X9884349Y-10643341D02*
X9865301Y-10633817D01*
X9865301Y-10633817D02*
X9836730Y-10633817D01*
X9836730Y-10633817D02*
X9817682Y-10624293D01*
X9817682Y-10624293D02*
X9808158Y-10605246D01*
X9808158Y-10605246D02*
X9808158Y-10595722D01*
X9808158Y-10595722D02*
X9817682Y-10576674D01*
X9817682Y-10576674D02*
X9836730Y-10567150D01*
X9836730Y-10567150D02*
X9865301Y-10567150D01*
X9865301Y-10567150D02*
X9884349Y-10576674D01*
X9960539Y-10776674D02*
X9970063Y-10767150D01*
X9970063Y-10767150D02*
X9989111Y-10738579D01*
X9989111Y-10738579D02*
X9998634Y-10719531D01*
X9998634Y-10719531D02*
X10008158Y-10690960D01*
X10008158Y-10690960D02*
X10017682Y-10643341D01*
X10017682Y-10643341D02*
X10017682Y-10605246D01*
X10017682Y-10605246D02*
X10008158Y-10557627D01*
X10008158Y-10557627D02*
X9998634Y-10529055D01*
X9998634Y-10529055D02*
X9989111Y-10510008D01*
X9989111Y-10510008D02*
X9970063Y-10481436D01*
X9970063Y-10481436D02*
X9960539Y-10471912D01*
D10*
X4945000Y-10823000D02*
X4945000Y-10923000D01*
X4895000Y-10873000D02*
X4995000Y-10873000D01*
D11*
X5360539Y-10964484D02*
X5246253Y-10964484D01*
X5303396Y-10964484D02*
X5303396Y-10764484D01*
X5303396Y-10764484D02*
X5284348Y-10793055D01*
X5284348Y-10793055D02*
X5265301Y-10812103D01*
X5265301Y-10812103D02*
X5246253Y-10821627D01*
X5446253Y-10945436D02*
X5455777Y-10954960D01*
X5455777Y-10954960D02*
X5446253Y-10964484D01*
X5446253Y-10964484D02*
X5436729Y-10954960D01*
X5436729Y-10954960D02*
X5446253Y-10945436D01*
X5446253Y-10945436D02*
X5446253Y-10964484D01*
X5579586Y-10764484D02*
X5598634Y-10764484D01*
X5598634Y-10764484D02*
X5617682Y-10774008D01*
X5617682Y-10774008D02*
X5627205Y-10783531D01*
X5627205Y-10783531D02*
X5636729Y-10802579D01*
X5636729Y-10802579D02*
X5646253Y-10840674D01*
X5646253Y-10840674D02*
X5646253Y-10888293D01*
X5646253Y-10888293D02*
X5636729Y-10926389D01*
X5636729Y-10926389D02*
X5627205Y-10945436D01*
X5627205Y-10945436D02*
X5617682Y-10954960D01*
X5617682Y-10954960D02*
X5598634Y-10964484D01*
X5598634Y-10964484D02*
X5579586Y-10964484D01*
X5579586Y-10964484D02*
X5560539Y-10954960D01*
X5560539Y-10954960D02*
X5551015Y-10945436D01*
X5551015Y-10945436D02*
X5541491Y-10926389D01*
X5541491Y-10926389D02*
X5531967Y-10888293D01*
X5531967Y-10888293D02*
X5531967Y-10840674D01*
X5531967Y-10840674D02*
X5541491Y-10802579D01*
X5541491Y-10802579D02*
X5551015Y-10783531D01*
X5551015Y-10783531D02*
X5560539Y-10774008D01*
X5560539Y-10774008D02*
X5579586Y-10764484D01*
X5770062Y-10764484D02*
X5789110Y-10764484D01*
X5789110Y-10764484D02*
X5808158Y-10774008D01*
X5808158Y-10774008D02*
X5817682Y-10783531D01*
X5817682Y-10783531D02*
X5827205Y-10802579D01*
X5827205Y-10802579D02*
X5836729Y-10840674D01*
X5836729Y-10840674D02*
X5836729Y-10888293D01*
X5836729Y-10888293D02*
X5827205Y-10926389D01*
X5827205Y-10926389D02*
X5817682Y-10945436D01*
X5817682Y-10945436D02*
X5808158Y-10954960D01*
X5808158Y-10954960D02*
X5789110Y-10964484D01*
X5789110Y-10964484D02*
X5770062Y-10964484D01*
X5770062Y-10964484D02*
X5751015Y-10954960D01*
X5751015Y-10954960D02*
X5741491Y-10945436D01*
X5741491Y-10945436D02*
X5731967Y-10926389D01*
X5731967Y-10926389D02*
X5722443Y-10888293D01*
X5722443Y-10888293D02*
X5722443Y-10840674D01*
X5722443Y-10840674D02*
X5731967Y-10802579D01*
X5731967Y-10802579D02*
X5741491Y-10783531D01*
X5741491Y-10783531D02*
X5751015Y-10774008D01*
X5751015Y-10774008D02*
X5770062Y-10764484D01*
X5960539Y-10764484D02*
X5979586Y-10764484D01*
X5979586Y-10764484D02*
X5998634Y-10774008D01*
X5998634Y-10774008D02*
X6008158Y-10783531D01*
X6008158Y-10783531D02*
X6017682Y-10802579D01*
X6017682Y-10802579D02*
X6027205Y-10840674D01*
X6027205Y-10840674D02*
X6027205Y-10888293D01*
X6027205Y-10888293D02*
X6017682Y-10926389D01*
X6017682Y-10926389D02*
X6008158Y-10945436D01*
X6008158Y-10945436D02*
X5998634Y-10954960D01*
X5998634Y-10954960D02*
X5979586Y-10964484D01*
X5979586Y-10964484D02*
X5960539Y-10964484D01*
X5960539Y-10964484D02*
X5941491Y-10954960D01*
X5941491Y-10954960D02*
X5931967Y-10945436D01*
X5931967Y-10945436D02*
X5922443Y-10926389D01*
X5922443Y-10926389D02*
X5912920Y-10888293D01*
X5912920Y-10888293D02*
X5912920Y-10840674D01*
X5912920Y-10840674D02*
X5922443Y-10802579D01*
X5922443Y-10802579D02*
X5931967Y-10783531D01*
X5931967Y-10783531D02*
X5941491Y-10774008D01*
X5941491Y-10774008D02*
X5960539Y-10764484D01*
X6112920Y-10964484D02*
X6112920Y-10831150D01*
X6112920Y-10850198D02*
X6122443Y-10840674D01*
X6122443Y-10840674D02*
X6141491Y-10831150D01*
X6141491Y-10831150D02*
X6170063Y-10831150D01*
X6170063Y-10831150D02*
X6189110Y-10840674D01*
X6189110Y-10840674D02*
X6198634Y-10859722D01*
X6198634Y-10859722D02*
X6198634Y-10964484D01*
X6198634Y-10859722D02*
X6208158Y-10840674D01*
X6208158Y-10840674D02*
X6227205Y-10831150D01*
X6227205Y-10831150D02*
X6255777Y-10831150D01*
X6255777Y-10831150D02*
X6274824Y-10840674D01*
X6274824Y-10840674D02*
X6284348Y-10859722D01*
X6284348Y-10859722D02*
X6284348Y-10964484D01*
X6379586Y-10964484D02*
X6379586Y-10831150D01*
X6379586Y-10850198D02*
X6389110Y-10840674D01*
X6389110Y-10840674D02*
X6408158Y-10831150D01*
X6408158Y-10831150D02*
X6436729Y-10831150D01*
X6436729Y-10831150D02*
X6455777Y-10840674D01*
X6455777Y-10840674D02*
X6465301Y-10859722D01*
X6465301Y-10859722D02*
X6465301Y-10964484D01*
X6465301Y-10859722D02*
X6474824Y-10840674D01*
X6474824Y-10840674D02*
X6493872Y-10831150D01*
X6493872Y-10831150D02*
X6522443Y-10831150D01*
X6522443Y-10831150D02*
X6541491Y-10840674D01*
X6541491Y-10840674D02*
X6551015Y-10859722D01*
X6551015Y-10859722D02*
X6551015Y-10964484D01*
X6941491Y-10754960D02*
X6770063Y-11012103D01*
X7198634Y-10764484D02*
X7217682Y-10764484D01*
X7217682Y-10764484D02*
X7236729Y-10774008D01*
X7236729Y-10774008D02*
X7246253Y-10783531D01*
X7246253Y-10783531D02*
X7255777Y-10802579D01*
X7255777Y-10802579D02*
X7265301Y-10840674D01*
X7265301Y-10840674D02*
X7265301Y-10888293D01*
X7265301Y-10888293D02*
X7255777Y-10926389D01*
X7255777Y-10926389D02*
X7246253Y-10945436D01*
X7246253Y-10945436D02*
X7236729Y-10954960D01*
X7236729Y-10954960D02*
X7217682Y-10964484D01*
X7217682Y-10964484D02*
X7198634Y-10964484D01*
X7198634Y-10964484D02*
X7179586Y-10954960D01*
X7179586Y-10954960D02*
X7170063Y-10945436D01*
X7170063Y-10945436D02*
X7160539Y-10926389D01*
X7160539Y-10926389D02*
X7151015Y-10888293D01*
X7151015Y-10888293D02*
X7151015Y-10840674D01*
X7151015Y-10840674D02*
X7160539Y-10802579D01*
X7160539Y-10802579D02*
X7170063Y-10783531D01*
X7170063Y-10783531D02*
X7179586Y-10774008D01*
X7179586Y-10774008D02*
X7198634Y-10764484D01*
X7351015Y-10945436D02*
X7360539Y-10954960D01*
X7360539Y-10954960D02*
X7351015Y-10964484D01*
X7351015Y-10964484D02*
X7341491Y-10954960D01*
X7341491Y-10954960D02*
X7351015Y-10945436D01*
X7351015Y-10945436D02*
X7351015Y-10964484D01*
X7484348Y-10764484D02*
X7503396Y-10764484D01*
X7503396Y-10764484D02*
X7522444Y-10774008D01*
X7522444Y-10774008D02*
X7531967Y-10783531D01*
X7531967Y-10783531D02*
X7541491Y-10802579D01*
X7541491Y-10802579D02*
X7551015Y-10840674D01*
X7551015Y-10840674D02*
X7551015Y-10888293D01*
X7551015Y-10888293D02*
X7541491Y-10926389D01*
X7541491Y-10926389D02*
X7531967Y-10945436D01*
X7531967Y-10945436D02*
X7522444Y-10954960D01*
X7522444Y-10954960D02*
X7503396Y-10964484D01*
X7503396Y-10964484D02*
X7484348Y-10964484D01*
X7484348Y-10964484D02*
X7465301Y-10954960D01*
X7465301Y-10954960D02*
X7455777Y-10945436D01*
X7455777Y-10945436D02*
X7446253Y-10926389D01*
X7446253Y-10926389D02*
X7436729Y-10888293D01*
X7436729Y-10888293D02*
X7436729Y-10840674D01*
X7436729Y-10840674D02*
X7446253Y-10802579D01*
X7446253Y-10802579D02*
X7455777Y-10783531D01*
X7455777Y-10783531D02*
X7465301Y-10774008D01*
X7465301Y-10774008D02*
X7484348Y-10764484D01*
X7617682Y-10764484D02*
X7741491Y-10764484D01*
X7741491Y-10764484D02*
X7674825Y-10840674D01*
X7674825Y-10840674D02*
X7703396Y-10840674D01*
X7703396Y-10840674D02*
X7722444Y-10850198D01*
X7722444Y-10850198D02*
X7731967Y-10859722D01*
X7731967Y-10859722D02*
X7741491Y-10878770D01*
X7741491Y-10878770D02*
X7741491Y-10926389D01*
X7741491Y-10926389D02*
X7731967Y-10945436D01*
X7731967Y-10945436D02*
X7722444Y-10954960D01*
X7722444Y-10954960D02*
X7703396Y-10964484D01*
X7703396Y-10964484D02*
X7646253Y-10964484D01*
X7646253Y-10964484D02*
X7627206Y-10954960D01*
X7627206Y-10954960D02*
X7617682Y-10945436D01*
X7836729Y-10964484D02*
X7874825Y-10964484D01*
X7874825Y-10964484D02*
X7893872Y-10954960D01*
X7893872Y-10954960D02*
X7903396Y-10945436D01*
X7903396Y-10945436D02*
X7922444Y-10916865D01*
X7922444Y-10916865D02*
X7931967Y-10878770D01*
X7931967Y-10878770D02*
X7931967Y-10802579D01*
X7931967Y-10802579D02*
X7922444Y-10783531D01*
X7922444Y-10783531D02*
X7912920Y-10774008D01*
X7912920Y-10774008D02*
X7893872Y-10764484D01*
X7893872Y-10764484D02*
X7855777Y-10764484D01*
X7855777Y-10764484D02*
X7836729Y-10774008D01*
X7836729Y-10774008D02*
X7827206Y-10783531D01*
X7827206Y-10783531D02*
X7817682Y-10802579D01*
X7817682Y-10802579D02*
X7817682Y-10850198D01*
X7817682Y-10850198D02*
X7827206Y-10869246D01*
X7827206Y-10869246D02*
X7836729Y-10878770D01*
X7836729Y-10878770D02*
X7855777Y-10888293D01*
X7855777Y-10888293D02*
X7893872Y-10888293D01*
X7893872Y-10888293D02*
X7912920Y-10878770D01*
X7912920Y-10878770D02*
X7922444Y-10869246D01*
X7922444Y-10869246D02*
X7931967Y-10850198D01*
X8103396Y-10831150D02*
X8103396Y-10964484D01*
X8055777Y-10754960D02*
X8008158Y-10897817D01*
X8008158Y-10897817D02*
X8131967Y-10897817D01*
X8198634Y-10764484D02*
X8198634Y-10802579D01*
X8274825Y-10764484D02*
X8274825Y-10802579D01*
X8570063Y-11040674D02*
X8560539Y-11031150D01*
X8560539Y-11031150D02*
X8541491Y-11002579D01*
X8541491Y-11002579D02*
X8531968Y-10983531D01*
X8531968Y-10983531D02*
X8522444Y-10954960D01*
X8522444Y-10954960D02*
X8512920Y-10907341D01*
X8512920Y-10907341D02*
X8512920Y-10869246D01*
X8512920Y-10869246D02*
X8522444Y-10821627D01*
X8522444Y-10821627D02*
X8531968Y-10793055D01*
X8531968Y-10793055D02*
X8541491Y-10774008D01*
X8541491Y-10774008D02*
X8560539Y-10745436D01*
X8560539Y-10745436D02*
X8570063Y-10735912D01*
X8731968Y-10764484D02*
X8693872Y-10764484D01*
X8693872Y-10764484D02*
X8674825Y-10774008D01*
X8674825Y-10774008D02*
X8665301Y-10783531D01*
X8665301Y-10783531D02*
X8646253Y-10812103D01*
X8646253Y-10812103D02*
X8636730Y-10850198D01*
X8636730Y-10850198D02*
X8636730Y-10926389D01*
X8636730Y-10926389D02*
X8646253Y-10945436D01*
X8646253Y-10945436D02*
X8655777Y-10954960D01*
X8655777Y-10954960D02*
X8674825Y-10964484D01*
X8674825Y-10964484D02*
X8712920Y-10964484D01*
X8712920Y-10964484D02*
X8731968Y-10954960D01*
X8731968Y-10954960D02*
X8741491Y-10945436D01*
X8741491Y-10945436D02*
X8751015Y-10926389D01*
X8751015Y-10926389D02*
X8751015Y-10878770D01*
X8751015Y-10878770D02*
X8741491Y-10859722D01*
X8741491Y-10859722D02*
X8731968Y-10850198D01*
X8731968Y-10850198D02*
X8712920Y-10840674D01*
X8712920Y-10840674D02*
X8674825Y-10840674D01*
X8674825Y-10840674D02*
X8655777Y-10850198D01*
X8655777Y-10850198D02*
X8646253Y-10859722D01*
X8646253Y-10859722D02*
X8636730Y-10878770D01*
X8989111Y-10964484D02*
X8989111Y-10764484D01*
X9074825Y-10964484D02*
X9074825Y-10859722D01*
X9074825Y-10859722D02*
X9065301Y-10840674D01*
X9065301Y-10840674D02*
X9046253Y-10831150D01*
X9046253Y-10831150D02*
X9017682Y-10831150D01*
X9017682Y-10831150D02*
X8998634Y-10840674D01*
X8998634Y-10840674D02*
X8989111Y-10850198D01*
X9198634Y-10964484D02*
X9179587Y-10954960D01*
X9179587Y-10954960D02*
X9170063Y-10945436D01*
X9170063Y-10945436D02*
X9160539Y-10926389D01*
X9160539Y-10926389D02*
X9160539Y-10869246D01*
X9160539Y-10869246D02*
X9170063Y-10850198D01*
X9170063Y-10850198D02*
X9179587Y-10840674D01*
X9179587Y-10840674D02*
X9198634Y-10831150D01*
X9198634Y-10831150D02*
X9227206Y-10831150D01*
X9227206Y-10831150D02*
X9246253Y-10840674D01*
X9246253Y-10840674D02*
X9255777Y-10850198D01*
X9255777Y-10850198D02*
X9265301Y-10869246D01*
X9265301Y-10869246D02*
X9265301Y-10926389D01*
X9265301Y-10926389D02*
X9255777Y-10945436D01*
X9255777Y-10945436D02*
X9246253Y-10954960D01*
X9246253Y-10954960D02*
X9227206Y-10964484D01*
X9227206Y-10964484D02*
X9198634Y-10964484D01*
X9379587Y-10964484D02*
X9360539Y-10954960D01*
X9360539Y-10954960D02*
X9351015Y-10935912D01*
X9351015Y-10935912D02*
X9351015Y-10764484D01*
X9531968Y-10954960D02*
X9512920Y-10964484D01*
X9512920Y-10964484D02*
X9474825Y-10964484D01*
X9474825Y-10964484D02*
X9455777Y-10954960D01*
X9455777Y-10954960D02*
X9446253Y-10935912D01*
X9446253Y-10935912D02*
X9446253Y-10859722D01*
X9446253Y-10859722D02*
X9455777Y-10840674D01*
X9455777Y-10840674D02*
X9474825Y-10831150D01*
X9474825Y-10831150D02*
X9512920Y-10831150D01*
X9512920Y-10831150D02*
X9531968Y-10840674D01*
X9531968Y-10840674D02*
X9541492Y-10859722D01*
X9541492Y-10859722D02*
X9541492Y-10878770D01*
X9541492Y-10878770D02*
X9446253Y-10897817D01*
X9617682Y-10954960D02*
X9636730Y-10964484D01*
X9636730Y-10964484D02*
X9674825Y-10964484D01*
X9674825Y-10964484D02*
X9693873Y-10954960D01*
X9693873Y-10954960D02*
X9703396Y-10935912D01*
X9703396Y-10935912D02*
X9703396Y-10926389D01*
X9703396Y-10926389D02*
X9693873Y-10907341D01*
X9693873Y-10907341D02*
X9674825Y-10897817D01*
X9674825Y-10897817D02*
X9646253Y-10897817D01*
X9646253Y-10897817D02*
X9627206Y-10888293D01*
X9627206Y-10888293D02*
X9617682Y-10869246D01*
X9617682Y-10869246D02*
X9617682Y-10859722D01*
X9617682Y-10859722D02*
X9627206Y-10840674D01*
X9627206Y-10840674D02*
X9646253Y-10831150D01*
X9646253Y-10831150D02*
X9674825Y-10831150D01*
X9674825Y-10831150D02*
X9693873Y-10840674D01*
X9770063Y-11040674D02*
X9779587Y-11031150D01*
X9779587Y-11031150D02*
X9798634Y-11002579D01*
X9798634Y-11002579D02*
X9808158Y-10983531D01*
X9808158Y-10983531D02*
X9817682Y-10954960D01*
X9817682Y-10954960D02*
X9827206Y-10907341D01*
X9827206Y-10907341D02*
X9827206Y-10869246D01*
X9827206Y-10869246D02*
X9817682Y-10821627D01*
X9817682Y-10821627D02*
X9808158Y-10793055D01*
X9808158Y-10793055D02*
X9798634Y-10774008D01*
X9798634Y-10774008D02*
X9779587Y-10745436D01*
X9779587Y-10745436D02*
X9770063Y-10735912D01*
X4965711Y-11207711D02*
X4965711Y-11066289D01*
X4824289Y-11066289D01*
X4824289Y-11207711D01*
X4965711Y-11207711D01*
X5236729Y-11028484D02*
X5360539Y-11028484D01*
X5360539Y-11028484D02*
X5293872Y-11104674D01*
X5293872Y-11104674D02*
X5322444Y-11104674D01*
X5322444Y-11104674D02*
X5341491Y-11114198D01*
X5341491Y-11114198D02*
X5351015Y-11123722D01*
X5351015Y-11123722D02*
X5360539Y-11142770D01*
X5360539Y-11142770D02*
X5360539Y-11190388D01*
X5360539Y-11190388D02*
X5351015Y-11209436D01*
X5351015Y-11209436D02*
X5341491Y-11218960D01*
X5341491Y-11218960D02*
X5322444Y-11228484D01*
X5322444Y-11228484D02*
X5265301Y-11228484D01*
X5265301Y-11228484D02*
X5246253Y-11218960D01*
X5246253Y-11218960D02*
X5236729Y-11209436D01*
X5446253Y-11209436D02*
X5455777Y-11218960D01*
X5455777Y-11218960D02*
X5446253Y-11228484D01*
X5446253Y-11228484D02*
X5436729Y-11218960D01*
X5436729Y-11218960D02*
X5446253Y-11209436D01*
X5446253Y-11209436D02*
X5446253Y-11228484D01*
X5531967Y-11047531D02*
X5541491Y-11038008D01*
X5541491Y-11038008D02*
X5560539Y-11028484D01*
X5560539Y-11028484D02*
X5608158Y-11028484D01*
X5608158Y-11028484D02*
X5627205Y-11038008D01*
X5627205Y-11038008D02*
X5636729Y-11047531D01*
X5636729Y-11047531D02*
X5646253Y-11066579D01*
X5646253Y-11066579D02*
X5646253Y-11085627D01*
X5646253Y-11085627D02*
X5636729Y-11114198D01*
X5636729Y-11114198D02*
X5522444Y-11228484D01*
X5522444Y-11228484D02*
X5646253Y-11228484D01*
X5770062Y-11028484D02*
X5789110Y-11028484D01*
X5789110Y-11028484D02*
X5808158Y-11038008D01*
X5808158Y-11038008D02*
X5817682Y-11047531D01*
X5817682Y-11047531D02*
X5827205Y-11066579D01*
X5827205Y-11066579D02*
X5836729Y-11104674D01*
X5836729Y-11104674D02*
X5836729Y-11152293D01*
X5836729Y-11152293D02*
X5827205Y-11190388D01*
X5827205Y-11190388D02*
X5817682Y-11209436D01*
X5817682Y-11209436D02*
X5808158Y-11218960D01*
X5808158Y-11218960D02*
X5789110Y-11228484D01*
X5789110Y-11228484D02*
X5770062Y-11228484D01*
X5770062Y-11228484D02*
X5751015Y-11218960D01*
X5751015Y-11218960D02*
X5741491Y-11209436D01*
X5741491Y-11209436D02*
X5731967Y-11190388D01*
X5731967Y-11190388D02*
X5722443Y-11152293D01*
X5722443Y-11152293D02*
X5722443Y-11104674D01*
X5722443Y-11104674D02*
X5731967Y-11066579D01*
X5731967Y-11066579D02*
X5741491Y-11047531D01*
X5741491Y-11047531D02*
X5751015Y-11038008D01*
X5751015Y-11038008D02*
X5770062Y-11028484D01*
X5960539Y-11028484D02*
X5979586Y-11028484D01*
X5979586Y-11028484D02*
X5998634Y-11038008D01*
X5998634Y-11038008D02*
X6008158Y-11047531D01*
X6008158Y-11047531D02*
X6017682Y-11066579D01*
X6017682Y-11066579D02*
X6027205Y-11104674D01*
X6027205Y-11104674D02*
X6027205Y-11152293D01*
X6027205Y-11152293D02*
X6017682Y-11190388D01*
X6017682Y-11190388D02*
X6008158Y-11209436D01*
X6008158Y-11209436D02*
X5998634Y-11218960D01*
X5998634Y-11218960D02*
X5979586Y-11228484D01*
X5979586Y-11228484D02*
X5960539Y-11228484D01*
X5960539Y-11228484D02*
X5941491Y-11218960D01*
X5941491Y-11218960D02*
X5931967Y-11209436D01*
X5931967Y-11209436D02*
X5922443Y-11190388D01*
X5922443Y-11190388D02*
X5912920Y-11152293D01*
X5912920Y-11152293D02*
X5912920Y-11104674D01*
X5912920Y-11104674D02*
X5922443Y-11066579D01*
X5922443Y-11066579D02*
X5931967Y-11047531D01*
X5931967Y-11047531D02*
X5941491Y-11038008D01*
X5941491Y-11038008D02*
X5960539Y-11028484D01*
X6112920Y-11228484D02*
X6112920Y-11095150D01*
X6112920Y-11114198D02*
X6122443Y-11104674D01*
X6122443Y-11104674D02*
X6141491Y-11095150D01*
X6141491Y-11095150D02*
X6170063Y-11095150D01*
X6170063Y-11095150D02*
X6189110Y-11104674D01*
X6189110Y-11104674D02*
X6198634Y-11123722D01*
X6198634Y-11123722D02*
X6198634Y-11228484D01*
X6198634Y-11123722D02*
X6208158Y-11104674D01*
X6208158Y-11104674D02*
X6227205Y-11095150D01*
X6227205Y-11095150D02*
X6255777Y-11095150D01*
X6255777Y-11095150D02*
X6274824Y-11104674D01*
X6274824Y-11104674D02*
X6284348Y-11123722D01*
X6284348Y-11123722D02*
X6284348Y-11228484D01*
X6379586Y-11228484D02*
X6379586Y-11095150D01*
X6379586Y-11114198D02*
X6389110Y-11104674D01*
X6389110Y-11104674D02*
X6408158Y-11095150D01*
X6408158Y-11095150D02*
X6436729Y-11095150D01*
X6436729Y-11095150D02*
X6455777Y-11104674D01*
X6455777Y-11104674D02*
X6465301Y-11123722D01*
X6465301Y-11123722D02*
X6465301Y-11228484D01*
X6465301Y-11123722D02*
X6474824Y-11104674D01*
X6474824Y-11104674D02*
X6493872Y-11095150D01*
X6493872Y-11095150D02*
X6522443Y-11095150D01*
X6522443Y-11095150D02*
X6541491Y-11104674D01*
X6541491Y-11104674D02*
X6551015Y-11123722D01*
X6551015Y-11123722D02*
X6551015Y-11228484D01*
X6941491Y-11018960D02*
X6770063Y-11276103D01*
X7198634Y-11028484D02*
X7217682Y-11028484D01*
X7217682Y-11028484D02*
X7236729Y-11038008D01*
X7236729Y-11038008D02*
X7246253Y-11047531D01*
X7246253Y-11047531D02*
X7255777Y-11066579D01*
X7255777Y-11066579D02*
X7265301Y-11104674D01*
X7265301Y-11104674D02*
X7265301Y-11152293D01*
X7265301Y-11152293D02*
X7255777Y-11190388D01*
X7255777Y-11190388D02*
X7246253Y-11209436D01*
X7246253Y-11209436D02*
X7236729Y-11218960D01*
X7236729Y-11218960D02*
X7217682Y-11228484D01*
X7217682Y-11228484D02*
X7198634Y-11228484D01*
X7198634Y-11228484D02*
X7179586Y-11218960D01*
X7179586Y-11218960D02*
X7170063Y-11209436D01*
X7170063Y-11209436D02*
X7160539Y-11190388D01*
X7160539Y-11190388D02*
X7151015Y-11152293D01*
X7151015Y-11152293D02*
X7151015Y-11104674D01*
X7151015Y-11104674D02*
X7160539Y-11066579D01*
X7160539Y-11066579D02*
X7170063Y-11047531D01*
X7170063Y-11047531D02*
X7179586Y-11038008D01*
X7179586Y-11038008D02*
X7198634Y-11028484D01*
X7351015Y-11209436D02*
X7360539Y-11218960D01*
X7360539Y-11218960D02*
X7351015Y-11228484D01*
X7351015Y-11228484D02*
X7341491Y-11218960D01*
X7341491Y-11218960D02*
X7351015Y-11209436D01*
X7351015Y-11209436D02*
X7351015Y-11228484D01*
X7551015Y-11228484D02*
X7436729Y-11228484D01*
X7493872Y-11228484D02*
X7493872Y-11028484D01*
X7493872Y-11028484D02*
X7474825Y-11057055D01*
X7474825Y-11057055D02*
X7455777Y-11076103D01*
X7455777Y-11076103D02*
X7436729Y-11085627D01*
X7627206Y-11047531D02*
X7636729Y-11038008D01*
X7636729Y-11038008D02*
X7655777Y-11028484D01*
X7655777Y-11028484D02*
X7703396Y-11028484D01*
X7703396Y-11028484D02*
X7722444Y-11038008D01*
X7722444Y-11038008D02*
X7731967Y-11047531D01*
X7731967Y-11047531D02*
X7741491Y-11066579D01*
X7741491Y-11066579D02*
X7741491Y-11085627D01*
X7741491Y-11085627D02*
X7731967Y-11114198D01*
X7731967Y-11114198D02*
X7617682Y-11228484D01*
X7617682Y-11228484D02*
X7741491Y-11228484D01*
X7912920Y-11028484D02*
X7874825Y-11028484D01*
X7874825Y-11028484D02*
X7855777Y-11038008D01*
X7855777Y-11038008D02*
X7846253Y-11047531D01*
X7846253Y-11047531D02*
X7827206Y-11076103D01*
X7827206Y-11076103D02*
X7817682Y-11114198D01*
X7817682Y-11114198D02*
X7817682Y-11190388D01*
X7817682Y-11190388D02*
X7827206Y-11209436D01*
X7827206Y-11209436D02*
X7836729Y-11218960D01*
X7836729Y-11218960D02*
X7855777Y-11228484D01*
X7855777Y-11228484D02*
X7893872Y-11228484D01*
X7893872Y-11228484D02*
X7912920Y-11218960D01*
X7912920Y-11218960D02*
X7922444Y-11209436D01*
X7922444Y-11209436D02*
X7931967Y-11190388D01*
X7931967Y-11190388D02*
X7931967Y-11142770D01*
X7931967Y-11142770D02*
X7922444Y-11123722D01*
X7922444Y-11123722D02*
X7912920Y-11114198D01*
X7912920Y-11114198D02*
X7893872Y-11104674D01*
X7893872Y-11104674D02*
X7855777Y-11104674D01*
X7855777Y-11104674D02*
X7836729Y-11114198D01*
X7836729Y-11114198D02*
X7827206Y-11123722D01*
X7827206Y-11123722D02*
X7817682Y-11142770D01*
X8055777Y-11028484D02*
X8074825Y-11028484D01*
X8074825Y-11028484D02*
X8093872Y-11038008D01*
X8093872Y-11038008D02*
X8103396Y-11047531D01*
X8103396Y-11047531D02*
X8112920Y-11066579D01*
X8112920Y-11066579D02*
X8122444Y-11104674D01*
X8122444Y-11104674D02*
X8122444Y-11152293D01*
X8122444Y-11152293D02*
X8112920Y-11190388D01*
X8112920Y-11190388D02*
X8103396Y-11209436D01*
X8103396Y-11209436D02*
X8093872Y-11218960D01*
X8093872Y-11218960D02*
X8074825Y-11228484D01*
X8074825Y-11228484D02*
X8055777Y-11228484D01*
X8055777Y-11228484D02*
X8036729Y-11218960D01*
X8036729Y-11218960D02*
X8027206Y-11209436D01*
X8027206Y-11209436D02*
X8017682Y-11190388D01*
X8017682Y-11190388D02*
X8008158Y-11152293D01*
X8008158Y-11152293D02*
X8008158Y-11104674D01*
X8008158Y-11104674D02*
X8017682Y-11066579D01*
X8017682Y-11066579D02*
X8027206Y-11047531D01*
X8027206Y-11047531D02*
X8036729Y-11038008D01*
X8036729Y-11038008D02*
X8055777Y-11028484D01*
X8198634Y-11028484D02*
X8198634Y-11066579D01*
X8274825Y-11028484D02*
X8274825Y-11066579D01*
X8570063Y-11304674D02*
X8560539Y-11295150D01*
X8560539Y-11295150D02*
X8541491Y-11266579D01*
X8541491Y-11266579D02*
X8531968Y-11247531D01*
X8531968Y-11247531D02*
X8522444Y-11218960D01*
X8522444Y-11218960D02*
X8512920Y-11171341D01*
X8512920Y-11171341D02*
X8512920Y-11133246D01*
X8512920Y-11133246D02*
X8522444Y-11085627D01*
X8522444Y-11085627D02*
X8531968Y-11057055D01*
X8531968Y-11057055D02*
X8541491Y-11038008D01*
X8541491Y-11038008D02*
X8560539Y-11009436D01*
X8560539Y-11009436D02*
X8570063Y-10999912D01*
X8731968Y-11095150D02*
X8731968Y-11228484D01*
X8684349Y-11018960D02*
X8636730Y-11161817D01*
X8636730Y-11161817D02*
X8760539Y-11161817D01*
X8989111Y-11228484D02*
X8989111Y-11028484D01*
X9074825Y-11228484D02*
X9074825Y-11123722D01*
X9074825Y-11123722D02*
X9065301Y-11104674D01*
X9065301Y-11104674D02*
X9046253Y-11095150D01*
X9046253Y-11095150D02*
X9017682Y-11095150D01*
X9017682Y-11095150D02*
X8998634Y-11104674D01*
X8998634Y-11104674D02*
X8989111Y-11114198D01*
X9198634Y-11228484D02*
X9179587Y-11218960D01*
X9179587Y-11218960D02*
X9170063Y-11209436D01*
X9170063Y-11209436D02*
X9160539Y-11190388D01*
X9160539Y-11190388D02*
X9160539Y-11133246D01*
X9160539Y-11133246D02*
X9170063Y-11114198D01*
X9170063Y-11114198D02*
X9179587Y-11104674D01*
X9179587Y-11104674D02*
X9198634Y-11095150D01*
X9198634Y-11095150D02*
X9227206Y-11095150D01*
X9227206Y-11095150D02*
X9246253Y-11104674D01*
X9246253Y-11104674D02*
X9255777Y-11114198D01*
X9255777Y-11114198D02*
X9265301Y-11133246D01*
X9265301Y-11133246D02*
X9265301Y-11190388D01*
X9265301Y-11190388D02*
X9255777Y-11209436D01*
X9255777Y-11209436D02*
X9246253Y-11218960D01*
X9246253Y-11218960D02*
X9227206Y-11228484D01*
X9227206Y-11228484D02*
X9198634Y-11228484D01*
X9379587Y-11228484D02*
X9360539Y-11218960D01*
X9360539Y-11218960D02*
X9351015Y-11199912D01*
X9351015Y-11199912D02*
X9351015Y-11028484D01*
X9531968Y-11218960D02*
X9512920Y-11228484D01*
X9512920Y-11228484D02*
X9474825Y-11228484D01*
X9474825Y-11228484D02*
X9455777Y-11218960D01*
X9455777Y-11218960D02*
X9446253Y-11199912D01*
X9446253Y-11199912D02*
X9446253Y-11123722D01*
X9446253Y-11123722D02*
X9455777Y-11104674D01*
X9455777Y-11104674D02*
X9474825Y-11095150D01*
X9474825Y-11095150D02*
X9512920Y-11095150D01*
X9512920Y-11095150D02*
X9531968Y-11104674D01*
X9531968Y-11104674D02*
X9541492Y-11123722D01*
X9541492Y-11123722D02*
X9541492Y-11142770D01*
X9541492Y-11142770D02*
X9446253Y-11161817D01*
X9617682Y-11218960D02*
X9636730Y-11228484D01*
X9636730Y-11228484D02*
X9674825Y-11228484D01*
X9674825Y-11228484D02*
X9693873Y-11218960D01*
X9693873Y-11218960D02*
X9703396Y-11199912D01*
X9703396Y-11199912D02*
X9703396Y-11190388D01*
X9703396Y-11190388D02*
X9693873Y-11171341D01*
X9693873Y-11171341D02*
X9674825Y-11161817D01*
X9674825Y-11161817D02*
X9646253Y-11161817D01*
X9646253Y-11161817D02*
X9627206Y-11152293D01*
X9627206Y-11152293D02*
X9617682Y-11133246D01*
X9617682Y-11133246D02*
X9617682Y-11123722D01*
X9617682Y-11123722D02*
X9627206Y-11104674D01*
X9627206Y-11104674D02*
X9646253Y-11095150D01*
X9646253Y-11095150D02*
X9674825Y-11095150D01*
X9674825Y-11095150D02*
X9693873Y-11104674D01*
X9770063Y-11304674D02*
X9779587Y-11295150D01*
X9779587Y-11295150D02*
X9798634Y-11266579D01*
X9798634Y-11266579D02*
X9808158Y-11247531D01*
X9808158Y-11247531D02*
X9817682Y-11218960D01*
X9817682Y-11218960D02*
X9827206Y-11171341D01*
X9827206Y-11171341D02*
X9827206Y-11133246D01*
X9827206Y-11133246D02*
X9817682Y-11085627D01*
X9817682Y-11085627D02*
X9808158Y-11057055D01*
X9808158Y-11057055D02*
X9798634Y-11038008D01*
X9798634Y-11038008D02*
X9779587Y-11009436D01*
X9779587Y-11009436D02*
X9770063Y-10999912D01*
X10131968Y-11304674D02*
X10122444Y-11295150D01*
X10122444Y-11295150D02*
X10103396Y-11266579D01*
X10103396Y-11266579D02*
X10093873Y-11247531D01*
X10093873Y-11247531D02*
X10084349Y-11218960D01*
X10084349Y-11218960D02*
X10074825Y-11171341D01*
X10074825Y-11171341D02*
X10074825Y-11133246D01*
X10074825Y-11133246D02*
X10084349Y-11085627D01*
X10084349Y-11085627D02*
X10093873Y-11057055D01*
X10093873Y-11057055D02*
X10103396Y-11038008D01*
X10103396Y-11038008D02*
X10122444Y-11009436D01*
X10122444Y-11009436D02*
X10131968Y-10999912D01*
X10208158Y-11095150D02*
X10208158Y-11228484D01*
X10208158Y-11114198D02*
X10217682Y-11104674D01*
X10217682Y-11104674D02*
X10236730Y-11095150D01*
X10236730Y-11095150D02*
X10265301Y-11095150D01*
X10265301Y-11095150D02*
X10284349Y-11104674D01*
X10284349Y-11104674D02*
X10293873Y-11123722D01*
X10293873Y-11123722D02*
X10293873Y-11228484D01*
X10417682Y-11228484D02*
X10398634Y-11218960D01*
X10398634Y-11218960D02*
X10389111Y-11209436D01*
X10389111Y-11209436D02*
X10379587Y-11190388D01*
X10379587Y-11190388D02*
X10379587Y-11133246D01*
X10379587Y-11133246D02*
X10389111Y-11114198D01*
X10389111Y-11114198D02*
X10398634Y-11104674D01*
X10398634Y-11104674D02*
X10417682Y-11095150D01*
X10417682Y-11095150D02*
X10446254Y-11095150D01*
X10446254Y-11095150D02*
X10465301Y-11104674D01*
X10465301Y-11104674D02*
X10474825Y-11114198D01*
X10474825Y-11114198D02*
X10484349Y-11133246D01*
X10484349Y-11133246D02*
X10484349Y-11190388D01*
X10484349Y-11190388D02*
X10474825Y-11209436D01*
X10474825Y-11209436D02*
X10465301Y-11218960D01*
X10465301Y-11218960D02*
X10446254Y-11228484D01*
X10446254Y-11228484D02*
X10417682Y-11228484D01*
X10541492Y-11095150D02*
X10617682Y-11095150D01*
X10570063Y-11028484D02*
X10570063Y-11199912D01*
X10570063Y-11199912D02*
X10579587Y-11218960D01*
X10579587Y-11218960D02*
X10598634Y-11228484D01*
X10598634Y-11228484D02*
X10617682Y-11228484D01*
X10836730Y-11095150D02*
X10836730Y-11295150D01*
X10836730Y-11104674D02*
X10855777Y-11095150D01*
X10855777Y-11095150D02*
X10893873Y-11095150D01*
X10893873Y-11095150D02*
X10912920Y-11104674D01*
X10912920Y-11104674D02*
X10922444Y-11114198D01*
X10922444Y-11114198D02*
X10931968Y-11133246D01*
X10931968Y-11133246D02*
X10931968Y-11190388D01*
X10931968Y-11190388D02*
X10922444Y-11209436D01*
X10922444Y-11209436D02*
X10912920Y-11218960D01*
X10912920Y-11218960D02*
X10893873Y-11228484D01*
X10893873Y-11228484D02*
X10855777Y-11228484D01*
X10855777Y-11228484D02*
X10836730Y-11218960D01*
X11046254Y-11228484D02*
X11027206Y-11218960D01*
X11027206Y-11218960D02*
X11017682Y-11199912D01*
X11017682Y-11199912D02*
X11017682Y-11028484D01*
X11208158Y-11228484D02*
X11208158Y-11123722D01*
X11208158Y-11123722D02*
X11198634Y-11104674D01*
X11198634Y-11104674D02*
X11179587Y-11095150D01*
X11179587Y-11095150D02*
X11141492Y-11095150D01*
X11141492Y-11095150D02*
X11122444Y-11104674D01*
X11208158Y-11218960D02*
X11189111Y-11228484D01*
X11189111Y-11228484D02*
X11141492Y-11228484D01*
X11141492Y-11228484D02*
X11122444Y-11218960D01*
X11122444Y-11218960D02*
X11112920Y-11199912D01*
X11112920Y-11199912D02*
X11112920Y-11180865D01*
X11112920Y-11180865D02*
X11122444Y-11161817D01*
X11122444Y-11161817D02*
X11141492Y-11152293D01*
X11141492Y-11152293D02*
X11189111Y-11152293D01*
X11189111Y-11152293D02*
X11208158Y-11142770D01*
X11274825Y-11095150D02*
X11351015Y-11095150D01*
X11303396Y-11028484D02*
X11303396Y-11199912D01*
X11303396Y-11199912D02*
X11312920Y-11218960D01*
X11312920Y-11218960D02*
X11331968Y-11228484D01*
X11331968Y-11228484D02*
X11351015Y-11228484D01*
X11493873Y-11218960D02*
X11474825Y-11228484D01*
X11474825Y-11228484D02*
X11436730Y-11228484D01*
X11436730Y-11228484D02*
X11417682Y-11218960D01*
X11417682Y-11218960D02*
X11408158Y-11199912D01*
X11408158Y-11199912D02*
X11408158Y-11123722D01*
X11408158Y-11123722D02*
X11417682Y-11104674D01*
X11417682Y-11104674D02*
X11436730Y-11095150D01*
X11436730Y-11095150D02*
X11474825Y-11095150D01*
X11474825Y-11095150D02*
X11493873Y-11104674D01*
X11493873Y-11104674D02*
X11503396Y-11123722D01*
X11503396Y-11123722D02*
X11503396Y-11142770D01*
X11503396Y-11142770D02*
X11408158Y-11161817D01*
X11674825Y-11228484D02*
X11674825Y-11028484D01*
X11674825Y-11218960D02*
X11655777Y-11228484D01*
X11655777Y-11228484D02*
X11617682Y-11228484D01*
X11617682Y-11228484D02*
X11598634Y-11218960D01*
X11598634Y-11218960D02*
X11589111Y-11209436D01*
X11589111Y-11209436D02*
X11579587Y-11190388D01*
X11579587Y-11190388D02*
X11579587Y-11133246D01*
X11579587Y-11133246D02*
X11589111Y-11114198D01*
X11589111Y-11114198D02*
X11598634Y-11104674D01*
X11598634Y-11104674D02*
X11617682Y-11095150D01*
X11617682Y-11095150D02*
X11655777Y-11095150D01*
X11655777Y-11095150D02*
X11674825Y-11104674D01*
X11751015Y-11304674D02*
X11760539Y-11295150D01*
X11760539Y-11295150D02*
X11779587Y-11266579D01*
X11779587Y-11266579D02*
X11789111Y-11247531D01*
X11789111Y-11247531D02*
X11798634Y-11218960D01*
X11798634Y-11218960D02*
X11808158Y-11171341D01*
X11808158Y-11171341D02*
X11808158Y-11133246D01*
X11808158Y-11133246D02*
X11798634Y-11085627D01*
X11798634Y-11085627D02*
X11789111Y-11057055D01*
X11789111Y-11057055D02*
X11779587Y-11038008D01*
X11779587Y-11038008D02*
X11760539Y-11009436D01*
X11760539Y-11009436D02*
X11751015Y-10999912D01*
M02*
