<svg xmlns="http://www.w3.org/2000/svg" width="1160" height="440" viewBox="190 267 1160 440" preserveAspectRatio="xMinYMid meet">
<defs>
<linearGradient id="gradJRC" gradientUnits="userSpaceOnUse" x1="190" y1="0" x2="1351" y2="0">
  <stop offset="0%" stop-color="#ff1f2d"/>
  <stop offset="22%" stop-color="#ff2d6d"/>
  <stop offset="48%" stop-color="#c06af2"/>
  <stop offset="67%" stop-color="#6a54ff"/>
  <stop offset="100%" stop-color="#39a8ff"/>
</linearGradient>
</defs>
<g fill-rule="evenodd">
<path d="M635.0,268.0 L625.0,268.0 L624.0,267.0 L621.0,268.0 L488.0,268.0 L487.0,267.0 L478.0,268.0 L473.0,267.0 L472.0,268.0 L483.0,275.0 L492.0,284.0 L500.0,295.0 L506.0,312.0 L506.0,329.0 L465.0,486.0 L457.0,503.0 L452.0,510.0 L444.0,518.0 L435.0,524.0 L425.0,529.0 L410.0,533.0 L384.0,534.0 L383.0,535.0 L236.0,535.0 L190.0,616.0 L419.0,616.0 L420.0,615.0 L431.0,615.0 L458.0,611.0 L480.0,605.0 L506.0,593.0 L523.0,582.0 L547.0,559.0 L554.0,550.0 L564.0,534.0 L574.0,511.0 L586.0,468.0 L614.0,354.0 L616.0,350.0 L633.0,281.0 Z" fill="url(#gradJRC)"/>
<path d="M196.0,692.0 L281.0,692.0 L283.0,688.0 L283.0,684.0 L198.0,684.0 L196.0,688.0 Z" fill="#ff2730"/>
<path d="M322.0,668.0 L320.0,675.0 L317.0,680.0 L316.0,685.0 L314.0,688.0 L313.0,693.0 L311.0,696.0 L310.0,701.0 L308.0,704.0 L308.0,706.0 L322.0,706.0 L322.0,703.0 L323.0,702.0 L324.0,697.0 L327.0,694.0 L339.0,694.0 L345.0,700.0 L348.0,705.0 L351.0,707.0 L352.0,706.0 L364.0,706.0 L355.0,695.0 L358.0,693.0 L360.0,693.0 L364.0,691.0 L369.0,686.0 L369.0,684.0 L371.0,680.0 L372.0,672.0 L368.0,668.0 L324.0,668.0 L323.0,667.0 Z M329.0,685.0 L331.0,678.0 L334.0,676.0 L351.0,676.0 L352.0,677.0 L357.0,677.0 L358.0,678.0 L357.0,682.0 L354.0,685.0 L350.0,685.0 L349.0,686.0 L330.0,686.0 Z" fill="#161616"/>
<path d="M434.0,669.0 L432.0,667.0 L431.0,668.0 L418.0,668.0 L380.0,706.0 L381.0,707.0 L382.0,706.0 L383.0,707.0 L384.0,706.0 L395.0,706.0 L395.0,705.0 L402.0,699.0 L428.0,699.0 L430.0,702.0 L431.0,707.0 L432.0,706.0 L443.0,706.0 L444.0,707.0 L445.0,705.0 L442.0,699.0 L442.0,696.0 L441.0,695.0 L441.0,693.0 L439.0,689.0 L439.0,686.0 L436.0,679.0 Z M422.0,678.0 L425.0,682.0 L427.0,691.0 L426.0,692.0 L410.0,692.0 L409.0,690.0 L411.0,689.0 L413.0,686.0 Z M422,678 L423,677 L424,678 L423,679 Z" fill="#161616"/>
<path d="M472.0,672.0 L469.0,678.0 L464.0,694.0 L462.0,697.0 L462.0,701.0 L461.0,702.0 L463.0,705.0 L465.0,706.0 L511.0,706.0 L512.0,705.0 L514.0,700.0 L516.0,698.0 L505.0,698.0 L504.0,699.0 L503.0,698.0 L501.0,699.0 L496.0,699.0 L495.0,698.0 L493.0,699.0 L492.0,698.0 L490.0,698.0 L489.0,699.0 L480.0,699.0 L479.0,698.0 L477.0,698.0 L476.0,696.0 L479.0,690.0 L481.0,682.0 L484.0,677.0 L486.0,677.0 L487.0,676.0 L519.0,676.0 L521.0,677.0 L523.0,672.0 L520.0,668.0 L477.0,668.0 Z" fill="#161616"/>
<path d="M600.0,667.0 L599.0,668.0 L552.0,668.0 L550.0,671.0 L549.0,676.0 L547.0,679.0 L546.0,684.0 L544.0,687.0 L543.0,692.0 L541.0,695.0 L541.0,697.0 L539.0,700.0 L537.0,707.0 L538.0,706.0 L588.0,706.0 L588.0,703.0 L590.0,699.0 L555.0,699.0 L554.0,698.0 L554.0,696.0 L555.0,695.0 L555.0,693.0 L557.0,691.0 L589.0,691.0 L592.0,684.0 L560.0,684.0 L559.0,683.0 L562.0,677.0 L566.0,677.0 L567.0,676.0 L568.0,677.0 L583.0,677.0 L584.0,676.0 L585.0,677.0 L596.0,677.0 L598.0,675.0 Z" fill="#161616"/>
<path d="M658.0,268.0 L635.0,352.0 L842.0,353.0 L853.0,357.0 L859.0,363.0 L862.0,371.0 L861.0,388.0 L855.0,402.0 L843.0,413.0 L830.0,418.0 L813.0,418.0 L812.0,419.0 L811.0,418.0 L806.0,419.0 L804.0,418.0 L802.0,419.0 L801.0,418.0 L798.0,419.0 L796.0,418.0 L795.0,419.0 L794.0,418.0 L779.0,418.0 L778.0,419.0 L777.0,418.0 L775.0,419.0 L773.0,418.0 L766.0,419.0 L765.0,418.0 L764.0,419.0 L761.0,418.0 L760.0,419.0 L759.0,418.0 L758.0,419.0 L757.0,418.0 L750.0,419.0 L748.0,418.0 L742.0,419.0 L741.0,418.0 L622.0,419.0 L621.0,418.0 L620.0,419.0 L624.0,425.0 L678.0,490.0 L787.0,616.0 L950.0,616.0 L841.0,499.0 L876.0,492.0 L896.0,485.0 L916.0,475.0 L933.0,463.0 L944.0,453.0 L952.0,444.0 L964.0,426.0 L971.0,411.0 L977.0,391.0 L980.0,371.0 L980.0,357.0 L978.0,342.0 L973.0,325.0 L967.0,313.0 L958.0,301.0 L945.0,289.0 L925.0,278.0 L902.0,271.0 L882.0,268.0 L879.0,269.0 L878.0,268.0 L824.0,268.0 L823.0,267.0 L821.0,268.0 Z" fill="url(#gradJRC)"/>
<path d="M671.0,668.0 L669.0,675.0 L667.0,678.0 L665.0,686.0 L661.0,694.0 L660.0,699.0 L657.0,704.0 L657.0,707.0 L658.0,706.0 L707.0,706.0 L710.0,699.0 L674.0,699.0 L673.0,698.0 L675.0,693.0 L677.0,691.0 L708.0,691.0 L711.0,684.0 L680.0,684.0 L679.0,683.0 L680.0,678.0 L681.0,677.0 L711.0,677.0 L712.0,676.0 L713.0,677.0 L716.0,677.0 L719.0,671.0 L719.0,668.0 Z" fill="#161616"/>
<path d="M748.0,668.0 L745.0,678.0 L743.0,681.0 L742.0,686.0 L740.0,689.0 L739.0,694.0 L737.0,697.0 L736.0,702.0 L734.0,705.0 L734.0,707.0 L735.0,706.0 L747.0,706.0 L748.0,705.0 L748.0,703.0 L751.0,697.0 L752.0,692.0 L754.0,689.0 L755.0,684.0 L757.0,682.0 L777.0,706.0 L790.0,706.0 L790.0,703.0 L792.0,700.0 L792.0,698.0 L793.0,697.0 L794.0,692.0 L796.0,689.0 L798.0,681.0 L801.0,676.0 L803.0,668.0 L791.0,668.0 L790.0,669.0 L790.0,671.0 L788.0,674.0 L784.0,687.0 L781.0,692.0 L762.0,668.0 Z" fill="#161616"/>
<path d="M818.0,700.0 L819.0,704.0 L822.0,706.0 L834.0,706.0 L835.0,707.0 L847.0,707.0 L848.0,706.0 L849.0,707.0 L860.0,707.0 L861.0,706.0 L863.0,707.0 L864.0,706.0 L868.0,706.0 L874.0,701.0 L878.0,688.0 L880.0,685.0 L880.0,683.0 L879.0,684.0 L852.0,684.0 L849.0,691.0 L850.0,692.0 L852.0,691.0 L863.0,691.0 L864.0,692.0 L864.0,694.0 L861.0,698.0 L859.0,699.0 L836.0,699.0 L833.0,697.0 L833.0,694.0 L834.0,693.0 L836.0,685.0 L838.0,682.0 L838.0,680.0 L842.0,676.0 L869.0,676.0 L873.0,679.0 L882.0,679.0 L883.0,677.0 L883.0,671.0 L880.0,668.0 L835.0,668.0 L834.0,669.0 L832.0,669.0 L829.0,671.0 L826.0,677.0 L826.0,679.0 L824.0,682.0 L824.0,684.0 L821.0,690.0 L821.0,692.0 L819.0,696.0 L819.0,699.0 Z" fill="#161616"/>
<path d="M997.0,309.0 L995.0,311.0 L995.0,315.0 L998.0,326.0 L1000.0,342.0 L999.0,370.0 L993.0,397.0 L978.0,431.0 L959.0,457.0 L949.0,467.0 L935.0,478.0 L922.0,486.0 L907.0,493.0 L892.0,498.0 L881.0,500.0 L918.0,546.0 L941.0,569.0 L970.0,590.0 L1002.0,605.0 L1033.0,613.0 L1055.0,616.0 L1274.0,616.0 L1313.0,535.0 L1090.0,534.0 L1061.0,530.0 L1044.0,524.0 L1035.0,519.0 L1018.0,502.0 L1012.0,490.0 L1008.0,474.0 L1008.0,456.0 L1010.0,445.0 L1016.0,427.0 L1023.0,413.0 L1035.0,396.0 L1048.0,383.0 L1062.0,373.0 L1082.0,363.0 L1103.0,357.0 L1132.0,354.0 L1135.0,355.0 L1136.0,354.0 L1238.0,354.0 L1239.0,355.0 L1240.0,354.0 L1270.0,354.0 L1271.0,355.0 L1272.0,354.0 L1302.0,354.0 L1303.0,355.0 L1306.0,354.0 L1350.0,268.0 L1347.0,267.0 L1344.0,268.0 L1208.0,268.0 L1207.0,267.0 L1199.0,268.0 L1191.0,267.0 L1189.0,268.0 L1176.0,268.0 L1175.0,267.0 L1174.0,268.0 L1170.0,267.0 L1147.0,268.0 L1146.0,267.0 L1144.0,268.0 L1140.0,267.0 L1139.0,268.0 L1108.0,269.0 L1084.0,273.0 L1055.0,281.0 L1033.0,290.0 Z" fill="url(#gradJRC)"/>
<path d="M926.0,668.0 L913.0,668.0 L912.0,669.0 L912.0,671.0 L910.0,674.0 L910.0,676.0 L908.0,679.0 L908.0,681.0 L906.0,684.0 L906.0,686.0 L904.0,689.0 L904.0,691.0 L902.0,694.0 L902.0,696.0 L898.0,706.0 L911.0,706.0 L913.0,702.0 L913.0,700.0 L915.0,697.0 L915.0,695.0 L917.0,692.0 L918.0,687.0 L920.0,684.0 L921.0,679.0 L923.0,676.0 L924.0,671.0 Z" fill="#161616"/>
<path d="M1005.0,667.0 L1004.0,668.0 L992.0,668.0 L992.0,670.0 L990.0,673.0 L989.0,678.0 L987.0,681.0 L986.0,686.0 L983.0,692.0 L981.0,691.0 L981.0,690.0 L963.0,669.0 L963.0,668.0 L949.0,668.0 L948.0,673.0 L946.0,676.0 L945.0,681.0 L943.0,684.0 L941.0,692.0 L939.0,695.0 L939.0,697.0 L935.0,705.0 L935.0,707.0 L936.0,706.0 L947.0,706.0 L948.0,707.0 L949.0,706.0 L954.0,690.0 L956.0,687.0 L956.0,685.0 L958.0,683.0 L969.0,695.0 L977.0,706.0 L991.0,706.0 L992.0,702.0 L994.0,699.0 L994.0,697.0 L996.0,694.0 L999.0,683.0 L1003.0,675.0 Z" fill="#161616"/>
<path d="M1030.0,668.0 L1027.0,674.0 L1026.0,679.0 L1024.0,682.0 L1023.0,687.0 L1021.0,690.0 L1021.0,692.0 L1019.0,695.0 L1019.0,697.0 L1017.0,700.0 L1015.0,707.0 L1016.0,706.0 L1066.0,706.0 L1068.0,699.0 L1033.0,699.0 L1032.0,697.0 L1035.0,691.0 L1067.0,691.0 L1068.0,687.0 L1070.0,684.0 L1039.0,684.0 L1038.0,683.0 L1038.0,681.0 L1041.0,677.0 L1045.0,677.0 L1046.0,676.0 L1048.0,677.0 L1053.0,677.0 L1054.0,676.0 L1055.0,677.0 L1063.0,677.0 L1064.0,676.0 L1065.0,677.0 L1071.0,677.0 L1072.0,676.0 L1073.0,677.0 L1075.0,677.0 L1077.0,674.0 L1078.0,668.0 Z" fill="#161616"/>
<path d="M1104.0,668.0 L1099.0,679.0 L1099.0,681.0 L1097.0,684.0 L1094.0,694.0 L1092.0,697.0 L1091.0,702.0 L1089.0,704.0 L1089.0,707.0 L1090.0,706.0 L1140.0,706.0 L1143.0,699.0 L1107.0,699.0 L1106.0,698.0 L1106.0,696.0 L1109.0,691.0 L1142.0,691.0 L1144.0,684.0 L1112.0,684.0 L1111.0,683.0 L1114.0,677.0 L1125.0,677.0 L1126.0,676.0 L1127.0,677.0 L1149.0,677.0 L1151.0,674.0 L1151.0,672.0 L1153.0,668.0 Z" fill="#161616"/>
<path d="M1163.0,706.0 L1177.0,706.0 L1179.0,702.0 L1180.0,697.0 L1183.0,694.0 L1194.0,694.0 L1196.0,695.0 L1204.0,706.0 L1220.0,706.0 L1211.0,695.0 L1214.0,693.0 L1217.0,693.0 L1221.0,691.0 L1225.0,686.0 L1225.0,684.0 L1227.0,680.0 L1227.0,675.0 L1228.0,674.0 L1227.0,673.0 L1227.0,671.0 L1223.0,668.0 L1178.0,668.0 L1176.0,672.0 L1176.0,674.0 L1174.0,677.0 L1172.0,685.0 L1170.0,688.0 L1169.0,693.0 L1167.0,696.0 L1166.0,701.0 Z M1185.0,685.0 L1186.0,680.0 L1189.0,676.0 L1209.0,676.0 L1213.0,678.0 L1212.0,683.0 L1209.0,685.0 L1203.0,685.0 L1202.0,686.0 L1201.0,685.0 L1199.0,685.0 L1198.0,686.0 L1192.0,686.0 L1191.0,685.0 L1190.0,686.0 L1186.0,686.0 Z" fill="#161616"/>
<path d="M1253.0,691.0 L1255.0,692.0 L1332.0,692.0 L1334.0,690.0 L1336.0,686.0 L1336.0,684.0 L1330.0,684.0 L1329.0,683.0 L1328.0,684.0 L1271.0,684.0 L1270.0,683.0 L1268.0,684.0 L1264.0,684.0 L1263.0,683.0 L1262.0,684.0 L1255.0,684.0 L1254.0,685.0 Z" fill="#3c6fff"/>
</g>
</svg>